<?xml version="1.0" encoding="utf-8"?>
<!-- Generator: Adobe Illustrator 16.0.0, SVG Export Plug-In . SVG Version: 6.00 Build 0)  -->
<!DOCTYPE svg PUBLIC "-//W3C//DTD SVG 1.1//EN" "http://www.w3.org/Graphics/SVG/1.1/DTD/svg11.dtd">
<svg version="1.1" id="Layer_1" xmlns="http://www.w3.org/2000/svg" xmlns:xlink="http://www.w3.org/1999/xlink" x="0px" y="0px"
	 width="960px" height="400px" viewBox="0 80 960 400" enable-background="new 0 80 960 400" xml:space="preserve">
<g>
	<path id="490" class="Iredell" fill="#D16536" stroke="#231F20" stroke-miterlimit="10" d="M365.966,267.401h23.111l-6.375-21.359
		c0,0,7.75-16.766,8.375-32.516c0,0,0.125-8.754-1.25-14.127l-29.763,0.002c0,0,2.263,22.971-10.487,32.61
		c0,0,5.375,4.64,4.375,9.515c0,0,9-0.5,8.75,5.25c0,0-1.125,2.625,4.75,6c0,0,4.5,2.5-1.75,10L365.966,267.401z"/>
	<path id="820" class="Sampson" fill="#004F7A" stroke="#231F20" stroke-miterlimit="10" d="M652.202,301.776c0,0-0.375,5.375,0.875,14c0,0,1.125,6.5,0,11.25
		c0,0-1.25,4.156,1.75,9c0,0,3.048,3.5-1.875,12.188c0,0-2.875,5.52-2.25,8.854c0,0,5.596,1.609,7.173,4.658
		c0,0-2.481,6.041-6.337,9.676c0,0-4.773,4.75-6.336,6.125c0,0-14.58-25.016-24.009-31.508c0,0-4.925-3.178-7.333-7.836
		c0,0-1.113-3.996-5.511-6.264c0,0-5.605-2.881-6.71-15.955c0,0-0.375-1.562,1.697-3.238c0,0,3-3.068,1.464-13.729
		c0,0,3.374-0.273,3.7-5.186c0,0,0.264-5.91,5.451-5.535c0,0,5.75,7.688,11.438,6.75c0,0,6-1.215,11.188-4.5
		C636.577,290.526,641.827,298.089,652.202,301.776z"/>
	
	<path id="240" class="Columbus" fill="#004F7A" stroke="#231F20" stroke-miterlimit="10" d="M563.617,416.065c0,0,25.085,29.006,42.835,42.254
		c0,0,3.334-0.918,3.084-5.002c0,0-0.5-3.416,2.083-4.25c0,0,6.585-1.836,5.75-8.334c0,0-1.331-8.752,4.585-9.834
		c0,0,2.417-0.252,4.167,1.832c0,0,2.832,3.332,4.915,0c0,0,5.75-9.668,9.578-8.547c0,0,6.339,1.545,7.755-2.121
		c0,0,4.75-10,8-14.25c0,0-2.666,1.223-5.166-1.807c0,0-2.363-3.404-7.182-3.008c0,0-3.969,3.445-14.561,1.588
		c0,0-8.494-0.883-13.626-5.58c0,0-6.021-5.535-15.285-4.676c0,0-5.181,1.756-16.972,0.119c0,0-1.52,2.389-5.822,2.541
		c0,0-4.057,0.236-4.055,3.986c0,0,0.147,3.807-2.842,5.404c0,0-1.836,0.895-2.871,5.662
		C567.988,412.044,567.198,415.401,563.617,416.065z"/>
	
	<path id="420" class="Halifax" fill="#BDAA91" stroke="#231F20" stroke-miterlimit="10" d="M672.869,134.15v17.889c0,0-0.294,11.608-9.418,22.11
		c0,0,7-1.167,10.667,2.086c0,0,5.25,4.333,9.25,3.833c0,0,2.5,0.04,4.083-1.583c0,0,1.84-2.332,3.837-0.416
		c0,0,2.079,2.412,6.663,2.039c0,0,2.266-0.19,4.167,1.544c0,0,1.249,2.334,5.583,1.667c0,0,4.335-1.666,9.001,4.084l9.833,9.166
		c0,0,3.331-1.92,3.581-5.003c0,0,0.916-8,11.583-9.75c0,0,1.305-3.346-6.41-8.834c0,0-2.327-2.252-5.5-1.917
		c0,0-2.591,0.335-2.239-4.582c0,0,0.5-1.865-3.555-6.778c0,0-2.376-5.37-4.713-5.049c0,0-1.834-0.589-5.431,1.69
		c0,0-5.82,2.386-6.891-2.352c0,0-0.68-2.18,1.957-5.3c0,0,3.793-4.871-3.63-7l-21.167-7.545H672.869z"/>
	
	<path id="760" class="Randolph" fill="#D16536" stroke="#231F20" stroke-linejoin="bevel" stroke-miterlimit="10" d="M510.202,265.276l0.146-48.54h-11.062
		l-3.25-1.084l-38.25-0.887l-1.083,3.221l0.173,48.104h39.327c0,0,3-2.771,8.5-1.563L510.202,265.276z"/>
	
	<path id="290" class="Davidson" fill="#88765E" stroke="#231F20" stroke-linejoin="round" stroke-miterlimit="10" d="M456.877,266.477l-0.175-48.491
		l1.257-3.217l-0.475-11.95c0,0-4.157,0.454-7.595-1.105c0,0-3.979-2.106-7.375-1.25l-3.062,4.375l-13.565,0.188l-3.715,3.731
		c0,0,5.947,6.057,1.155,9.144c0,0-2.449,0.802-1.704,2.861c0,0,1.538,3.468-2.983,4.139l-4.188,0.625l0.856,11.014l3.81,2.946
		c0,0,3.501-1.25,5.417,1.501l4,0.084c0,0-0.936,4.683,2.895,8.851c0,0,4.864,5.225,7.984,7.688c0,0,4.871,4.37,4.454,9.792
		l1.246,0.705C445.114,268.106,447.807,266.785,456.877,266.477z"/>
	
	<path id="130" class="Cabarrus" fill="#C3943C" stroke="#231F20" stroke-miterlimit="10" d="M411.041,306.771c0,0,4.286-0.869,8.036-14.244
		c0,0,1.875-7.375,7.625-14.125c0,0,5.458-6.075,5.167-9.913h-17.333l-2.917-1.088h-28.396c0,0-1.646,8.893,3.229,15.584
		c0,0,6.518,6.195,8.009,12.807c0,0,1.619,5.242,8.472,7.844C402.932,303.636,407.726,304.884,411.041,306.771z"/>
	
	<path id="970" class="Wilkes" fill="#C3943C" stroke="#231F20" stroke-linejoin="round" stroke-miterlimit="10" d="M372.077,162.151l-0.75,37.248h-12
		c0,0-2.375,0.127-3.5,1.877c0,0-3.5,3.625-6.25,0.375c0,0-2.625-3-5.375,0c0,0-2.375,1.75-4.25-0.125c0,0-1.745-2.036-5.125-0.125
		c0,0-4.444,2.256-7.597,4.815c0,0-7.931-13.063-22.167-14.689c0,0,13.595-9.841,6.992-16.733c0,0,1.522-4.268,7.022-4.643
		c0,0,4.849,0.25,4.237-4c0,0-0.01-9.062,4.001-8.531c0,0,1.887,0.448,3.012,2.031c0,0,4.208,4.75,6.542-1.333
		c0,0,2.083-4.792,3.667-6.333c0,0,1.229-1.896,3.528-0.037c0,0,1.764,1.078,3.54-1.292c0,0,1.765-3.754,6.304,0.123
		c0,0,1.628,1.539,3.044,6.289c0,0,0.5,3.167,4.167,0.083c0,0,3.333-2.332,7.833,1.084
		C368.952,158.235,371.036,159.901,372.077,162.151z"/>

	<path id="860" class="Surry" fill="#88765E" stroke="#231F20" stroke-linejoin="round" stroke-miterlimit="10" d="M370.003,124.234l46.781,1.5
		l-1.333,47.419h-6.125l-3-3.171c0,0-1.5-1.791-2.833,0.417c0,0-1.458,2.25-2.792,0.375c0,0-1.625-2-2.875,0.375
		c0,0-2.375,3.791-4.792,2.583c0,0-7.583-4.664-10.166-3.414l-10.792-8.167c0,0-3.42-7.001-9.564-5.583c0,0,2.109-1.789,1.149-7.311
		c0,0-0.608-7.61,6.341-13.857V124.234z"/>
	
	<path id="020" class="Alexander" fill="#88765E" stroke="#231F20" stroke-linejoin="round" stroke-miterlimit="10" d="M325.827,229.901l7.284,0.319
		c0,0,3.475-2.237,6.216-2.067c0,0,5-0.781,10.25,3.858c0,0,11.862-6.235,10.487-32.61c0,0-2.737-0.125-4.237,1.875
		c0,0-3.375,3.75-6.25,0.375c0,0-2.875-2.875-5.375,0c0,0-2,1.75-4.25-0.125c0,0-1.284-2.127-5.125-0.125
		c0,0-6.167,3.203-8.521,5.664c0,0-2.864,6.422-0.171,11.316c0,0,1.067,2.395-0.683,6.645
		C325.452,225.026,324.077,228.026,325.827,229.901z"/>
	
	<path id="180" class="Catawba" fill="#C3943C" stroke="#231F20" stroke-miterlimit="10" d="M325.577,230.776c0,0-4.444,6.596-7.972,15.235
		c0,0-5.528,11.312-9.403,14.976l57.5,1.789c0,0,6.375-7,1.75-10c0,0-5.25-2.75-4.75-6c0,0,0.75-5.5-8.75-5.25
		c0,0,0.875-4.64-4.375-9.515c0,0-5.875-5.36-12.458-3.485C337.119,228.526,332.327,230.651,325.577,230.776z"/>
	
	<path id="870" class="Swain" fill="#C3943C" stroke="#231F20" stroke-miterlimit="10" d="M63.001,265.039c0,0,5.45-0.056,10.45-3.222
		c0,0,17.168-12.669,20.417-12c0,0,3.667-0.669,10.917,1.998c0,0,2.833,1.333,6.333-2.086c0,0,5.418-4.748,10.084-7.248
		c0,0,4.333-3.083,11.667-2.166c0,0,6.499,0.831,7,6.5c0,0,0.166,3.248,2.416,7.998c0,0,3,5.249,0,8.666c0,0-1,1.084-1.75,2.084
		c0,0-3.25-2.166-6.75-1.75c0,0-2.833,0-7.083,3.25c0,0-6.667,4.75-6.583,7.75c0,0-0.417,1.582,1.833,3.582
		c0,0,1.916,1.586,1.166,4.586c0,0-1.666,5.473-13.083,7.277c0,0-14.164,2.896-23.082,2.893c0,0-1.832-6.826,11.833-10.582
		c0,0,3.749-1.338,0.119-5.805c0,0-1.871-3.072-18.454-2.344C80.451,274.421,64.802,275.429,63.001,265.039z"/>
	
	<path id="380" class="Graham" fill="#88765E" stroke="#231F20" stroke-miterlimit="10" d="M48.202,290.401c0,0,3.25-1.998,4.083-6.334
		c0,0,3.5-14.998,6.167-16.998c0,0,2.605-2.328,5-2c0,0-1,9.833,18.667,9.333c0,0,15.833-0.868,17.5,3.316c0,0,2,3.184-0.833,4.85
		c0,0-12.5,2.996-11.833,10.582c0,0-2.667,5.914-10.5,4c0,0-7.25-2.418-12.823,1.602c0,0-3.76,2.564-6.249,0
		C57.38,298.753,52.052,289.159,48.202,290.401z"/>
	
	<path id="200" class="Cherokee" fill="#D16536" stroke="#231F20" stroke-miterlimit="10" d="M25.619,321.735c0,0,0-22.334,1.667-23.666
		c0,0,0.667-2.168,5.417-1.668c0,0,3.788-0.092,6.25-2c0,0,4.734-3.018,9.25-4c0,0,2.417-1.5,7.25,5.25c0,0,0.859,1.893,2.25,3.5
		c0,0,2.25,2.082,6.5-0.75c0,0,3.75-3,12.25-1.25c0,0,6.833,2.25,10.5-4c0,0,0.833,13.082-4.167,15.582c0,0-2.646,1.043-4.5,0.168
		c0,0-4.5-0.834-7,3.666c0,0-6,9.5-11.333,10.166C59.952,322.733,37.867,323.403,25.619,321.735z"/>
	
	<path id="220" class="Clay" fill="#C3943C" stroke="#231F20" stroke-miterlimit="10" d="M59.327,322.751l41.625-0.725c0,0-2.375-5-11-10.75
		c0,0-3.426-2.217-6.838-2.734c0,0-1.662,1.484-5.524,0.301c0,0-4.013-0.301-6.304,3.725
		C71.286,312.567,65.451,322.101,59.327,322.751z"/>
	
	<path id="560" class="Macon" fill="#88765E" stroke="#231F20" stroke-miterlimit="10" d="M83.544,308.233c0,0,4.033-2.582,3.408-15.082
		c0,0,26.51-1.359,32.63-6.242c0,0,6.12,1.992,6.12,7.617c0,0-0.25,5.484,5.375,5.367c0,0,7.125-0.742,5.75,1.508
		c0,0-2,2.75-1.875,4c0,0-0.375,1.75,3.25,3.75c0,0,2.125,1.25,1.5,3.875c0,0-0.5,2.621,1.875,3.875c0,0,3.125,2,1.375,3.625
		c0,0-1,1.625-42,1.5C100.952,322.026,96.012,313.19,83.544,308.233z"/>
	
	<path id="880" class="Transylvania" fill="#C3943C" stroke="#231F20" stroke-miterlimit="10" d="M184.621,278.009c0,0,2.333,4.75,8.833,9.582
		c0,0,4.25,2.75,3,7.084c0,0-1.666,4.916,0.583,8.75c0,0,1,1.666,2.5,3.498c0,0-0.333,2.834-3.667,3.418c0,0-3.25,0.416-6.333,3.25
		c0,0-4,3.082-9.833,1.166c0,0-4-1.584-9.167,0.5c0,0-3.528,1.75-13.508,2.535c0,0,2.925-1.035,3.008-3.869
		c0,0-0.909-7.23,4.626-11.377c0,0,3.952-2.834,1.663-9.395c0,0,11.785-0.176,17.04-14.91
		C183.367,278.241,183.955,278.427,184.621,278.009z"/>
	
	<path id="440" class="Haywood" fill="#004F7A" stroke="#231F20" stroke-miterlimit="10" d="M183.367,278.241c0,0-1,4.918-5.333,8.668
		c0,0-5.662,6.4-11.706,6.242c0,0-5.088,0.771-5.899-4.693c0,0-0.212-3.234-3.97-5.893c0,0-4.171-3.332-5.589-7.744
		c0,0-0.724-3.28-4.862-2.554c0,0-3.85,1.457-3.369-1.7c0,0,1.042-3.598-2.102-5.004c0,0,3.496-3.319,3.083-5.903
		c0,0,0.112-2.253-1.652-5.543c0,0-1.878-3.587-2.155-7.771c0,0-0.777-6.002-8.693-6.177c0,0,6.584-12.424,13.5-12.841
		c0,0,8.833-0.998,14.167,3.25c0,0,8.225,3.334,9.75,14c0,0-0.25,4.167,5,7.334c0,0,5.417,2.833,6.879,7.565
		c0,0,1.371,2.685-1.545,8.686C178.868,268.163,175.451,272.912,183.367,278.241z"/>
	
	<path id="500" class="Jackson" fill="#D16536" stroke="#231F20" stroke-miterlimit="10" d="M166.327,293.151c0,0,2.125,5.25-1.125,8.875
		c0,0-5.375,4.75-5.25,10.625c0,0,1,3.125-3.125,5.25c0,0,0.381,0.803-14.247,2.775c0,0,2.789-0.859-1.003-3.775
		c0,0-2.458-1.502-1.875-3.875c0,0,0.84-2.141-1.5-3.875c0,0-4.32-2.322-3.089-4.68c0,0,0.756-1.988,1.714-3.07
		c0,0,0.896-1.543-1.935-1.562c0,0-5.176,0.047-5.83-0.193c0,0-3.61-1.246-3.36-5.119c0,0,0.427-4.861-6.12-7.617
		c0,0,6.535-3.936,2.369-8.514c0,0-3.166-2.658-0.894-5.978c0,0,7.243-8.943,13.975-8.649c0,0,2.835,0.038,5.502,1.795
		c0,0,2.761,1.085,2.25,4.342c0,0-1.167,3.335,2.417,2.583c0,0,4.25-1.665,5.667,2.333c0,0,0.51,3.234,7.094,9.15
		c0,0,1.989,1.102,2.739,5.852C160.701,289.823,162.118,293.655,166.327,293.151z"/>
	
	<path id="450" class="Henderson" fill="#88765E" stroke="#231F20" stroke-linejoin="round" stroke-miterlimit="10" d="M199.538,306.923
		c0,0,1.73-2.301,8.814-2.551c0,0,4.518,0.045,7.184,1.963c0,0,2.75-5.168,8.583-6.084c0,0-0.083-4.646,3.417-8.031
		c0,0,4.833-3.803,5-8.553c0,0,1.667-8.391-7.833-13.583c0,0-1.751,2.817-5.818,1.838c0,0-1.431-1.171-3.598,1.079
		c0,0-2.25,3.333-5.333,1.5c0,0-3.667-2.417-6.917,0.082c0,0-4.084,4.084-7.437,1.018c0,0-3.147-4.434-5.772-1.361
		c0,0-2.458,2.844-5.206,3.77c0,0,2.584,5.008,8.833,9.582c0,0,4.334,3.008,3,7.084
		C196.454,294.675,193.873,301.847,199.538,306.923z"/>
	
	<path id="110" class="Buncombe" fill="#D16536" stroke="#231F20" stroke-linejoin="round" stroke-miterlimit="10" d="M168.212,242.825
		c0,0,7.159,2.679,11.993,0.596c0,0,15.25-10.25,31.917-13.334c0,0,10.917-1.664,11.75,2.667c0,0,0.75,7,8.686,9.417
		c0,0-3.104,1.002-2.177,3.919c0,0,1.657,2.999,1.657,4.832c0,0,0.333,2.833-1,5.583c0,0-2.5,3.703,7.333,6.5
		c0,0-3.75,0.917-3.836,4.696c0,0,0.836,5.388-4.732,5.879c0,0-0.85-0.168-5.099-3.496c0,0-1.751,2.255-4.844,2.021
		c-2.412-0.183-1.781-1.193-5.329,1.747c-3.91,3.238-4.828-0.074-8.655-0.375c0,0-1.416-0.322-4.293,2.228
		c0,0-3.315,2.693-6.263-0.461c0,0-3.198-3.987-5.838-0.629c0,0-4.236,4.035-5.776,3.395c0,0-2.743-0.861-3.97-3.025
		c0,0-3.191-3.326-0.61-7.36c0,0,5.676-8.421-4.205-14.853C174.918,252.771,167.97,249.477,168.212,242.825z"/>
	
	<path id="570" class="Madison" fill="#C3943C" stroke="#231F20" stroke-miterlimit="10" d="M151.502,227.602c0,0,3.197-6.931,7.948-7.014
		c0,0,5.071,1.239,6.989-2.51c0,0,4.094-12.657,7.26-13.824c0,0,1.5-0.583,2.417,0.917c0,0,1.5,2.584,4-0.666
		c0,0,10.333-12.25,14.417-12.584c0,0,4.083-0.501,4.833,2.499c0,0,0.833,7.083,2.583,7.75c0,0,3.75,1.417,9.25-2
		c0,0,1.083,10.5,0,17.5c0,0,0.576,0.348,3.75,0.835c0,0,2.75,0.334,2.75,4.25v7.017c0,0-12.468-1.637-37.151,13.423
		c0,0-4.407,2.367-12.336-0.37C168.212,242.825,166.14,230.283,151.502,227.602z"/>
	
	<path id="995" class="Yancey" fill="#004F7A" stroke="#231F20" stroke-miterlimit="10" d="M211.199,200.17l8.749-7.585c0,0,4.75-0.166,5.333,5.667
		c0,0,0,3.417,0.75,4.417c0,0,2.045-2.644,3.667-3.25c0,0,2.25-1.333,2.167,3.25c0,0-0.25,3.166,3.167,2.416
		c0,0,5.75-1.583,4.712,2.866c0,0-1.374,3.301,2.538,7.051c0,0,6.749,6.331,2.333,17.248c0,0-4.281,10.757-12.057,9.92
		c0,0-6.352-1.58-8.397-8.125c0,0-0.629-4.711-6.46-4.273c0,0,0.356-7.703-0.27-8.907c0,0-0.785-2.068-2.48-2.359
		c0,0-3.165-0.416-3.75-0.835C211.199,217.67,212.201,214.007,211.199,200.17z"/>
	
	<circle id="610" class="Mitchell" fill="#BDAA91" stroke="#231F20" stroke-miterlimit="10" cx="197.983" cy="247.542" r="7.5"/>
	<path fill="#88765E" stroke="#231F20" stroke-miterlimit="10" d="M219.948,192.585c0,0-1.746-2.56,5.504-8.435
		c0,0,7-6.386,14.875-5.261c0,0,4.875,1.011,6.625,3.636c0,0-1.75,6.25,2.375,9.364c0,0,7.375,4.136,5.737,9.076
		c0,0-1.737,3.81-0.487,8.935c0,0,2.5,8.75,10,6.5c0,0-1.625,5.5-8.375,7.25c0,0-8.901,1.562-10.75,6.121
		c0,0,3.286-8.275-3.982-15.636c0,0-2.934-3.384-1.726-6.185c0,0,1.34-3.562-3.164-3.119c0,0-4.471,1.18-4.645-1.328
		c0,0,0.146-4.424-1.606-4.264c0,0-2.218,0.697-4.297,3.429c0,0-1.045-1.315-0.75-4.417
		C225.282,198.252,225.444,193.02,219.948,192.585z"/>
	
	<path id="750" class="Polk" fill="#004F7A" stroke="#231F20" stroke-miterlimit="10" d="M224.119,300.251c0,0,9.208-1.35,17.458,2.4l22.875,0.326
		c0,0-0.375-5.076-4.75-8.951c0,0-9.125-6.523-15.416-15c0,0-5.749,4-11.729,2.75c0,0,1.02,5.125-3.709,9.227
		C228.848,291.003,224.661,293.726,224.119,300.251z"/>
	
	<path id="810" class="Rutherford" fill="#C3943C" stroke="#231F20" stroke-miterlimit="10" d="M229.404,273.401c0,0,3.17,3.303,3.44,8.428
		c0,0,5.026,1.197,11.442-2.803c0,0,6.121,8.027,12.456,12.701c0,0,6.961,4.078,7.71,11.25h19.625c0,0,4.625-3.951,8.125-18.576v-21
		c0,0-0.125-1.719,0.625-2.609c0,0,1.625-1.766-1.625-2.69c0,0-1.794-0.31-1.919-1.935c0,0-1.206-4.625-4.581-0.766
		c0,0-1.375,2.375-4.875,2c0,0-2.375-0.219-4.25,3.391c0,0-2.875,4.626-8,3.984c0,0-5.625,0.625-7.625-2.125
		c0,0-1.25-1.859-4.906,0.762c0,0-2.969,2.005-8.933,0.738c0,0-7.743-2.75-10.576,0.697c0,0-1.24,1.176-0.975,4.052
		C234.562,268.9,234.254,272.705,229.404,273.401z"/>
	
	<path id="590" class="McDowell" fill="#BDAA91" stroke="#231F20" stroke-miterlimit="10" d="M232.557,242.17c0,0-4.25,1.467-1.24,5.911
		c0,0,2.055,3.151-0.28,8.423c0,0-2.71,4.271,8.04,6.646c0,0,5.647,0.805,9.636,1.277c0,0,3.178,0.74,7.208-1.581
		c0,0,1.905-2.056,4.507,0.332c0,0,8.523,6.847,15.764-3.41c0,0,1.26-2.368,3.635-2.368c0,0,0.5-16.109-13.25-22.5
		c0,0-7.625-4-3.121-7.199c0,0,6.371-3.801,5.871-8.676c0,0-0.5-4.429-3.75-4.375c0,0-1.588,6.883-10.544,9.254
		c0,0-8.841,1.371-10.747,9.746C244.286,233.651,241.287,242.19,232.557,242.17z"/>
	
	<path id="230" class="Cleveland" fill="#D16536" stroke="#231F20" stroke-miterlimit="10" d="M284.077,302.978h30.542c0,0,5.833,4.135,9,3.945l6.5,0.006
		c0,0-0.333-5.029-1.833-6.779c0,0-2.917-2.748-2.833-3.916l-0.083-4.416c0,0,0-1.918-4.25-4.668c0,0-12.417-10.412-12.917-26.163
		l-14.969-0.666c0,0-1.031,1.332-1.031,3.416v20.665C292.202,284.401,289.785,296.304,284.077,302.978z"/>
	
	<path id="120" class="Burke" fill="#004F7A" stroke="#231F20" stroke-miterlimit="10" d="M321.471,237.786c0,0-9.894,21.287-13.269,23.201l-14.969-0.666
		c0,0,0.552-1.603-2.031-2.22c0,0-1.839-0.169-1.919-1.935c0,0-0.664-2.34-2.331-2.303c0,0-1.333-0.073-2.875,2.273
		c0,0-1.208,1.514-4.25,1.264c0,0,0.042-16.25-13.25-22.5c0,0-6.376-3.683-4-6.383c0,0,7.923-4.906,6.524-10.554
		c0,0-0.382-3.026-3.549-3.942c0,0,2.4-9.206,5.733-7.622c0,0,4.251,4.167,7.667,3c0,0,1.917,4.502,5.417,5.251
		c0,0,3.167,0.416,3.167,4.666c0,0,0.001,3.167,5.698,3.833c0,0,6.136,6.416,12.552,11l10.75,0.168L321.471,237.786z"/>
	
	<circle id="180" class="Newton" fill="#BDAA91" stroke="#231F20" stroke-miterlimit="10" cx="334.16" cy="253.542" r="7.5"/>

	<circle id="491" class="Mooresville" fill="#BDAA91" stroke="#231F20" stroke-miterlimit="10" cx="377.734" cy="258.767" r="7"/>

	<circle id="132" class="Kannapolis" fill="#BDAA91" stroke="#231F20" stroke-miterlimit="10" cx="395.125" cy="280.681" r="7"/>

	<circle id="291" class="Lexington" fill="#BDAA91" stroke="#231F20" stroke-miterlimit="10" cx="443.11" cy="242.651" r="7"/>

	<circle id="291" class="Thomasville" fill="#BDAA91" stroke="#231F20" stroke-miterlimit="10" cx="432.887" cy="221.765" r="7"/>
	
	<circle id="761" class="Asheboro" fill="#BDAA91" stroke="#231F20" stroke-miterlimit="10" cx="482.995" cy="251.767" r="7"/>

	<circle id="862" class="Mount Airy" fill="#BDAA91" stroke="#231F20" stroke-miterlimit="10" cx="405.149" cy="133.127" r="7"/>

	<circle id="821" class="Clinton" fill="#BDAA91" stroke="#231F20" stroke-miterlimit="10" cx="633.672" cy="331.183" r="7"/>

	<circle id="241" class="Whiteville" fill="#BDAA91" stroke="#231F20" stroke-miterlimit="10" cx="603.474" cy="406.007" r="7"/>

	<path id="360" class="Gaston" fill="#BDAA91" stroke="#231F20" stroke-miterlimit="10" d="M315.35,280.681h48.936c0,0-0.709,2.721,2.166,5.221
		c0,0,2.25,1.875,0,3.25c0,0-6.25,3-6,9.75c0,0-0.25,2.875,1,5.875c0,0,2.25,5.25-1.625,6.125c0,0-0.5-3.973-6.375-3.973h-23.333
		c0,0,0.188-4.066-2.191-7.129c0,0-3.189-2.643-2.52-5.896c0,0,0.499-3.084-2.232-5.223
		C323.176,288.681,318.319,285.415,315.35,280.681z"/>

	<path id="550" class="Lincoln" fill="#88765E" stroke="#231F20" stroke-linejoin="round" stroke-miterlimit="10" d="M308.202,260.987l57.5,1.789
		c0,0,1.169,4.879-1.416,17.905H315.35C315.35,280.681,308.327,271.573,308.202,260.987z"/>

	<path id="140" class="Caldwell" fill="#D16536" stroke="#231F20" stroke-miterlimit="10" d="M278.952,209.4c0,0,5-5.249,5.75-9.374c0,0,1.875-4.125-5.75-8.25
		c0,0,11.042-2.25,28.146,0c0,0,13.269,2.631,19.562,14.44c0,0-2.958,6.185-0.833,11.435c0,0,1.625,2.625-0.375,7.375
		c0,0-1.471,2.32,0.327,5.223l-4.309,7.537l-4.894-3.76l-10.792,0.124c0,0-7.021-5.251-12.552-11c0,0-5.239-0.792-5.698-3.833
		c0,0,0.792-3.791-3.458-5.036C284.077,214.281,281.202,213.651,278.952,209.4z"/>
	<circle id="181" class="Hickory" fill="#BDAA91" stroke="#231F20" stroke-miterlimit="10" cx="328.471" cy="236.776" r="7.5"/>

	<path id="060" class="Avery" fill="#C3943C" stroke="#231F20" stroke-linejoin="round" stroke-miterlimit="10" d="M246.952,182.526
		c0,0,5.375-6.75,6.625-12.125l11.75-5.125l4,6.25c0,0-2.375,8.125,1.5,9.75c0,0,6.375,0.625,6.292,6.78c0,0-0.667,2.938,3.21,4.529
		c0,0,7.326,4.118,3.602,9.751c0,0-2.104,3.938-4.979,7.063c0,0-3.513,1.05-6.694-2.162c0,0-1.748-3.003-4.339,1.018
		c0,0-2.01,3.503-2.988,8.074c0,0-5.687,2.001-8.77-3.151c0,0-3.61-4.271-1.097-12.212c0,0,1.684-3.946-4.651-8.381
		C250.413,192.585,244.952,189.526,246.952,182.526z"/>

	<path id="950" class="Watauga" fill="#BDAA91" stroke="#231F20" stroke-miterlimit="10" d="M292.452,153.526c0,0-20.625,0.125-27.125,11.75l4,6.25
		c0,0-2.294,8.263,1.5,9.75c0,0,5.752,0.75,6.251,5.875c0,0-0.855,5.797,4.634,4.211c0,0,12.822-1.322,22.843,0.108
		c0,0,8.521-6.694,9.271-11.694c0,0,1.375-3.25-5.625-8.625c0,0-6.31-2.188-7.685-3.938
		C300.518,167.213,294.383,161.651,292.452,153.526z"/>

	<path id="050" class="Ashe" fill="#004F7A" stroke="#231F20" stroke-miterlimit="10" d="M296.202,123.151h28.5v15.5c0,0,9.5,11.25,11.625,19.75
		c0,0-1.5,6-6,1.25c0,0-2.25-3-4.375-1.75c0,0-2.875,1.625-2.625,9.25c0,0,0.75,2.875-4.25,3c0,0-4.919-0.09-7.022,4.643
		c0,0-3.994-3.52-10.32-6.568c0,0-12.104-9.949-11.158-26.324C290.577,141.901,294.741,138.53,296.202,123.151z"/>
	<!--
	<path fill="#004F7A" stroke="#231F20" stroke-miterlimit="10" d="M336.327,239.808"/>-->
	
	<path id="600" class="Charlotte-Mecklenburg" fill="#004F7A" stroke="#231F20" stroke-miterlimit="10" d="M408.119,305.735c0,0-3.167,1.166-5.994,5.5
		c0,0-2.798,5.541-7.673,6.5c0,0-5.125,0.916-7.123,6.301c0,0-2.377,6.365-8.377,6.365c0,0-1.375-0.625-4.125-7.125
		c0,0-4.25-2.5-6.375-7.5c0,0-2.5,6-10.125,5.625v-8.25c0,0,0.283-1.416,3.142-3.209c0,0,1.956-1.578-0.218-5.686
		c0,0-4.049-10.355,5.201-15.105c0,0,2.375-1.25,0-3.25c0,0-3.38-1.73-1.565-8.49c0,0,0.717-3.26,1.079-10.01h17.257
		c0,0-1.271,9.934,3.229,15.584c0,0,6.583,6.166,7.875,12.455c0,0,1.376,6.336,9.876,8.586
		C404.202,304.026,406.973,304.647,408.119,305.735z"/>

	<path id="030" class="Alleghany" fill="#D16536" stroke="#231F20" stroke-linejoin="bevel" stroke-miterlimit="10" d="M324.702,123.151l45.301,1.083V135.4
		c0,0-5.801,4.728-6.385,12.834l0.167,3.918c0,0,0.639,3.777-4.705,6.099c0,0-1.712,1.317-2.608-2.606c0,0-1.521-6.672-6.354-6.401
		c0,0-1.417-0.141-2.516,1.413c0,0-1.233,2.301-3.54,1.292c0,0-2.361-2.422-4.175,0.801c0,0-2.479,3.896-3.208,6.024
		c0,0-2.978-9.706-11.978-20.122V123.151z"/>

	<path id="990" class="Yadkin" fill="#004F7A" stroke="#231F20" stroke-miterlimit="10" d="M371.202,199.4l0.875-26.203l11.926-3.09
		c0,0,3.28,0.079,9.031,3.625c0,0,2.042,1.788,4.792-2.583c0,0,1.291-2.296,2.875-0.375c0,0,1.248,1.869,2.604-0.126
		c0,0,1.514-2.823,3.206-0.472l2.816,2.977h6.125c0,0,2.876,2.126,0,4.75c0,0-2.124,1.503,0.001,4.75c0,0,2.458,4.003-0.709,5.668
		c0,0-3.792,1.708-5.083,4.958c0,0-1,2.294-0.958,6.12L371.202,199.4z"/>

	<circle id="861" class="Elkin" fill="#BDAA91" stroke="#231F20" stroke-miterlimit="10" cx="377.003" cy="168.225" r="7"/>

	<polygon id="850" class="Stokes" fill="#004F7A" stroke="#231F20" stroke-miterlimit="10" points="416.785,125.734 457.952,125.734 457.952,171.776 
		415.49,171.776 	"/>

	<polygon id="790" class="Rockingham" fill="#C3943C" stroke="#231F20" stroke-linejoin="round" stroke-miterlimit="10" points="508.452,126.526 
		457.952,125.734 457.952,171.776 510.202,172.526 509.327,134.401 508.202,132.151 	"/>

	<path id="340" class="Forsyth" fill="#D16536" stroke="#231F20" stroke-linejoin="bevel" stroke-miterlimit="10" d="M415.49,171.776
		c0,0-0.39,1.262,0.724,2.193c0,0,1.472,1.697-0.395,3.564c0,0-2.417,1.736-0.798,4.364c0,0,3.306,4.253-0.277,6.423
		c0,0-6.542,2.393-6.042,11.078l4.018,0.001c0,0,2.107-2.937,4.732,1.626c0,0,3.097,5.685,5,7.438l3.435-3.438l13.565-0.188
		l3.062-4.375c0,0,4.125-0.438,7.375,1.25c0,0,3.688,1.438,7.5,1.125l-0.688-31.062H415.49z"/>

	<polygon id="410" class="Guilford" fill="#BDAA91" stroke="#231F20" stroke-miterlimit="10" points="510.202,172.526 510.369,216.736 498.285,216.736 
		496.035,215.652 457.785,214.765 456.702,171.776 	"/>

	<path id="300" class="Davie" fill="#C3943C" stroke="#231F20" stroke-miterlimit="10" d="M389.827,199.4h22.893c0,0,2.232-2.437,4.01,0.635
		c0,0,3.785,6.679,7.722,11.929c0,0,2.438,3.375-1.125,5.938c0,0-2.312,1.125-1.704,2.861c0,0,1.517,3.014-2.983,4.139l-4.188,0.625
		l0.75,11.125c0,0-13.312-10.188-25.116-14.355C390.086,222.295,392.577,211.838,389.827,199.4z"/>

	<path id="800" class="Rowan" fill="#BDAA91" stroke="#231F20" stroke-miterlimit="10" d="M389.077,267.401l-6.375-21.359c0,0,5.352-11.103,7.384-23.746
		c0,0,15.532,6.19,29.032,17.19c0,0,3.834-0.916,5.417,1.501l4,0.084c0,0-0.667,3.582,1.5,6.916c0,0,2.833,4.502,7.5,8.002
		c0,0,6.5,4.49,6.333,11.412l-10.583,0.338l-1.417,0.75h-17.333l-2.917-1.088H389.077z"/>

		<path id="900" class="Union" fill="#88765E" stroke="#231F20" stroke-linejoin="round" stroke-miterlimit="10" d="M378.952,330.401
		c0,0,5.499,5.834,5.749,12.084c0,0,0.083,8.916,1.5,10.332h45.417l2-45.082l-3.667,2.418c0,0-1.75,1.498-3.333-0.334
		c0,0-1.5-2.17-5.167,0c0,0-5,2.996-7.417-0.25c0,0-3.782-4.414-5.916-3.834c0,0-4.486,2.416-5.994,5.5c0,0-2.828,5.688-8.209,6.635
		c0,0-4.528,0.891-6.455,5.836C387.461,323.706,385.203,330.235,378.952,330.401z"/>
	
	<path id="840" class="Stanly" fill="#D16536" stroke="#231F20" stroke-miterlimit="10" d="M431.869,268.489l1.417-0.75l10.583-0.338
		c0,0,8.833,4.335,9.833,12c0,0,0.583,2.584,2.833,3.584c0,0,1.75,3.582-1.75,8.75c0,0-4.917,6.332,1.583,12.248
		c0,0,5.666,3.75,1.333,7.418c0,0-3.5-6.834-9-3.584c0,0-1.75,1.168-1.667,3l-6.75,0.166c0,0,0.164-8.496-6.668-3.248
		c0,0-4.899,4.209-6.532,2.521c0,0-2.155-2.898-6.06-0.209c0,0-3.616,2.279-6.302,0.234c0,0-2.161-2.594-3.625-3.461
		c0,0,4.885-1.99,8.328-15.453c0,0,1.857-6.721,7.275-12.967C426.702,278.401,432.534,271.824,431.869,268.489z"/>

	<path id="040" class="Anson" fill="#BDAA91" stroke="#231F20" stroke-miterlimit="10" d="M431.617,352.817l2-45.082c0,0,6.251-5.418,6.668,3.248
		l6.75-0.166c0,0,0.023-3.762,5.157-3.84c0,0,4.134,0.424,6.009,6.424c0,0,2.125,6.625,6.75,4.5c0,0,5-3.75,6.875-2.625
		c0,0,2.75,1.375,2.75,5.125c0,0-0.5,1.938,2.125,2.75c0,0,3.75,0.812,0.896,5.523c0,0-2.084,2.664,0.764,4.924
		c0,0,2.277,1.553,1.601,4.553c0,0-0.511,1.438,0.927,3c0,0,2.188,2.125,0,4.25c0,0-5.688,4.646-5.5,7.416H431.617z"/>

	<path id="620" class="Montgomery" fill="#004F7A" stroke="#231F20" stroke-miterlimit="10" d="M488.786,266.236c0,0-38.093-0.925-43.672,1.87
		c0,0,7.755,4.38,8.588,11.295c0,0,0.334,2.418,2.833,3.584c0,0,1.889,3.4-2.181,9.408c0,0-4.569,6.092,1.504,11.1
		c0,0,5.988,3.953,1.791,8.43l0.444,1.152c0,0,2.775,0.41,5.108-0.924c0,0,3-2.25,7.917-1.166c0,0,3.9,0.666,6.117-1.334
		c0,0,2.801-3,6.467-1.416c0,0,9.499,3.334,16.916-0.666c0,0-2.251-0.746-1.5-4.584c0,0,1.166-4.25-2.25-5.75
		c0,0-3.834-1.666-3.5-6.584c0,0,0.416-4.496-2.739-9.221C490.629,281.431,488.538,279.067,488.786,266.236z"/>

	<path id="770" class="Richmond" fill="#C3943C" stroke="#231F20" stroke-miterlimit="10" d="M475.39,352.817c0,0,13.479-0.5,19.979,1.334
		c0,0,4.052,1.531,5.951-0.543c0.045-0.049,0.089-0.102,0.132-0.154c1.834-2.303,1.334-5.719,4.334-7.803
		c0,0,6.166-3.332,3.666-7.832c0,0-3.504-4.041,1.502-9.002c0,0,2.667-3.25,8-4.332c0,0,0.917-3.918-3.185-3.732
		c0,0-4.899,0.398-6.232-2.268c0,0-1.083-1.584-1.166-4.75c0,0,0.161-4.832-7.753-6.166c0,0-7.08,4.162-17.622,0.414
		c0,0-2.646-1.416-5.761,1.668c0,0-2.188,2.236-7.442,1.117c0,0-3.599-0.561-6.885,1.535c0,0-2.925,1.363-4.814,0.771
		c0,0,1.855,6.658,6.858,4.826c0,0,5.825-4.908,7.914-1.83c0,0,2.017,1.746,1.678,4.83c0,0-0.028,1.727,2.691,2.447
		c0,0,2.863,1.033,0.708,4.709c0,0-2.757,2.99,0.419,5.541c0,0,2.112,1.246,1.686,4.064c0,0-0.723,1.822,0.842,3.488
		c0,0,2.951,2.463-1.117,5.23C479.772,346.382,475.408,349.987,475.39,352.817z"/>
	
	<polygon id="170" class="Caswell" fill="#88765E" stroke="#231F20" stroke-linejoin="round" stroke-miterlimit="10" points="508.452,126.526 
		547.577,126.526 547.577,172.526 510.202,172.526 509.452,133.901 508.202,132.151 	"/>

	<polygon id="730" class="Person" fill="#D16536" stroke="#231F20" stroke-linejoin="bevel" stroke-miterlimit="10" points="582.202,126.526 
		582.202,171.776 547.577,172.526 547.577,126.526 	"/>

	<path id="010" class="Alamance" fill="#004F7A" stroke="#231F20" stroke-miterlimit="10" d="M510.369,223.151l-0.167-50.625h27.125v32.875
		c0,0-3.25,8.875,3.625,14l-2.125,3.75H510.369z"/>

	<path id="680" class="Orange" fill="#C3943C" stroke="#231F20" stroke-linejoin="round" stroke-miterlimit="10" d="M565.951,172.127l-28.624,0.398v32.875
		c0,0-3.25,8.625,3.625,14l21.096,0.58C562.048,219.981,567.452,201.776,565.951,172.127z"/>

	<path id="190" class="Chatham" fill="#88765E" stroke="#231F20" stroke-linejoin="round" stroke-miterlimit="10" d="M510.202,265.276l0.167-42.125h28.458
		l2.125-3.75l31.167,0.58c0,0,1.834,5.921-3.5,18.254c0,0-3.228,7.166-1.882,12.464c0,0,0.34,3.827,6.59,4.827l-4.125,6.125
		c0,0-7.5,0.375-8.25-5c0,0-0.375-6.25-6.75-6.125c0,0-3.25-0.5-5.875,4.125c0,0-3.125,5.084-6.562,4.75
		c0,0-2.771-0.375-3.688,1.875c0,0-0.583,1.333-2-0.167c0,0-2.125-1.833-3.5,1.042l-1.542,3.125H510.202z"/>

	<path id="320" class="Durham" fill="#004F7A" stroke="#231F20" stroke-miterlimit="10" d="M582.202,171.776l-16.251,0.352c0,0,1.5,25.605-2.833,40.272
		v7.581h16.167c0,0,3.751-0.414,3.834-3.997c0,0-0.5-4.166,4.583-4.083c0,0,3.246,0.582,5.248-3.417c0,0,4.667-7.167-0.581-11
		l-6.335-5.917c0,0-1.168-1.501-3.667-1.667L582.202,171.776z"/>

	<circle id="681" class="Chapel-Hill" fill="#BDAA91" stroke="#231F20" stroke-miterlimit="10" cx="558.392" cy="214.765" r="7"/>
	<circle fill="#BDAA91" stroke="#231F20" stroke-miterlimit="10" cx="609.997" cy="54.041" r="7"/>

	<path fill="#BDAA91" stroke="#231F20" stroke-miterlimit="10" d="M582.202,126.526h37.417l-8,13.209c0,0-1.417,2.915,0.25,9.791
		c0,0,1.084,8.626-0.416,18.126c0,0-1.25,6.5,3.083,9.333c0,0-4.668,8.082-5.584,19.415c0,0-16.32-8.254-21.493-3.502
		c0,0-2.594-3.248-5.092-2.998L582.202,126.526z"/>
	<path fill="#C3943C" stroke="#231F20" stroke-linejoin="round" stroke-miterlimit="10" d="M630.619,126.068l-11,0.458l-8,13.209
		c0,0-1.415,2.249,0.25,9.791c0,0,1.271,8.897-0.49,18.637c0,0-1.426,10.405,8.24,9.822c0,0,3.165-0.166,3.582-3.833
		c0,0,0.583-4.25,5.5-4.917c0,0,5.416-1.501,5.5-7.167c0,0,0.138-8.949-2.529-17.199
		C631.672,144.869,629.453,136.318,630.619,126.068z"/>
	<path fill="#004F7A" stroke="#231F20" stroke-miterlimit="10" d="M672.869,125.484l-42.25,0.584c0,0-1.757,10.036,1.412,19.977
		c0,0,4.231,13.54,1.2,19.656c0,0,3.824-0.718,7.824,1.782c0,0,1.896,1.416,4.896,1.249c0,0,3.25-0.833,4.417,2.333
		c0,0,0.692,1.755,3.192,1.838c0,0,3.017,0.393,4.021-0.983c0,0,2.452-2.771,5.869,2.229c0,0,7.667-7.668,9.418-22.11V125.484z"/>
	<path fill="#D16536" stroke="#231F20" stroke-linejoin="bevel" stroke-miterlimit="10" d="M672.869,125.484h75.749
		c0,0,3.421-0.417,7.001,3.747c0,0,1.754,1.336,1.479,3.751c0,0-0.395,1.713-2.145,1.713c0,0-3.083-0.463-5.417,9.37
		c0,0-1.034,4.63-1.334,8.916c0,0-1.663,13.168-7.83,14.918h-5.25l0.167,5.083c0,0-2.166-2.167-5.5-1.917
		c0,0-2.166-0.499-2.25-4.166c0,0,0.249-1.667-1.334-3.667l-4.333-6.917c0,0-1.5-3-5.75-1c0,0-5.583,3.333-8.5,0.5
		c0,0-2.085-2.754,0.915-6.588c0,0,4.5-5.328-3.249-7.532l-21.167-7.545h-11.252V125.484z"/>
	<path fill="#D16536" stroke="#231F20" stroke-linejoin="bevel" stroke-miterlimit="10" d="M596.87,261.652
		c0,0-6.169-4.419-23.543-6.126c0,0-7.993-0.7-6.892-8.537c0,0-0.041-4.471,3.613-12.362c0,0,3.486-8.982,2.07-14.646h7.166
		c0,0,3.563,0.096,3.783-3.408c0,0-0.194-3.823,2.888-4.497c0,0,3.9,0.229,5.224-1.288c0,0,7.11-7.791,1.518-13.043l-5.238-4.847
		c0,0,4.241-5.084,21.493,3.502c0,0,10.002,4.668,14.585,8.668l13.25,12.417c0,0,3.584,3.08,2.084,5.83l-18.749,13.417
		L596.87,261.652z"/>
	<path fill="#88765E" stroke="#231F20" stroke-linejoin="round" stroke-miterlimit="10" d="M614.452,176.901c0,0-5,9.748-5.5,19.499
		c0,0,8.295,3.96,14.585,8.668c0,0,16.355,13.67,15.678,17.169c0,0,13.968-33.266,24.236-48.088c0,0-2.575-4.709-5.869-2.229
		c0,0-5.028,3.087-7.494-1.467c0,0-1.296-2.532-4.548-1.71c0,0-2.587,0.29-5.086-1.61c0,0-4.196-2.38-7.223-1.432
		c0,0-1.445,3.191-5.944,3.861c0,0-3.945,1.029-4.264,5.475C623.023,175.037,622.198,180.403,614.452,176.901z"/>
	<circle fill="#BDAA91" stroke="#231F20" stroke-miterlimit="10" cx="698.288" cy="141.695" r="7"/>
	<path fill="#D16536" stroke="#231F20" stroke-miterlimit="10" d="M501.32,353.608l20.461,21.119l12.005-17.326l-1-2.705
		l-1.251-18.213c0,0-1.783-10.441-12.892-11.93c0,0-10.608,2.678-10.33,10.518c0,0,0.14,1.252,1.139,2.748
		c0,0,2.497,3.402-2.627,7.156c0,0-3.36,1.992-3.7,4.666C503.125,349.642,502.785,352.731,501.32,353.608z"/>
	<path fill="#88765E" stroke="#231F20" stroke-linejoin="round" stroke-miterlimit="10" d="M563.617,416.065l-41.836-41.338
		l12.005-17.326l-1-2.705l-0.41-5.969h17.992l12.584-13.412c0,0,9.835-0.75,12.389,6.629c0,0,0.946,5.371,5.029,7.121
		c0,0,2.166,2.084,2.833,8.25c0,0,0.419,2.83,3.419,5.414c0,0,4.5,4.164,1.667,8.75c0,0-5.001,7.998-3.583,12.75
		c0,0,3.081,11.332-5.501,12.584c0,0-5.92,0.164-5.504,4.164c0,0,0.17,3.752-2.417,5.029c0,0-2.164,1.555-3.08,5.389
		C568.204,411.396,567.03,415.899,563.617,416.065z"/>
	<path fill="#BDAA91" stroke="#231F20" stroke-linejoin="round" stroke-miterlimit="10" d="M531.035,265.276l-21.586-0.103
		l-4.747-0.647c0,0-5.166-1.415-8.5,1.563h-7.168c0,0-1.165,11.509,1.876,15.785c0,0,3.009,3.779,2.441,9.527
		c0,0-0.604,3.377,3.164,5.646c0,0,3.426,1.203,2.681,5.57c0,0-1.208,4.449,2.273,5.115c0,0,7.483,0.863,7.065,7.766
		c0,0,0.168,5.551,6.167,5.268c0,0,4.848-0.893,4.34,3.787c0,0,4.658-2.652,8.408-8.152c0,0,4.083-6.5,7.75-7.334
		c0,0,2.001-0.416,3.334-3.666c0,0,1.5-4,8-1l8.833,3.666c0,0,0.334-2.832,1.917-3.582c0,0-5.166-1.5-8-6.5c0,0-1-1.668-3.167-2
		c0,0-2.416-0.418-0.917-2.5l2.5-2.834c0,0-11.582-7.418-13.332-14.584c0,0-0.583-3.833-3.667-4.833
		C530.701,271.234,527.785,270.901,531.035,265.276z"/>
	<path fill="#004F7A" stroke="#231F20" stroke-miterlimit="10" d="M569.202,261.651c0,0-7.829,0.302-8.331-5.599
		c0,0-0.509-5.143-6.172-5.521c0,0-3.414-0.965-6.372,4.12c0,0-2.958,5.167-6.562,4.75c0,0-2.727-0.329-3.395,1.336
		c0,0-0.46,1.664-1.812,0.801c0,0-2.105-2.302-3.781,0.249c0,0-5.407,8.158-2.368,9.322c0,0,3.377,0.752,3.88,4.574
		c0,0,0.785,6.676,13.412,14.969C547.7,290.651,558.14,280.964,569.202,261.651z"/>
	<path fill="#C3943C" stroke="#231F20" stroke-miterlimit="10" d="M573.327,255.526c0,0,22.46,1.787,25.71,8.664
		c0,0,0.832,2.544,4.666,4.544c0,0,3.417,1.834,3.167,5.5c0,0-0.251,3.25,3.833,5.75c0,0,3.25,1.5,3.5,4.5
		c0,0,0.167,2.832-3.333,4.666c0,0-2.166,0.959-2.417,5.223c0,0-0.313,4.217-3.438,4.279l-1.895-2.25c0,0-5,1.707-6.583-1.084
		c0,0-1.501-2.666-5.959-0.375c0,0-1.958,1.25-4.953,0.037c0,0-2.673-1.672-6.672,3.963c0,0-1.595,3.053-15.334,2.916
		c0,0-3.378,3.295-6.335,2.627c0,0-4.478-1.256-7.301-5.4c0,0-1.263-3.066-4.355-3.25c0,0-1.679-0.557-0.428-2.35
		c0,0,11.086-9.918,24.002-31.834C569.202,261.651,572.368,256.901,573.327,255.526z"/>
	<path fill="#004F7A" stroke="#231F20" stroke-miterlimit="10" d="M550.368,348.728c0,0,14.021-13.701,13.521-16.639
		c0,0,0.375-2.562-3.125-4.375c0,0-4.336-2.438-3.48-6.5c0,0,1.605-4.25-1.082-6.438c0,0-2.688-1.812-0.835-6.709
		c0,0-10.36-4.646-12.045-4.695c0,0-3.435-1.219-5.184,2.873c0,0-0.687,2.281-4.64,3.568c0,0-2.604,1.143-6.575,7.334
		c0,0-2.392,3.344-7.65,7.268c0,0,11.565,1.922,12.394,13.984l0.709,10.328H550.368z"/>
	<path fill="#D16536" stroke="#231F20" stroke-miterlimit="10" d="M621.193,346.019l-34.366,0.883c0,0-1.208-0.084-2.708,1.416
		c0,0-2.494,2.75-6.184-1.021c0,0-1.94-1.992-2.462-4.777c0,0-1.48-7.709-12.854-7.225c0,0,3.795-4.656-1.561-7.42
		c0,0-5.459-2.52-3.49-7.684c0,0,1.117-3.543-1.79-5.812c0,0-3.407-3.963,1.676-9.803c0,0,2.913,0.574,6.165-2.717
		c0,0,13.347,0.672,16.278-4.143c0,0,2.516-4.34,6.349-2.516c0,0,2.838,1.221,5.606-0.811c0,0,2.751-1.869,4.801,1.113
		c0,0,1.207,2.404,6.467,0.898c0,0,2.081,1.955,2.081,4.664c0,0,0.329,10.33-2.16,11.908c0,0-2.651,1.178-0.591,7.717
		c0,0,2.127,9.586,6.375,11.625c0,0,3.411,1.869,4.744,5.369C613.569,337.685,616.327,342.776,621.193,346.019z"/>
	<path fill="#C3943C" stroke="#231F20" stroke-miterlimit="10" d="M645.202,377.526c0,0-13.768-23.891-24.009-31.508l-34.366,0.883
		c0,0-1.375-0.252-2.708,1.416c0,0-0.614,1.35-3.557,0.967c0,0,2.641,2.779,2.641,8.031c0,0,0.061,2.777,3.072,5.098
		c0,0,5.333,4.01,1.756,9.498c0,0-5.313,7.311-2.904,14.691c0,0,1.076,4.479-1.549,7.848c0,0,9.626,1.715,16.292,0
		c0,0,8.5-2.049,16.833,5.285c0,0,5.997,5.275,18.666,5.25c0,0,6.25,0.502,9.833-2.914l8.999-9.168
		C654.201,392.903,641.787,387.315,645.202,377.526z"/>
	<path fill="#D16536" stroke="#231F20" stroke-miterlimit="10" d="M606.452,458.319c0,0-0.082,2.582,4.021,4.582
		c0,0,4.104,2.125,5.854,6.625c0,0,0.75,2.5,4.125,3.75l17.751-9.125c0,0,3.334-1.916,5.667,0.916c0,0,2.583,2.416,5.583-0.416
		c0,0,4-3.668,6.417-0.5c0,0,1.75,3.332,5.75,2.582c0,0,11.25-2,15,3.334c0,0,2.584,3.584,5.084,1.834c0,0,3.25-2.084,3.083-9.418
		c0,0-0.25-2.832,1.667-5.082c0,0,3.75-2.832,0.833-11.582c0,0-7.253-5.42-7.475-13.664c0,0,0.222-8.422-4.945-17.756
		c0,0-2.667-3-2-6.25c0,0-3.167,1.834-6.5-0.582c0,0-5.912-6.361-9.998,0.246c0,0-4.659,6.678-7.581,13.383
		c0,0-1.284,4.201-6.562,3.244c0,0-3.289-1.025-5.478,1.188c0,0-3.542,3.184-5.713,7.104c0,0-2.076,3.248-4.915,0
		c0,0-3.194-4.197-7.142-0.139c0,0-2.44,3.141-1.61,8.141c0,0,1.504,5.418-5.75,8.334c0,0-2.579,0.834-2.083,4.25
		C609.536,453.317,610.474,457.151,606.452,458.319z"/>
	<path fill="#88765E" stroke="#231F20" stroke-linejoin="round" stroke-miterlimit="10" d="M705.203,408.235c0,0-5.834,6.25-10-1
		c0,0-1.167-1.584-2-5.584c0,0-1.042-3.5-4.5,0c0,0-6.166,6.084-9.583,1.75c0,0-2.917-4.666-3.667-0.25c0,0-0.339,3.246-2.586,4.998
		c0,0-0.767,3.357,2.41,7.014c0,0,4.144,4.996,4.535,16.992c0,0-0.359,7.664,7.475,13.664c0,0,4.334-19.334,11.084-22.5
		c0,0-0.999-6.084,3.084-8.834C701.455,414.485,704.622,412.401,705.203,408.235z"/>
	<path fill="#BDAA91" stroke="#231F20" stroke-miterlimit="10" d="M703.119,357.067l15.583,34.082c0,0,1.668,3.18,7.334,3.09
		l-12.167,9.16c0,0-5.66-0.811-8.666,4.836c0,0-5.207,5.855-9.688-0.49c0,0-1.923-2.945-2.118-5.229c0,0-0.908-4.012-3.329-1.98
		c0,0-7.832,8.256-11.433,2.184c0,0-2.273-3.164-3.031-0.24c0,0-0.824,10.047-9.738,4.607c0,0-5.525-5.604-9.497,0.727
		c0,0-2.833,1.135-5.166-1.807c0,0-2.25-3.275-6.75-3.107l9.748-9.996c0,0-15.664-7.504-6.498-17.92c0,0,9.084-9,10.584-14.418
		c0,0,3.999-4.332,11.916-1.75c0,0,4.25,2.25,19.584,0.668C689.787,359.483,698.535,358.817,703.119,357.067z"/>
	<path fill="#88765E" stroke="#231F20" stroke-linejoin="round" stroke-miterlimit="10" d="M652.202,301.776
		c0,0,6.168,4.125,10.501,0.625c0,0,4.25-4.25,9.212-0.666c0,0,6.705,6.25,14.621-0.168c0,0,8.751,1.668,8.2,9.992
		c0,0-1.117,9.678,3.801,11.26c0,0,7.332,3,7.915,9.5c0,0,0.044,23.773-3.333,24.748c0,0-18.749,5.41-32.916,1.748
		c0,0-6.655-3.078-12.328,2.172c0,0-2.673-2.674-7.173-3.92c0,0-0.808-3.82,3.096-10.449c0,0,3.89-6.049,0.646-11.256
		c0,0-2.661-3.541-1.053-10.121c0,0,1.059-2.66-0.733-12.748C652.658,312.493,651.955,308.729,652.202,301.776z"/>
	<path fill="#D16536" stroke="#231F20" stroke-miterlimit="10" d="M734.119,386.983l-8.083,7.256c0,0-4.834,0.41-7.334-3.09
		l-15.583-34.082c0,0,2.57-0.412,3.117-15.998c0,0,1.613-10.545-2.212-14.23c0,0,8.424-4.604,27.591,4.814
		c0,0,2.918,1.916,6.835-0.002c0,0,6.333-2.248,11.499,5.168c0,0,5,9.75,11.25,14.582c0,0,4.086,3.086,2.002,9.836
		c0,0-9.833,1.666-19,17.166c0,0-1.667,2.332-4.167,1.166c0,0-2.668-1.25-0.084-2.75c0,0,3.666-2,1.333-5.584
		c0,0-4.917-5.416-2.417-8.75c0,0,4.501-4.834,2.667-7.334c0,0-2.584-2.416-3.584,1.166c0,0-1.736,5.834-4.493,5.334
		c0,0-1.841-0.5-1.757,1.5c0,0-0.084,1.752,2.25,4.834c0,0,2.084,3.75-0.833,7.5c0,0-3.001,2.584-0.667,4.75
		C732.449,380.235,736.288,382.899,734.119,386.983z"/>
	<path fill="#C3943C" stroke="#231F20" stroke-miterlimit="10" d="M718.577,294.651c0,0,1.875,8.5-4.375,15.125
		c0,0-5.514,5.75-15.665,13.043c0,0,3.979,1.637,5.487,4.02c0,0,8.401-4.389,27.123,4.588c0,0,3.056,2.143,7.303,0.225
		c0,0,8.003-2.998,12.141,6.35c0,0,2.57,5.359,7.015,9.998c0,0,12.055-3.766,11.889-8.057l-6.79-0.082l-0.165-26.668
		c0,0-1.041-3.041-4.749-0.416c0,0-3.459,3.457-4.61-0.729c0,0-1.682-6.438-11.516-8.23c0,0-10.459-0.789-15.917-10.498
		C725.747,293.319,721.158,293.147,718.577,294.651z"/>
	<path fill="#BDAA91" stroke="#231F20" stroke-miterlimit="10" d="M639.238,223.315l-19.116,13.417l-23.109,25.122
		c0,0,1.752,1.109,2.706,3.569c0,0,1.173,2.144,3.984,3.311c0,0,3.335,1.208,3.167,5.5c0,0-0.408,3.836,4.774,6.314
		c0,0,4.433,2.479,1.808,7.229c0,0,6.625,8.75,12.999,6.998c0,0,9.563-2.561,13.063-7.498c0,0,1.312-2.062,3.812-0.75
		c0,0,1.875,1.25,2.938-1.5c0,0,1.062-3.062,4.625-2.938c0,0,2.5-0.125,2.5-3.938c0,0-0.688-6.5,0.75-10.063
		c0,0,6.125-12.25,5.938-17.312c0,0-5.938,0.875-8.375-8c0,0-1.312-4.812-6.312-9.75
		C645.39,233.026,640.765,228.713,639.238,223.315z"/>
	<path fill="#D16536" stroke="#231F20" stroke-linejoin="bevel" stroke-miterlimit="10" d="M686.621,250.819c0,0-10.417,2.667-18,0
		c0,0-5.255-1.336-8.544-0.043c0,0,0.013,5.155-5.43,16.266c0,0-2.078,3.961-1.302,10.62c0,0,0.622,4.668-3.218,4.455
		c0,0-2.471-0.383-3.863,2.91c0,0-0.765,2.805-3.287,1.34c0,0-2.289-1.236-3.739,1.275c0,0-0.537,1.193-2.887,2.643
		c0,0,5.569,8.182,18.522,12.805c0,0,5.803,1.982,8.159-0.979c0,0,3.862-4.904,10.109,0.537c0,0,7.872,5.879,14.122-2.746v-15.875
		l2.688-5.5c0,0,0.688-4.875-3.438-6.063L686.621,250.819z"/>
	<path fill="#C3943C" stroke="#231F20" stroke-linejoin="round" stroke-miterlimit="10" d="M639.238,222.568
		c0,0,15.13-36.253,24.55-48.502c0,0,6.729-1.428,11.613,3.119c0,0,7.216,6.053,12.05,1.3c0,0,1.904-2.523,4.327,0.028
		c0,0,1.325,1.621,4.329,1.593c0,0,0.594,6.043-4.489,13.126c0,0-5.582,6.248-5.832,21.498c0,0-0.667,3.583-5.834,2.5
		c0,0-6.333-1.5-17.666,7.417c0,0-12.031,8.779-16.558,8.723C645.729,233.37,639.19,226.656,639.238,222.568z"/>
	<path fill="#004F7A" stroke="#231F20" stroke-miterlimit="10" d="M700.203,237.735c0,0-5.164,7.168-13.582,13.084
		c0,0-10.586,2.341-16.919,0.337c0,0-4.584-1.922-9.625-0.38c0,0-5.435,0.569-7.779-6.194c0,0-1.294-6.077-6.569-11.212
		c0,0,4.498,0.155,17.444-9.406c0,0,9.966-8.695,18.123-6.545c0,0,2.513,0.328,3.835-1.386c0,0,5.739-0.714,9.072,9.036
		c0,0,0.833,2.833,3.083,5.5C697.286,230.569,700.453,233.818,700.203,237.735z"/>
	<path fill="#88765E" stroke="#231F20" stroke-linejoin="round" stroke-miterlimit="10" d="M731.952,216.901
		c0,0-3.75-0.5-6.084,1.916c0,0-2.667,2.334-7.25,2.584c0,0-2.25,0.25-7.5,6.75l-13.429,12.665c0,0,3.18,0.669,5.512,5.668
		c0,0,2.834,5.001,8.75,4.584c0,0,6.188-0.104,7.085,6.918c0,0-0.166,1.833,1.501,3.583c0,0,2.5,1.751,1.25,5.417
		c0,0-1.166,2.416,2.074,5.302l6.177,7.114h5.667l3.083-3.416c0,0,2.247-3.457,4.83,0.211c0,0,2.42,3.205,4.337-1.377
		c0,0,1.25-5.083,4.75-6.25c0,0-2.25-9.334,2.333-15.167c0,0,2.334-2.584,6.584-3.667c0,0-6.584-4.998-9.917-10.665l0.083-11.084
		c0,0-2.084-0.419-4.667-3.002c0,0-0.417-0.834-3-0.667c0,0-2.417,0.334-3.917-1.583C740.204,222.734,736.7,217.734,731.952,216.901
		z"/>
	<path fill="#D16536" stroke="#231F20" stroke-linejoin="bevel" stroke-miterlimit="10" d="M696.107,180.106
		c0,0,0.673,6.541-5.491,14.543c0,0-5.415,6.908-4.581,21.372c0,0,5.626,0.768,7.813,8.074c0,0,1.327,4.733,3.841,6.937
		c0,0,3.125,2.431,2.527,7.4l14.448-14.233c0,0,2.039-2.859,6.08-3.078c0,0,3.235,0.037,5.43-2.591c0,0,1.526-2.13,5.777-1.629
		c0,0,1.774-13.629-5.417-20.332l-11.537-10.972c0,0-2.845-3.076-6.902-2.386c0,0-2.975,1.356-5.651-1.077
		C702.444,182.134,700.217,178.985,696.107,180.106z"/>
	<path fill="#C3943C" stroke="#231F20" stroke-linejoin="round" stroke-miterlimit="10" d="M697.689,240.816
		c0,0-7.024,7.546-11.068,10.003v21.332c0,0,3.894,1.5,3.331,6.375c0,0,1.188,1,3.75-0.562c0,0,3.188-2.057,7.125,0.877
		c0,0,3.375,2.561,5.5-0.314c0,0,1.438-2.062,3.812-1.5c0,0,2.688,0.75,3.812-2.938c0,0,1.375-6,8-3.313
		c0,0-1.059-2.018-0.061-4.134c0,0,1.076-2.634-1.119-4.875c0,0-2.25-1.681-1.941-5.18c0,0-1.004-5.937-8.816-5.437
		c0,0-4.48,0.207-7.209-5.459C702.806,245.692,700.802,241.543,697.689,240.816z"/>
	<path fill="#BDAA91" stroke="#231F20" stroke-miterlimit="10" d="M687.265,284.026v17.291c0,0,8.42,1.896,7.388,11.406
		c0,0-1.281,7.846,3.885,10.096c0,0,12.908-9.615,16.412-13.893c0,0,5.252-6.359,3.628-14.275c0,0,1.543-1.168,8.293-2.25
		c0,0,3.584-1.75,0-4.834c0,0-3.997-3.414,3.168-8.166l-8.086-8.625c0,0-5.674-2.829-7.795,2.689c0,0-0.458,4.508-4.706,3.471
		c0,0-1.953-0.738-3.726,2.238c0,0-1.884,2.104-5.203-0.543c0,0-3.821-2.605-6.82-0.668c0,0-2.251,1.438-3.75,0.562L687.265,284.026
		z"/>
	<path fill="#004F7A" stroke="#231F20" stroke-miterlimit="10" d="M762.704,339.86c0,0,41.748,0.666,45.373-4.709
		c0,0,2.375-3.666-1.625-6.25c0,0-10.917,5.584-23.75,0.418c0,0-10-3.418-6.333-6.084c0,0,2-1.082,4.25-0.5
		c0,0-1.667-4.332-10.417-11.166c0,0-3.253-3.25-2.419-5.084c0,0,1.668-1.416,11.084,7.584c0,0,2.833-3.834-0.072-6.766
		c0,0-6.846-5.4-2.512-12.568l5.166-7.582c0,0-4.572-6.5-28.744-18.584c0,0-3.064,0.842-4.577,5.67c0,0-1.424,5.334-4.51,1.957
		c0,0-2.379-3.597-5.107,0.096l-2.806,3.109h-5.667c0,0-6.996,4.248-3.168,8.166c0,0,4.303,3.719-1.146,5.027
		c0,0,2.968,8.432,14.055,10.912c0,0,10.464,0.768,13.4,8.541c0,0,0.856,3.26,4.021,1.225c0,0,4.833-3.785,5.341,0.465
		L762.704,339.86z"/>
	<path fill="#BDAA91" stroke="#231F20" stroke-miterlimit="10" d="M872.368,229.402v-20.334c0,0,1.584-7.75,4.917-8.166
		c0,0,2.333-0.332,5.833,4.584l0.334-4.589c0,0,6.416,0.339,4.666-2.828c0,0-1.864-2.667-7.724-1.667c0,0-3.775,1.25-3.692-1.333
		c0,0-0.531-3.251,3.692-2.667c0,0,14.807,1.25,15.057,10.083c0,0-0.083,3.75,2.75,6.417v14.333c0,0,2.416,2.083,2.75,4.25
		c0,0,0.166,2.5-2.75,1.25c0,0-4.666-1.5-2.5,1.25l3.668,3.583c0,0,2.417,4.001-1,8.167c0,0-5.166,6.666-8.5,0.583
		c0,0-0.834-2.083-3.209-3.083c0,0-2.125-0.584-4.458-4.667C882.202,234.568,879.784,228.069,872.368,229.402z"/>
	<path fill="#88765E" stroke="#231F20" stroke-linejoin="round" stroke-miterlimit="10" d="M757.605,347.999
		c0,0,11.722-3.598,11.847-7.973c0,0,38.5,0.75,39.325-6.438c0,0,0.362-3.123-2.325-4.688c0,0,3.188-5.188,7.875-2.75
		c0,0,2.625,1.25,3.938,5.938c0,0,1.125,4.125,3.062,2.75c0,0,1.75-0.875-0.625-5.438c0,0-2.562-5.438,0-6.125
		c0,0,1.938-0.5,3.5,1.375c0,0,0.312-10.812,4.812-9.375c0,0,2.625,0.688,2.125,6.938c0,0-0.062,1.938-1.625,4.188
		c0,0-1.562,2.312,2.625,2.188c0,0,3.312,0.062,2.938-2.688c0,0-0.312-3.438,2.221-2.58c0,0,6.717,4.705,7.342,1.58
		c0,0,1-2.875-2.25-4.375c0,0-2.062-1-1.375-3.562c0,0,6.312,0.562,7.188,7.625c0,0,1,4.688-7,7.375c0,0,4,2.75,0.125,5.562
		c0,0-7.37,3.861-11.875,7c0,0-4.25,2.062-4.5,12.062c0,0-0.188,6.812-4.5,3.875c0,0-3.75-2.312-3.938-11.125
		c0,0-1.938-2-2.062,1.375c0,0-0.062,5.812-4.25,3.625c0,0-4.188-2.5-5.438-0.625c0,0-2.062,5.812-7.062,3
		c0,0-5.625-4.25-12.5-1.312l-5.125,0.125l-3.562,2.562c0,0-3.625-0.25-5.875,2.25c0,0-2.877,4.359-7.438,0.898
		c0,0,1.913-5.332-1.105-8.896L757.605,347.999z"/>
	<path fill="#D16536" stroke="#231F20" stroke-miterlimit="10" d="M778.867,314.069c0,0,10.168,11.623,14.835,11.645
		c0,0,4.833,0.521,6.083-6.479c0,0,10.336-0.834,12.586-8.084c0,0,0.834-2.75,4-2.916c0,0,3.416-0.266,1.333-4.008
		c0,0-0.666-1.41-2.583-2.578c0,0-2.167-1.498-2.167-3.332c0,0-0.166-2.918-2.833-3.584c0,0-3.167-1.5-2.167-3.416
		c0,0,0.666-2.002,4.5,1.416c0,0,2.166,2.168,8,2.834l-1.582-4.336c0,0,1.334,1.584,5.167,1.168c0,0-3.333-1.334-1.25-3.168
		c0,0,4-1.498,1.25-6.166c0,0-0.5-1.416-5.25-0.832c0,0-1.501-4.578-4.167-2.832c0,0-2.999,1.914-1.916,8.498
		c0,0-12.166-1.168-16.5,1.75c0,0-3.084,2.168-7.417,0.334l-7.34-2.83l-5.706,8.598c0,0-3.243,5.355,2.318,10.877
		C778.062,306.628,781.945,309.407,778.867,314.069z"/>
	<path fill="#C3943C" stroke="#231F20" stroke-linejoin="round" stroke-miterlimit="10" d="M751.788,227.986l-0.083,11.084
		c0,0,2.712,5.124,9.917,10.665c0,0-12.414,1.377-8.917,18.834c0,0,22.909,11.42,28.744,18.584c0,0,9.087,5.297,13.711,3.021
		c0,0,4.793-4.541,16.375-2.365c0,0-1.667-0.408-1.084-4.742c0,0,1.083-6.084-3.667-4.416c0,0-7.583,4.082-9.5,2.332l-1.75-1.582
		c0,0,4.229-2.162,2.896-4.412c0,0-0.646-2.921-11.062,0.662c0,0-0.666-1.334,1.417-3.667c0,0,0.417-3-6-2.5c0,0-2.001,0.25-2.917-2
		c0,0-3.417,0.251-2.75,4.584c0,0-2.084-2.083-2.75-5.166c0,0-11.166-11.999-16.333-15.499c0,0,1.499-1.416,3.999-1.416
		c0,0,9.084,4.751,14.667,10.417c0,0,4.92,6.167,10.25,4.916c0,0,2.169-0.666,2.916-4.666c0,0,1.084-3.666,3.168-0.333
		c0,0,0.918,1.916,0.834,4.416c0,0,0.332,3.997,4.666,3.832c0,0,1.835,0.335,3.667-0.998c0,0,2.668-1.667,5.251,2
		c0,0,2.334,3.5,5.417,1.75c0,0,2.999-2.416,0.666-8.333c0,0-1.6-3.833-4.758-4.75c0,0-1.421,4.666-8.873,1.833c0,0-2.119-1-0.619-3
		c0,0,4.75,1.417,6.25-0.583c0,0,1.084-1.417-0.666-2.917c0,0-2.501-2.084,0.666-3.667c0,0,1.751-1.332,3.834,1.334
		c0,0,1.75,1.916,3.75,0.083c0,0,1.499-1.751,4.166,0.583c0,0,3.417,2.834,6.834-0.75c0,0,0.084-3.916-5.666-5.166
		c0,0-9.168-3.001-8.834-16.334l-21.707-0.25l-1.958,1.502l-3.584,0.167c0,0-2.499,0.166-5.666,3.916c0,0-4.916,4.001-10.5-0.416
		C766.204,234.573,758.122,228.733,751.788,227.986z"/>
	<path fill="#BDAA91" stroke="#231F20" stroke-miterlimit="10" d="M787.912,229.404l42.791,0.581c0,0-5.5-4.249-0.75-14.583
		c0,0,4-6.169,0.75-10.835c0,0-1.751-2.832-1.417-5.416c0,0-1-5.5-8-2.417c0,0-12.916,6.999-20.666,5.833c0,0-0.417,7.25-5.917,4.75
		C794.703,207.317,786.87,215.063,787.912,229.404z"/>
	<path fill="#004F7A" stroke="#231F20" stroke-miterlimit="10" d="M788.827,208.651c0,0-3.75-3.75-5.5,1.75c0,0-1.75,7.979-5,2.489
		c0,0-1.625-7.114-7.875-5.864c0,0-2.25,1-3.875,2.75c0,0-2.312,1.375-1.625-1.14c0,0,1.938-4.173,0.188-7.298
		c0,0-1.625-2.875-7-0.938c0,0-8.312,4.062-10.875-0.625c0,0-6.123-12.75-15.562-12.125c0,0-1.446,1.404-1.692,4.577
		c0,0-0.08,2.884-3.476,4.341c0,0,6.792,5.395,5.417,20.332c0,0,4.316,0.604,8.252,5.833c0,0,1.498,1.96,4.561,1.563
		c0,0,2.236-0.105,3.806,1.968c0,0,2.028,1.769,7.768,2.921c0,0,5.726,2.051,10.545,5.883c0,0,7.509,4.525,10.633-0.978
		c0,0,2.169-3.241,5.74-3.06l2.698-0.126l1.958-1.502c0,0-1.229-10.849,4.718-19.426
		C792.63,209.978,790.827,210.338,788.827,208.651z"/>
	<path fill="#C3943C" stroke="#231F20" stroke-linejoin="round" stroke-miterlimit="10" d="M745.721,162.047
		c0,0,42.981-1.396,47.981,1.104c0,0-3.346,16,6.202,26c0,0,3.298,4.875-1.452,9.75c0,0-2.498,2.332-3.749,8.416l-2.073,2.661
		c0,0-1.676,0.589-3.803-1.327c0,0-4.438-3.911-5.699,2.503c0,0-2.341,7.309-4.801,1.736c0,0-2.243-9.198-9.477-4.969
		c0,0-2.248,2.674-3.949,1.91c0,0-0.61-0.12,0.928-4.608c0,0,0.891-3.448-1.869-4.927c0,0-2.775-1.78-7.851,0.912
		c0,0-6.78,3.108-8.845-1.433c0,0-6.393-13.459-15.562-12.125c0,0,2.744-5.171,9.996-5.835c0,0,1.26-3.694-6.41-8.834l-0.167-5.083
		h5.25C740.372,167.899,744.183,166.51,745.721,162.047z"/>
	<path fill="#88765E" stroke="#231F20" stroke-linejoin="round" stroke-miterlimit="10" d="M750.202,125.472l22.322-0.321
		c0,0,0.428,4.373-2.197,8.999c0,0-3.625,6.376,5.75,10.626l23.25,10.125c0,0-2.625,7.875-5.625,8.25c0,0-8.631-2.624-47.981-1.104
		c0,0,2.285-4.808,2.677-11.144c0,0,0.94-14.821,6.166-16.162c0,0,5.053-0.931,1.056-5.511
		C755.619,129.231,751.786,125.46,750.202,125.472z"/>
	<path fill="#BDAA91" stroke="#231F20" stroke-miterlimit="10" d="M772.524,125.151l41.763-0.916c0,0-1.584,7.332,5.25,19.916
		c0,0-8.417-0.916-10.5,5.584c0,0-7.754-1.501-9.71,5.166l-22.275-9.701c0,0-5.526-2.135-6.688-5.175c0,0-2.041-3.355,0.44-6.781
		C770.805,133.244,772.93,130.65,772.524,125.151z"/>
	<path fill="#D16536" stroke="#231F20" stroke-linejoin="bevel" stroke-miterlimit="10" d="M821.452,191.276
		c0,0-29.75,4.75-22.125-24.875c0,0,2.918-7.926,0.834-13.4c0,0,2.211-4.432,8.876-3.266c0,0,1.665,5.416-0.71,11.166
		c0,0-4.188,10.625,6.125,18.5l3.414-0.166c0,0,2.898,0.416,3.552,2.428c0,0,0.347,1.801,3.784,2.363c0,0,1.812,0.188,1.5,2.375
		C826.702,186.401,826.752,189.963,821.452,191.276z"/>
	<path fill="#D16536" stroke="#231F20" stroke-linejoin="bevel" stroke-miterlimit="10" d="M882.455,120.068l-4.878,6.583
		c0,0-2.293,2.875-5.209,0c0,0-4.541-5.625-9.916-3.625c0,0-3.125,3.875,1.875,6.875c0,0,15.006,6.652,18.128,19.639
		c0,0,0.997,12.236,6.122,19.861c0,0,5.625,6.875,1.25,9.5c0,0-6.25,2.75-8.875-12.25c0,0-1.125-14.375-6.25-15
		c0,0-2.168-0.75-2.334,4c0,0-5.291-2.723-6.666-6.111c0,0-2.375-5.514-8-5.389c0,0-8.25,0.5-8.75-8.875
		c0,0-4.875-7.416-12.375-11.5L882.455,120.068z"/>
	<path fill="#C3943C" stroke="#231F20" stroke-linejoin="round" stroke-miterlimit="10" d="M814.287,124.235
		c0,0,31.29,21.166,31.915,24.541c0,0-1.25,6.875,3.375,7.375v-3.75c0,0,4.875,0.375,7,3.125c0,0,2,2.5,5.375,2.875
		c0,0,5.125,11.875,14.125,10.625c0,0,0.75-3.75-2.375-6.625c0,0-1.543-1.5-1.334-6.75c0,0-5.072-2.523-7.432-7.449
		c0,0-1.957-4.494-8.221-4.085c0,0-7.076,0.284-7.764-8.841c0,0-6.875-9.438-12.812-11.5L814.287,124.235z"/>
	<path fill="#004F7A" stroke="#231F20" stroke-miterlimit="10" d="M851.282,173.731c0,0-35.323-16.492-36.995-49.496
		c0,0,31.603,21.479,31.915,24.541c0,0-1.688,6.375,4.688,8.312c0,0,5.355,2.389,7.918,8.514c0,0,6.77,7.299,3.582,12.236
		c0,0-2.812,2.812-4.938-1.875l-1.062-3.5C856.39,172.463,854.999,175.728,851.282,173.731z"/>
	<path fill="#88765E" stroke="#231F20" stroke-linejoin="round" stroke-miterlimit="10" d="M809.037,149.735
		c0,0,1.17-6.251,10.5-5.584c0,0,9.386,17.817,30.816,29.117c0,0,0.348,3.8-4.069,2.3c0,0-2.166-0.749-3.75-4.083
		c0,0-2.001-3.166-4.834,0c0,0-3.916,4.25-7.416,1.75l-9.5-9.667c0,0-2.084,9.417,11.416,13.417c0,0,4,1.249,3.167,4.166
		c0,0-2.166,1.5-7.583-1.083c0,0-3.416-1.611-6.708,0.861c0,0-1.126-2.254-6.281-1.503c0,0-9.996-6.011-6.712-17.768
		C808.083,161.659,811.04,156.068,809.037,149.735z"/>
	<path fill="#88765E" stroke="#231F20" stroke-linejoin="round" stroke-miterlimit="10" d="M809.896,229.703
		c0,0,31.723-0.135,32.973,1.365c0,0-2.25,11.001,4.75,10.084c0,0,2.749-0.418,4.416-8.584c0,0,1.416-6.083,5.417-2.583
		c0,0,3.415,3.001,11.249,3.917l3.667-4.5c0,0,6.333-1.92,9.834,5.166c0,0,1.165,3.331,4.458,4.667c0,0,2.251,0.537,2.938,2.562
		c0,0-4.479-0.476-7.479,6.107c0,0-1.002,2.251-3.502,3.251c0,0-2.832,0.916-2.166,2.833c0,0,2,3.142-3,4.779l-0.168,7.054
		c0,0-1.75,1.251-4.25-1.083c0,0-2.167-0.667-1.5,4.25l-9.834,7.333c0,0-4.74,1.416-7.953-1.918c0,0-1.964-3.249-3.297-0.416
		c0,0-1.417,2.834-3.25,0.25c0,0-2.917-6.667-5.75-4.667l-1.333,1.417l-3.333-7.084c0,0-1.667-2.5-2.25,0.084
		c0,0,0.25,5.75-2.334,4.916c0,0-2-0.916-2.75,1.417c0,0-1.331,3.167-3.833-0.5c0,0-2.917-5.039-2.167-10.456
		c0,0-2.25-1.627-1.25-2.627c0,0,1.084-2.084,4.417,0.583c0,0,4.417,2.333,5.75-3.417c0,0,0.837-2.834-4.248-2.75
		c0,0,0.054-4.407-5.976-5.286C818.144,245.868,808.679,242.25,809.896,229.703z"/>
	<path fill="#004F7A" stroke="#231F20" stroke-miterlimit="10" d="M827.326,196.367c0,0,4.001-3.091,6.376,4.159
		c0,0,8.125,0.375,9.375,6.75c0,0,4.812,0.062,2.812-4.5c0,0-4.277-6.5,0.486-7.625c0,0,4.389-0.438,6.014-2.375
		c0,0,1.312-1.938,6.375-1.22c0,0,8.938,0.532,9.75,4.782c0,0-7.125,0.496-7.375,2.998c0,0-0.438,2.127,4.875,2.252
		c0,0,4.438-0.125,2.188,2.938l-2.562,3.312h-3.875c0,0,5.25,5.312,4.125,8.688c0,0-1.312,2.25-4.625,2.688
		c0,0-0.812,3.25,4.688,2.562l2.074,12.04c0,0-6.564-0.931-9.444-3.048c0,0-5.364-4.953-6.341,1.121c0,0-1.465,11.523-6.939,9.049
		c0,0-3.953-0.953-2.433-9.87c0,0-3.905-1.157-12.224-1.131c0,0-5.629-4.784-0.692-14.535c0,0,4.688-6.419,0.75-10.835
		L827.326,196.367z"/>
		<circle fill="#BDAA91" stroke="#231F20" stroke-miterlimit="10" cx="694.954" cy="52.308" r="7"/>
</g>
</svg>
