<?xml version="1.0" encoding="utf-8"?>
<!-- Generator: Adobe Illustrator 16.0.0, SVG Export Plug-In . SVG Version: 6.00 Build 0)  -->
<!DOCTYPE svg PUBLIC "-//W3C//DTD SVG 1.1//EN" "http://www.w3.org/Graphics/SVG/1.1/DTD/svg11.dtd">
<svg version="1.1" id="Layer_1" xmlns="http://www.w3.org/2000/svg" xmlns:xlink="http://www.w3.org/1999/xlink" x="0px" y="0px"
	 width="960px" height="560px" viewBox="0 0 960 560" enable-background="new 0 0 960 560" xml:space="preserve">
<path fill="none" stroke="#231F20" stroke-miterlimit="10" d="M321.697,109.916v10.524c0,0-8.77,9.353-1.753,16.369
	c-7.017-0.584-19.878,2.338-19.878,9.939c-4.092,5.262-13.446,23.386-19.293,19.877c-5.846-3.509-11.692-14.032-19.292-4.093
	c-6.431,0.583-11.693-1.753-12.277,5.847c-4.092,5.846-16.955,16.954-22.216,14.032c0.584-7.601,2.338-16.956-16.371-5.262
	c-2.922,6.431-2.338,5.845-5.846,9.354c-5.262-2.338-4.677-11.693-18.708,15.785c-15.785,1.754-17.539,2.924-22.801,8.186
	c-4.092,0.584-14.031,7.015-16.954,7.015c-2.923,0-11.108-4.092-14.031,12.277c-9.939-1.17-38.001-5.262-57.879,16.37
	c0.584,4.677,0,3.507,0,7.016c0,3.508-5.847,1.169-0.585,12.862c-8.769,3.508-11.107,4.678-23.385-2.339
	c-7.6,7.6-9.354,12.279-8.77,15.201c0.584,2.924-1.169,12.863-1.754,20.463c9.938,1.169,126.281,5.262,132.127,5.262
	c6.431-1.755,42.094-7.017,45.601-7.601c3.508-0.585,2.339-4.678,2.339-4.678s8.184-1.753,8.77-3.507
	c0.584-1.756,5.846-2.339,5.846-2.339l4.092-1.17l3.508,1.17l4.092-5.262l4.677,4.092c0,0,12.862,0,7.601-0.583
	c-5.262-0.585,119.85,10.522,119.85,10.522s9.939-4.091,4.678,11.691c8.185-3.506,6.431-3.506,11.692-5.262
	c7.6,5.262,19.878,26.31,19.878,19.294c-4.677-5.261,0.585,4.678,0.585,12.277c11.692,1.169,108.741,2.923,114.004,2.923
	c6.43,5.847,111.665,117.513,115.757,121.604c4.094,4.093,9.354-1.17,9.354-1.17s5.848-0.584,7.602-4.677
	c8.185,1.169,12.861,2.34,16.954-0.585c3.508,2.34,14.615,2.34,20.463,5.262c2.923-5.262,13.446-8.769,8.185-38.585
	c4.093,5.846,7.015,22.801,5.262,25.724c4.092-8.186,7.016-29.231,21.048-45.601c5.26-1.755,14.03-3.509,11.106-8.185
	c5.847-5.847,16.37-8.771,13.447-10.524c-4.093,0,9.354,2.923,11.692-5.847c1.754-2.923,5.847-1.17,5.847-1.17
	s8.185-11.107,20.462-13.445c-2.339-1.755-4.677-4.092-4.677-4.092l4.677-2.925l-3.509-5.846c0,0,8.771,1.754,7.601,6.431
	c6.432,0,11.693-3.508,11.693-3.508l5.263-2.338l4.676,1.753l19.879-1.169l-5.263-4.093l2.923-2.337h3.508l4.093,5.261
	c0,0,4.677,1.754,4.677-7.601c3.508,1.17,4.093,4.092,4.093,4.092v4.094l6.432-1.17l1.752-7.601l3.509,1.17l0.586-5.847
	c0,0,8.77-1.754,6.43-7.016c5.847,0.584,8.186-1.169,7.016-3.509c-1.169-2.338,5.262-3.506,5.262-3.506l-3.508-5.847l-2.923-4.678
	l-2.924,2.34l-4.676,4.092l-1.171,2.922l-5.261,1.756l1.169-4.678c0,0-0.584-30.4-5.846-3.507c-5.261,1.168-1.169-0.585-5.261,1.168
	c-4.679,0-19.879,4.092-8.771,6.432c0,4.677,0,4.677,0,4.677l-5.263,1.754c0,0,2.339-13.447-7.016-1.17
	c-4.677-1.755-8.769-7.016-11.108-1.169c-6.43-4.092-9.354-4.678-14.03-9.355c-2.339-7.601-14.616-31.569-22.216-30.399
	c1.754-3.508,4.676-11.109,19.292,15.2c4.093,4.092,9.94,10.523,15.201,11.107c1.168,4.677,2.339,10.523,13.446,3.509
	c2.923-4.678,8.185-8.77,8.185-8.77s9.354,0,7.016-4.678c5.264-1.754,10.524-8.185,2.924-8.768c-2.339,4.091-4.678,4.091-8.77-1.171
	c5.261-2.925,5.261-6.431,12.277-1.754c1.753-4.092,4.678-4.677,4.678-4.677s2.338-6.433-0.585-8.77
	c0.585-1.755,0-5.847-5.847-0.585c-0.585-4.676-2.923-7.6-7.016-0.584c-2.923-3.507-7.015-7.6-12.277-4.677
	c1.17-4.093-2.339-8.185-11.107-5.847c-0.585-3.507-3.509-7.599-7.017-5.262c-2.924-1.168-3.508-6.43-7.016,2.924
	c-0.584-6.431-4.093-9.939-8.185-12.862c5.847,0.584,9.355,2.338,9.355,2.338s9.938,4.678,13.445,4.678
	c2.923,2.922,9.354,4.092,9.354,4.092l5.848,0.585c0,0,8.184,3.507,10.522,2.923c1.17-4.678,0-15.785,0-15.785l5.847,0.583
	c0,0-2.924,5.261-0.585,13.447c1.754,0.585,4.093,2.922,4.093,2.922s4.677,8.185,9.354-3.507c0.584,5.846,3.507,8.185,9.938,2.339
	c4.677,0,7.016-1.169,7.016-1.169s3.508,2.337,5.262-0.585c2.924,5.846,5.263,2.337,6.431,0c4.678-0.585,14.615-5.846,12.863-9.939
	c4.092,1.169,7.014-5.262,5.261-8.769c1.753-2.339,2.924-4.679,2.924-4.679l2.338-6.43l0.583-5.262l1.171-5.263
	c0,0,4.092,4.678,6.431,5.263c3.508,2.337,13.446,1.753,8.771-9.354c2.922-1.169,5.846-11.107,0.584-14.032
	c-1.755-5.846-4.678-12.861-8.77-12.861c-1.755-5.262-0.585-11.694-8.77,2.338c-4.093,0-9.938,1.753-9.354,5.261
	c0.584,3.508,2.339,17.539,0,20.462c-2.339,2.923-3.508,9.354-3.508,9.354l-7.6-4.093l7.015-1.753c0,0-3.507-15.201-5.261-19.877
	c4.677-4.677,8.186-8.186,1.754-9.354c3.507-4.093,4.677-8.185-12.278-6.432c-7.6,0.585-14.616,3.508-11.692,6.432
	c-5.261,1.168-9.939,0.583-9.939,0.583s5.847-11.107-13.446-1.752c-12.276,1.169-11.692,0.585-18.708,0.585
	c-4.093,5.845-7.601,8.185-7.601,8.185l-0.584-7.018c0,0,12.276-9.354,4.677-8.184c0-2.923,0-2.923,0-2.923
	s-8.769-18.125-4.093-16.37c3.508,5.847,4.093,12.861,10.523,14.031c2.924-1.169,7.601,4.093,7.601,4.093s15.2,1.17,18.125-7.015
	c8.185-2.339,18.707-1.754-5.262-14.616c9.938,2.922,16.952,8.185,17.538,5.846c4.677,4.677,17.54,9.355,4.093-4.677
	c5.262,1.168,0-2.923,5.262,1.168c5.261,1.17,5.261,1.17,5.261,1.17s13.447-1.17,5.262-4.677c0.585-4.092-1.169-5.261-4.092-3.508
	c0.585-4.093,0.585-2.338-6.431-9.938c3.507,1.169,6.431,0.584,6.431,0.584s16.371,20.462,22.216,14.616
	c-2.338-5.262-8.185-26.309,7.601,3.507c2.338,5.847,9.938,14.032,2.338-4.092c0.585-4.093-4.092-9.939-4.092-9.939v-4.677
	l-5.263-7.016c0,0,1.171-18.124-4.677-6.431c-2.337-0.584-4.092-2.923-4.092-2.923l2.34-3.507c0,0-4.094,0-7.602-7.017
	c2.338-4.093,2.924-7.016,2.924-7.016l2.922,0.585l1.756,4.676l5.26,2.34l1.755-5.848l2.338-2.337
	C922.116,112.255,325.789,116.347,321.697,109.916z"/>
<path fill="#BDAA91" stroke="#231F20" stroke-miterlimit="10" d="M107.72,281.799l-7.016,0.584l-5.846,1.17
	c0,0-5.262-1.17-11.108,8.769c-4.677,2.339-11.108,5.847-8.77,9.354c7.601,0,42.678,1.17,42.678,1.17s-1.753-8.77-5.261-9.354
	c1.753-3.507,1.168-8.185-2.339-7.6C110.644,282.967,107.72,281.799,107.72,281.799z"/>
<path fill="none" stroke="#231F20" stroke-miterlimit="10" d="M628.63,243.797l44.432-35.078v-2.923c0,0,3.509-6.43-8.771-11.692
	c-11.106-6.431-23.969-14.031-23.969-14.031s-16.954-4.677-19.294-2.922c-2.337,1.752,2.925,4.677,2.925,4.677
	s6.43,1.168,1.753,3.506c-2.338,5.263,1.171,5.263,1.171,5.263s-9.94,0-11.695,13.446c-4.676,0-8.185,0.585-8.185,0.585
	l-7.598,29.815l25.722,11.109C625.121,245.551,625.121,247.89,628.63,243.797z"/>
<path fill="#88765E" stroke="#231F20" stroke-miterlimit="10" d="M698.787,238.535l-16.956,35.078l-5.261-1.17l-5.847,6.431
	l-11.692-1.169l-30.401-33.908l44.432-35.078c0,0,9.354,11.109,12.277,7.601c3.509,9.354,7.016,19.293,7.016,19.293L698.787,238.535
	z"/>
<polygon fill="#004F7A" stroke="#231F20" stroke-miterlimit="10" points="725.679,237.366 728.602,291.154 726.265,291.737 
	724.509,289.398 721.001,290.568 715.74,289.398 712.232,291.154 686.509,289.398 675.4,274.783 681.831,273.613 699.371,235.612 
	"/>
<path fill="#BDAA91" stroke="#231F20" stroke-miterlimit="10" d="M697.032,324.477l-1.17-34.493l16.37,1.171l3.508-1.756
	l5.261,3.508l3.508-3.508l4.093,1.756l2.339,2.921l5.262,2.339l1.169,15.785l9.939,8.77L742.05,350.2l-39.756-0.585
	c0,0-8.187-4.092-8.187,0.585c-1.753,0.586-2.921,0-1.753-7.016C694.693,335.585,697.032,324.477,697.032,324.477z"/>
<path fill="#004F7A" stroke="#231F20" stroke-miterlimit="10" d="M770.893,318.435c0,0-0.974-4.677-6.82-5.65
	c-4.873,2.534-12.664,6.696-14.812,7.99c-2.146,1.292-4.874,25.334-7.21,29.426c0.976,6.042,5.652,32.74,6.041,35.663
	c4.872-3.312,10.181-7.454,13.762-6.065c2.667-0.582,3.226-0.782,3.226-0.782s2.884-1.69,3.312-2.21
	c0.427-0.52-0.033-4.39,1.722-3.22c1.723-1.438,1.17-5.066,4.874-2.728c2.456-0.227,17.73-13.059,21.435-11.888
	c-2.559-2.113-5.473-4.25-0.822-6.502c-1.533-4.439-3.075-10.063-2.489-11.037c-1.754-2.339-3.118-4.873-3.118-4.873
	s-3.117,1.559-1.56-4.092c-2.143-2.532-1.948-2.728-3.703-3.117C784.144,327.205,784.534,319.02,770.893,318.435z"/>
<path fill="#004F7A" stroke="#231F20" stroke-miterlimit="10" d="M757.642,291.737c0,0,1.558-8.575,0-8.185
	c0.193,2.728-1.949-4.677,7.016,1.948c1.753-2.534,3.701-7.015,2.729-10.523c0-3.313-0.26-3.897,0.259-5.262
	c0.52-1.365-5.048-8.186-5.048-8.186l-10.802,4.093c0,0-3.703-0.583-6.432,2.339c-3.117,0-16.762,1.559-16.762,1.559v21.633
	c0,0,3.701,4.48,7.601,5.26c0.362,4.903,1.169,15.785,1.169,15.785L757.642,291.737z"/>
<path fill="#D16536" stroke="#231F20" stroke-miterlimit="10" d="M739.907,226.452l-14.229,10.914l1.718,31.573
	c0,0,11.195-1.373,13.509-0.688c2.71-0.212,4.32,1.155,8.384-2.49c3.956-0.686,4.454-0.721,6.208-2.087
	c1.753-1.363,7.1-2.143,7.1-2.143l-1.449-6.04c0,0-1.752-8.22-4.092-9.275c-0.779-3.003-5.066-9.825-8.185-10.603
	C746.532,233.858,739.907,226.452,739.907,226.452z"/>
<path fill="#D16536" stroke="#231F20" stroke-miterlimit="10" d="M580.302,278.875l11.888,9.292c0,0,24.75-7.342,32.154-7.342
	c5.263-1.168,11.109-5.652,15.591-0.976c4.288,2.535,6.235,3.898,7.21,4.775c1.559-1.07,4.481-6.528,3.702-8.281
	c1.56-2.923,3.138-4.263,3.138-4.263l-24.803-27.666l-4.061,1.139l-18.502-7.99L580.302,278.875z"/>
<path fill="#004F7A" stroke="#231F20" stroke-miterlimit="10" d="M605.052,314.343h-4.677c0,0-2.532-12.084-4.093-13.446
	c-1.561-1.363-6.238-6.236-6.238-6.236s1.812-3.703,2.535-5.262c0.722-1.558,20.566-6.791,22.297-7.149
	c1.73-0.36,19.413-2.812,19.605-4.457c2.136,0.131,11.255,5.661,11.958,6.247c0.705,0.584-0.659,7.589,1.096,12.028
	c-1.95,3.854-6.433,9.506-7.601,10.091c-0.196,2.533,1.168,6.042,0,9.744c2.338,1.947,8.575,3.702,8.38,7.99
	c1.558,2.143,2.924,3.703,2.924,3.703s-18.515,5.456-27.674,3.896c-3.702,1.56-7.988,3.313-7.988,3.313
	S603.882,315.707,605.052,314.343z"/>
<path fill="#88765E" stroke="#231F20" stroke-miterlimit="10" d="M680.858,376.51c0,0,16.176-14.422,15.396-16.37
	c0.391-2.729-1.172-8.771,5.747-8.965c-4.594-3.157-4.386-6.041-7.894-0.975c-1.986-0.699-3.999-1.754,0.536-15.395
	c2.281-13.464,1.606-41.509,1.219-44.822c-6.403-0.384-6.627-0.585-9.354-0.585c-2.431-3.195-8.578-11.108-11.108-14.615
	c-3.17,2.434-4.677,4.091-4.677,4.091l-11.692-1.169l-5.047-5.626c0,0-3.574,2.899-3.355,6.796
	c-1.744,3.652-2.502,6.043-3.968,6.823c-0.06,2.541-1.007,5.583,0.323,8.442c-0.273,3.418-2.092,7.776-5.154,10.188
	c-1.868,3.354-2.302,1.737-1.461,7.09c-0.137,3.257-0.854,4.973,4.325,7.359c3.392,3.568,6.763,8.764,5.872,9.011
	c-0.894,0.243,0.891-0.247,0.891-0.247l5.626,3.756c0,0,3.119-0.39,4.094,3.509c1.948,2.922,3.118,4.288,3.312,6.82
	c1.17,2.34,2.144,5.262,2.144,5.262s3.118,2.727,2.533,7.795c0.78,2.729,3.653,7.796,4.36,10.719
	c1.487,2.338,3.239,5.068,3.63,7.796C678.716,375.729,680.858,376.51,680.858,376.51z"/>
<path fill="#004F7A" stroke="#231F20" stroke-miterlimit="10" d="M713.403,202.094l-28.064,14.226l6.545,17.967l6.271,3.961
	l1.217-2.635l25.313,1.687l0.994,0.066c0,0,10.915-7.795,14.229-10.914c-0.39-3.507-1.949-4.378-6.041-6.28
	c-1.17-4.243-2.535-14.376-6.432-14.376c-3.897-1.948-8.574-3.702-8.574-3.702S715.741,205.795,713.403,202.094z"/>
<polygon fill="#BDAA91" stroke="#231F20" stroke-miterlimit="10" points="490.074,197.807 490.074,151.816 542.494,151.816 
	541.715,197.807 "/>
<polygon fill="#004F7A" stroke="#231F20" stroke-miterlimit="10" points="489.292,244.579 542.494,245.164 541.715,197.807 
	490.074,197.807 "/>
<polygon fill="#BDAA91" stroke="#231F20" stroke-miterlimit="10" points="543.47,113.526 490.074,113.418 490.074,151.816 
	542.494,151.816 "/>
<polygon fill="#D16536" stroke="#231F20" stroke-miterlimit="10" points="578.158,151.816 578.158,113.536 543.47,113.526 
	542.494,151.816 "/>
<polygon fill="#88765E" stroke="#231F20" stroke-miterlimit="10" points="615.769,151.816 615.769,113.526 579.522,113.535 
	578.158,151.816 "/>
<polygon fill="#C09335" stroke="#231F20" stroke-miterlimit="10" points="542.494,151.816 542.494,203.654 576.793,203.654 
	574.455,198.977 573.87,151.816 "/>
<polygon fill="#004F7A" stroke="#231F20" stroke-miterlimit="10" points="595.111,203.654 600.764,151.816 573.87,151.816 
	574.455,198.977 576.793,203.654 "/>
<path fill="#D16536" stroke="#231F20" stroke-miterlimit="10" d="M615.769,151.816v25.919h4.766c0,0-0.087,4.094,6.733,3.703
	c0.139,2.2,2.725,1.555-1.562,3.896c-0.664,1.933-1.773,3.032,0.088,4.926c-3.441,1.637-9.833,4.816-10.612,13.783
	c-6.938,0.414-20.07-0.388-20.07-0.388l5.652-51.838H615.769z"/>
<path fill="#BDAA91" stroke="#231F20" stroke-miterlimit="10" d="M542.494,203.654l64.503,0.973l-7.598,29.815l6.782,3.805
	l-3.535,5.55c0,0-6.364-6.04-8.703-4.675c-3.314-1.366-4.093-1.368-5.457-3.51c-2.143-1.167-5.652-2.924-9.158,1.949
	c-1.561-0.389-3.121-2.72-4.582,0.686c-2.825,2.237-3.215,2.432-6.137,2.432c-3.12,2.145-6.432,5.536-6.432,5.536l-20.467-1.062
	L542.494,203.654z"/>
<path fill="#004F7A" stroke="#231F20" stroke-miterlimit="10" d="M647.34,161.756v-38.195l2.144-2.145c0,0,1.171-2.923,1.755-2.532
	c0.584,0.388,0-5.358,0-5.358h-35.47v64.208l3.898,0.253c0,0,0.971-5.132,20.655,2.083c1.171-2.53,2.145-1.764,0.976-3.316
	c0-2.331-1.557,0.201,1.169-4.475C644.026,169.356,647.34,161.756,647.34,161.756z"/>
<path fill="#C09335" stroke="#231F20" stroke-miterlimit="10" d="M677.351,145.386v-31.859h-26.112l0.259,4.093l-2.014,3.797
	l-2.144,2.145v38.195h12.861c0,0,3.507,0.781,3.507-3.117c1.95-1.95,4.482-1.95,5.847-1.755c2.145-1.56,5.458-3.898,4.873-6.042
	C675.986,148.31,677.351,145.386,677.351,145.386z"/>
<path fill="#BDAA91" stroke="#231F20" stroke-miterlimit="10" d="M709.31,138.565v-25.039h-31.959v31.859l-2.923,5.457v2.338h4.873
	c0,0,2.337,0.976,5.065,0c3.704,0.585,9.354,2.925,11.693,2.73c3.312,0.391,4.48,0.012,4.48,0.012L709.31,138.565z"/>
<path fill="#004F7A" stroke="#231F20" stroke-miterlimit="10" d="M673.062,208.719l27.479-52.797c0,0-13.25-0.597-16.174-2.742
	c-2.533,0.432-4.092,0-7.016,0c-2.923,0-2.923,0-2.923,0l-4.873,3.704c0,0-4.872-1.51-7.211,4.605
	c-5.455,0.267-15.004,0.267-15.004,0.267l-6.299,13.055c0,0,1.618,3.114-0.719,5.261c4.548,2.681,23.386,13.694,23.386,13.694
	S676.763,198.388,673.062,208.719z"/>
<path fill="#004F7A" stroke="#231F20" stroke-miterlimit="10" d="M738.737,164.873c0,0-7.599,0.392-8.573-0.972
	c-2.34,0.972-1.173,0.583-4.485,2.142c-3.895,0.585-5.65,0-7.987,0c-2.339-1.558-4.289-1.042-5.068-4.222
	c-2.729-0.064-4.091,0-4.091,0s-0.987-3.08-5.067-3.379c-2.925-2.52-2.925-2.52-2.925-2.52l-27.479,52.797
	c0,0,7.672,9.936,12.277,7.601c4.606-2.336,28.064-14.226,28.064-14.226s2.922,4.089,5.457,0
	C720.418,197.419,726.655,181.244,738.737,164.873z"/>
<path fill="#88765E" stroke="#231F20" stroke-miterlimit="10" d="M752.573,216.676c0,0,5.458-3.401,6.237-5.191
	c2.144-3.152,4.873-5.492,7.6-5.687c0.976-2.143,1.364-2.498,4.287-1.638c0.584-4.012,0.396-11.418-3.019-14.342
	c0.485-3.701,0-6.236,0-6.236s-3.802-6.242-10.623-3.51c-1.949-2.53-5.846-6.623-3.702-8.571c-3.508-2.729-3.813-1.949-9.216-4.288
	c-3.062-2.727-4.23-3.312-4.23-3.312s-24.555,35.655-21.047,38.193c4.788,1.95,12.129,1.656,13.859,13.204
	c0.672,2.948,1.146,4.874,1.146,4.874s5.187,2.301,6.041,4.763C743.414,223.337,752.573,216.676,752.573,216.676z"/>
<path fill="none" stroke="#231F20" stroke-miterlimit="10" d="M812.792,112.873c0,0-1.755,9.322-2.34,11.467
	c0.78,2.533-0.779,6.595,14.03,13.334c4.678,2.257,12.278,6.544,9.939,12.975c-2.338,6.431-2.338,6.431-2.338,6.431l-50.278-1.158
	l8.77-27.684c0,0,1.365-1.95,3.898-1.56c0.777-3.117,1.946-3.702,1.946-3.702s4.873-4.677-4.676-5.458
	c-3.118-2.339-4.093-4.1-4.093-4.1L812.792,112.873z"/>
<path fill="#C09335" stroke="#231F20" stroke-miterlimit="10" d="M773.815,166.434c0,0-9.38-4.288-11.219-6.432
	c-0.669-2.922-5.542-22.216-10.023-12.277c-4.482,0-9.551,0.974-5.263-9.16c1.171-5.262,0.391-12.277-6.43-11.887
	c-3.897-0.195-5.847-2.338-9.354-3.507c-3.897,0.193-7.016-0.584-7.6-1.364c-0.585-0.781-4.972-1.365-5.409-0.975
	c-0.437,0.391-4.725-3.118-8.231-2.144l-0.977-0.17v19.157l-8.77,18.248l2.925,2.52c0,0,4.287,0.907,5.067,3.379
	c3.118-0.019,4.091,0,4.091,0s0.428,2.519,3.525,3.407c1.543,0.815,3.449-0.157,3.449-0.157s5.694,2.532,10.566-1.169
	c4.101,0.972,8.379,0.973,9.743,0c2.083,1.487,13.446,7.6,13.446,7.6s-2.533,1.748,3.702,8.571c5.291-0.44,9.738-0.247,10.716,4.165
	c5.655-3.381,10.527-7.481,10.527-7.481s3.701-3.306,0-3.698c-0.78-1.947,1.559-3.312-3.313-4.676
	C773.815,166.434,773.815,166.434,773.815,166.434z"/>
<path fill="#88765E" stroke="#231F20" stroke-miterlimit="10" d="M781.806,155.922l7.803-24.635c0,0-0.202-5.387,4.865-4.609
	c1.946-3.702-0.016-2.931,2.915-5.07c-0.001-2.067,3.025-2.672-7.059-5.232c-2.679-2.958-3.457-3.384-3.457-3.384l-77.563,0.534
	v4.991c0,0,6.722-0.023,9.208,2.314c3.827,0.288,5.601,0.157,7.161,1.832c3.896,0.522,6.468-0.37,12.102,3.382
	c5.747,0.921,13.739,0.054,7.934,18.955c0.766,1.789,2.96,2.919,6.859,2.725c1.358-2.153,5.04-7.794,10.023,12.277
	c8.46,5.113,8.296,5.847,11.219,6.432c2.338-2.533,7.99-7.601,7.99-7.601V155.922z"/>
<path fill="#004F7A" stroke="#231F20" stroke-miterlimit="10" d="M863.656,137.674v-16.257c0,0-3.117-6.468-3.508-8.788
	c-3.506,0.018-47.356,0.244-47.356,0.244s-7.571,15.785,6.35,22.103c7.865,4,13.446,6.839,15.144,10.671
	c3.647-0.652,7.74-4.744,11.053-3.769c1.753-0.975,1.169-2.772,3.119-2.166C851.769,139.931,863.656,137.674,863.656,137.674z"/>
<path fill="#BD6628" stroke="#231F20" stroke-miterlimit="10" d="M879.441,112.52c0,0,5.066,10.699,11.887,16.619
	c4.094,3.777,14.422,14.3,14.422,14.3s0.195,4.773,5.262,3.36c2.339,2.875-0.195-0.645,2.339,2.875
	c2.533,3.521,5.258,12.275,5.258,12.275s-7.409,4.479-22.216-14.616c-4.307-0.06-6.431-0.584-6.431-0.584s2.146-8.962-6.818-10.326
	c-2.145-4.092-7.407-9.354-13.447-9.354c-1.753-3.313-4.286-6.236-6.04-5.651c-1.169-2.532-2.729-8.897-2.729-8.897H879.441z"/>
<path fill="#004F7A" stroke="#231F20" stroke-miterlimit="10" d="M906.142,112.357l1.944,0.482c0,0-3.517,5.908-2.924,7.016
	c0.592,1.108,4.089,7.402,7.602,7.017c-1.592,2.383-0.395,2.53-2.34,3.507c3.031,2.525,4.092,2.923,4.092,2.923
	s6.039-13.839,4.677,6.431c5.263,7.016,5.263,7.016,5.263,7.016s-2.913,2.879,3.611,11.087c0.408,1.561-0.646,3.857,2.062,7.493
	c0.876,2.495,4.693,16.043-5.557-2.923c-4.599-7.974-6.734-15.657-9.952-10.589c-3.608-5.018-3.459-4.773-6.749-5.018
	c-2.121-3.36,0.486-0.878-6.966-8.259c-7.45-7.38-23.994-25.175-21.464-26.02C882.555,112.501,906.142,112.357,906.142,112.357z"/>
<path fill="#D16536" stroke="#231F20" stroke-miterlimit="10" d="M863.656,137.674c0,0,5.457,8.394,9.939,9.125
	c4.093,3.265,8.38,6.542,8.185,9.287c1.558,1.772,6.174,4.182,5.477,6.32c-2.557,0.127-2.557,0.127-2.557,0.127
	s16.438,16.621-5.519,5.194c-6.688-2.764-14.745-6.36-15.525-7.53c1.659,2.388,10.201,7.583,10.201,7.583s13.178,4.494-5.526,8.201
	c-4.09-0.97-3.896-1.032-7.403-3.634c-4.677-0.26-9.939,1.104-10.329-7.081c0.779-5.456,0.39-7.188-1.364-9.343
	c0-3.91,2.011-16.332,2.011-16.332L863.656,137.674z"/>
<path fill="#004F7A" stroke="#231F20" stroke-miterlimit="10" d="M834.857,145.513c0,0,9.311-5.194,10.48-3.634
	c1.387-1.514,4.021-3.409,5.907-2.289c-0.311,1.995-3.803,16.067-0.567,18.922c0.238,3.993-1.639,16.825,10.25,13.834
	c5.712,3.217,10.715,5.68,1.266,9.141c-10.23,1.565-12.958,4.42-14.907-4.731c-4.681,2.146-7.512,3.647-12.429-4.41
	c-2.771-8.835-2.773-15.266-2.773-15.266s3.819-9.076,2.201-11.432C832.668,143.29,834.857,145.513,834.857,145.513z"/>
<path fill="#88765E" stroke="#231F20" stroke-miterlimit="10" d="M781.806,155.922l50.278,1.158l0.726,6.821
	c0,0-4.626,1.176-0.726,7.7c2.918,7.112,4.091,9.061,4.091,10.812s5.532,2.23-2.104,7.839c-2.476,3.262-2.184,2.684-1.986,7.557
	c-1.752,2.142-5.26,1.559-5.845,0c-0.584-1.56-5.454,0.261-5.847,1.398c-1.364,1.135-4.871-0.228-4.871-1.983
	c-1.365-1.365-5.653-1.752-8.381-0.584c-2.729,1.169-5.456-2.534-7.404-6.43c-2.924-0.584-1.169,0-6.819-0.584
	c-5.653-0.585-9.166-1.367-11.111-1.561c-0.777-2.338,2.629-7.021-9.014-7.115c5.507-4.195,9.206-7.307,5.507-7.893
	c-0.121-2.541-0.782-4.676-3.313-4.676c-1.17-1.948-1.17-1.948-1.17-1.948l7.99-7.601V155.922z"/>
<path fill="#C09335" stroke="#231F20" stroke-miterlimit="10" d="M832.082,199.366c0,0-2.725,7.401-4.48,9.353
	c-0.973,3.316-2.921,13.332,0,16.216c-6.234,0.354-22.149,0.938-22.149,0.938l-15.85-7.406l-2.339-3.701
	c0,0-16.677-9.702-16.566-10.604c0.109-0.904,0.392-14.535-3.019-14.342c0.212-3.705,0-6.236,0-6.236l6.259-3.51
	c0,0,9.222,0.634,7.768,7.529c7.871,1.628,12.576,2.207,13.935,2.261c1.361,0.053,2.082-4.261,9.812,6.91
	c4.198-0.75,9.344-2.957,11.265,2.159c3.676,0.276,5.593-1.14,6.206-1.326c0.611-0.189,5.85,1.594,5.85,1.594L832.082,199.366z"/>
<path fill="#004F7A" stroke="#231F20" stroke-miterlimit="10" d="M865.994,222.947l-0.778-10.134l8.38-9.841l-1.759-10.624
	c0,0,3.317-10.446-8.181-4.052c-11.733,2.843-4.488,2.883-23.974,2.885c-3.734,4.659-7.601,8.185-7.601,8.185
	s-12.273,20.736-3.504,25.569C838.126,224.895,865.994,222.947,865.994,222.947z"/>
<path fill="#D16536" stroke="#231F20" stroke-miterlimit="10" d="M881.262,191.052c0,0-0.03-6.68,15.542-6.003
	c5.782-0.058,13.905,0.011,9.965,5.41c-0.049,1.524-0.444,1.806,2.095,2.628c0.087,2.225-1.943,4.064-4.282,6.537
	c0.206,3.91,4.673,21.373,4.673,21.373l-7.015,1.753l-3.115-0.973l-33.13,1.17l-0.778-10.134l8.38-9.841l-1.759-10.624
	c0,0,8.571,0.195,9.939-0.583C883.144,190.985,881.262,191.052,881.262,191.052z"/>
<path fill="#BDAA91" stroke="#231F20" stroke-miterlimit="10" d="M739.907,224.935l18.189-12.469c0,0,2.55-5.945,6.017-6.015
	c2.723-1.521,3.468-0.88,3.565-2.521c2.035-0.034,3.019,0.231,3.019,0.231l16.566,10.604l2.339,3.701l-0.976,7.986l2.924,3.12
	l1.366,6.041c0,0,10.966,6.82,4.896,8.185c-1.391,0.782-1.391,0.782-1.391,0.782s-0.975,11.886-1.948,13.25
	c-0.975,1.366-7.99,3.12-7.601,9.551c-3.119,0.973-4.312,1.493-6.931-4.516c-3.398,2.566-5.932,6.076-5.932,6.076h-6.333
	l-5.082-7.408c0,0-3.203-15.431-5.541-15.315c-0.893-2.26-5.262-10.02-8.185-10.603
	C746.916,233.863,739.907,224.935,739.907,224.935z"/>
<path fill="#88765E" stroke="#231F20" stroke-miterlimit="10" d="M851.582,223.883c0,0,5.059,2.962,4.669,6.469
	c4.286,2.923,9.354,4.672,7.796,7.209c0.973,2.535,1.362,6.784-1.367,8.654c-2.531,0.898-4.873,1.089-4.873,1.089l-3.895-1.089
	l-1.952,0.506l0.416,5.672c0,0,1.716,3.098,0.033,6.619c-1.683,3.522-3.995,3.054-3.995,3.054s-9.771-4.13-9.348-2.722
	c-2.702-0.269-6.429-2.427-8.848-1.971c-2.404-1.239-4.799-2.534-4.799-2.534s-9.51-4.024-10.483-2.271
	c-2.146-2.341-4.732-5.442-6.604-3.843c-3.088-0.606-4.896-0.835-4.896-0.835s7.207,4.87,8.185,12.862
	c1.683-3.813,2.143-8.383,7.016-2.924c3.024-0.532,7.208,0.194,7.017,5.262c2.226-0.476,3.12,0,3.12,0s4.745-1.387,9.339,1.953
	c0.887,3.041,3.821,2.517,5.79,3.897c1.969,1.379,1.631-0.78,1.631-0.78l3.505,5.454l-3.505,8.968l-14.616-1.755l-9.938-7.211
	l-16.761-14.227l-11.669-0.238c0,0,3.673-3.077,3.871-15.354c2.4-0.354,7.799-0.002-3.503-8.185c-0.97-4.287-0.393-6.434-4.29-9.161
	c0.616-5.035,0.976-7.986,0.976-7.986l15.85,7.406L851.582,223.883z"/>
<path fill="#88765E" stroke="#231F20" stroke-miterlimit="10" d="M911.391,221.241h12.881c0,0,0.006,3.65-1.072,5.211
	c-0.234,2.11,1.279,4.263-0.776,5.25c-0.751,2.066,1.055,4.102-2.06,5.664c-1.255,2.214-1.174,3.115-2.924,4.679
	c0.513,2.348-0.197,10.911-5.261,8.769c-0.778,3.415-4.683,9.741-12.863,9.939c-1.932,2.688-3.315,6.234-6.431,0
	c-2.328,1.46-4.481,3.119-5.65-0.194c-1.887,1.482-4.876,4.088-6.627,1.948c-1.68,1.403-8.967,8.766-9.938-2.339
	c-1.361,2.875-2.335,9.355-5.453,5.069c-3.901-1.562-4.288-2.373-4.288-2.373s-2.345-2.504-3.706-2.111
	c-0.609-2.722,1.184-7.183-0.674-9.242c1.259-4.206,1.259-4.206,1.259-4.206s10.916-0.781,6.24-9.743
	c0.012-1.831,1.558-2.141-7.796-7.209c-2.612-4.941-4.669-6.469-4.669-6.469l47.542-2.106
	C899.124,221.777,915.277,231.228,911.391,221.241z"/>
<path fill="#C09335" stroke="#231F20" stroke-miterlimit="10" d="M922.701,191.765c0,0,7.012-17.736,8.77-2.338
	c3.087,1.402,3.087,1.402,3.087,1.402s4.121,2.882,5.683,11.459c2.343,2.71,4.396,8.285,1.323,12.037
	c-1.253,3.792,1.596,15.781-10.678,11.349c-4.524-3.266-5.648-5.502-5.648-5.502l-2.536,1.069h-11.311l2.746-5.741l-0.56-16.944
	C913.577,198.556,912.369,191.763,922.701,191.765z"/>
<path fill="#BDAA91" stroke="#231F20" stroke-miterlimit="10" d="M851.375,299.922c0,0,1.515,5.206-6.256,4.65
	c-2.947,1.905-2.947,1.905-2.947,1.905s-5.667,0.413-3.492,3.557c-2.505,3.335-3.822,2.165-3.822,2.165s-5.424,8.963-11.504,0
	c0.156-3.31-0.661-3.814-5.319-4.147c-2.648-1.866-2.513-21.187-2.513-21.187l5.457-13.25l9.938,7.211l14.616,1.755l3.505-8.968
	c0,0,5.259-9.356,7.016,0.584c1.951-1.556,6.818-5.459,5.847,0.585c1.405,2.85,2.289,7.947,0.585,8.77
	c-1.705,0.82-3.87,0.583-3.98,3.312c-0.109,2.73-2.902,0.866-5.209-0.83c-2.473,0.309-7.766,3.948-7.766,3.948
	s5.596,6.373,7.38,3.09c2.801-1.712,11.298-1.374,0.163,6.122"/>
<path fill="#004F7A" stroke="#231F20" stroke-miterlimit="10" d="M794.669,299.729l-23.716-9.55c0,0-6.493-1.757-6.296-4.679
	c1.692-3.06,4.285-7.212,2.729-10.523c-0.032-4.093,0.293-6.039,0.293-6.039h6.333c0,0,5.145-14.293,8.516-1.689
	c3.453,0.403,3.924,1.295,5.402-4.16c3.559-3.301,1.289-5.618,7.521-3.88c7.009,0.145,8.767,0.179,8.767,0.179l16.761,14.227
	l-5.457,13.25l0.005,19.434c0,0-13.76-10.206-10.78-12.383c-1.892-5.1-4.566-9.971-6.933-10.067
	c-2.808-2.76-5.032-5.292-7.692-3.279c-1.886,2.983,6.365,5.124,8.673,11.168c2.704,4.017,5.605,8.955,5.605,8.955
	s-0.961,4.298-3.69,0.206c-2.143,0.195-0.59-1.753-4.289,1.56C794.669,299.729,794.669,299.729,794.669,299.729z"/>
<path fill="#88765E" stroke="#231F20" stroke-miterlimit="10" d="M793.108,341.432c0,0,4.19-4.87,6.772-4.286
	c2.974-1.363,2.974-1.363,2.974-1.363v-32.35c0,0-2.316-5.128-5.738-1.591c-1.278-0.291-1.472,0.615-2.447-2.112
	c-2.417-0.973-26.99-10.821-26.99-10.821s-3.942-1.749-3.021-3.407c-1.632-1.132-9.409-8.187-6.654,3.897
	c-0.361,2.339-0.361,2.339-0.361,2.339l-18.904,20.191l10.522,8.846l14.812-7.99c0,0,6.624,1.75,6.82,5.65
	c2.614,0.226,13.373,1.054,13.605,9.688c2.652,2.789,6.079,2.982,4.129,7.659c1.363,0.776,1.363,0.776,1.363,0.776L793.108,341.432z
	"/>
<path fill="#004F7A" stroke="#231F20" stroke-miterlimit="10" d="M730.507,402.427l-13.206-8.765c0,0-10.911,10.327-12.081,10.327
	c-0.195,1.949,1.365,4.873,3.508,6.627c0.78,3.508-0.194,6.234-0.194,6.234l3.118,7.601l1.564,13.432c0,0-0.18,11.008,3.122-3.939
	C721.528,419.016,730.507,402.427,730.507,402.427z"/>
<path fill="#004F7A" stroke="#231F20" stroke-miterlimit="10" d="M689.045,399.118l-7.014,14.81h-14.616
	c0,0-1.721,11.109-13.431,7.406c-4.304,0-9.175-0.389-8.202,3.507c-0.78,3.702-1.42,3.703-0.124,7.017
	c-0.46,3.702-2.02,4.48-3.579,5.455c-1.169,2.145-5.617,9.354-5.617,9.354l9.464,11.862c0,0,6.464-0.265,7.445-1.096
	c0.981-0.83,9.943-2.196,8.583-5.507c4.83,0.714,15.002,1.944,16.954-0.585c2.569,1.067,3.8,1.385,3.8,1.385
	s13.172-0.173,15.115,3.218c3.061-1.409,16.743-14.934,9.732-37.926c1.472-4.675,1.172-7.402,1.172-7.402s-5.247-5.525-3.508-6.627
	c-2.534-1.363-3.219-1.558-3.219-1.558S694.113,402.433,689.045,399.118z"/>
<path fill="#004F7A" stroke="#231F20" stroke-miterlimit="10" d="M702.294,349.615l39.756,0.585l6.041,35.663
	c0,0-5.497,1.367-3.429,7.799c-5.163,2.696-7.895,3.571-7.895,3.571s-4.36-1.632-6.261,5.193
	c-9.062-6.016-13.206-8.765-13.206-8.765s-10.999,10.896-12.081,10.327c-1.08-0.57-3.219-1.558-3.219-1.558
	s-10.032-0.779-12.956-3.313c-1.364-2.534-4.678-4.287-9.158-4.677c1.169-2.534,9.157-7.796,2.336-10.719
	c-0.389-3.897-1.364-7.213-1.364-7.213l15.396-16.37l0.928-6.649c0,0,3.55-2.903,4.819-2.315
	C703.271,351.764,702.294,349.615,702.294,349.615z"/>
<path fill="#004F7A" stroke="#231F20" stroke-miterlimit="10" d="M675.4,397.169l9.507-9.944c0,0-4.867-5.122-3.093-6.457
	c-0.391-1.979-0.956-4.258-0.956-4.258s-6.046-3.545-5.458-8.007c-1.875-3.102-3.973-5.744-4.419-9.392
	c-1.458-3.37-2.455-6.037-2.231-8.739c-1.142-2.32-2.462-4.779-3.36-6.763c-0.901-1.983-3.554-7.827-3.554-7.827
	s-2.486-4.861-5.469-4.963c-2.428-1.622-4.284-3.446-5.801-3.031c-1.518,0.414-24.082,5.26-27.002,3.704
	c-3.168,1.324-7.988,3.313-7.988,3.313s-0.959,8.381,1.566,13.254c0.187,5.457-0.396,12.473-4.1,15.396
	c0,5.067,1.363,11.498,1.363,11.498s4.483-0.195,16.761,5.65c0.778-1.363-3.313-5.846,13.057,3.509
	c1.168,2.729,1.947,3.313,1.947,3.313l5.067,3.508C651.238,390.934,672.085,398.144,675.4,397.169z"/>
<path opacity="0.4" fill="#808184" stroke="#231F20" stroke-miterlimit="10" d="M675.4,397.169l9.507-9.944
	c0,0-4.867-5.122-3.093-6.457c-0.391-1.979-0.956-4.258-0.956-4.258s-6.046-3.545-5.458-8.007c-1.875-3.102-3.973-5.744-4.419-9.392
	c-1.458-3.37-2.455-6.037-2.231-8.739c-1.142-2.32-2.462-4.779-3.36-6.763c-0.901-1.983-3.554-7.827-3.554-7.827
	s-2.486-4.861-5.469-4.963c-2.428-1.622-4.284-3.446-5.801-3.031c-1.518,0.414-24.082,5.26-27.002,3.704
	c-3.168,1.324-7.988,3.313-7.988,3.313s-0.959,8.381,1.566,13.254c0.187,5.457-0.396,12.473-4.1,15.396
	c0,5.067,1.363,11.498,1.363,11.498s4.483-0.195,16.761,5.65c0.778-1.363-3.313-5.846,13.057,3.509
	c1.168,2.729,1.947,3.313,1.947,3.313l5.067,3.508C651.238,390.934,672.085,398.144,675.4,397.169z"/>
<path fill="#004F7A" stroke="#231F20" stroke-miterlimit="10" d="M614.406,374.953c0,0,14.815,3.51,16.761,5.65
	c0.447-2.205-3.706-6.468,13.057,3.509c1.947,3.313,5.979,6.576,11.398,8.284c5.418,1.707,15.359,4.862,15.359,4.862
	s3.726,0.634,6.892-2.678c4.169,0.173,10.592,1.228,11.172,4.537c-1.646,3.477-7.014,14.81-7.014,14.81h-14.616
	c0,0-2.931,12.273-14.231,7.402c-6.105,0.574-7.982,1.371-7.401,3.511c-0.522,2.159-1.028,5.462-0.124,7.017
	c-0.383,1.839,0.712,2.536-3.579,5.455c-2.579,4.377-6.3,10.784-6.3,10.784l-41.737-44.086l2.433-3.142c0,0,0.975-6.432,1.948-5.847
	c0.78-1.56,0.978-5.067,3.12-4.874c1.752-1.558,1.948-4.287,3.312-5.261c1.365-0.974,2.146-2.534,4.289-3.507
	C611.287,379.433,614.406,374.953,614.406,374.953z"/>
<path fill="#D16536" stroke="#231F20" stroke-miterlimit="10" d="M556.319,364.252l8.001-28.47c0,0-2.339-6.433,0-6.629
	c2.338-0.194,13.836,0,13.836,0l22.219-14.811h4.677l0.837,3.09l9.688,17.373c0,0,0.893,9.511,1.241,12.543
	c0.351,3.033,0.518,12.798-3.774,16.106c0.38,5.431,1.363,11.498,1.363,11.498s-3.316,6.066-7.409,7.903
	c-2.143,2.031-3.792,3.019-4.623,6.324c-2.574,2.052-3.755,3.504-3.951,5.842c-1.333,2.686-2.336,6.35-2.847,7.009
	c-0.514,0.661-1.534,2.733-1.534,2.733L556.319,364.252z"/>
<path fill="none" stroke="#231F20" stroke-miterlimit="10" d="M472.727,244.576l45.992,0.585l16.562,47.745v4.482
	c0,0-11.886-4.481-23.772-3.117c-3.12-0.781-9.16-3.117-9.745,0.389c-3.314,0.78-6.432,1.754-11.887,0.585
	c-1.169-5.067-1.169-5.847-4.677-12.278c-0.196-2.728-0.585-3.117,0.973-5.065c-0.388-2.145,0.001-4.483,1.365-5.652
	c0.389-1.949,2.339-7.407-2.338-11.109c-1.56-3.507-1.755-2.533-2.34-4.873c-0.584-2.338-1.949-5.064-4.872-5.649
	C475.064,248.866,473.117,246.136,472.727,244.576z"/>
<path fill="#BDAA91" stroke="#231F20" stroke-miterlimit="10" d="M560.617,246.136l-41.898-0.974l16.562,47.745v4.482
	c0,0,6.433,4.872,11.499,4.482c2.729,1.56,5.849,2.728,7.212,2.532c1.947,0.781,3.701,2.339,6.04,3.119
	c1.364-1.949,24.36-35.468,24.36-35.468l-8.966-5.261l-1.558-1.95l-2.145-0.78l-0.39-2.144l-11.107-13.252L560.617,246.136z"/>
<path fill="#D16536" stroke="#231F20" stroke-miterlimit="10" d="M529.242,336.169l2.144-4.48l4.093-1.171
	c0,0-1.56-4.093,3.702-6.43c0-4.872,0-9.355,0-9.355s4.87-1.169,7.795-4.872c5.263,1.365,10.912,2.534,14.81,0
	c2.535,1.949,4.095,6.042,3.899,7.212c-0.196,1.168,0,9.352-1.17,11.302c-1.17,1.949-1.754,5.067,0,6.821
	c-0.584,2.728-8.195,29.057-8.195,29.057L529.242,336.169z"/>
<path fill="#88765E" stroke="#231F20" stroke-miterlimit="10" d="M502.349,335.78l10.329-10.719l1.17-3.118l-0.975-4.094
	c0,0-1.561-9.547-3.314-9.743c-1.754-2.339-2.534-3.507-2.534-3.507s0.195-3.898-4.676-0.78c-2.533,1.169-3.899,1.948-5.847-0.389
	c-2.532-1.756-3.117-2.729-4.677-2.924c-1.363-1.364-4.481-3.313-1.948-5.262c3.702,0.585,8.964,0.974,11.694-1.366
	c2.531-1.167,3.311-1.751,8.768,0.393c4.678-0.196,2.923,0.974,6.82-0.196c5.457,0.389,15.005,1.754,18.122,3.313
	c3.314,2.339,9.552,5.262,11.499,4.482c3.703,1.754,5.458,2.338,7.212,2.532c2.144,1.17,5.649,2.533,6.04,3.119
	c0.391,0.584,1.753,2.338,1.753,2.338s-4.481,2.924-14.81,0c-2.727,2.534-4.093,4.483-7.795,4.872c0.193,4.287,0,9.355,0,9.355
	s-6.041,3.312-3.702,6.43c-3.314,0.779-6.043,2.339-6.236,5.651C522.032,336.169,502.349,335.78,502.349,335.78z"/>
<path fill="#004F7A" stroke="#231F20" stroke-miterlimit="10" d="M463.178,334.806l1.948-45.797c0,0,5.068-6.043,5.846,4.288
	c1.17,0.778,2.145,1.363,2.145,1.363s2.144,2.338,5.652-0.781c1.755-1.752,4.481-4.48,8.964,1.366
	c1.17,0.974,2.339,5.261,5.456,5.651c2.534,1.753,3.313,2.534,3.313,2.534s1.755,3.116,5.847,0.389
	c2.145-0.975,4.871-2.338,4.676,0.78c1.562,2.143,2.534,3.507,2.534,3.507s2.533,4.482,2.729,6.821c0.193,2.338,0,2.922,1.17,4.677
	c0.193,1.754-0.194,6.042-3.118,8.38c-2.923,2.339-7.99,7.796-7.99,7.796L463.178,334.806z"/>
<path fill="#BDAA91" stroke="#231F20" stroke-miterlimit="10" d="M405.69,312.979l37.61-25.529c0,0,6.821,7.989,11.887,7.599
	c4.678-2.143,8.77-4.871,9.939-6.04c0,3.118-1.948,45.797-1.948,45.797l-47.94-1.56l-0.585-12.277L405.69,312.979z"/>
<path fill="#BDAA91" stroke="#231F20" stroke-miterlimit="10" d="M396.53,243.019l15.591,0.585c0,0,1.558,6.819,2.143,7.015
	c0.975,1.753,2.729,5.064,2.729,5.064s0.584,5.069,2.533,5.654c3.119,2.337,6.821,5.456,7.991,17.343
	c8.769,4.873,15.784,8.77,15.784,8.77l-37.61,25.529l-9.939-12.083l-8.381,4.481c0,0-7.989,3.702-3.312-3.313
	c0.585-3.896,0-8.378,0-8.378l1.949-9.354l0.194-4.676l1.366-3.314l0.194-6.625c0,0,0.975-2.533,2.533-2.338
	c1.56,0.194,2.535-0.391,2.535-0.391l-0.197-3.898l-3.312-0.194v-2.924l6.819-13.641L396.53,243.019z"/>
<path fill="#004F7A" stroke="#231F20" stroke-miterlimit="10" d="M462.009,244.187l-49.888-0.583c0,0,2.728,10.132,4.287,11.107
	c0.975,2.338,0.975,1.946,1.169,3.508c0.194,1.56,0.975,2.727,2.923,3.702c1.949,1.56,7.209,7.405,7.016,16.76
	c5.846,3.119,13.64,7.6,13.64,7.6s4.093,1.753,4.677,2.923C447.784,284.526,462.009,244.187,462.009,244.187z"/>
<path fill="#D16536" stroke="#231F20" stroke-miterlimit="10" d="M462.009,244.187l10.718,0.39c0,0,2.728,5.458,6.43,6.627
	c1.951,0.973,3.898,4.091,4.093,6.624c1.365,2.144,0.975,2.145,3.312,4.873c1.755,2.728,2.34,6.625,0.976,9.549
	c-1.365,2.145-2.144,4.093-1.365,5.652c-1.362,2.337-1.558,2.729-0.973,5.065c1.17,2.339,5.262,10.912,4.677,12.278
	c-1.169-0.196-2.145,0-2.145,0s-4.287-6.627-8.964-1.366c-2.337,1.756-3.508,2.146-5.652,0.781c-1.17-1.17-1.949-0.584-2.729-4.482
	c-1.363-2.922-1.559-4.286-5.262-1.169c-2.338,1.948-12.472,12.082-19.293,0.194C450.51,276.342,462.009,244.187,462.009,244.187z"
	/>
<path fill="none" stroke="#231F20" stroke-miterlimit="10" d="M489.877,180.851l-9.745-0.388l-1.948,1.557l-6.43-0.193l-2.34,0.777
	l-8.965-0.388c0,0-6.04,7.015-9.548,5.262c0.975,3.507,1.365,4.87,2.144,6.04c0.779,1.169,2.533,3.899,0.973,5.262
	c-1.557,1.363-1.363,2.729-0.973,3.702c-0.78,0.781-2.144,0.975-2.144,1.56c0,0.585-3.117,1.753-3.117,1.753
	s-0.976,1.754-3.119,0.585c-0.974-0.585-3.509-1.95-1.948,2.533c0.779,1.949,0.779,2.922,0,4.092
	c-0.194,1.951,1.168,7.797,1.168,7.797s3.314,2.34,4.678,2.532c2.145,1.56,5.261,2.339,6.624,3.117
	c1.951,0.391,5.848,1.367,6.432,7.407c0.975,2.532,0.975,3.118,4.092,3.507c1.95,0.584,4.092,1.169,4.484,3.702
	c0.39,2.537,1.56,3.509,1.56,3.509l17.538,0.003L489.877,180.851z"/>
<path fill="none" stroke="#231F20" stroke-miterlimit="10" d="M419.721,243.604l-5.652-19.49l6.237-20.657v-4.872
	c0,0,7.6,1.364,11.106,6.431c2.925,1.558,7.017,5.649,8.771,9.548c2.339,3.118,3.702,6.237,3.702,6.237s3.508,2.34,4.678,2.532
	c1.56,1.363,3.117,1.949,3.117,1.949s9.549,0.583,9.939,8.575c0.975,2.532,0.585,2.922,4.874,3.702
	c2.532,1.365,2.922,1.56,3.702,3.507c0.777,1.952,1.56,3.509,1.56,3.509L419.721,243.604z"/>
<path fill="none" stroke="#231F20" stroke-miterlimit="10" d="M420.891,177.342l22.8,0.197l5.262,4.48l1.948,5.458l0.39,3.118
	l2.338,3.898c0,0,1.753,2.923,0.389,4.287c-1.363,1.363-1.363,2.338-0.973,3.702c-1.168,0.584-2.144,1.56-2.144,1.56
	s-2.533,0.975-3.117,1.753c-0.584,0.779-0.781,1.754-3.119,0.585c-2.339-1.168-3.702-0.976-1.948,2.533
	c0.975,2.144,0.779,3.118,0,4.092c-0.779,0.975-1.948,2.729-1.948,2.729s-5.652-10.328-9.356-10.718
	c-3.507-3.314-8.378-7.211-11.106-6.431C420.109,193.325,420.891,177.342,420.891,177.342z"/>
<path fill="#004F7A" stroke="#231F20" stroke-miterlimit="10" d="M419.721,243.604l-5.652-19.49l6.237-20.657v-4.872
	c0,0,7.6,1.364,11.106,6.431c3.897,2.34,8.576,7.601,8.771,9.548c1.754,2.729,3.702,6.237,3.702,6.237s3.314,2.728,4.678,2.532
	c1.948,1.363,1.754,1.755,5.847,2.339c4.092,1.753,7.404,5.456,7.209,8.185c1.169,2.922,2.729,3.507,4.874,3.702
	c2.532,1.56,2.922,1.56,3.702,3.507c0.777,1.952,1.56,3.509,1.56,3.509L419.721,243.604z"/>
<path fill="#BDAA91" stroke="#231F20" stroke-miterlimit="10" d="M863.656,121.417v16.257c0,0,3.895,8.49,10.131,8.295
	c2.531,1.948,4.677,3.702,5.846,5.066c2.144,3.313,2.729,5.067,3.897,5.458c1.17,0.389,4.68,5.262,6.042,6.235
	c1.362,0.974,3.508,1.755,3.508,1.755s5.456,0.973,8.574-0.585c1.364-1.559,3.896-3.507,0-3.898
	c-0.195-2.729-0.585-4.678-3.507-4.482c0-2.339-0.392-3.898-3.313-3.702c-1.17-1.365-3.703-1.949-4.288-3.508
	c-0.779-0.781-2.729-2.535-0.584-4.677c0-1.754-1.164-5.84-6.818-7.208c-1.172-2.341-8.378-10.714-13.447-9.354
	C868.72,125.701,866.193,120.64,863.656,121.417z"/>
<path fill="#C09335" stroke="#231F20" stroke-miterlimit="10" d="M811.328,113.424l-21.728,0.391c0,0,0.778,3.117,5.065,3.701
	c3.118,1.17,5.066,2.151,1.754,5.46c-1.364,3.31-1.946,3.702-1.946,3.702s-3.314,0.971-3.705,2.921
	c-0.39,1.948-8.963,26.323-8.963,26.323l49.496,0.571c0,0,8.382-11.499-3.117-15.982c-8.574-4.677-13.251-7.403-13.251-7.403
	s-6.627-3.899-4.679-11.692C811.425,116.541,811.328,113.424,811.328,113.424z"/>
<path fill="#BDAA91" stroke="#231F20" stroke-miterlimit="10" d="M607.779,204.822l-8.38,29.621l27.086,10.524
	c0,0,1.755-0.974,2.729-1.948c0.975-0.975,43.848-34.3,43.848-34.3s1.756-11.693-8.574-13.835
	c-7.406-4.482-24.944-14.227-24.944-14.227s-10.72-4.092-12.863-3.702c-2.531-0.196-7.796,1.559-1.168,4.677
	c1.756-0.194,4.677,0.78,1.365,3.313c-0.975,1.559-2.535,1.169-0.586,4.093c0,1.948,0.194,1.559-1.17,2.534
	c-1.364,0.389-5.65,2.532-6.43,4.871c-1.366,3.119-3.312,8.38-3.312,8.38H607.779z"/>
<path fill="#88765E" stroke="#231F20" stroke-miterlimit="10" d="M579.716,236.392c0,0,4.483-3.312,8.186-0.779
	c2.727,2.534,5.844,3.898,7.208,3.898c1.365,0,2.536,0.584,3.898,1.754c1.365,1.169,2.924,3.117,2.924,3.117
	s-1.17,3.508-2.729,4.484c-1.169,1.557-3.116,3.7-2.728,4.676c-0.974,1.558-5.262,7.795-5.262,7.795l-2.728,3.507l-0.779,1.754
	c0,0-2.729,3.899-2.339,3.899c0.39,0-0.975,1.558-0.975,1.558s-5.067-3.118-5.067-4.092c-1.17-0.39-6.041-2.34-5.456-3.119
	c-1.169-0.194-2.924-1.56-2.534-2.923c-1.169-1.557-11.107-13.252-11.107-13.252s0.198-2.176,1.95-2.453
	c1.947-1.249,5.65-5.146,7.404-4.951c1.753,0.195,5.845-1.949,5.845-3.118c0.197-1.169,1.365-1.95,2.534-0.974
	C579.13,238.146,578.937,237.562,579.716,236.392z"/>
<path fill="#D16536" stroke="#231F20" stroke-miterlimit="10" d="M580.302,278.875l11.888,9.292l-2.729,6.3
	c0,0,3.312,4.48,5.066,4.872c1.948,2.922,4.092,9.354,4.092,9.354s0.781,3.703,0.781,4.872s0,1.169,0,1.169l-21.243,14.421H564.32
	c0,0,5.26-14.616-4.288-21.631C564.32,301.286,580.302,278.875,580.302,278.875z"/>
<path fill="#C09335" stroke="#231F20" stroke-miterlimit="10" d="M472.727,244.576l45.992,0.585l16.562,47.745l-0.584,3.704
	c0,0-16.759-3.119-18.318-2.729c-1.606,0.193-4.87,0.39-4.87,0.39s-6.82-2.389-10.476-0.488c-1.315,0.877-5.505,2.484-11.156,1.462
	c0.048-3.07-0.098-4.238-1.12-5.554c-0.585-1.754-2.633-5.847-2.633-5.847s-1.509-2.533,0.049-5.943
	c0.098-1.949,0.39-3.704,1.852-5.311c0.293-1.608,0.732-2.923,0.732-2.923s0.146-6.578-3.071-8.769
	c-1.606-2.193-2.191-2.924-2.191-4.239c-0.438-1.461-2.826-5.359-5.506-6.04C476.186,248.913,473.214,245.794,472.727,244.576z"/>
<path fill="#BDAA91" stroke="#231F20" stroke-miterlimit="10" d="M489.877,180.851l-0.585,63.729l-16.468-0.782
	c0,0-2.337-1.511-2.629-2.729c-0.292-1.217-2.828-3.117-4.484-3.702c-1.654-0.585-3.702-1.607-3.994-5.116
	c-1.462-3.068-6.139-6.868-10.232-7.6c-1.753-1.168-1.753-1.168-1.753-1.168s-1.608-0.877-2.777-1.316
	c-1.168-0.438-2.484-1.607-1.899-4.239c0.146-1.461-0.439-2.629-1.316-2.629c-1.022-1.462-0.877-2.632-0.146-3.217
	c0.732-0.584-0.292-2.388-0.876-3.167c-0.584-0.78-1.169-4.141,2.629-2.533c1.17,0.292,1.512,0.732,2.438-0.585
	c1.364-0.583,1.656-1.023,2.387-0.876c0.73,0.146,0.73-0.877,0.73-0.877s1.218-1.657,2.144-1.56c0.925,0.097,1.072-0.78,0.049-1.509
	c-1.024-0.731-0.342-1.462,0.924-2.193c0.537-2.046,0.147-3.508-0.973-5.262c-1.121-1.753-1.754-2.922-1.754-2.922
	s-1.266-2.485,2.533-3.801c3.946-1.754,4.969-2.63,5.554-3.214c0.585-0.585,0.732-1.317,2.777-1.317
	c2.047,0,8.186,0.292,8.186,0.292s0.584-1.167,2.338-1.021s5.506,0.485,5.506,0.485s-0.098-1.313,1.948-1.557
	C482.179,180.219,489.877,180.851,489.877,180.851z"/>
<path fill="#D16536" stroke="#231F20" stroke-miterlimit="10" d="M444.031,150.694l45.894,0.438l-0.146,29.086l-8.624-0.292
	c0,0-3.36,0.73-3.215,1.608c-1.9,0-5.846-0.293-5.846-0.293s-2.046,0.585-2.339,0.731c-0.292,0.146-8.186,0-8.186,0
	s-3.068,0.583-3.214,1.9c-1.024,1.022-5.554,4.238-7.015,2.922c-0.584-1.461-3.217-5.991-4.971-7.307
	c-1.753-1.315-2.338-2.922-1.46-4.824c-0.439-1.9-0.439-1.9-0.439-1.9s-0.585-3.068,0.876-5.406
	c0.148-2.924,0.148-7.017,0.148-7.017s0.875-2.193-0.584-3.946C444.031,152.447,444.031,150.694,444.031,150.694z"/>
<path fill="#C09335" stroke="#231F20" stroke-miterlimit="10" d="M420.306,198.585l0.585-21.243l22.8,0.197l4.58,4.724l3.02,8.333
	l1.754,2.922c0,0,2.242,4.97,0.341,5.554c-1.169,1.024-1.754,1.462-1.023,3.07c-0.878,1.023-2.046,1.754-2.192,2.777
	c-1.17,0.293-2.193-0.292-3.362,1.17c-2.192-0.439-7.163-1.901-3.654,5.115c-0.438,1.801-1.022,1.753-1.462,2.63
	c-1.022,0.146-0.877,0.73-2.63-2.046c-1.753-2.778-6.674-6.676-7.162-6.724c-0.583-0.877-2.63-2.923-2.63-2.923
	S421.279,197.66,420.306,198.585z"/>
<path fill="#88765E" stroke="#231F20" stroke-miterlimit="10" d="M402.814,176.418l40.778,0.439c0,0,1.169-2.486,0.292-3.509
	c-0.146-1.606,0.439-4.823,1.461-5.991c-0.437-1.754-0.437-7.602,0-8.186c0-1.316-2.922-8.332-2.191-8.916
	c-2.191-0.146-3.07,0.731-4.238-0.585c-1.17-1.315-4.384-2.338-5.262-1.023c-1.462,0.438-2.047,0.438-3.508-0.438
	c-1.9-0.585-3.362-0.292-4.385,1.023c-1.022,1.315-1.753,1.754-1.753,1.754s-1.9,1.46-2.777-0.147
	c-1.315-1.607-2.191-1.607-3.507-1.607c-1.316,0-1.9-0.585-2.046-1.462c-0.147-0.876-2.485-0.583-3.216,1.17
	c-0.731,1.754-1.899,2.631-2.924,2.485c-1.021-0.146-5.261-0.146-6.43,1.899C402.96,156.978,402.814,176.418,402.814,176.418z"/>
<path fill="#004F7A" stroke="#231F20" stroke-miterlimit="10" d="M408.076,112.839c0,0-1.9,6.431-4.969,8.332
	c-2.046,2.191-3.654,2.776-3.654,7.6c-1.9,1.462-0.876,1.169-3.361,1.9c-1.461,0.73-3.801,2.191-4.385,3.946
	c0.292,2.631-0.73,4.531,4.385,3.799c3.069,0,6.43,1.754,6.284,4.238c0.293,3.217,0.585,9.501,0.585,9.501l2.777-0.876
	c0,0,7.308,0.292,5.847-2.485c1.753-1.462,4.093-2.777,4.823-0.877c0.438,1.023,0.731,1.023,2.631,1.315
	c1.607,0.73,1.753,0.292,2.338,1.242c0.583,0.95,2.192,1.535,3.726-1.315c2.558-1.608,3.583-2.046,6.286-0.512
	c1.021,0.22,1.9-0.073,2.85-0.803c1.607-0.146,3.799,0.438,5.334,1.973c1.608,0.365,4.238,0.365,4.238,0.365l0.171-36.857
	L408.076,112.839z"/>
<path fill="#004F7A" stroke="#231F20" stroke-miterlimit="10" d="M358.43,111.863c0,0,0.196,1.659-0.486,2.245
	c-0.683,0.583-1.754,1.947,0.194,4.187c0.781,3.314,3.314,16.956,3.314,16.956s1.363,0.584,3.702-1.558
	c2.828-2.047,6.822-4.969,6.822-4.969s3.702-3.509,9.548-0.1c3.507,0.584,5.944,0.877,7.893,3.899
	c1.461,1.462,1.658,2.337,4.483-1.366c3.605-1.071,5.456-1.364,5.164-4.578c1.168-2.632,0.683-2.729,4.093-5.848
	c2.338-2.631,2.827-2.24,4.921-7.892C402.767,112.937,358.43,111.863,358.43,111.863z"/>
<path fill="#004F7A" stroke="#231F20" stroke-miterlimit="10" d="M319.943,136.809c0,0-7.211-6.431,1.753-16.369
	c0.39-6.237,0-10.524,0-10.524l35.662,1.17c0,0,3.313,1.56-0.391,3.313c-0.194,1.363-0.779,1.752,1.169,3.896
	c0.584,3.314,2.535,15.007,3.314,16.956c-1.948,0.001-9.549-0.974-8.77,6.042c0,3.118,1.948,4.481-3.508,4.872
	c-2.729,1.168-4.676,3.507-5.067,4.872c-2.923-2.338-5.65-3.897-5.65-3.897s-1.56-2.924-3.508-2.339
	C332.998,142.461,332.61,138.368,319.943,136.809z"/>
<path fill="#BDAA91" stroke="#231F20" stroke-miterlimit="10" d="M339.04,167.794l-13.251,0.391c0,0-1.364-1.755-2.923-1.56
	c-1.56,0.195-13.642,0.584-13.642,0.584l-1.364-8.77l-2.533-0.584l-4.092-4.092l-3.704-3.118l3.508-4.482
	c0,0-1.559-7.21,13.836-9.16c3.313,0.974,3.898,1.169,5.068-0.195c3.506-0.778,6.625,0,8.769,2.145
	c2.144,2.142,5.456,5.066,5.456,5.066s2.729,0.389,4.289,3.118c3.118,1.364,3.896,0.779,5.65,3.897c0.78,3.119,0,7.212-1.169,8.379
	C342.548,161.754,339.04,167.794,339.04,167.794z"/>
<path fill="#BDAA91" stroke="#231F20" stroke-miterlimit="10" d="M316.435,172.278l-5.457,13.835c0,0-7.795,1.365-6.432-4.677
	c-0.78-0.974-3.118-2.34-4.287,0.39c-2.338,2.144-3.313,2.923-3.313,4.287c-1.169,0.779-4.481,2.339-4.481,4.092
	c-2.534-2.727-2.145-0.194-3.898-4.677c-2.339-2.142-3.312-1.169-2.924-10.523c-1.168-4.093-1.362-4.676-2.532-7.6
	c3.117-1.95,6.236-1.364,14.42-16.759c3.704,3.118,7.796,7.209,7.796,7.209l2.533,0.584c0,0-0.974,7.601,3.119,9.939
	C313.901,170.134,316.435,172.278,316.435,172.278z"/>
<path fill="#004F7A" stroke="#231F20" stroke-miterlimit="10" d="M354.436,207.941c0,0-11.693,0.389-14.811-1.17
	c-2.534-0.196-6.235-1.949-9.16-6.042c-2.728-1.754-4.676-3.118-9.744-3.703c-4.287-2.143-4.092,0.585-7.016-6.821
	c-1.558-2.337-2.727-4.092-2.727-4.092l5.457-13.835l-6.042-4.873c0,0,13.057-1.169,15.396,0.78
	c4.092,0.194,13.251-0.391,13.251-0.391s4.873,2.924,8.575,3.508c2.729,1.753,3.508,2.143,3.898,4.678
	c1.947,3.118,2.145,5.847,5.261,5.066c0.194,3.508-0.391,8.185-0.391,8.185s0.391,5.457,1.365,8.575
	c0.973,3.119,1.559,6.431,1.559,6.431S354.631,206.575,354.436,207.941z"/>
<path fill="#004F7A" stroke="#231F20" stroke-miterlimit="10" d="M308.834,233.664c0,0-0.584-3.508-3.313-4.482
	c-2.338-3.896-14.226-21.825-14.226-21.825s-3.117-2.925,2.923-4.873c2.923-0.975,4.092,0,4.287-5.651
	c1.365-4.288,0.39-9.744-1.559-10.719c1.169-1.949,5.653-9.355,7.211-3.119c0.389,1.755,0.778,3.508,4.286,3.119
	c2.534,0,3.314,1.559,4.483,4.288c1.169,2.728,3.702,6.819,8.964,7.21c4.288,0.391,8.381,2.729,9.745,4.873
	c2.339,1.753,3.898,7.016,22.801,5.458c-0.584,5.065-1.949,11.302-6.042,14.42c-3.508,4.092-9.744,9.354-10.134,15.786
	c-2.143,0.974-3.118,1.362-5.262-0.196c-2.143-1.17-5.846-1.753-7.015-3.897C324.229,232.299,321.503,225.285,308.834,233.664z"/>
<path fill="#BDAA91" stroke="#231F20" stroke-miterlimit="10" d="M248.617,169.354c0,0,1.363-9.354,9.159-6.626
	c3.703-0.195,5.847-1.754,7.016-2.922c1.168-1.17,2.143-3.899,8.185-0.196c2.923,3.118,4.288,7.796,10.134,7.796
	c1.753,5.457,2.534,8.963,2.338,12.082c0.39,3.119-0.195,3.119,3.118,6.041c0.975,2.924,1.95,3.703,3.898,4.677
	c0.194,2.143-0.781,3.704-3.314,4.094c-2.727-0.39-3.312-0.392-3.896,0.974c-0.585,1.365-1.95,1.365-3.119,0.975
	c-1.169-0.39-4.09,0.973-7.209,4.872c0-6.235,0-8.186,0-8.186s1.169-4.482-3.899-6.43c-2.338-0.778-2.532-1.559-2.532-4.872
	c-0.78-2.729-1.559-5.651-4.677-3.899c-1.95,0.585-1.364,1.169-3.313-1.362c-1.559-1.17-3.118-1.17-4.093-0.196
	c-1.559-0.194-3.117-0.389-2.923-2.922c-1.169-2.533-2.142-3.313-3.117-3.118C249.396,170.329,248.617,169.354,248.617,169.354z"/>
<path fill="#BDAA91" stroke="#231F20" stroke-miterlimit="10" d="M247.057,199.755c0,0,0.78-5.849-5.067-7.407
	c-3.897-4.48-4.287-3.896-7.015-11.885c4.093-2.338,10.134-5.263,13.642-11.109c2.728,0.975,4.092,1.559,4.871,3.898
	c0.391,2.144,0.584,3.702,3.704,2.729c1.559-0.195,3.703,0.39,3.897,1.363c0.196,0.974,0.585,1.753,2.729,0.389
	c2.339-0.193,4.092,0.975,4.286,4.679c0,2.144,0.586,3.702,3.899,5.067c1.947,1.559,3.507,0.778,2.728,10.524
	c-0.389,5.066-2.338,10.524-4.287,12.276c-1.949,1.754-6.821,10.913-14.032,1.559c-1.947-2.729-2.727-4.481-3.117-6.625
	C252.904,203.068,249.98,200.145,247.057,199.755z"/>
<path fill="#88765E" stroke="#231F20" stroke-miterlimit="10" d="M305.521,238.731l-14.226,2.533c0,0-2.533-7.991-7.6-1.754
	c-4.288-0.194-20.073,0.779-20.073,0.779s-0.39,6.432-4.873,5.262c-4.092-1.947-5.456-2.532-5.456-2.532s3.119-4.679,1.17-6.432
	c-0.392-2.729-0.78-2.924,3.312-6.822c1.559-2.728,2.144-6.627,0.585-9.354c-0.196-1.753-0.78-1.947,1.169-4.287
	c2.728,0.195,5.262,1.754,9.938-4.676c3.119-3.507,5.263-6.821,5.458-9.161c1.948-2.532,2.533-5.262,7.209-6.041
	c2.729,0.39,0.78,1.169,3.119-0.975c0.974-0.779,0.974-1.169,3.896-0.974c2.924-0.39,3.705-0.585,3.314-4.094
	c1.559-1.364,4.092-6.819,6.236,0.584c0.584,2.924,0.39,5.652-0.39,7.212c-0.195,2.143-2.338,5.65-4.092,4.481
	c-1.949,0.584-6.236,0.78-1.949,7.21c4.288,6.431,13.251,19.488,13.251,19.488s4.872,5.651,1.753,5.846
	C306.301,237.173,305.521,238.731,305.521,238.731z"/>
<path fill="#C09339" stroke="#231F20" stroke-miterlimit="10" d="M208.277,179.683c0,0,0.194,9.743-6.626,4.872
	c-1.365-1.168-6.431-4.288-7.211,3.313c-1.559,4.677-5.261,10.328-7.989,12.666c0.389,4.678,0.001,10.524,3.118,10.524
	c1.948,0,2.533-1.169,2.533,4.482c2.923,1.754,1.951,2.143,4.483,0.779c1.754-0.584,2.143-0.584,4.482,0.39
	c2.923,0,3.312-0.39,5.261-1.364c2.534-0.974,3.509-0.584,5.457,0c2.923,0,9.16-2.143,11.692-4.677
	c2.533-2.534,4.483-3.897,6.432-5.066c1.948-1.17,3.896-3.508,7.794-1.17c3.119,0.195,4.483-0.39,6.042-2.144
	c2.143-1.169,1.753-2.532,3.312-2.532c-0.194-2.535-2.728-7.407-5.651-8.185c-2.923-2.145-4.287-3.314-4.481-5.652
	c-0.78-1.948-0.195-6.236-6.237-3.507c-3.118,0.779-6.626,0.779-4.482-4.482c0.195-2.924,0.78-8.185-6.82-4.482
	c-2.534,0.975-4.873,2.339-4.873,2.339s-2.728-1.365-3.897,1.364C209.836,178.513,208.473,178.317,208.277,179.683z"/>
<path fill="#C09339" stroke="#231F20" stroke-miterlimit="10" d="M208.862,252.372c0,0-7.016-6.042-2.146-14.032
	c1.17-3.898,2.729-7.21-2.532-9.353c0-2.729-0.391-5.458-4.483-2.145c-1.169,0.78-2.728,1.56-2.923-1.363
	c0.391-2.145,0.585-3.703-1.558-4.288c0-3.118-0.585-4.287-0.585-4.287s4.678-2.144,6.432-0.195
	c2.727,0.39,5.456-2.924,11.497-0.975c4.677-0.585,4.872-0.974,7.21-2.144c2.339-1.17,4.482-1.948,4.482-3.118
	c1.56-1.169,6.821-5.261,6.821-5.261s1.561-2.535,5.847-0.585c3.702-0.195,3.507,0.975,7.6-2.144
	c1.753-1.95,3.118-4.288,8.769,2.729c0.974,4.676,1.364,5.65,3.313,7.6c1.949,1.949,2.728,3.508,0.974,6.236
	c0.39,2.728,2.925,8.77-2.532,13.056c-1.561,2.534-2.534,1.56-0.781,6.431c0.196,2.144-1.362,4.677-3.896,5.651
	c-1.949,1.56-3.898,3.703-3.898,3.703s-2.144,4.873-8.77,1.948c-5.066,0-9.354,1.949-19.098-4.287
	C218.216,244.771,208.277,249.643,208.862,252.372z"/>
<path fill="#D16536" stroke="#231F20" stroke-miterlimit="10" d="M848.745,328.276l-10.523,6.433l-35.367,1.073
	c0,0-19.004,7.695-4.388,10.911c2.045,3.215,1.752,3.799,2.045,5.846c0.292,2.047,2.34,2.632,4.385,1.169
	c2.047-1.462,5.847-1.169,7.602-3.508c1.753-2.338,4.385-1.169,4.677-2.338c0.293-1.169,0.877-2.924,3.8,0.293
	c6.724,0.291,16.955-0.293,16.955-0.293s8.185,0.293,0.292-3.801c-1.462-0.877-2.923-3.507,2.924-3.507
	c2.629-0.585,4.384-0.585,5.553,3.215c0.585,2.339,4.092,5.262,4.092-1.463c1.17-3.799,4.678-6.722,5.263,0.293
	c0,4.094,7.017,6.14,7.017-0.584c0.582-3.215-0.585-7.601,2.922-4.385c2.631,1.755,2.924-0.585,3.216-3.216
	c2.338-2.631,6.431-3.214,6.431-6.724c0-2.045,0.586-2.337,2.631-1.753c2.047,0.585,3.216,0.292,3.508-3.217
	c2.339-3.214,2.339-3.214,5.262-3.506c1.169-1.463-0.585-2.632-2.923-4.386c-1.169-2.923-7.892-15.492-4.386-0.878
	c-1.461,0.878-2.922,1.171-3.506,3.509c-0.586,2.34-4.679-2.631-6.725,0.292c-2.923,2.048-4.093,0-1.754-2.63
	c0.877-2.924-0.584-10.231-0.584-10.231s-3.217-9.939-2.047,0.585c-0.878,3.507-2.922,2.046-3.215,6.14
	c-2.047,0.876,1.17,2.044-2.047,0.876c-3.214,0.292-3.8,0-4.97,1.753c-1.753-0.293-14.908-0.876-8.477,3.8
	c2.339,0.585,2.631,0.585,2.047,3.215C847.868,323.893,848.745,328.276,848.745,328.276z"/>
<polygon fill="#C09335" stroke="#231F20" stroke-miterlimit="10" points="443.983,113.325 443.812,150.182 489.925,151.132 
	489.487,113.715 "/>
<path fill="#BDAA91" stroke="#231F20" stroke-miterlimit="10" d="M402.814,176.418l-0.731-31.57c0,0,1.608-6.286-5.992-6.432
	c-2.631,0.292-4.97,0.584-4.677-2.045c-0.292-1.316,0-2.632-2.046-2.924c-1.753-2.337-2.63-3.946-7.016-4.384
	c-3.654-1.316-7.162-2.776-10.815,0.438c-3.947,2.632-8.624,6.286-8.624,6.286s-12.277-2.047-9.792,6.431
	c0.293,2.046,0.585,3.069-3.215,3.946c-2.63,0.877-6.431,3.654-4.969,8.477c-1.754,5.846-5.896,13.154-5.896,13.154l7.503,2.924
	c0,0,4.385,0.876,6.138,6.284c0.731,2.047,0.438,5.554,8.185,2.924c2.046-1.609,1.9-3.216,7.016-1.316
	c2.631,1.024,3.362,1.17,4.385-1.169c0.292-1.753,0.438-1.9,2.777-2.046c2.338-0.147,8.185-0.439,9.5,0.438
	C387.906,176.272,402.814,176.418,402.814,176.418z"/>
<path fill="#D16535" stroke="#231F20" stroke-miterlimit="10" d="M420.207,176.71l-0.438,26.307l-5.701,21.097l5.116,19.098
	l-22.801-0.731c0,0-4.385-5.552-3.947-7.161c0.439-1.608,0.146-2.923-1.315-3.945c-1.461-1.024-1.169-3.363-0.877-4.532
	c0.292-1.168-0.146-3.653-0.146-3.653s0.438-3.508-4.677-4.678c-3.8-4.092-6.577-4.384-1.753-13.299
	c2.338-4.97,2.777-6.286,2.777-6.286l-0.146-11.984l-3.361-6.578l1.607-4.531L420.207,176.71z"/>
<path fill="#88765E" stroke="#231F20" stroke-miterlimit="10" d="M380.744,211.058l5.116-11.986l0.438-12.13l-3.361-6.578
	l1.023-4.384l-10.231-0.292c0,0-2.192,1.607-1.462,1.753c0.731,0.146-1.169,4.093-4.385,1.753c-3.654-1.462-5.116-1.168-6.431,0.439
	c-2.338,1.169-3.508,1.755-4.384,1.9c0.292,2.338-0.05,5.164-0.684,7.697c0.245,2.679,3.021,12.911,3.021,12.911
	s0.877,4.677,6.87,2.046c2.046-1.608,2.338-3.507,5.7-1.461c2.192,0.584,4.677,1.169,5.7,4.53
	C378.698,210.619,379.721,210.911,380.744,211.058z"/>
<path fill="#004F7A" stroke="#231F20" stroke-miterlimit="10" d="M338.651,238.974c0,0-2.046-4.385,6.285-12.423
	c5.554-5.993,9.646-10.962,9.5-15.932c0.731-3.215,0.877-6.869,6.87-5.554c2.192,0.292,4.239-0.146,5.699-1.754
	c2.047-1.023,2.777-1.752,4.97-0.584c2.631,0.876,4.531,2.046,5.115,4.386c0.584,2.338,2.193,3.506,3.216,4.676
	c0.438,1.314,2.338,5.553,3.947,5.553c1.753,1.754,1.899,1.901,3.361,2.193c1.753,1.315,2.63,2.922,2.192,5.7
	c0.146,2.923-0.73,4.678,1.315,6.14c1.315,1.752,1.754,2.337,1.315,3.945c0,1.754,0.878,3.946,1.462,4.385
	c0.584,0.438,0.438,1.022,0.438,1.022l-43.702-0.584c0,0-2.631-1.316-3.215-1.023C346.105,239.12,338.651,238.974,338.651,238.974z"
	/>
<path fill="#C09335" stroke="#231F20" stroke-miterlimit="10" d="M337.92,239.413l8.916,20.754l41.216,0.438
	c0,0,2.485-5.554,3.069-5.554c0.585-2.192,0.876-3.214,2.485-4.238c1.023-1.754,3.946-8.186,0.73-10.085
	c-3.507,0.293-43.702-0.584-43.702-0.584s-3.215-1.169-4.238-1.169C345.374,238.974,337.92,239.413,337.92,239.413z"/>
<path fill="#004F7A" stroke="#231F20" stroke-miterlimit="10" d="M346.982,260.898c0,0,3.069,4.97,1.315,9.793
	c-0.584,3.067-0.146,5.406,0.876,8.33c1.023,2.923,3.07,3.068-0.438,13.3c13.009,1.169,34.933,3.07,34.933,3.07
	s1.022-11.012,2.338-11.06c-0.146-2.388-0.731-6.188,0.877-6.918c0.146-3.801,0.438-6.723,0.438-6.723s-0.731-3.8,3.654-3.509
	c1.314-0.437,3.703-2.584-1.656-4.287c-1.268-2.29-1.122-0.83-1.268-2.29C385.714,260.312,346.982,260.898,346.982,260.898z"/>
<path fill="#D16535" stroke="#231F20" stroke-miterlimit="10" d="M319.943,229.913l-0.731,40.339l-10.669,18.562l40.193,3.507
	c0,0,3.07-10.085,0.438-12.277c-0.876-3.506-0.876-3.506-0.876-3.506s-1.608-1.609,0.438-8.479
	c-1.608-5.993-11.692-29.232-11.692-29.232s-3.947,0.878-4.677-1.023c-1.608-0.583-5.993-1.607-6.285-3.215
	C324.912,232.981,323.012,231.228,319.943,229.913z"/>
<path fill="#88765E" stroke="#231F20" stroke-miterlimit="10" d="M290.32,287.743l-1.948-14.615l-8.963-13.059
	c0,0-2.631-7.015-11.108-2.923c-3.8-0.585-8.77-1.559-8.77-1.559s-0.781-7.797,1.364-9.16c1.462-1.754,2.728-3.509,3.117-5.846
	c5.068-0.585,10.33-0.877,10.33-0.877s8.866,1.071,9.84-0.78c1.753-1.267,3.898-3.313,5.944,0.877
	c1.169,1.462,0.975,2.144,4.483,1.559c3.508-0.877,8.963-1.948,8.963-1.948s3.118-0.974,3.41-3.021
	c0.489-1.266,0.585-1.655,1.853-2.728c1.754-0.682,7.016-3.508,7.016-3.508s4.384-2.729,3.8,2.632
	c0,5.651-0.439,37.464-0.439,37.464l-11.353,18.757L290.32,287.743z"/>
<path fill="#88765E" stroke="#231F20" stroke-miterlimit="10" d="M246.863,281.896c0,0,5.066-7.699,4.286-10.134
	c0.975-3.605,0.585-3.994,4.483-6.82c1.655-2.729,3.994-4.481,3.702-5.555c0-1.852-0.681-4.288,2.729-3.411
	c3.41,0.877,5.652,2.729,8.77,0.292c1.268-0.194,5.163-1.266,7.308,2.047c2.145,3.313,10.231,14.812,10.231,14.812l1.948,14.615
	l-31.667-4.19c0,0-4.483,0.294-4.969,1.56c-1.366,0.778-3.606,0.68-4.289-0.975C248.13,282.675,246.863,281.896,246.863,281.896z"/>
<path fill="#88765E" stroke="#231F20" stroke-miterlimit="10" d="M223.478,290.86l-0.098-20.169l-14.031-18.903
	c0,0,3.215-3.997,3.8-3.997c0.584,0,4.385-3.703,7.892-0.681c3.801,2.046,4.582,3.311,12.182,3.117
	c2.727-0.193,3.508-0.486,6.527,0.392c3.216,0.292,4.58,1.07,6.724-2.729c3.021-2.631,4.969-5.163,8.576-3.897
	c2.338,0.877,3.702,1.559,3.702,1.559s2.923,0.195,0.584,3.411c-0.194,3.215,0.098,7.503,0.098,7.503l-0.486,3.215
	c0,0-3.119,4.189-3.022,4.579c0.099,0.391-4.87,0.974-5.261,9.647c-0.391,1.56-2.438,5.36-2.438,5.36s-5.064,1.46-4.286,3.507
	c-0.292,2.143-1.363,4.285-3.508,2.437c-1.753-0.294-2.143-2.049-3.701,0.681c-1.462,1.365-2.244,2.143-3.607,1.168
	c-1.852,0.294-2.728-1.069-3.994,1.074c-2.243,1.071-2.633,1.948-3.412,1.753C224.939,289.691,223.478,290.86,223.478,290.86z"/>
<path fill="#004F7A" stroke="#231F20" stroke-miterlimit="10" d="M208.862,252.372c0,0-6.333,6.722-5.847,7.502
	c-0.877,1.266-6.139,7.017-13.544,6.042c-0.779,3.605-2.434,9.84-2.434,9.84l-1.853,2.924c0,0-2.437,1.852-1.364,3.605
	c0,1.755-0.098,3.02-1.852,3.995c-0.292,2.923-0.877,7.308-0.877,7.308s-5.163,5.359-1.168,6.627c1.363,2.045,2.24,2.826,2.24,2.826
	l15.786-3.021c0,0,9.257-0.391,9.938-1.463c1.462-0.876,3.021-2.629,6.138-1.363c3.022-0.39,6.626-2.532,5.555-4.676
	c0.391-1.268,1.267-2.826,3.898-1.657c-0.098-4.678-0.098-20.169-0.098-20.169L208.862,252.372z"/>
<path fill="#004F7A" stroke="#231F20" stroke-miterlimit="10" d="M148.645,242.919l14.811-5.845c0,0,2.436,1.657,2.729,2.046
	c0.292,0.389,2.338,1.851,2.533,3.409c0.196,1.56,1.657,2.926,2.63,3.022c1.269,0.877,4.386,3.216,5.555,5.944
	c1.17,2.727,1.366,4.48,5.75,6.139c3.019,3.507,6.819,8.282,6.819,8.282l-2.434,9.84c0,0-2.047,1.851-1.755,2.436
	c-0.585,1.169-3.021,2.242-1.461,4.093c-0.292,1.364-0.488,2.438-1.658,3.605c-0.584,2.047-1.461,7.893-1.461,7.893
	s-4.189,4.093-2.338,5.555c1.853,1.461,2.436,3.604,2.436,3.604l-7.794,1.755l-4.775-0.293l-1.948-4.872c0,0-5.75-3.896-1.56-3.993
	c0.976-0.976,1.462-3.117-1.462-4.97c-0.584-2.145-1.267-3.705-2.728-4.483c-1.266-1.851-4.287-5.065-3.02-9.256
	c0.292-2.145,1.851-4.189-4.678-3.801c-2.242-1.169-5.067-0.975-6.626-10.914c-0.39-9.743-0.292-11.496-0.292-11.496
	S149.034,243.504,148.645,242.919z"/>
<path fill="#C09339" stroke="#231F20" stroke-miterlimit="10" d="M157.999,213.203c0,0,2.144-2.729,3.898-2.145
	c2.339-0.779,3.215-2.241,3.8-3.312c1.07-1.17,6.234-5.359,16.173-4.774c3.605-0.585,4.581-0.975,4.581-0.975l0.388,5.845
	c0,0,0.099,4.288,3.412,3.314c1.17,0.195,1.56,0.877,1.462,2.047c-0.098,1.168,0.121,3.117,1.656,3.702
	c1.315,1.243,1.901,0.876,1.608,3.288c0.146,1.389,0.219,1.681,0.949,1.9c0.731,0.219,1.461,0,0.95,1.827
	c-0.146,1.973,0.074,7.016,3.654,2.777c0.804-1.023,2.923-2.558,3.288,0.584c0.147,1.244-0.073,1.9,1.682,2.558
	c1.315,1.097,3.654,2.632,0.73,8.843c-1.753,5.043-2.996,7.747,1.974,13.592c-2.996,3.947-5.481,6.358-5.189,7.601
	c-1.096,1.023-7.064,6.968-13.544,6.042c-3.556-4.653-6.552-8.234-6.552-8.234s-4.166-0.731-6.065-6.869
	c-1.973-2.923-3.946-4.75-5.773-5.846c-1.827-1.096-1.608,0.218-2.412-3.436c-0.95-1.462-3.63-3.581-5.213-4.457
	c1.413-0.951,6.309-0.294,1.487-6.797c-1.243-2.63-2.412-5.262-0.731-10.157c0.073-1.973,1.315-4.02-5.116-5.701
	C158.217,214.127,157.999,213.203,157.999,213.203z"/>
<path fill="#C3943C" stroke="#231F20" stroke-miterlimit="10" d="M80.681,240.875c0,0,19.073-15.201,48.159-11.255
	c3.654-0.511,6.869-2.266,6.65-6.796c1.315-3.8,3.143-5.774,10.231-5.043c4.458-0.366,10.45-1.559,12.278-4.578
	c4.531,2.24,7.6,4.067,5.7,7.502c-0.73,3.874-1.389,6.284,1.827,10.67c0.95,1.972,1.974,4.896-1.681,5.115
	c-2.85,1.242-15.566,6.284-15.566,6.284l-2.412,7.089l0.073,12.131c0,0-4.604-0.949-6.139,0.146
	c-1.607,0.218-2.85,0.438-3.654,0.073c-0.804-0.365-2.412-0.292-5.116,1.097c-3.288-0.22-6.796-0.658-11.692,0.877
	c-3.946,1.022-7.016,1.826-13.666,2.192c0.657-2.776,1.973-5.262,6.211-7.674c2.485-1.534,6.139-4.677,5.555-5.554
	c0.584-2.046,1.168-2.924,1.753-3.873c-0.293-1.389-0.365-5.554-3.727-4.094c-3.654,0.146-20.097,0.804-20.097,0.804
	s-2.558-3.216-11.62-3.216C81.485,242.116,80.681,240.875,80.681,240.875z"/>
<path fill="#88765E" stroke="#231F20" stroke-miterlimit="10" d="M91.716,269.959l-6.724,3.069c0,0-3.8,2.85-6.942-0.95
	c-1.9-4.896-3.435-6.503-3.435-6.503s-1.023-4.385-2.485-4.531c-0.512-0.877-0.877-5.335,1.754-6.578
	c1.169-0.949,1.681-6.431,1.096-7.38c0-0.95,4.092-7.017,9.427-4.238c2.046,0.364,8.258,0.364,10.962,3.142
	c2.704-0.073,20.097-0.804,20.097-0.804s3.288-0.876,3.434,4.385c-0.219,0.731-2.338,2.778-1.753,4.531
	c-1.023,1.097-3.289,3.215-3.289,3.215s-8.55,3.874-8.404,9.647c-0.365,1.388-2.923,4.239-7.966,3.069
	C95.37,269.301,92.739,268.059,91.716,269.959z"/>
<path fill="#004F7A" stroke="#231F20" stroke-miterlimit="10" d="M168.229,304.403l-50.571-1.559c0,0,1.827-2.558-4.823-9.499
	c0.876-2.852,1.972-5.408-2.339-7.893c-0.511-1.535-0.146-4.092-5.334-4.166c0.292-1.681,0.292-3.069-1.974-3.946
	c1.316-1.388,6.285-6.067,1.462-8.332c0.073-1.097,0.95-2.63,4.311-2.558c3.362,0.073,10.305-1.681,12.205-2.703
	c1.316-0.292,7.747-0.73,8.989-0.512c1.169-0.073,1.827-0.073,2.631-0.584c0.803-0.511,2.704-0.585,3.946-0.293
	c1.243,0.293,3.801,0,4.969-0.656c1.974,0.218,2.924,0.218,3.508,1.534c0.584,1.316,1.388,2.412,1.388,2.412s1.608,6.87,6.577,7.6
	c2.047-0.072,5.042-0.511,4.093,3.654c-0.219,2.12-1.607,4.604,3.435,9.574c1.169,1.314,1.535,1.827,1.535,1.827l0.219,1.827
	c0,0,4.97,3.653,1.754,5.041c-1.023,0.805-3.215,1.389,0.731,3.582C165.818,299.557,168.229,304.403,168.229,304.403z"/>
<path fill="#D16536" stroke="#231F20" stroke-miterlimit="10" d="M74.396,300.141l-34.201-0.511l2.997-26.017
	c0,0,4.165-7.089,5.919-7.746c1.169-0.731,1.9-3.655,6.797-0.147c1.827,1.388,1.973,1.974,4.092,1.461
	c1.388,0.074,3.361,0.659,3.946,1.9c1.607,0.877,6.577,0.218,8.039-2.266c1.389-1.169,2.631-0.949,2.631-0.949
	s2.996,1.752,2.484,4.384c0.365,1.096,1.827,6.868,8.988,2.558c2.193-1.022,6.139-2.777,6.139-2.777s1.461-1.974,4.458,0.219
	c1.973,0.292,5.408,0.803,7.527-0.803c1.169,0.437,3.581,0.949,0.95,5.553c-1.169,1.17-4.24,1.682-0.804,3.654
	c0.511,0.73,1.243,1.974-0.804,3.289c-2.558,0.292-6.358,0-7.528,1.022c-1.534,0.146-2.558,0.366-3.434,0.075
	c-1.023,0.146-3.947,1.387-4.238,2.776c-0.804,1.24-2.777,3.799-3.289,3.507c-0.512,0.805,0.366,1.973-4.604,4.312
	C77.027,295.756,73.811,298.606,74.396,300.141z"/>
</svg>
