<?xml version="1.0" encoding="utf-8"?>
<!-- Generator: Adobe Illustrator 16.0.0, SVG Export Plug-In . SVG Version: 6.00 Build 0)  -->
<!DOCTYPE svg PUBLIC "-//W3C//DTD SVG 1.1//EN" "http://www.w3.org/Graphics/SVG/1.1/DTD/svg11.dtd">
<svg version="1.1" xmlns="http://www.w3.org/2000/svg" xmlns:xlink="http://www.w3.org/1999/xlink" x="0px" y="0px" width="960px"
	 height="560px" viewBox="0 0 960 560" enable-background="new 0 0 960 560" xml:space="preserve">
<g id="Layer_2" display="none">
	
		<image display="inline" overflow="visible" width="1087" height="574" xlink:href="../../../../../Downloads/7318.NC Msft Certifications by School District.JPG"  transform="matrix(0.8541 0 0 0.8541 20.5664 420.7324)">
	</image>
</g>
<g id="Layer_1" display="none">
	<path display="inline" fill="#BDAA91" stroke="#231F20" stroke-miterlimit="10" d="M680.417,541.249v17.889
		c0,0-0.294,11.608-9.418,22.11c0,0,7-1.167,10.667,2.086c0,0,5.25,4.333,9.25,3.833c0,0,2.5,0.04,4.083-1.583
		c0,0,1.84-2.332,3.837-0.416c0,0,2.079,2.412,6.663,2.039c0,0,3.084-0.456,4.167,1.544c0,0,1.249,2.334,5.583,1.667
		c0,0,4.335-1.666,9.001,4.084l9.833,9.166c0,0,3.331-1.92,3.581-5.003c0,0,0.916-8,11.583-9.75c0,0,1.305-3.346-6.41-8.834
		c0,0-2.327-2.252-5.5-1.917c0,0-2.591,0.335-2.239-4.582c0,0,0.5-1.865-3.555-6.778c0,0-2.376-5.37-4.713-5.049
		c0,0-1.834-0.589-5.431,1.69c0,0-5.82,2.386-6.891-2.352c0,0-0.68-2.18,1.957-5.3c0,0,3.793-4.871-3.63-7l-21.167-7.545H680.417z"
		/>
	<path display="inline" fill="#D16536" stroke="#231F20" stroke-linejoin="bevel" stroke-miterlimit="10" d="M517.75,672.375
		l0.146-48.54h-11.062l-3.25-1.084l-38.25-0.887l-1.083,3.221l0.173,48.104h39.327c0,0,3.875-3.188,8.5-1.563L517.75,672.375z"/>
	<path display="inline" fill="#88765E" stroke="#231F20" stroke-linejoin="round" stroke-miterlimit="10" d="M464.425,673.576
		l-0.175-48.491l1.257-3.217l-0.475-11.95c0,0-4.157,0.454-7.595-1.105c0,0-3.979-2.106-7.375-1.25L447,611.938l-13.565,0.188
		l-3.715,3.731c0,0,5.947,6.057,1.155,9.144c0,0-2.449,0.802-1.704,2.861c0,0,1.538,3.468-2.983,4.139L422,632.625l0.856,11.014
		l3.81,2.946c0,0,3.501-1.25,5.417,1.501l4,0.084c0,0-0.936,4.683,2.895,8.851c0,0,4.864,5.225,7.984,7.688
		c0,0,4.871,4.37,4.454,9.792l1.246,0.705C452.662,675.205,455.354,673.884,464.425,673.576z"/>
	<path display="inline" fill="#C3943C" stroke="#231F20" stroke-miterlimit="10" d="M418.589,713.869c0,0,4.286-0.869,8.036-14.244
		c0,0,1.875-7.375,7.625-14.125c0,0,5.458-6.074,5.167-9.912h-17.333l-2.917-1.088h-28.396c0,0-1.646,8.893,3.229,15.585
		c0,0,6.518,6.195,8.009,12.806c0,0,1.619,5.243,8.472,7.844C410.48,710.734,415.274,711.983,418.589,713.869z"/>
	<path display="inline" fill="#C3943C" stroke="#231F20" stroke-linejoin="round" stroke-miterlimit="10" d="M379.625,569.25
		l-0.75,37.248h-12c0,0-2.375,0.127-3.5,1.877c0,0-3.5,3.625-6.25,0.375c0,0-2.625-3-5.375,0c0,0-2.375,1.75-4.25-0.125
		c0,0-1.745-2.036-5.125-0.125c0,0-4.444,2.256-7.597,4.815c0,0-7.931-13.063-22.167-14.689c0,0,13.595-9.841,6.992-16.733
		c0,0,1.522-4.268,7.022-4.643c0,0,4.849,0.25,4.237-4c0,0-0.01-9.062,4.001-8.531c0,0,1.887,0.448,3.012,2.031
		c0,0,4.208,4.75,6.542-1.333c0,0,2.083-4.792,3.667-6.333c0,0,1.333-1.833,3.917,0.25c0,0,1.5,2.25,3.151-0.579
		c0,0,1.765-4.754,6.304-0.877c0,0,1.628,1.539,3.044,6.289c0,0,0.5,3.167,4.167,0.083c0,0,3.333-2.332,7.833,1.084
		C376.5,565.334,378.583,567,379.625,569.25z"/>
	<path display="inline" fill="#88765E" stroke="#231F20" stroke-linejoin="round" stroke-miterlimit="10" d="M377.551,531.333
		l46.781,1.5L423,580.252h-6.125l-3-3.171c0,0-1.5-1.791-2.833,0.417c0,0-1.458,2.25-2.792,0.375c0,0-1.625-2-2.875,0.375
		c0,0-2.375,3.791-4.792,2.583c0,0-7.583-4.664-10.166-3.414l-10.792-8.167c0,0-3.42-7.001-9.564-5.583c0,0,2.109-1.789,1.149-7.311
		c0,0-0.608-7.61,6.341-13.857V531.333z"/>
	<path display="inline" fill="#88765E" stroke="#231F20" stroke-linejoin="round" stroke-miterlimit="10" d="M333.375,637
		l7.284,0.319c0,0,3.475-2.237,6.216-2.067c0,0,5-0.781,10.25,3.858c0,0,11.862-6.235,10.487-32.61c0,0-2.737-0.125-4.237,1.875
		c0,0-3.375,3.75-6.25,0.375c0,0-2.875-2.875-5.375,0c0,0-2,1.75-4.25-0.125c0,0-1.284-2.127-5.125-0.125
		c0,0-6.167,3.203-8.521,5.664c0,0-2.864,6.422-0.171,11.316c0,0,1.067,2.395-0.683,6.645C333,632.125,331.625,635.125,333.375,637z
		"/>
	<path display="inline" fill="#C3943C" stroke="#231F20" stroke-miterlimit="10" d="M333.125,637.875c0,0-4.444,6.596-7.972,15.235
		c0,0-5.528,11.312-9.403,14.976l57.5,1.789c0,0,6.375-7,1.75-10c0,0-5.25-2.75-4.75-6c0,0,0.75-5.5-8.75-5.25
		c0,0,0.875-4.64-4.375-9.515c0,0-5.875-5.36-12.458-3.485C344.667,635.625,339.875,637.75,333.125,637.875z"/>
	<path display="inline" fill="#C3943C" stroke="#231F20" stroke-miterlimit="10" d="M70.549,672.138c0,0,5.45-0.056,10.45-3.222
		c0,0,17.168-12.669,20.417-12c0,0,3.667-0.669,10.917,1.998c0,0,2.833,1.333,6.333-2.086c0,0,5.418-4.748,10.084-7.248
		c0,0,4.333-3.083,11.667-2.166c0,0,6.499,0.831,7,6.5c0,0,0.166,3.248,2.416,7.998c0,0,3,5.249,0,8.666c0,0-1,1.084-1.75,2.084
		c0,0-3.25-2.166-6.75-1.75c0,0-2.833,0-7.083,3.25c0,0-6.667,4.75-6.583,7.75c0,0-0.417,1.583,1.833,3.583
		c0,0,1.916,1.585,1.166,4.585c0,0-1.666,5.474-13.083,7.278c0,0-14.164,2.896-23.082,2.892c0,0-1.832-6.825,11.833-10.581
		c0,0,3.749-1.339,0.119-5.805c0,0-1.871-3.072-18.454-2.345C87.999,681.52,72.35,682.528,70.549,672.138z"/>
	<path display="inline" fill="#88765E" stroke="#231F20" stroke-miterlimit="10" d="M55.75,697.5c0,0,3.25-1.997,4.083-6.333
		c0,0,3.5-14.998,6.167-16.998c0,0,2.605-2.328,5-2c0,0-1,9.833,18.667,9.333c0,0,15.833-0.867,17.5,3.316c0,0,2,3.184-0.833,4.851
		c0,0-12.5,2.995-11.833,10.581c0,0-2.667,5.914-10.5,4c0,0-7.25-2.417-12.823,1.603c0,0-3.76,2.564-6.249,0
		C64.928,705.853,59.6,696.258,55.75,697.5z"/>
	<path display="inline" fill="#D16536" stroke="#231F20" stroke-miterlimit="10" d="M33.167,728.835c0,0,0-22.334,1.667-23.667
		c0,0,0.667-2.168,5.417-1.668c0,0,3.788-0.092,6.25-2c0,0,4.734-3.017,9.25-4c0,0,2.417-1.5,7.25,5.25c0,0,0.859,1.893,2.25,3.5
		c0,0,2.25,2.083,6.5-0.75c0,0,3.75-3,12.25-1.25c0,0,6.833,2.25,10.5-4c0,0,0.833,13.083-4.167,15.583c0,0-2.646,1.042-4.5,0.167
		c0,0-4.5-0.833-7,3.667c0,0-6,9.499-11.333,10.166C67.5,729.833,45.415,730.503,33.167,728.835z"/>
	<path display="inline" fill="#C3943C" stroke="#231F20" stroke-miterlimit="10" d="M66.875,729.85l41.625-0.725
		c0,0-2.375-5-11-10.75c0,0-3.426-2.217-6.838-2.733c0,0-1.662,1.483-5.524,0.301c0,0-4.013-0.301-6.304,3.725
		C78.833,719.667,72.999,729.199,66.875,729.85z"/>
	<path display="inline" fill="#88765E" stroke="#231F20" stroke-miterlimit="10" d="M91.092,715.332c0,0,4.033-2.582,3.408-15.082
		c0,0,26.51-1.359,32.63-6.242c0,0,6.12,1.992,6.12,7.617c0,0-0.25,5.484,5.375,5.367c0,0,7.125-0.742,5.75,1.508
		c0,0-2,2.75-1.875,4c0,0-0.375,1.75,3.25,3.75c0,0,2.125,1.25,1.5,3.875c0,0-0.5,2.621,1.875,3.875c0,0,3.125,2,1.375,3.625
		c0,0-1,1.625-42,1.5C108.5,729.125,103.56,720.289,91.092,715.332z"/>
	<path display="inline" fill="#C3943C" stroke="#231F20" stroke-miterlimit="10" d="M192.169,685.107c0,0,2.333,4.75,8.833,9.583
		c0,0,4.25,2.749,3,7.083c0,0-1.666,4.916,0.583,8.75c0,0,1,1.666,2.5,3.499c0,0-0.333,2.834-3.667,3.417c0,0-3.25,0.416-6.333,3.25
		c0,0-4,3.083-9.833,1.166c0,0-4-1.583-9.167,0.5c0,0-3.528,1.75-13.508,2.536c0,0,2.925-1.036,3.008-3.869
		c0,0-0.909-7.231,4.626-11.377c0,0,3.952-2.835,1.663-9.396c0,0,11.785-0.175,17.04-14.909
		C190.915,685.341,191.502,685.525,192.169,685.107z"/>
	<path display="inline" fill="#004F7A" stroke="#231F20" stroke-miterlimit="10" d="M190.915,685.341c0,0-1,4.917-5.333,8.667
		c0,0-5.662,6.401-11.706,6.242c0,0-5.088,0.772-5.899-4.693c0,0-0.212-3.234-3.97-5.892c0,0-4.171-3.333-5.589-7.745
		c0,0-0.724-3.279-4.862-2.554c0,0-3.85,1.457-3.369-1.7c0,0,1.042-3.598-2.102-5.004c0,0,3.496-3.319,3.083-5.903
		c0,0,0.112-2.253-1.652-5.543c0,0-1.878-3.587-2.155-7.771c0,0-0.777-6.002-8.693-6.177c0,0,6.584-12.424,13.5-12.841
		c0,0,8.833-0.998,14.167,3.25c0,0,8.225,3.334,9.75,14c0,0-0.25,4.167,5,7.334c0,0,5.417,2.833,6.879,7.565
		c0,0,1.371,2.685-1.545,8.686C186.416,675.262,182.999,680.011,190.915,685.341z"/>
	<path display="inline" fill="#D16536" stroke="#231F20" stroke-miterlimit="10" d="M173.875,700.25c0,0,2.125,5.25-1.125,8.875
		c0,0-5.375,4.75-5.25,10.625c0,0,1,3.125-3.125,5.25c0,0,0.381,0.803-14.247,2.776c0,0,2.789-0.86-1.003-3.776
		c0,0-2.458-1.501-1.875-3.875c0,0,0.84-2.14-1.5-3.875c0,0-4.32-2.321-3.089-4.68c0,0,0.756-1.988,1.714-3.07
		c0,0,0.896-1.542-1.935-1.562c0,0-5.176,0.048-5.83-0.193c0,0-3.61-1.245-3.36-5.119c0,0,0.427-4.86-6.12-7.617
		c0,0,6.535-3.936,2.369-8.513c0,0-3.166-2.658-0.894-5.979c0,0,7.243-8.943,13.975-8.649c0,0,2.835,0.038,5.502,1.795
		c0,0,2.761,1.085,2.25,4.342c0,0-1.167,3.335,2.417,2.583c0,0,4.25-1.665,5.667,2.333c0,0,0.51,3.235,7.094,9.151
		c0,0,1.989,1.101,2.739,5.851C168.249,696.922,169.666,700.755,173.875,700.25z"/>
	<path display="inline" fill="#88765E" stroke="#231F20" stroke-linejoin="round" stroke-miterlimit="10" d="M207.085,714.022
		c0,0,1.73-2.301,8.814-2.551c0,0,4.518,0.045,7.184,1.962c0,0,2.75-5.168,8.583-6.084c0,0-0.083-4.646,3.417-8.031
		c0,0,4.833-3.802,5-8.552c0,0,0.834-9.167-7.833-15.584c0,0-0.162,2.979-1.417,4.917c0,0-1.167,2.417-4-0.417
		c0,0-1.833-1.833-4,0.417c0,0-2.25,3.333-5.333,1.5c0,0-3.667-2.417-6.917,0.083c0,0-4.084,4.083-7.437,1.018
		c0,0-3.147-4.435-5.772-1.362c0,0-2.458,2.845-5.206,3.77c0,0,2.584,5.008,8.833,9.583c0,0,4.334,3.007,3,7.083
		C204.002,701.773,201.42,708.945,207.085,714.022z"/>
	<path display="inline" fill="#D16536" stroke="#231F20" stroke-miterlimit="10" d="M175.76,649.924c0,0,7.159,2.679,11.993,0.596
		c0,0,15.25-10.25,31.917-13.334c0,0,10.917-1.664,11.75,2.667c0,0,0.75,7,8.686,9.417c0,0-3.104,1.002-2.177,3.919
		c0,0,1.657,2.999,1.657,4.832c0,0,0.333,2.833-1,5.583c0,0-2.5,3.703,7.333,6.5c0,0-3.75,0.917-3.836,4.696
		c0,0,0.836,5.388-4.732,5.879c0,0-0.85-2.168-5.099-5.496c0,0-0.432,5.657-2.841,5.873c0,0-0.939,0.025-2.003-0.853
		s-1.781-2.193-5.329,0.746c-3.91,3.239-5.94-1.178-8.655-0.374c0,0-1.416-0.322-4.293,2.229c0,0-3.315,2.693-6.263-0.461
		c0,0-3.198-3.987-5.838-0.629c0,0-4.236,4.034-5.776,3.394c0,0-2.743-0.861-3.97-3.025c0,0-3.191-3.325-0.61-7.359
		c0,0,5.676-8.421-4.205-14.853C182.466,659.87,175.518,656.576,175.76,649.924z"/>
	<path display="inline" fill="#C3943C" stroke="#231F20" stroke-miterlimit="10" d="M159.05,634.701c0,0,3.197-6.931,7.948-7.014
		c0,0,5.071,1.239,6.989-2.51c0,0,4.094-12.657,7.26-13.824c0,0,1.5-0.583,2.417,0.917c0,0,1.5,2.584,4-0.666
		c0,0,10.333-12.25,14.417-12.584c0,0,4.083-0.501,4.833,2.499c0,0,0.833,7.083,2.583,7.75c0,0,3.75,1.417,9.25-2
		c0,0,1.083,10.5,0,17.5c0,0,0.576,0.348,3.75,0.835c0,0,2.75,0.334,2.75,4.25v7.017c0,0-12.468-1.637-37.151,13.423
		c0,0-4.407,2.367-12.336-0.37C175.76,649.924,173.688,637.382,159.05,634.701z"/>
	<path display="inline" fill="#004F7A" stroke="#231F20" stroke-miterlimit="10" d="M218.747,607.27l8.749-7.585
		c0,0,4.75-0.166,5.333,5.667c0,0,0,3.417,0.75,4.417c0,0,2.045-2.644,3.667-3.25c0,0,2.25-1.333,2.167,3.25
		c0,0-0.25,3.166,3.167,2.416c0,0,5.75-1.583,4.712,2.866c0,0-1.374,3.301,2.538,7.051c0,0,6.749,6.331,2.333,17.248
		c0,0-4.281,10.757-12.057,9.92c0,0-6.352-1.58-8.397-8.125c0,0-0.629-4.711-6.46-4.273c0,0,0.356-7.703-0.27-8.907
		c0,0-0.785-2.068-2.48-2.359c0,0-3.165-0.416-3.75-0.835C218.747,624.77,219.749,621.106,218.747,607.27z"/>
	<circle display="inline" fill="#BDAA91" stroke="#231F20" stroke-miterlimit="10" cx="205.531" cy="654.641" r="7.5"/>
	<path display="inline" fill="#88765E" stroke="#231F20" stroke-miterlimit="10" d="M227.496,599.685c0,0-1.746-2.56,5.504-8.435
		c0,0,7-6.386,14.875-5.261c0,0,4.875,1.011,6.625,3.636c0,0-1.75,6.25,2.375,9.364c0,0,7.375,4.136,5.737,9.076
		c0,0-1.737,3.81-0.487,8.935c0,0,2.5,8.75,10,6.5c0,0-1.625,5.5-8.375,7.25c0,0-8.901,1.562-10.75,6.121
		c0,0,3.286-8.275-3.982-15.636c0,0-2.934-3.384-1.726-6.185c0,0,1.34-3.562-3.164-3.119c0,0-4.471,1.18-4.645-1.328
		c0,0,0.146-4.424-1.606-4.264c0,0-2.218,0.697-4.297,3.429c0,0-1.045-1.315-0.75-4.417
		C232.83,605.352,232.992,600.119,227.496,599.685z"/>
	<path display="inline" fill="#004F7A" stroke="#231F20" stroke-miterlimit="10" d="M231.667,707.35c0,0,9.208-1.35,17.458,2.4
		L272,710.077c0,0-0.375-5.077-4.75-8.952c0,0-9.125-6.522-15.416-15c0,0-5.749,4-11.729,2.75c0,0,1.02,5.125-3.709,9.227
		C236.396,698.102,232.209,700.824,231.667,707.35z"/>
	<path display="inline" fill="#C3943C" stroke="#231F20" stroke-miterlimit="10" d="M237.35,680.679c0,0,2.485,3.071,2.755,8.196
		c0,0,5.313,1.25,11.729-2.75c0,0,6.121,8.027,12.456,12.701c0,0,6.961,4.078,7.71,11.251h19.625c0,0,4.625-3.952,8.125-18.577v-21
		c0,0-0.125-1.719,0.625-2.609c0,0,1.625-1.766-1.625-2.69c0,0-1.794-0.31-1.919-1.935c0,0-1.206-4.625-4.581-0.766
		c0,0-1.375,2.375-4.875,2c0,0-2.375-0.219-4.25,3.391c0,0-2.875,4.626-8,3.984c0,0-5.625,0.625-7.625-2.125
		c0,0-1.25-1.859-4.906,0.762c0,0-2.969,2.005-8.933,0.738c0,0-7.743-2.75-10.576,0.697c0,0-1.24,1.176-0.975,4.052
		C242.11,675.999,242.2,679.982,237.35,680.679z"/>
	<path display="inline" fill="#BDAA91" stroke="#231F20" stroke-miterlimit="10" d="M240.105,649.27c0,0-4.25,1.467-1.24,5.911
		c0,0,2.055,3.151-0.28,8.423c0,0-2.71,4.271,8.04,6.646c0,0,5.647,0.805,9.636,1.277c0,0,3.178,0.74,7.208-1.581
		c0,0,1.905-2.056,4.507,0.332c0,0,8.523,6.847,15.764-3.41c0,0,1.26-2.368,3.635-2.368c0,0,0.5-16.109-13.25-22.5
		c0,0-7.625-4-3.121-7.199c0,0,6.371-3.801,5.871-8.676c0,0-0.5-4.429-3.75-4.375c0,0-1.588,6.883-10.544,9.254
		c0,0-8.841,1.371-10.747,9.746C251.834,640.75,248.835,649.289,240.105,649.27z"/>
	<path display="inline" fill="#D16536" stroke="#231F20" stroke-miterlimit="10" d="M291.625,710.077h30.542
		c0,0,5.833,4.134,9,3.945l6.5,0.006c0,0-0.333-5.029-1.833-6.779c0,0-2.917-2.749-2.833-3.916l-0.083-4.417c0,0,0-1.917-4.25-4.667
		c0,0-12.417-10.413-12.917-26.163l-14.969-0.666c0,0-1.031,1.332-1.031,3.416V691.5C299.75,691.5,297.333,703.402,291.625,710.077z
		"/>
	<path display="inline" fill="#004F7A" stroke="#231F20" stroke-miterlimit="10" d="M329.019,644.885
		c0,0-9.894,21.287-13.269,23.201l-14.969-0.666c0,0,0.552-1.603-2.031-2.22c0,0-1.839-0.169-1.919-1.935
		c0,0-0.664-2.34-2.331-2.303c0,0-1.333-0.073-2.875,2.273c0,0-1.208,1.514-4.25,1.264c0,0,0.042-16.25-13.25-22.5
		c0,0-6.376-3.683-4-6.383c0,0,7.923-4.906,6.524-10.554c0,0-0.382-3.026-3.549-3.942c0,0,2.4-9.206,5.733-7.622
		c0,0,4.251,4.167,7.667,3c0,0,1.917,4.502,5.417,5.251c0,0,3.167,0.416,3.167,4.666c0,0,0.001,3.167,5.698,3.833
		c0,0,6.136,6.416,12.552,11l10.75,0.168L329.019,644.885z"/>
	<circle display="inline" fill="#BDAA91" stroke="#231F20" stroke-miterlimit="10" cx="341.708" cy="660.641" r="7.5"/>
	<circle display="inline" fill="#BDAA91" stroke="#231F20" stroke-miterlimit="10" cx="385.282" cy="665.866" r="7"/>
	<circle display="inline" fill="#BDAA91" stroke="#231F20" stroke-miterlimit="10" cx="402.673" cy="687.78" r="7"/>
	<circle display="inline" fill="#BDAA91" stroke="#231F20" stroke-miterlimit="10" cx="450.658" cy="649.75" r="7"/>
	<circle display="inline" fill="#BDAA91" stroke="#231F20" stroke-miterlimit="10" cx="440.435" cy="628.864" r="7"/>
	<circle display="inline" fill="#BDAA91" stroke="#231F20" stroke-miterlimit="10" cx="490.543" cy="658.866" r="7"/>
	<circle display="inline" fill="#BDAA91" stroke="#231F20" stroke-miterlimit="10" cx="412.697" cy="540.227" r="7"/>
	<circle display="inline" fill="#BDAA91" stroke="#231F20" stroke-miterlimit="10" cx="641.22" cy="738.282" r="7"/>
	<circle display="inline" fill="#BDAA91" stroke="#231F20" stroke-miterlimit="10" cx="611.021" cy="813.106" r="7"/>
	<path display="inline" fill="#BDAA91" stroke="#231F20" stroke-miterlimit="10" d="M322.898,687.78h48.936
		c0,0-0.709,2.72,2.166,5.22c0,0,2.25,1.875,0,3.25c0,0-6.25,3-6,9.75c0,0-0.25,2.875,1,5.875c0,0,2.25,5.25-1.625,6.125
		c0,0-0.5-3.972-6.375-3.972h-23.333c0,0,0.188-4.067-2.191-7.13c0,0-3.189-2.643-2.52-5.896c0,0,0.499-3.084-2.232-5.224
		C330.724,695.779,325.867,692.514,322.898,687.78z"/>
	<path display="inline" fill="#88765E" stroke="#231F20" stroke-linejoin="round" stroke-miterlimit="10" d="M315.75,668.086
		l57.5,1.789c0,0,1.169,4.879-1.416,17.905h-48.936C322.898,687.78,315.875,678.672,315.75,668.086z"/>
	<path display="inline" fill="#D16536" stroke="#231F20" stroke-miterlimit="10" d="M286.5,616.499c0,0,5-5.249,5.75-9.374
		c0,0,1.875-4.125-5.75-8.25c0,0,11.042-2.25,28.146,0c0,0,13.269,2.631,19.562,14.44c0,0-2.958,6.185-0.833,11.435
		c0,0,1.625,2.625-0.375,7.375c0,0-1.471,2.32,0.327,5.223l-4.309,7.537l-4.894-3.76l-10.792,0.124c0,0-7.021-5.251-12.552-11
		c0,0-5.239-0.792-5.698-3.833c0,0,0.792-3.791-3.458-5.036C291.625,621.38,288.75,620.75,286.5,616.499z"/>
	<circle display="inline" fill="#BDAA91" stroke="#231F20" stroke-miterlimit="10" cx="336.019" cy="643.875" r="7.5"/>
	<path display="inline" fill="#C3943C" stroke="#231F20" stroke-linejoin="round" stroke-miterlimit="10" d="M254.5,589.625
		c0,0,5.375-6.75,6.625-12.125l11.75-5.125l4,6.25c0,0-2.375,8.125,1.5,9.75c0,0,6.375,0.625,6.292,6.78c0,0-0.667,2.938,3.21,4.529
		c0,0,7.326,4.118,3.602,9.751c0,0-2.104,3.938-4.979,7.063c0,0-3.513,1.05-6.694-2.162c0,0-1.748-3.003-4.339,1.018
		c0,0-2.01,3.503-2.988,8.074c0,0-5.687,2.001-8.77-3.151c0,0-3.61-4.271-1.097-12.212c0,0,1.684-3.946-4.651-8.381
		C257.96,599.685,252.5,596.625,254.5,589.625z"/>
	<path display="inline" fill="#BDAA91" stroke="#231F20" stroke-miterlimit="10" d="M300,560.625c0,0-20.625,0.125-27.125,11.75
		l4,6.25c0,0-2.294,8.263,1.5,9.75c0,0,5.752,0.75,6.251,5.875c0,0-0.855,5.797,4.634,4.211c0,0,12.822-1.322,22.843,0.108
		c0,0,8.521-6.694,9.271-11.694c0,0,1.375-3.25-5.625-8.625c0,0-6.31-2.188-7.685-3.938C308.065,574.312,301.931,568.75,300,560.625
		z"/>
	<path display="inline" fill="#004F7A" stroke="#231F20" stroke-miterlimit="10" d="M303.75,530.25h28.5v15.5
		c0,0,9.5,11.25,11.625,19.75c0,0-1.5,6-6,1.25c0,0-2.25-3-4.375-1.75c0,0-2.875,1.625-2.625,9.25c0,0,0.75,2.875-4.25,3
		c0,0-4.919-0.09-7.022,4.643c0,0-3.994-3.52-10.32-6.568c0,0-12.104-9.949-11.158-26.324
		C298.125,549,302.289,545.629,303.75,530.25z"/>
	<path display="inline" fill="#D16536" stroke="#231F20" stroke-miterlimit="10" d="M373.514,674.5h23.111l-6.375-21.359
		c0,0,7.75-16.766,8.375-32.516c0,0,0.125-8.754-1.25-14.127l-29.763,0.002c0,0,2.263,22.971-10.487,32.61
		c0,0,5.375,4.64,4.375,9.515c0,0,9-0.5,8.75,5.25c0,0-1.125,2.625,4.75,6c0,0,4.5,2.5-1.75,10L373.514,674.5z"/>
	<path display="inline" fill="#004F7A" stroke="#231F20" stroke-miterlimit="10" d="M343.875,646.907"/>
	<path display="inline" fill="#004F7A" stroke="#231F20" stroke-miterlimit="10" d="M415.667,712.834c0,0-3.167,1.166-5.994,5.5
		c0,0-2.798,5.541-7.673,6.5c0,0-5.125,0.916-7.123,6.302c0,0-2.377,6.365-8.377,6.365c0,0-1.375-0.626-4.125-7.126
		c0,0-4.25-2.5-6.375-7.5c0,0-2.5,6-10.125,5.625v-8.25c0,0,0.283-1.416,3.142-3.208c0,0,1.956-1.579-0.218-5.686
		c0,0-4.049-10.356,5.201-15.106c0,0,2.375-1.25,0-3.25c0,0-3.38-1.73-1.565-8.49c0,0,0.717-3.26,1.079-10.01h17.257
		c0,0-1.271,9.935,3.229,15.585c0,0,6.583,6.166,7.875,12.454c0,0,1.376,6.336,9.876,8.586
		C411.75,711.125,414.521,711.746,415.667,712.834z"/>
	<path display="inline" fill="#D16536" stroke="#231F20" stroke-linejoin="bevel" stroke-miterlimit="10" d="M332.25,530.25
		l45.301,1.083v11.166c0,0-5.801,4.728-6.385,12.834l0.167,3.918c0,0,0.639,3.777-4.705,6.099c0,0-1.712,1.317-2.608-2.606
		c0,0-1.521-6.672-6.354-6.401c0,0-1.449-0.083-2.516,2.413c0,0-1.596,2.588-3.54,0.292c0,0-2.111-2.69-4.175,0.801
		c0,0-2.479,3.896-3.208,6.024c0,0-2.978-9.706-11.978-20.122V530.25z"/>
	<path display="inline" fill="#004F7A" stroke="#231F20" stroke-miterlimit="10" d="M378.75,606.499l0.875-26.203l11.926-3.09
		c0,0,3.28,0.079,9.031,3.625c0,0,2.042,1.788,4.792-2.583c0,0,1.291-2.296,2.875-0.375c0,0,1.248,1.869,2.604-0.126
		c0,0,1.514-2.823,3.206-0.472l2.816,2.977H423c0,0,2.876,2.126,0,4.75c0,0-2.124,1.503,0.001,4.75c0,0,2.458,4.003-0.709,5.668
		c0,0-3.792,1.708-5.083,4.958c0,0-1,2.294-0.958,6.12L378.75,606.499z"/>
	<circle display="inline" fill="#BDAA91" stroke="#231F20" stroke-miterlimit="10" cx="384.551" cy="575.324" r="7"/>
	<polygon display="inline" fill="#004F7A" stroke="#231F20" stroke-miterlimit="10" points="424.333,532.833 465.5,532.833 
		465.5,578.875 423.038,578.875 	"/>
	<polygon display="inline" fill="#C3943C" stroke="#231F20" stroke-linejoin="round" stroke-miterlimit="10" points="516,533.625 
		465.5,532.833 465.5,578.875 517.75,579.625 516.875,541.5 515.75,539.25 	"/>
	<path display="inline" fill="#D16536" stroke="#231F20" stroke-linejoin="bevel" stroke-miterlimit="10" d="M423.038,578.875
		c0,0-0.39,1.262,0.724,2.193c0,0,1.472,1.697-0.395,3.564c0,0-2.417,1.736-0.798,4.364c0,0,3.306,4.253-0.277,6.423
		c0,0-6.542,2.393-6.042,11.078l4.018,0.001c0,0,2.107-2.937,4.732,1.626c0,0,3.097,5.685,5,7.438l3.435-3.438L447,611.938
		l3.062-4.375c0,0,4.125-0.438,7.375,1.25c0,0,3.688,1.438,7.5,1.125l-0.688-31.062H423.038z"/>
	<polygon display="inline" fill="#BDAA91" stroke="#231F20" stroke-miterlimit="10" points="517.75,579.625 517.917,623.835 
		505.833,623.835 503.583,622.751 465.333,621.864 464.25,578.875 	"/>
	<path display="inline" fill="#C3943C" stroke="#231F20" stroke-miterlimit="10" d="M397.375,606.499h22.893
		c0,0,2.232-2.437,4.01,0.635c0,0,3.785,6.679,7.722,11.929c0,0,2.438,3.375-1.125,5.938c0,0-2.312,1.125-1.704,2.861
		c0,0,1.517,3.014-2.983,4.139L422,632.625l0.75,11.125c0,0-13.312-10.188-25.116-14.355
		C397.634,629.395,400.125,618.938,397.375,606.499z"/>
	<path display="inline" fill="#BDAA91" stroke="#231F20" stroke-miterlimit="10" d="M396.625,674.5l-6.375-21.359
		c0,0,5.352-11.103,7.384-23.746c0,0,15.532,6.19,29.032,17.19c0,0,3.834-0.916,5.417,1.501l4,0.084c0,0-0.667,3.582,1.5,6.916
		c0,0,2.833,4.502,7.5,8.002c0,0,6.5,4.49,6.333,11.412l-10.583,0.338l-1.417,0.75h-17.333l-2.917-1.088H396.625z"/>
	<path display="inline" fill="#88765E" stroke="#231F20" stroke-linejoin="round" stroke-miterlimit="10" d="M386.5,737.501
		c0,0,5.499,5.833,5.749,12.083c0,0,0.083,8.916,1.5,10.333h45.417l2-45.082l-3.667,2.417c0,0-1.75,1.499-3.333-0.334
		c0,0-1.5-2.17-5.167,0c0,0-5,2.997-7.417-0.25c0,0-3.782-4.414-5.916-3.834c0,0-4.486,2.416-5.994,5.5c0,0-2.828,5.688-8.209,6.636
		c0,0-4.528,0.89-6.455,5.836C395.009,730.806,392.751,737.334,386.5,737.501z"/>
	<path display="inline" fill="#D16536" stroke="#231F20" stroke-miterlimit="10" d="M439.417,675.588l1.417-0.75l10.583-0.338
		c0,0,8.833,4.335,9.833,12.001c0,0,0.583,2.583,2.833,3.583c0,0,1.75,3.583-1.75,8.75c0,0-4.917,6.332,1.583,12.249
		c0,0,5.666,3.75,1.333,7.417c0,0-3.5-6.833-9-3.583c0,0-1.75,1.167-1.667,3l-6.75,0.166c0,0,0.164-8.496-6.668-3.248
		c0,0-4.899,4.209-6.532,2.521c0,0-2.155-2.899-6.06-0.21c0,0-3.616,2.279-6.302,0.234c0,0-2.161-2.593-3.625-3.461
		c0,0,4.885-1.989,8.328-15.453c0,0,1.857-6.72,7.275-12.967C434.25,685.5,440.082,678.923,439.417,675.588z"/>
	<path display="inline" fill="#BDAA91" stroke="#231F20" stroke-miterlimit="10" d="M439.165,759.917l2-45.082
		c0,0,6.251-5.419,6.668,3.248l6.75-0.166c0,0,0.023-3.763,5.157-3.84c0,0,4.134,0.423,6.009,6.423c0,0,2.125,6.625,6.75,4.5
		c0,0,5-3.75,6.875-2.625c0,0,2.75,1.375,2.75,5.125c0,0-0.5,1.938,2.125,2.75c0,0,3.75,0.812,0.896,5.523
		c0,0-2.084,2.664,0.764,4.925c0,0,2.277,1.552,1.601,4.552c0,0-0.511,1.438,0.927,3c0,0,2.188,2.125,0,4.25
		c0,0-5.688,4.646-5.5,7.417H439.165z"/>
	<path display="inline" fill="#004F7A" stroke="#231F20" stroke-miterlimit="10" d="M496.334,673.335c0,0-38.093-0.925-43.672,1.87
		c0,0,7.755,4.38,8.588,11.296c0,0,0.334,2.417,2.833,3.583c0,0,1.889,3.4-2.181,9.408c0,0-4.569,6.092,1.504,11.101
		c0,0,5.988,3.952,1.791,8.43l0.444,1.152c0,0,2.775,0.409,5.108-0.925c0,0,3-2.25,7.917-1.166c0,0,3.9,0.666,6.117-1.334
		c0,0,2.801-3,6.467-1.416c0,0,9.499,3.334,16.916-0.666c0,0-2.251-0.746-1.5-4.584c0,0,1.166-4.25-2.25-5.75
		c0,0-3.834-1.666-3.5-6.583c0,0,0.416-4.497-2.739-9.222C498.177,688.529,496.086,686.167,496.334,673.335z"/>
	<path display="inline" fill="#C3943C" stroke="#231F20" stroke-miterlimit="10" d="M482.938,759.917c0,0,13.479-0.5,19.979,1.334
		c0,0,4.052,1.53,5.951-0.543c0.045-0.05,0.089-0.102,0.132-0.155c1.834-2.302,1.334-5.719,4.334-7.802c0,0,6.166-3.333,3.666-7.833
		c0,0-3.504-4.041,1.502-9.001c0,0,2.667-3.25,8-4.333c0,0,0.917-3.917-3.185-3.731c0,0-4.899,0.397-6.232-2.269
		c0,0-1.083-1.584-1.166-4.75c0,0,0.161-4.832-7.753-6.166c0,0-7.08,4.162-17.622,0.414c0,0-2.646-1.416-5.761,1.668
		c0,0-2.188,2.236-7.442,1.118c0,0-3.599-0.562-6.885,1.535c0,0-2.925,1.362-4.814,0.771c0,0,1.855,6.658,6.858,4.825
		c0,0,5.825-4.908,7.914-1.829c0,0,2.017,1.745,1.678,4.829c0,0-0.028,1.728,2.691,2.447c0,0,2.863,1.033,0.708,4.71
		c0,0-2.757,2.99,0.419,5.541c0,0,2.112,1.246,1.686,4.064c0,0-0.723,1.822,0.842,3.487c0,0,2.951,2.463-1.117,5.23
		C487.32,753.48,482.956,757.086,482.938,759.917z"/>
	<polygon display="inline" fill="#88765E" stroke="#231F20" stroke-linejoin="round" stroke-miterlimit="10" points="516,533.625 
		555.125,533.625 555.125,579.625 517.75,579.625 517,541 515.75,539.25 	"/>
	<polygon display="inline" fill="#D16536" stroke="#231F20" stroke-linejoin="bevel" stroke-miterlimit="10" points="
		589.75,533.625 589.75,578.875 555.125,579.625 555.125,533.625 	"/>
	<path display="inline" fill="#004F7A" stroke="#231F20" stroke-miterlimit="10" d="M517.917,630.25l-0.167-50.625h27.125V612.5
		c0,0-3.25,8.875,3.625,14l-2.125,3.75H517.917z"/>
	<path display="inline" fill="#C3943C" stroke="#231F20" stroke-linejoin="round" stroke-miterlimit="10" d="M573.499,579.227
		l-28.624,0.398V612.5c0,0-3.25,8.625,3.625,14l21.096,0.58C569.596,627.08,575,608.875,573.499,579.227z"/>
	<path display="inline" fill="#88765E" stroke="#231F20" stroke-linejoin="round" stroke-miterlimit="10" d="M517.75,672.375
		l0.167-42.125h28.458l2.125-3.75l31.167,0.58c0,0,1.834,5.921-3.5,18.254c0,0-3.228,7.166-1.882,12.464c0,0,0.34,3.827,6.59,4.827
		l-4.125,6.125c0,0-7.5,0.375-8.25-5c0,0-0.375-6.25-6.75-6.125c0,0-3.25-0.5-5.875,4.125c0,0-3.125,4.75-6.562,4.75
		c0,0-2.771-0.375-3.688,1.875c0,0-0.583,1.333-2-0.167c0,0-2.125-1.833-3.5,1.042l-1.542,3.125H517.75z"/>
	<path display="inline" fill="#004F7A" stroke="#231F20" stroke-miterlimit="10" d="M589.75,578.875l-16.251,0.352
		c0,0,1.5,25.605-2.833,40.272v7.581h16.167c0,0,3.751-0.414,3.834-3.997c0,0-0.5-4.166,4.583-4.083c0,0,3.246,0.582,5.248-3.417
		c0,0,4.667-7.167-0.581-11l-6.335-5.917c0,0-1.168-1.501-3.667-1.667L589.75,578.875z"/>
	<circle display="inline" fill="#BDAA91" stroke="#231F20" stroke-miterlimit="10" cx="565.939" cy="621.864" r="7"/>
	<path display="inline" fill="#BDAA91" stroke="#231F20" stroke-miterlimit="10" d="M589.75,533.625h37.417l-8,13.209
		c0,0-1.417,2.915,0.25,9.791c0,0,1.084,8.626-0.416,18.126c0,0-1.25,6.5,3.083,9.333c0,0-4.668,8.082-5.584,19.415
		c0,0-16.32-8.254-21.493-3.502c0,0-2.594-3.248-5.092-2.998L589.75,533.625z"/>
	<path display="inline" fill="#C3943C" stroke="#231F20" stroke-linejoin="round" stroke-miterlimit="10" d="M638.167,533.167
		l-11,0.458l-8,13.209c0,0-1.415,2.249,0.25,9.791c0,0,1.271,8.897-0.49,18.637c0,0-1.426,10.405,8.24,9.822
		c0,0,3.165-0.166,3.582-3.833c0,0,0.583-4.25,5.5-4.917c0,0,5.416-1.501,5.5-7.167c0,0,0.138-8.949-2.529-17.199
		C639.22,551.968,637.001,543.417,638.167,533.167z"/>
	<path display="inline" fill="#004F7A" stroke="#231F20" stroke-miterlimit="10" d="M680.417,532.583l-42.25,0.584
		c0,0-1.757,10.036,1.412,19.977c0,0,4.231,13.54,1.2,19.656c0,0,3.824-0.718,7.824,1.782c0,0,1.896,1.416,4.896,1.249
		c0,0,3.25-0.833,4.417,2.333c0,0,0.692,1.755,3.192,1.838c0,0,3.017,0.393,4.021-0.983c0,0,2.452-2.771,5.869,2.229
		c0,0,7.667-7.668,9.418-22.11V532.583z"/>
	<path display="inline" fill="#D16536" stroke="#231F20" stroke-linejoin="bevel" stroke-miterlimit="10" d="M680.417,532.583
		h75.749c0,0,3.421-0.417,7.001,3.747c0,0,1.754,1.336,1.479,3.751c0,0-0.395,1.713-2.145,1.713c0,0-3.083-0.463-5.417,9.37
		c0,0-1.034,4.63-1.334,8.916c0,0-1.663,13.168-7.83,14.918h-5.25l0.167,5.083c0,0-2.166-2.167-5.5-1.917
		c0,0-2.166-0.499-2.25-4.166c0,0,0.249-1.667-1.334-3.667l-4.333-6.917c0,0-1.5-3-5.75-1c0,0-5.583,3.333-8.5,0.5
		c0,0-2.085-2.754,0.915-6.588c0,0,4.5-5.328-3.249-7.532l-21.167-7.545h-11.252V532.583z"/>
	<path display="inline" fill="#D16536" stroke="#231F20" stroke-linejoin="bevel" stroke-miterlimit="10" d="M604.418,668.751
		c0,0-6.169-4.419-23.543-6.126c0,0-7.993-0.7-6.892-8.537c0,0-0.041-4.471,3.613-12.362c0,0,3.486-8.982,2.07-14.646h7.166
		c0,0,3.563,0.096,3.783-3.408c0,0-0.194-3.823,2.888-4.497c0,0,3.9,0.229,5.224-1.288c0,0,7.11-7.791,1.518-13.043l-5.238-4.847
		c0,0,4.241-5.084,21.493,3.502c0,0,10.002,4.668,14.585,8.668l13.25,12.417c0,0,3.584,3.08,2.084,5.83l-18.749,13.417
		L604.418,668.751z"/>
	<path display="inline" fill="#88765E" stroke="#231F20" stroke-linejoin="round" stroke-miterlimit="10" d="M622,584
		c0,0-5,9.748-5.5,19.499c0,0,8.295,3.96,14.585,8.668c0,0,16.355,13.67,15.678,17.169c0,0,13.968-33.266,24.236-48.088
		c0,0-2.575-4.709-5.869-2.229c0,0-5.028,3.087-7.494-1.467c0,0-1.296-2.532-4.548-1.71c0,0-2.587,0.29-5.086-1.61
		c0,0-4.196-2.38-7.223-1.432c0,0-1.445,3.191-5.944,3.861c0,0-3.945,1.029-4.264,5.475C630.571,582.136,629.746,587.502,622,584z"
		/>
	<circle display="inline" fill="#BDAA91" stroke="#231F20" stroke-miterlimit="10" cx="705.836" cy="548.794" r="7"/>
	<path display="inline" fill="#D16536" stroke="#231F20" stroke-miterlimit="10" d="M508.868,760.708l20.461,21.118l12.005-17.326
		l-1-2.705l-1.251-18.212c0,0-1.783-10.441-12.892-11.93c0,0-10.608,2.677-10.33,10.518c0,0,0.14,1.251,1.139,2.747
		c0,0,2.497,3.402-2.627,7.157c0,0-3.36,1.991-3.7,4.665C510.673,756.74,510.333,759.83,508.868,760.708z"/>
	<path display="inline" fill="#88765E" stroke="#231F20" stroke-linejoin="round" stroke-miterlimit="10" d="M571.165,823.164
		l-41.836-41.338l12.005-17.326l-1-2.705l-0.41-5.969h17.992l12.584-13.412c0,0,9.835-0.749,12.389,6.629
		c0,0,0.946,5.372,5.029,7.122c0,0,2.166,2.083,2.833,8.25c0,0,0.419,2.83,3.419,5.414c0,0,4.5,4.163,1.667,8.75
		c0,0-5.001,7.997-3.583,12.75c0,0,3.081,11.331-5.501,12.583c0,0-5.92,0.164-5.504,4.165c0,0,0.17,3.752-2.417,5.029
		c0,0-2.164,1.555-3.08,5.389C575.752,818.495,574.578,822.999,571.165,823.164z"/>
</g>
<g id="Layer_3">
	<path fill="none" stroke="#231F20" stroke-miterlimit="10" d="M306.562,53.538l-1.455,9.425c0,0-6.715,11.368,0.511,18.593
		c-7.226-0.602-19.653,1.312-19.653,9.139c-4.214,5.418-17.449,25.367-23.47,21.754c-6.02-3.614-10.366-14.698-18.193-4.463
		c-6.623,0.601-11.155-3.235-11.757,4.592c0.764,11.377-23.203,18.971-28.621,15.962c0.602-7.828,6.737-16.977-12.529-4.934
		c-3.01,6.622-2.059,3.777-5.671,7.39c-3.18-1.413-5.828-3.054-20.296,17.285c-16.255,1.807-18.062,3.011-23.481,8.43
		c-4.214,0.602-7.777,7.807-10.667,8.646c-7.11,2.066-12.572-0.386-21.241,10.191c-10.235-1.205-38.574-6.029-58.575,16.858
		c0.602,4.817-1.03,3.612-1.03,7.225c0,3.612-6.021,1.204-0.603,13.245c-2.78,4.059-10.409,5.848-23.052-1.379
		c-7.827,7.827-9.633,11.615-9.031,14.624c0.602,3.013-2.234,13.247-2.836,21.074c10.235,1.204,130.046,5.418,136.067,5.418
		c7.076-0.202,41.29-8.255,44.901-8.857c3.613-0.603,3.439-5.847,3.439-5.847s9.458,0.254,10.061-1.553
		c0.602-1.807,6.021-2.407,6.021-2.407l4.214-3.265l3.612,0.174l5.244-2.328l3.787,4.214c0,0,5.942-1.927,7.827-1.63
		c20.562,3.24,123.423,11.865,123.423,11.865s13.854-4.041,5.848,11.011c8.429-3.61,6.623-2.581,12.041-4.39
		c7.827,5.418,19.44,19.869,19.44,19.869s0.604,4.817,0.604,12.645c12.041,1.203,111.982,3.01,117.402,3.01
		c6.621,6.021,116.479,119.934,119.208,125.23c1.997,3.875,9.634-1.205,9.634-1.205s6.021-0.603,7.827-4.816
		c8.429,1.204,13.244,2.41,17.459-0.603c3.612,2.409,14.021,2.409,20.043,5.419c3.012-5.419,14.846-12.445,9.427-43.15
		c4.215,6.02,8.287,23.807,6.48,26.816c4.214-8.43,6.195-27.014,20.646-43.871c5.449-0.916,9.352-5.895,11.438-10.488
		c3.835-2.156,12.818-8.777,12.818-8.777s7.918,1.64,10.325-7.393c1.807-3.01,7.853-3.991,7.853-3.991s9.343-7.28,21.986-9.688
		c-2.408-1.807-4.816-4.215-4.816-4.215l3.787-3.012l-4.135-9.431c0,0,11.612,5.217,10.408,10.032
		c6.623,0,11.012-3.611,11.012-3.611l5.42-3.438l4.814,1.805l18.569-0.543l-7.637-4.876l8.158-1.376l3.613-2.061l4.542,7.184
		c0,0,2.064-1.301,4.487-9.592c3.612,1.205,3.187,6.272,3.187,6.272l1.028,2.156l4.564,0.854l1.804-9.887l4.645,1.205l0.604-3.961
		c0,0,9.03-1.807,6.621-7.225c6.021,0.602,6.625-0.148,7.226-3.613c0.459-2.652,4.465-4.26,4.465-4.26l-2.658-5.373l-3.011-4.816
		l-3.012,2.41l-4.814,4.214l-1.205,3.009l-8.13,1.844l3.916-4.853c0,0-1.085-23.854-2.932-3.61
		c-5.418,1.202-4.293,1.456-8.507,3.262c-4.817,0-15.047,0.953-9.032,4.563c0,4.815,0,4.815,0,4.815l-5.42,1.807
		c0,0,2.409-13.848-7.225-1.205c-4.816-1.807-9.03-7.225-11.439-1.204c-6.62-4.214-9.633-4.817-14.448-9.635
		c-2.408-7.827-15.053-32.51-22.878-31.306c1.807-3.613,8.582-19.922,19.866,15.652c4.216,4.215,10.673,9.094,16.09,9.694
		c1.202,4.815,1.975,9.492,13.413,2.269c3.01-4.816,8.429-5.941,8.429-5.941s9.633,0,7.225-4.817
		c5.421-1.807,9.699-6.628,1.871-7.229c-2.408,4.214-3.678,2.412-7.891-3.006c5.417-3.012,5.417-7.651,12.643-2.836
		c1.806-4.213,4.817-4.815,4.817-4.815s1.159-5.46-0.604-8.001c0.604-1.809,0-6.021-6.021-0.604
		c-0.604-4.815-3.011-7.827-7.226-0.602c-3.011-3.611-7.225-7.827-12.644-4.816c1.205-4.214-2.409-8.428-11.438-6.021
		c-0.603-3.611-3.275-5.247-7.227-5.418c-3.011-1.203-3.612-6.622-7.225,3.012c-0.603-6.623-4.216-10.235-8.43-13.246
		c6.021,0.602,9.636,2.408,9.636,2.408s10.232,4.818,13.846,4.818c3.011,3.009,9.633,4.214,9.633,4.214l6.022,0.602
		c0,0,6.562,1.118,8.972,0.517c1.204-4.818,1.93-14.204,1.93-14.204l5.965-2.411c0,0,1.459,9.62-0.61,17.302
		c1.806,0.602,5.459,0.77,5.459,0.77s5.235,8.366,8.389-1.373c0.602,6.021,3.611,8.429,10.234,2.409
		c4.815,0,6.778-2.581,6.778-2.581s4.159,2.923,5.966-0.086c3.012,6.02,5.318,3.267,6.521,0.86
		c4.817-0.603,10.692-4.937,13.246-10.235c4.214,1.204,7.224-5.419,5.418-9.03c1.806-2.409,3.011-4.818,3.011-4.818l2.408-6.622
		l0.6-5.418l1.206-5.42c0,0,4.214,4.818,6.623,5.42c3.612,2.407,13.848,1.806,9.031-9.634c3.01-1.204,6.021-11.438,0.602-14.45
		c-1.807-6.02-4.816-13.245-9.029-13.245c-1.809-5.418-0.604-12.042-9.031,2.408c-4.215,0-10.234,1.806-9.634,5.418
		c0.602,3.613,0.82,16.58,1.939,20.269c1.812,5.977-5.553,10.437-5.553,10.437l-7.826-4.215l7.225-1.806
		c0,0-3.611-16.684-5.417-21.5c4.814-4.816,8.429-7.4,1.806-8.603c3.611-4.215,4.816-8.429-12.646-6.624
		c-7.825,0.603-12.454,2.259-12.794,6.779c-5.418,1.204-10.513,0.446-10.513,0.446s7.051-11.438-12.816-1.805
		c-12.644,1.204-12.041,0.602-19.267,0.602c-4.215,6.02-7.577,8.196-7.577,8.196l-0.852-6.994c0,0,12.643-9.632,4.815-8.428
		c0-3.011,0-3.011,0-3.011s-9.029-18.665-4.215-16.858c3.612,6.021,4.215,12.215,10.837,13.419c8.41-7.579,8.857,5.245,8.857,5.245
		s15,1.337,16.604-7.224c8.521-3.742,20.295-1.807-4.389-15.052c10.234,3.009,16.214,6.106,18.061,6.02
		c4.816,4.816,18.063,9.634,4.216-4.816c6.385,1.597,0.45-4.346,5.869-0.132c5.418,1.205,5.663,1.814,5.663,1.814
		s12.573-1.814,4.723-4.091c0.603-4.214-1.203-5.418-4.214-3.612c0.603-4.215-7.458-4.397-9.774-13.279
		c3.611,1.204,9.774,3.646,9.774,3.646s13.611,17.723,22.879,15.052c-7.51-13.163-7.399-27.093,8.855,3.612
		c2.408,6.021,6.59,8.585-0.489-4.546c0.603-4.215-4.721-10.513-4.721-10.513l2.374-4.207l-5.419-7.225
		c0,0,1.205-18.664-4.815-6.623c-2.407-0.602-4.214-3.01-4.214-3.01l2.408-3.612c0,0-4.216,0-7.827-7.226
		c1.518-4.515,3.012-7.225,3.012-7.225l3.009,0.602l1.808,4.816l5.417,2.41l1.809-6.022l2.407-2.407
		C923.427,54.535,310.775,60.162,306.562,53.538z"/>
	<path fill="#BDAA91" stroke="#231F20" stroke-miterlimit="10" d="M84.749,229.134l-7.225,0.603l-6.021,1.204
		c0,0-5.419-1.204-11.439,9.031c-4.817,2.408-11.439,4.99-9.031,8.603c7.827,0,43.951,2.233,43.951,2.233s-1.806-9.031-5.418-9.633
		c1.806-3.611,1.203-8.429-2.409-7.826C87.76,230.336,84.749,229.134,84.749,229.134z"/>
	<path fill="none" stroke="#231F20" stroke-miterlimit="10" d="M621.19,189.998l45.757-36.124v-3.01c0,0,3.613-6.622-9.032-12.041
		c-11.438-6.623-24.684-14.45-24.684-14.45s-17.46-4.816-19.869-3.009c-2.406,1.805,3.012,4.816,3.012,4.816
		s6.622,1.203,1.807,3.611c-2.408,5.42,1.206,5.42,1.206,5.42s-10.237,0-12.046,13.847c-4.813,0-8.428,0.602-8.428,0.602
		l-7.824,30.705l26.488,11.44C617.577,191.805,617.577,194.213,621.19,189.998z"/>
	<path fill="#88765E" stroke="#231F20" stroke-miterlimit="10" d="M693.439,184.58l-17.462,36.124l-5.417,0.855l-6.021,4.562
		l-12.041-1.204l-31.308-34.919l45.757-36.124c0,0,9.633,11.44,12.644,7.827c3.613,9.634,7.226,19.869,7.226,19.869L693.439,184.58z
		"/>
	<polygon fill="#004F7A" stroke="#231F20" stroke-miterlimit="10" points="721.133,183.376 724.143,238.769 721.736,239.369 
		719.929,236.96 716.315,240.226 710.898,236.96 707.286,238.769 680.795,236.96 669.355,221.909 675.978,220.704 694.041,181.57 	
		"/>
	<path fill="#BDAA91" stroke="#231F20" stroke-miterlimit="10" d="M690.603,273.084l-0.176-35.521l16.858,1.205l3.612-1.808
		l5.417,3.612l3.612-3.612l4.215,1.808l2.408,3.008l5.418,2.408l1.204,16.256l10.236,9.031l-5.418,30.104l-40.941,0.428
		c0,0-8.431-5.242-8.431-0.428c-1.805,0.604-3.008,0-1.805-7.225C689.224,284.522,690.603,273.084,690.603,273.084z"/>
	<path fill="#004F7A" stroke="#231F20" stroke-linejoin="bevel" stroke-miterlimit="10" d="M767.695,266.862
		c0,0-1.003-4.816-7.024-5.819c-5.018,2.61-14.07,6.896-16.282,8.229c-2.212,1.33-3.99,26.089-6.396,30.303
		c1.005,6.223,5.821,33.717,6.222,36.727c5.018-3.41,10.483-7.676,14.172-6.246c2.746-0.6,3.321-0.806,3.321-0.806
		s2.97-1.739,3.41-2.274c0.439-0.535-0.115-3.229,2.803-3.316c1.774-1.479,0.177-5.217,3.99-2.809
		c2.529-0.233,18.259-13.448,22.073-12.242c-2.635-2.176-5.637-4.377-0.848-6.695c-1.578-4.572-3.167-10.363-2.562-11.367
		c-1.807-2.408-3.211-5.018-3.211-5.018s-2.618,0.802-1.606-4.215c-2.206-2.607-2.006-2.809-3.812-3.209
		C781.341,275.894,781.743,267.464,767.695,266.862z"/>
	<path fill="#004F7A" stroke="#231F20" stroke-miterlimit="10" d="M754.049,239.369c0,0,1.604-8.831,0-8.429
		c0.199,2.809-2.007-4.817,7.226,2.006c1.806-2.61,3.812-7.225,2.811-10.838c0-3.411-0.268-4.012,0.268-5.418
		c0.535-1.404-5.199-8.429-5.199-8.429l-11.123,4.215c0,0-3.812-0.601-6.624,2.41c-3.21,0-18.291,1.604-18.291,1.604l1.029,22.278
		c0,0,3.812,4.613,7.827,5.416c0.374,5.051,1.203,16.256,1.203,16.256L754.049,239.369z"/>
	<path fill="#D16536" stroke="#231F20" stroke-miterlimit="10" d="M735.786,172.136l-14.653,11.24l1.771,32.516
		c0,0,11.528-1.414,13.911-0.709c2.791-0.217,4.449,1.189,8.634-2.563c4.074-0.706,4.587-0.742,6.394-2.149
		c1.806-1.404,7.312-2.207,7.312-2.207l-1.492-6.22c0,0-1.804-8.465-4.214-9.552c-0.803-3.093-5.217-10.118-8.429-10.919
		C742.608,179.764,735.786,172.136,735.786,172.136z"/>
	<path fill="#D16536" stroke="#231F20" stroke-miterlimit="10" d="M571.422,226.122l12.241,9.568c0,0,25.488-7.561,33.113-7.561
		c5.42-1.203,11.439-5.82,16.056-1.005c4.416,2.61,6.422,4.015,7.425,4.917c1.605-1.102,4.615-6.723,3.812-8.527
		c1.605-3.012,3.23-4.392,3.23-4.392l-25.541-28.491l-4.183,1.172l-19.054-8.228L571.422,226.122z"/>
	<path fill="#004F7A" stroke="#231F20" stroke-miterlimit="10" d="M596.909,262.647h-4.816c0,0-2.606-12.443-4.215-13.846
		c-1.605-1.404-6.424-6.423-6.424-6.423s1.865-3.813,2.61-5.418c0.743-1.604,21.18-6.993,22.962-7.362
		c1.782-0.371,19.992-2.896,20.189-4.59c2.199,0.135,11.591,5.829,12.314,6.434c0.726,0.601-0.679,7.814,1.128,12.387
		c-2.008,3.971-6.624,9.79-7.827,10.393c-0.202,2.608,1.203,6.221,0,10.034c2.408,2.005,8.831,3.812,8.63,8.229
		c1.604,2.207,3.011,3.812,3.011,3.812s-19.065,5.619-28.498,4.014c-3.812,1.605-8.227,3.412-8.227,3.412
		S595.704,264.054,596.909,262.647z"/>
	<path fill="#88765E" stroke="#231F20" stroke-miterlimit="10" d="M674.977,326.669c0,0,16.657-14.854,15.854-16.857
		c0.402-2.811-1.207-9.033,5.918-9.232c-4.729-3.251-4.517-6.221-8.129-1.004c-2.045-0.721-4.118-1.807,0.553-15.854
		c2.35-13.865,1.654-42.746,1.255-46.158c-6.595-0.396-6.824-0.604-9.633-0.604c-2.503-3.291-8.834-11.439-11.438-15.051
		c-3.266,2.506-4.816,4.213-4.816,4.213l-12.041-1.204l-5.197-5.794c0,0-3.681,2.986-3.454,6.999
		c-1.797,3.761-2.577,6.224-4.087,7.026c-0.062,2.617-1.036,5.75,0.333,8.693c-0.281,3.521-2.153,8.008-5.309,10.492
		c-1.924,3.453-2.37,1.789-1.504,7.301c-0.143,3.354-0.881,5.121,4.454,7.58c3.492,3.674,6.964,9.024,6.047,9.278
		c-0.92,0.25,0.917-0.254,0.917-0.254l5.794,3.868c0,0,3.212-0.401,4.216,3.613c2.006,3.01,3.211,4.416,3.41,7.024
		c1.205,2.409,2.207,5.418,2.207,5.418s3.212,2.81,2.609,8.026c0.804,2.812,3.762,8.029,4.489,11.039
		c1.531,2.408,3.336,5.22,3.738,8.029C672.77,325.865,674.977,326.669,674.977,326.669z"/>
	<path fill="#004F7A" stroke="#231F20" stroke-miterlimit="10" d="M708.491,147.052l-28.9,14.649l6.739,18.503l6.458,4.079
		l1.253-2.713l26.068,1.737l1.022,0.068c0,0,11.241-8.027,14.653-11.24c-0.401-3.612-2.008-4.508-6.222-6.467
		c-1.204-4.369-2.61-14.805-6.623-14.805c-4.014-2.006-8.83-3.812-8.83-3.812S710.899,150.864,708.491,147.052z"/>
	<polygon fill="#BDAA91" stroke="#231F20" stroke-miterlimit="10" points="478.504,142.638 478.504,95.275 532.486,95.275 
		531.684,142.638 	"/>
	<polygon fill="#004F7A" stroke="#231F20" stroke-miterlimit="10" points="477.698,190.804 532.486,191.406 531.684,142.638 
		478.504,142.638 	"/>
	<polygon fill="#BDAA91" stroke="#231F20" stroke-miterlimit="10" points="533.491,55.844 478.504,56.071 478.504,95.275 
		532.486,95.275 	"/>
	<polygon fill="#D16536" stroke="#231F20" stroke-miterlimit="10" points="569.214,95.275 570.405,55.844 533.491,55.844 
		532.486,95.275 	"/>
	<polygon fill="#88765E" stroke="#231F20" stroke-miterlimit="10" points="607.945,95.275 607.945,55.844 570.619,55.853 
		569.214,95.275 	"/>
	<polygon fill="#C09335" stroke="#231F20" stroke-miterlimit="10" points="532.486,95.275 532.486,148.659 567.808,148.659 
		565.4,143.842 564.798,95.275 	"/>
	<polygon fill="#004F7A" stroke="#231F20" stroke-miterlimit="10" points="586.673,148.659 592.493,95.275 564.798,95.275 
		565.4,143.842 567.808,148.659 	"/>
	<path fill="#D16536" stroke="#231F20" stroke-miterlimit="10" d="M607.945,95.275v26.691h4.908c0,0-0.09,4.216,6.935,3.813
		c0.144,2.266,2.807,1.602-1.607,4.012c-0.685,1.99-1.826,3.122,0.091,5.073c-3.545,1.686-10.127,4.959-10.931,14.194
		c-7.145,0.426-20.668-0.399-20.668-0.399l5.82-53.384H607.945z"/>
	<path fill="#BDAA91" stroke="#231F20" stroke-miterlimit="10" d="M532.486,148.659l66.427,1.001l-7.824,30.705l6.984,3.918
		l-3.641,5.715c0,0-6.556-6.219-8.963-4.814c-3.413-1.406-4.216-1.409-5.62-3.614c-2.206-1.202-5.82-3.011-9.432,2.007
		c-1.606-0.4-3.214-2.801-4.719,0.706c-2.909,2.304-3.311,2.505-6.319,2.505c-3.214,2.209-6.623,5.701-6.623,5.701l-21.077-1.093
		L532.486,148.659z"/>
	<path fill="#004F7A" stroke="#231F20" stroke-miterlimit="10" d="M640.458,105.512V66.178l2.208-2.208c0,0,1.206-3.01,1.808-2.607
		c0.602,0.399,0-5.518,0-5.518h-36.527v66.123l4.015,0.261c0,0,1-5.285,21.271,2.146c1.206-2.605,2.209-1.817,1.005-3.415
		c0-2.4-1.604,0.207,1.204-4.609C637.046,113.339,640.458,105.512,640.458,105.512z"/>
	<path fill="#C09335" stroke="#231F20" stroke-miterlimit="10" d="M671.364,88.653v-32.81h-26.892l0.267,4.215l-2.073,3.91
		l-2.208,2.208v39.334h13.245c0,0,3.611,0.804,3.611-3.21c2.009-2.008,4.616-2.008,6.021-1.807c2.208-1.606,5.62-4.014,5.019-6.222
		C669.959,91.665,671.364,88.653,671.364,88.653z"/>
	<path fill="#BDAA91" stroke="#231F20" stroke-miterlimit="10" d="M704.275,81.629V55.844h-32.911v32.81l-3.011,5.619v2.408h5.019
		c0,0,2.407,1.005,5.217,0c3.814,0.603,9.633,3.012,12.042,2.812c3.411,0.402,4.614,0.012,4.614,0.012L704.275,81.629z"/>
	<path fill="#004F7A" stroke="#231F20" stroke-miterlimit="10" d="M666.947,153.874l28.298-54.371c0,0-13.646-0.615-16.656-2.823
		c-2.608,0.445-4.214,0-7.225,0s-3.011,0-3.011,0l-5.019,3.814c0,0-5.018-1.555-7.427,4.742c-5.617,0.275-15.451,0.275-15.451,0.275
		l-6.485,13.444c0,0,1.666,3.207-0.74,5.417c4.684,2.761,24.083,14.102,24.083,14.102S670.759,143.235,666.947,153.874z"/>
	<path fill="#004F7A" stroke="#231F20" stroke-miterlimit="10" d="M734.581,108.722c0,0-7.825,0.403-8.829-1.001
		c-2.409,1.001-1.208,0.601-4.619,2.206c-4.011,0.603-5.817,0-8.226,0c-2.408-1.604-4.417-1.073-5.219-4.348
		c-2.812-0.066-4.213,0-4.213,0s-1.018-3.171-5.22-3.48c-3.012-2.595-3.012-2.595-3.012-2.595l-28.298,54.371
		c0,0,7.9,10.232,12.644,7.827c4.744-2.405,28.9-14.649,28.9-14.649s3.01,4.211,5.62,0
		C715.716,142.238,722.139,125.58,734.581,108.722z"/>
	<path fill="#88765E" stroke="#231F20" stroke-miterlimit="10" d="M748.829,162.069c0,0,5.621-3.502,6.424-5.346
		c2.207-3.246,5.02-5.655,7.826-5.856c1.005-2.207,1.404-2.573,4.415-1.687c0.603-4.132,0.407-11.759-3.107-14.77
		c0.499-3.812,0-6.422,0-6.422s-3.916-6.428-10.94-3.615c-2.007-2.605-6.02-6.82-3.812-8.827c-3.611-2.81-3.927-2.007-9.489-4.416
		c-3.154-2.809-4.356-3.41-4.356-3.41s-25.287,36.718-21.675,39.332c4.931,2.008,12.49,1.705,14.272,13.598
		c0.691,3.036,1.181,5.019,1.181,5.019s5.342,2.369,6.222,4.905C739.397,168.929,748.829,162.069,748.829,162.069z"/>
	<path fill="none" stroke="#231F20" stroke-miterlimit="10" d="M810.843,55.171c0,0-1.808,9.6-2.408,11.809
		c0.803,2.608-0.804,6.792,14.447,13.731c4.817,2.324,12.646,6.74,10.235,13.361c-2.407,6.623-2.407,6.623-2.407,6.623
		l-51.776-1.192l9.03-28.509c0,0,1.405-2.008,4.016-1.606c0.8-3.21,2.004-3.812,2.004-3.812s5.019-4.817-4.815-5.621
		c-3.211-2.409-4.215-4.222-4.215-4.222L810.843,55.171z"/>
	<path fill="#C09335" stroke="#231F20" stroke-miterlimit="10" d="M770.705,110.329c0,0-9.659-4.416-11.554-6.624
		c-0.688-3.009-5.707-22.878-10.322-12.643c-4.615,0-9.835,1.002-5.419-9.434c1.205-5.418,0.402-12.643-6.622-12.241
		c-4.014-0.201-6.021-2.408-9.633-3.612c-4.014,0.199-7.225-0.602-7.826-1.405c-0.603-0.804-5.12-1.405-5.57-1.004
		c-0.449,0.402-4.865-3.211-8.478-2.208l-1.006-0.176V80.71l-9.03,18.792l3.012,2.595c0,0,4.415,0.935,5.22,3.48
		c3.211-0.02,4.213,0,4.213,0s0.439,2.594,3.63,3.508c1.589,0.839,3.553-0.162,3.553-0.162s5.863,2.608,10.881-1.204
		c4.224,1.001,8.629,1.002,10.034,0c2.146,1.531,13.847,7.826,13.847,7.826s-2.607,1.8,3.812,8.827
		c5.449-0.454,10.029-0.254,11.035,4.289c5.823-3.481,10.842-7.704,10.842-7.704s3.812-3.405,0-3.808
		c-0.804-2.005,1.604-3.41-3.412-4.816C770.705,110.329,770.705,110.329,770.705,110.329z"/>
	<path fill="#88765E" stroke="#231F20" stroke-miterlimit="10" d="M778.934,99.503l8.034-25.369c0,0-0.208-5.547,5.012-4.746
		c2.004-3.812-0.018-3.018,3.002-5.221c-0.001-2.129,3.115-2.751-7.271-5.388c-2.759-3.046-3.56-3.485-3.56-3.485l-79.877,0.549
		v5.14c0,0,6.923-0.024,9.482,2.384c3.94,0.296,5.769,0.161,7.374,1.886c4.013,0.538,6.661-0.38,12.463,3.483
		c5.919,0.948,14.148,0.056,8.171,19.52c0.787,1.843,3.048,3.007,7.062,2.807c1.399-2.217,5.19-8.027,10.322,12.643
		c8.713,5.266,8.544,6.022,11.554,6.624c2.407-2.608,8.229-7.827,8.229-7.827L778.934,99.503L778.934,99.503z"/>
	<path fill="#004F7A" stroke="#231F20" stroke-miterlimit="10" d="M863.225,80.711V63.969c0,0-3.21-6.661-3.612-9.049
		c-3.61,0.019-48.77,0.251-48.77,0.251s-9.2,16.348,6.539,22.762c8.101,4.119,13.848,7.043,15.596,10.99
		c3.757-0.671,7.971-4.885,11.383-3.881c1.805-1.004,1.223-1.809,3.212-2.23C850.982,83.036,863.225,80.711,863.225,80.711z"/>
	<path fill="#BD6628" stroke="#231F20" stroke-miterlimit="10" d="M879.48,54.807c0,0,5.218,11.018,12.241,17.115
		c4.216,3.889,14.852,14.726,14.852,14.726s0.201,4.916,5.419,3.46c2.408,2.96-0.201-0.664,2.408,2.96
		c2.609,3.625,5.415,12.641,5.415,12.641s-7.63,4.612-22.879-15.052c-4.436-0.062-6.622-0.602-6.622-0.602s2.21-9.229-7.021-10.633
		c-2.208-4.214-7.628-9.634-13.849-9.634c-1.805-3.412-4.414-6.422-6.22-5.82c-1.204-2.607-3.396-9.049-3.396-9.049L879.48,54.807z"
		/>
	<path fill="#004F7A" stroke="#231F20" stroke-miterlimit="10" d="M906.977,54.64l2.003,0.497c0,0-3.622,6.083-3.013,7.225
		c0.609,1.141,4.212,7.623,7.828,7.226c-1.639,2.455-0.405,2.605-2.409,3.612c3.121,2.601,4.215,3.01,4.215,3.01
		s6.219-14.251,4.815,6.623c5.419,7.225,5.419,7.225,5.419,7.225s-3,2.965,3.721,11.418c0.42,1.608-0.665,3.973,2.122,7.716
		c0.902,2.569,4.834,16.521-5.722-3.01c-4.736-8.211-6.936-16.124-10.249-10.905c-3.716-5.167-3.562-4.916-6.95-5.167
		c-2.185-3.46,0.501-0.904-7.174-8.505c-7.672-7.601-24.709-25.926-22.104-26.795C882.687,54.788,906.977,54.64,906.977,54.64z"/>
	<path fill="#D16536" stroke="#231F20" stroke-miterlimit="10" d="M863.225,80.711c0,0,5.62,8.644,10.234,9.396
		c4.215,3.363,8.63,6.737,8.43,9.564c1.604,1.825,6.357,4.307,5.641,6.508c-4.241,0.211-0.967,0.048-2.634,0.131
		c0,0,16.929,17.117-5.684,5.349c-6.888-2.847-15.185-6.549-15.987-7.754c1.709,2.459,10.505,7.809,10.505,7.809
		s13.57,4.628-5.69,8.445c-4.212-0.999-4.012-1.063-7.624-3.743c-4.815-0.268-10.235,1.137-10.638-7.292
		c0.803-5.618,0.401-7.402-1.404-9.622c0-4.026,2.07-16.819,2.07-16.819L863.225,80.711z"/>
	<path fill="#004F7A" stroke="#231F20" stroke-miterlimit="10" d="M833.567,88.785c0,0,9.588-5.349,10.793-3.743
		c1.428-1.559,4.141-3.51,6.083-2.357c-0.319,2.055-3.916,16.546-0.584,19.486c0.245,4.112-1.688,17.326,10.556,14.246
		c5.882,3.313,11.034,5.85,1.303,9.414c-10.534,1.612-13.344,4.552-15.352-4.872c-4.82,2.21-7.735,3.756-12.799-4.542
		c-2.854-9.098-2.856-15.721-2.856-15.721s4.068-9.445,2.268-11.773C831.396,86.878,833.567,88.785,833.567,88.785z"/>
	<path fill="#88765E" stroke="#231F20" stroke-miterlimit="10" d="M778.934,99.503l51.776,1.192l0.747,7.025
		c0,0-4.764,1.21-0.747,7.93c3.005,7.324,4.396,9.34,4.213,11.134c-0.328,3.223,6.623,0.176-2.167,8.073
		c-2.55,3.359-2.249,2.764-2.046,7.782c-1.804,2.206-5.417,1.605-6.019,0c-0.603-1.606-5.617,0.269-6.021,1.439
		c-1.404,1.169-5.017-0.234-5.017-2.042c-1.405-1.405-5.821-1.805-8.631-0.601c-2.811,1.204-5.618-2.61-7.625-6.622
		c-3.012-0.602-1.203,0-7.022-0.602c-5.82-0.602-9.438-1.407-11.441-1.607c-0.802-2.408,2.707-7.23-9.282-7.327
		c5.671-4.32,9.479-7.525,5.671-8.128c-0.125-2.616-0.806-4.816-3.412-4.816c-1.205-2.006-1.205-2.006-1.205-2.006l8.229-7.827
		L778.934,99.503L778.934,99.503z"/>
	<path fill="#C09335" stroke="#231F20" stroke-miterlimit="10" d="M830.709,144.243c0,0-2.806,7.622-4.614,9.632
		c-1.002,3.415-3.008,13.729,0,16.7c-6.42,0.364-22.81,0.965-22.81,0.965l-16.322-7.627l-2.407-3.812c0,0-17.176-9.992-17.062-10.92
		c0.112-0.931,0.403-14.969-3.108-14.77c0.219-3.815,0-6.422,0-6.422l6.445-3.615c0,0,9.496,0.653,7.999,7.753
		c8.105,1.677,12.951,2.272,14.351,2.328c1.401,0.055,2.145-4.388,10.104,7.116c4.323-0.773,9.622-3.045,11.601,2.224
		c3.785,0.284,5.761-1.174,6.392-1.366c0.63-0.195,6.023,1.641,6.023,1.641L830.709,144.243z"/>
	<path fill="#004F7A" stroke="#231F20" stroke-miterlimit="10" d="M865.632,168.527l-0.801-10.437l8.629-10.134l-1.92-11.341
		c0,0,3.525-10.356-8.314-3.772c-12.083,2.928-4.622,2.969-24.688,2.971c-3.846,4.798-7.827,8.429-7.827,8.429
		s-12.64,21.354-3.607,26.332C836.933,170.533,865.632,168.527,865.632,168.527z"/>
	<path fill="#D16536" stroke="#231F20" stroke-miterlimit="10" d="M881.354,135.681c0,0-0.03-6.879,16.006-6.183
		c5.955-0.06,14.32,0.011,10.262,5.571c-0.05,1.569,1.344,2.085,2.157,2.707c0.722,2.229-2.001,4.185-4.409,6.732
		c0.212,4.026,4.812,22.01,4.812,22.01l-7.225,1.806l-3.208-1.001l-34.118,1.205l-0.801-10.437l8.629-10.134l-1.811-10.94
		c0,0,7.825,0.405,9.271-0.325C881.924,136.186,881.354,135.681,881.354,135.681z"/>
	<path fill="#BDAA91" stroke="#231F20" stroke-miterlimit="10" d="M735.786,170.574l18.731-12.841c0,0,2.626-6.123,6.195-6.194
		c2.805-1.566,3.571-0.907,3.673-2.597c2.096-0.035,3.107,0.238,3.107,0.238l17.061,10.92l2.408,3.812l-1.005,8.224l3.011,3.213
		l1.407,6.221c0,0,11.293,7.023,5.043,8.428c-1.433,0.806-1.433,0.806-1.433,0.806s-1.004,12.24-2.006,13.645
		c-1.004,1.407-8.229,3.213-7.827,9.835c-3.213,1.002-4.441,1.538-7.138-4.65c-3.5,2.643-6.108,6.257-6.108,6.257h-6.521
		l-5.234-7.629c0,0-3.298-15.891-5.706-15.772c-0.919-2.328-5.418-10.318-8.429-10.919
		C743.004,179.768,735.786,170.574,735.786,170.574z"/>
	<path fill="#88765E" stroke="#231F20" stroke-linejoin="round" stroke-miterlimit="10" d="M850.79,169.491
		c0,0,5.21,3.051,4.81,6.662c4.414,3.011,9.632,4.812,8.027,7.424c1.002,2.61,1.403,6.986-1.407,8.912
		c-2.606,0.925-5.02,1.122-5.02,1.122l-4.011-1.122l-2.01,0.521l0.429,5.841c0,0,1.767,3.19,0.034,6.816
		c-1.733,3.628-4.114,3.146-4.114,3.146s-10.062-4.253-9.627-2.803c-2.782-0.277-6.62-2.499-9.111-2.03
		c-2.476-1.276-4.94-2.609-4.94-2.609s-9.794-4.145-10.797-2.339c-2.209-2.411-4.873-5.604-6.802-3.958
		c-3.18-0.625-5.043-0.86-5.043-0.86s7.422,5.016,8.43,13.246c1.732-3.927,2.207-8.633,7.225-3.012
		c3.115-0.548,7.423,0.2,7.227,5.418c2.292-0.49,3.213-1.03,3.213-1.03s4.888-0.398,9.617,3.041
		c0.913,3.132,3.937,2.593,5.963,4.013c2.027,1.42,1.681-0.803,1.681-0.803l3.608,5.617l-3.608,9.234l-15.054-1.807l-10.232-7.427
		l-17.261-14.651l-12.018-0.245c0,0,3.782-3.169,3.986-15.812c2.472-0.364,8.031-0.002-3.607-8.428
		c-0.998-4.415-0.403-6.626-4.418-9.434c0.636-5.185,1.005-8.224,1.005-8.224l16.322,7.627L850.79,169.491z"/>
	<path fill="#88765E" stroke="#231F20" stroke-linejoin="bevel" stroke-miterlimit="10" d="M912.382,166.77h13.267
		c0,0,0.006,3.759-1.104,5.366c-0.24,2.173,1.317,4.39-0.8,5.407c-0.772,2.128,1.086,4.224-2.121,5.833
		c-1.292,2.28-1.209,3.208-3.011,4.818c0.528,2.418-0.203,11.236-5.418,9.03c-0.801,3.517-4.821,10.031-13.246,10.235
		c-1.989,2.768-3.415,6.42-6.623,0c-2.396,1.503-4.614,3.212-5.818-0.2c-1.942,1.526-5.021,4.21-6.824,2.006
		c-1.729,1.444-9.233,9.027-10.234-2.409c-1.402,2.961-2.404,9.634-5.615,5.22c-4.019-1.609-4.416-2.443-4.416-2.443
		s-2.415-2.579-3.815-2.174c-0.628-2.803,1.219-7.397-0.694-9.518c1.296-4.331,1.296-4.331,1.296-4.331s11.242-0.804,6.427-10.034
		c0.013-1.885,1.604-2.205-8.027-7.424c-2.69-5.088-4.81-6.662-4.81-6.662l48.96-2.169
		C899.75,167.322,916.386,177.055,912.382,166.77z"/>
	<path fill="#C09335" stroke="#231F20" stroke-linejoin="bevel" stroke-miterlimit="10" d="M924.03,136.415
		c0,0,7.221-18.265,9.031-2.408c3.179,1.444,3.179,1.444,3.179,1.444s4.244,2.968,5.853,11.801
		c2.412,2.791,4.526,8.532,1.362,12.396c-1.291,3.905,1.644,16.251-10.996,11.688c-4.659-3.364-5.816-5.667-5.816-5.667l-2.44,1.101
		h-11.647l2.656-5.912l-0.575-17.449C914.634,143.409,913.39,136.413,924.03,136.415z"/>
	<path fill="#BDAA91" stroke="#231F20" stroke-miterlimit="10" d="M850.577,247.797c0,0,1.561,5.361-6.441,4.789
		c-3.035,1.962-3.035,1.962-3.035,1.962s-5.836,0.426-3.598,3.663c-1.146,3.011-3.936,2.229-3.936,2.229s-5.586,9.229-11.848,0
		c0.16-3.408-1.548-4.368-6.346-4.711c-2.728-1.922-1.721-21.379-1.721-21.379l5.62-13.645l10.232,7.426l15.054,1.809l3.608-9.235
		c0,0,5.415-9.635,7.226,0.603c2.009-1.604,7.021-5.623,6.021,0.603c1.447,2.935,2.357,8.185,0.604,9.03
		c-1.756,0.846-3.985,0.602-4.1,3.412c-0.112,2.812-2.988,0.892-5.363-0.854c-2.548,0.317-7.997,4.065-7.997,4.065
		s5.762,6.563,7.6,3.183c1.321-3.595,12.488-1.788,1.021,5.933"/>
	<path fill="#004F7A" stroke="#231F20" stroke-miterlimit="10" d="M792.181,247.599l-24.424-9.834c0,0-6.688-1.81-6.483-4.817
		c1.743-3.151,4.413-7.427,2.811-10.837c-0.033-4.215,0.302-6.219,0.302-6.219h6.521c0,0,5.298-14.721,8.77-1.741
		c3.557,0.415,4.041,1.334,5.563-4.284c3.665-3.399,1.327-5.786,7.745-3.995c7.219,0.148,9.028,0.184,9.028,0.184l17.261,14.651
		l-5.62,13.646l1.034,20.863c0,0-15.199-11.361-12.131-13.603c-1.947-5.252-4.702-10.269-7.14-10.368
		c-2.892-2.842-5.183-5.449-7.922-3.377c-1.941,3.072,6.556,5.277,8.933,11.501c2.783,4.136,5.771,9.222,5.771,9.222
		s-0.99,4.426-3.801,0.213c-2.206,0.2-0.607-1.806-4.417,1.605C792.181,247.599,792.181,247.599,792.181,247.599z"/>
	<path fill="#88765E" stroke="#231F20" stroke-miterlimit="10" d="M790.573,290.544c0,0,4.315-5.015,6.975-4.413
		c3.062-1.403,3.062-1.403,3.062-1.403v-33.314c0,0-2.386-5.281-5.91-1.639c-1.316-0.299-1.516,0.634-2.52-2.174
		c-2.489-1.002-27.795-11.145-27.795-11.145s-4.062-1.801-3.112-3.509c-1.682-1.166-9.689-8.431-6.854,4.014
		c-0.372,2.409-0.372,2.409-0.372,2.409l-20.498,21.822l10.838,9.109l16.282-9.258c0,0,6.822,1.803,7.024,5.819
		c2.691,0.231,13.771,1.085,14.011,9.978c2.731,2.872,5.228,3.01,4.252,7.887c1.404,0.801,1.404,0.801,1.404,0.801L790.573,290.544z
		"/>
	<path fill="#004F7A" stroke="#231F20" stroke-miterlimit="10" d="M726.105,353.358l-13.602-9.026c0,0-11.235,10.636-12.439,10.636
		c-0.201,2.008,1.405,5.019,3.612,6.824c0.803,3.612-0.2,6.42-0.2,6.42l3.211,7.827l1.61,13.833c0,0-0.186,11.336,3.216-4.059
		C716.858,370.44,726.105,353.358,726.105,353.358z"/>
	<path fill="#004F7A" stroke="#231F20" stroke-miterlimit="10" d="M683.407,349.951l-7.223,15.251h-15.054
		c0,0-1.771,11.439-13.831,7.627c-4.432,0-9.447-0.4-8.445,3.611c-0.805,3.812-1.463,3.812-0.128,7.227
		c-0.475,3.812-2.08,4.613-3.687,5.617c-1.204,2.209-6.813,10.663-6.813,10.663l10.774,11.187c0,0,4.032-0.304,7.667-1.129
		c1.292-0.292,10.24-2.262,8.841-5.671c4.974,0.735,15.448,2.003,17.459-0.603c2.646,1.1,3.912,1.427,3.912,1.427
		s11.656,1.928,15.566,3.312c3.151-1.45,17.242-15.378,10.022-39.057c1.516-4.813,1.206-7.623,1.206-7.623s-5.403-5.69-3.611-6.823
		c-2.61-1.404-3.315-1.604-3.315-1.604S688.626,353.364,683.407,349.951z"/>
	<path fill="#004F7A" stroke="#231F20" stroke-miterlimit="10" d="M697.052,298.974l40.94,0.602l6.222,36.727
		c0,0-5.66,1.408-3.53,8.031c-5.317,2.777-8.13,3.678-8.13,3.678s-3.807-0.881-6.732,5.159c-9.331-6.194-13.315-8.837-13.315-8.837
		s-11.325,11.223-12.439,10.637c-1.112-0.589-3.315-1.604-3.315-1.604s-10.331-0.804-13.342-3.412
		c-1.405-2.608-4.817-4.415-9.432-4.815c1.204-2.609,9.431-8.029,2.404-11.039c-0.398-4.014-1.403-7.428-1.403-7.428l15.854-16.857
		l0.955-6.849c0,0,3.656-2.989,4.963-2.385S697.052,298.974,697.052,298.974z"/>
	<path fill="#004F7A" stroke="#231F20" stroke-miterlimit="10" d="M669.355,347.942l9.79-10.239c0,0-5.013-5.274-3.186-6.649
		c-0.401-2.039-0.983-4.385-0.983-4.385s-6.228-3.65-5.621-8.246c-1.932-3.193-4.091-5.914-4.551-9.672
		c-1.501-3.47-2.528-6.217-2.299-8.999c-1.176-2.39-2.534-4.922-3.461-6.965c-0.928-2.042-3.658-8.062-3.658-8.062
		s-2.562-5.006-5.633-5.11c-2.5-1.67-4.411-3.55-5.974-3.122c-1.562,0.427-24.8,5.417-27.808,3.814
		c-3.263,1.363-8.227,3.412-8.227,3.412s-0.987,8.631,1.612,13.649c0.191,5.62-0.407,12.845-4.222,15.854
		c0,5.219,1.403,11.84,1.403,11.84s4.617-0.2,17.262,5.82c0.801-1.404-3.413-6.021,13.444,3.612
		c1.203,2.812,2.006,3.412,2.006,3.412l5.219,3.612C644.473,341.522,665.941,348.947,669.355,347.942z"/>
	<path opacity="0.4" fill="#808184" stroke="#231F20" stroke-miterlimit="10" enable-background="new    " d="M669.355,347.942
		l9.79-10.239c0,0-5.013-5.274-3.186-6.649c-0.401-2.039-0.983-4.385-0.983-4.385s-6.228-3.65-5.621-8.246
		c-1.932-3.193-4.091-5.914-4.551-9.672c-1.501-3.47-2.528-6.217-2.299-8.999c-1.176-2.39-2.534-4.922-3.461-6.965
		c-0.928-2.042-3.658-8.062-3.658-8.062s-2.562-5.006-5.633-5.11c-2.5-1.67-4.411-3.55-5.974-3.122
		c-1.562,0.427-24.8,5.417-27.808,3.814c-3.263,1.363-8.227,3.412-8.227,3.412s-0.987,8.631,1.612,13.649
		c0.191,5.62-0.407,12.845-4.222,15.854c0,5.219,1.403,11.84,1.403,11.84s4.617-0.2,17.262,5.82
		c0.801-1.404-3.413-6.021,13.444,3.612c1.203,2.812,2.006,3.412,2.006,3.412l5.219,3.612
		C644.473,341.522,665.941,348.947,669.355,347.942z"/>
	<path fill="#004F7A" stroke="#231F20" stroke-miterlimit="10" d="M606.543,325.065c0,0,15.257,3.613,17.262,5.818
		c0.46-2.271-3.817-6.66,13.444,3.613c2.006,3.412,6.157,6.771,11.738,8.531c5.58,1.758,15.817,5.007,15.817,5.007
		s3.837,0.653,7.098-2.758c4.293,0.179,10.907,1.265,11.505,4.673c-1.695,3.58-7.223,15.251-7.223,15.251h-15.054
		c0,0-3.018,12.64-14.654,7.623c-6.288,0.592-8.222,1.412-7.622,3.614c-0.538,2.225-1.061,5.625-0.128,7.228
		c-0.396,1.894,0.732,2.61-3.687,5.617c-2.656,4.508-6.487,11.104-6.487,11.104l-42.981-44.623l1.476-4.013
		c0,0,2.033-6.623,3.036-6.021c0.805-1.606,1.008-5.219,3.213-5.021c1.806-1.604,2.008-4.415,3.41-5.418
		c1.406-1.002,2.21-2.608,4.417-3.61C603.331,329.679,606.543,325.065,606.543,325.065z"/>
	<path fill="#D16536" stroke="#231F20" stroke-miterlimit="10" d="M546.724,314.045l8.239-29.317c0,0-2.408-6.625,0-6.826
		c2.407-0.2,14.248,0,14.248,0l22.881-15.252h4.816l0.862,3.182l9.977,17.891c0,0,0.919,9.795,1.277,12.918
		c0.36,3.123,0.533,13.18-3.888,16.586c0.393,5.594,1.404,11.842,1.404,11.842s-3.415,6.246-7.63,8.139
		c-2.207,2.092-3.905,4.139-4.762,7.543c-2.65,2.113-3.866,2.579-4.068,4.986c-1.373,2.766-2.406,6.539-2.932,7.218
		c-0.529,0.681-1.58,2.813-1.58,2.813L546.724,314.045z"/>
	<path fill="none" stroke="#231F20" stroke-miterlimit="10" d="M460.64,190.801l47.362,0.603l17.058,49.168v4.616
		c0,0-12.24-4.615-24.481-3.211c-3.213-0.805-9.434-3.209-10.035,0.4c-3.414,0.805-6.624,1.807-12.24,0.604
		c-1.204-5.219-1.204-6.021-4.816-12.646c-0.202-2.81-0.604-3.209,1.002-5.216c-0.399-2.209,0.001-4.617,1.405-5.82
		c0.399-2.007,2.409-7.628-2.407-11.44c-1.606-3.611-1.808-2.608-2.41-5.018c-0.601-2.408-2.006-5.215-5.017-5.817
		C463.046,195.219,461.04,192.407,460.64,190.801z"/>
	<path fill="#BDAA91" stroke="#231F20" stroke-miterlimit="10" d="M551.15,192.407l-43.148-1.003l17.058,49.168v4.616
		c0,0,6.624,5.017,11.842,4.615c2.81,1.606,6.022,2.81,7.427,2.607c2.006,0.805,3.812,2.409,6.221,3.212
		c1.404-2.007,25.087-36.524,25.087-36.524l-9.232-5.418l-1.604-2.008l-2.208-0.803l-0.403-2.206l-11.438-13.647L551.15,192.407z"/>
	<path fill="#D16536" stroke="#231F20" stroke-miterlimit="10" d="M518.84,285.125l2.207-4.614l4.216-1.205
		c0,0-1.606-4.216,3.812-6.623c0-5.017,0-9.634,0-9.634s5.016-1.204,8.027-5.018c5.42,1.405,11.236,2.61,15.251,0
		c2.61,2.007,4.217,6.222,4.016,7.427c-0.202,1.203,0,9.63-1.204,11.639c-1.205,2.008-1.807,5.219,0,7.024
		c-0.602,2.81-8.439,29.923-8.439,29.923L518.84,285.125z"/>
	<path fill="#88765E" stroke="#231F20" stroke-miterlimit="10" d="M491.144,284.726l10.638-11.039l1.205-3.211l-1.004-4.215
		c0,0-1.607-9.832-3.413-10.035c-1.807-2.408-2.61-3.61-2.61-3.61s0.201-4.015-4.814-0.804c-2.608,1.205-4.017,2.007-6.021-0.399
		c-2.606-1.808-3.21-2.81-4.815-3.011c-1.403-1.405-4.615-3.412-2.007-5.418c3.812,0.603,9.23,1.002,12.044-1.407
		c2.605-1.202,3.408-1.804,9.027,0.403c4.817-0.201,3.011,1.002,7.024-0.201c5.619,0.4,15.452,1.806,18.662,3.412
		c3.413,2.408,9.837,5.418,11.842,4.615c3.812,1.807,5.621,2.407,7.427,2.607c2.208,1.205,5.818,2.609,6.221,3.212
		c0.402,0.601,1.806,2.407,1.806,2.407s-4.615,3.011-15.251,0c-2.809,2.609-4.215,4.617-8.027,5.018c0.199,4.416,0,9.635,0,9.635
		s-6.221,3.412-3.812,6.621c-3.413,0.803-6.225,2.41-6.423,5.82C511.414,285.125,491.144,284.726,491.144,284.726z"/>
	<path fill="#004F7A" stroke="#231F20" stroke-miterlimit="10" d="M450.806,283.722l2.006-47.164c0,0,5.219-6.223,6.02,4.416
		c1.205,0.803,2.209,1.404,2.209,1.404s2.208,2.408,5.82-0.804c1.808-1.804,4.615-4.614,9.23,1.407
		c1.205,1.002,2.409,5.416,5.619,5.82c2.609,1.805,3.412,2.609,3.412,2.609s1.809,3.209,6.021,0.4
		c2.209-1.004,5.017-2.408,4.814,0.803c1.608,2.207,2.61,3.611,2.61,3.611s2.607,4.615,2.81,7.024c0.199,2.408,0,3.009,1.205,4.815
		c0.199,1.808-0.2,6.223-3.212,8.631c-3.01,2.408-8.229,8.027-8.229,8.027L450.806,283.722z"/>
	<path fill="#BDAA91" stroke="#231F20" stroke-miterlimit="10" d="M391.604,261.244l38.73-26.291c0,0,7.025,8.228,12.241,7.825
		c4.817-2.207,9.031-5.016,10.236-6.221c0,3.211-2.006,47.164-2.006,47.164l-49.369-1.606l-0.604-12.644L391.604,261.244z"/>
	<path fill="#BDAA91" stroke="#231F20" stroke-miterlimit="10" d="M382.17,189.198l16.057,0.603c0,0,1.604,7.022,2.207,7.224
		c1.004,1.805,2.81,5.215,2.81,5.215s0.603,5.22,2.608,5.822c3.212,2.407,7.023,5.619,8.229,17.86
		c9.03,5.019,16.255,9.032,16.255,9.032l-38.73,26.291l-10.235-12.443l-8.631,4.615c0,0-8.227,3.812-3.411-3.413
		c0.603-4.013,0-8.627,0-8.627l2.007-9.633l0.199-4.815l1.407-3.414l0.2-6.822c0,0,1.003-2.609,2.607-2.408
		c1.606,0.199,2.611-0.402,2.611-0.402l-0.203-4.014l-3.41-0.199v-3.012l7.022-14.048L382.17,189.198z"/>
	<path fill="#004F7A" stroke="#231F20" stroke-miterlimit="10" d="M449.602,190.4l-51.376-0.6c0,0,2.809,10.434,4.415,11.438
		c1.004,2.408,1.004,2.004,1.204,3.612c0.199,1.606,1.004,2.809,3.011,3.812c2.007,1.606,7.424,7.626,7.225,17.259
		c6.021,3.213,14.047,7.827,14.047,7.827s4.215,1.806,4.817,3.011C434.952,231.942,449.602,190.4,449.602,190.4z"/>
	<path fill="#D16536" stroke="#231F20" stroke-miterlimit="10" d="M449.602,190.4l11.038,0.401c0,0,2.81,5.621,6.622,6.825
		c2.01,1.001,4.015,4.212,4.215,6.821c1.405,2.208,1.004,2.208,3.411,5.019c1.808,2.809,2.409,6.822,1.005,9.833
		c-1.405,2.21-2.207,4.216-1.405,5.82c-1.403,2.407-1.604,2.81-1.002,5.216c1.205,2.409,5.419,11.238,4.816,12.645
		c-1.204-0.201-2.21,0-2.21,0s-4.415-6.824-9.23-1.406c-2.406,1.808-3.612,2.21-5.82,0.804c-1.206-1.205-2.007-0.601-2.811-4.616
		c-1.403-3.009-1.605-4.414-5.418-1.203c-2.408,2.006-12.845,12.441-19.868,0.199C437.761,223.515,449.602,190.4,449.602,190.4z"/>
	<path fill="none" stroke="#231F20" stroke-miterlimit="10" d="M478.302,125.176l-10.035-0.399l-2.006,1.603l-6.622-0.199
		l-2.41,0.801l-9.233-0.399c0,0-6.22,7.224-9.833,5.418c1.004,3.612,1.406,5.016,2.208,6.22c0.803,1.205,2.608,4.015,1.002,5.419
		c-1.604,1.404-1.404,2.81-1.002,3.812c-0.803,0.805-2.208,1.004-2.208,1.606s-3.21,1.806-3.21,1.806s-1.005,1.806-3.212,0.603
		c-1.002-0.603-3.613-2.008-2.006,2.608c0.802,2.007,0.802,3.01,0,4.214c-0.199,2.009,1.204,8.029,1.204,8.029
		s3.413,2.41,4.816,2.608c2.208,1.606,5.418,2.409,6.822,3.21c2.009,0.402,6.022,1.408,6.624,7.627
		c1.004,2.608,1.004,3.211,4.214,3.612c2.008,0.602,4.213,1.204,4.617,3.812c0.401,2.612,1.607,3.613,1.607,3.613l18.061,0.003
		L478.302,125.176z"/>
	<path fill="none" stroke="#231F20" stroke-miterlimit="10" d="M406.052,189.8l-5.82-20.071l6.423-21.272v-5.017
		c0,0,7.826,1.404,11.438,6.623c3.013,1.604,7.227,5.818,9.033,9.833c2.409,3.211,3.812,6.423,3.812,6.423s3.611,2.41,4.816,2.608
		c1.607,1.404,3.21,2.007,3.21,2.007s9.834,0.601,10.235,8.831c1.004,2.608,0.603,3.009,5.019,3.813
		c2.608,1.405,3.01,1.606,3.812,3.611c0.801,2.01,1.607,3.613,1.607,3.613L406.052,189.8z"/>
	<path fill="none" stroke="#231F20" stroke-miterlimit="10" d="M407.257,121.562l23.48,0.203l5.418,4.614l2.006,5.621l0.401,3.211
		l2.408,4.014c0,0,1.806,3.01,0.399,4.414c-1.404,1.404-1.404,2.408-1.002,3.812c-1.203,0.602-2.208,1.606-2.208,1.606
		s-2.608,1.003-3.21,1.806c-0.602,0.802-0.804,1.806-3.212,0.603c-2.408-1.203-3.812-1.005-2.006,2.608
		c1.004,2.208,0.802,3.211,0,4.214c-0.802,1.004-2.006,2.811-2.006,2.811s-5.821-10.636-9.636-11.038
		c-3.61-3.413-8.628-7.426-11.438-6.623C406.452,138.022,407.257,121.562,407.257,121.562z"/>
	<path fill="#004F7A" stroke="#231F20" stroke-miterlimit="10" d="M406.052,189.8l-5.82-20.071l6.423-21.272v-5.017
		c0,0,7.826,1.404,11.438,6.623c4.014,2.41,8.832,7.828,9.033,9.833c1.807,2.811,4.842,5.394,4.842,5.394s2.384,3.839,3.787,3.638
		c2.006,1.404,1.808,1.807,6.021,2.409c4.213,1.806,7.625,5.618,7.424,8.428c1.204,3.009,2.81,3.612,5.019,3.813
		c2.608,1.606,3.01,1.606,3.812,3.611c0.801,2.01,1.607,3.613,1.607,3.613L406.052,189.8z"/>
	<path fill="#BDAA91" stroke="#231F20" stroke-miterlimit="10" d="M863.225,63.969v16.742c0,0,4.011,8.743,10.433,8.542
		c2.607,2.006,4.816,3.812,6.021,5.217c2.206,3.412,2.81,5.218,4.014,5.62c1.204,0.4,4.818,5.418,6.222,6.421
		c1.403,1.002,3.612,1.807,3.612,1.807s5.619,1.002,8.83-0.603c1.404-1.604,4.013-3.611,0-4.014
		c-0.201-2.81-0.604-4.817-3.611-4.615c0-2.409-0.403-4.014-3.412-3.812c-1.205-1.406-3.812-2.007-4.416-3.613
		c-0.602-1.606-0.708-2-0.602-4.816c0-1.806-1.198-6.015-7.021-7.423c-1.207-2.411-8.628-11.034-13.849-9.634
		C868.439,68.382,865.837,63.17,863.225,63.969z"/>
	<path fill="#C09335" stroke="#231F20" stroke-miterlimit="10" d="M810.354,55.294h-25.316c0,0,2.726,4.056,7.141,4.658
		c3.211,1.205,4.188,2.215,0.775,5.624c-0.727,1.974-0.975,3.812-0.975,3.812s-4.443,1-4.846,3.008
		c-0.401,2.006-8.2,27.107-8.2,27.107l50.972,0.588c0,0,8.632-11.842-3.21-16.459c-8.83-4.816-13.646-7.624-13.646-7.624
		s-6.823-4.015-4.816-12.041C809.436,58.949,810.354,55.294,810.354,55.294z"/>
	<path fill="#BDAA91" stroke="#231F20" stroke-miterlimit="10" d="M599.718,149.861l-8.629,30.504l27.895,10.838
		c0,0,1.807-1.003,2.81-2.006c1.004-1.004,45.155-35.323,45.155-35.323s1.808-12.042-8.83-14.248
		c-7.627-4.616-25.688-14.65-25.688-14.65s-11.039-4.214-13.246-3.812c-2.607-0.202-11.237,2.058-1.203,3.786
		c1.809-0.2,4.815,1.833,1.406,4.442c-1.005,1.605-3.642,1.204-1.635,4.215c0,2.006,1.23,1.605-0.175,2.609
		c-1.405,0.4-5.818,2.608-6.621,5.017c-3.011,3.101-3.411,8.629-3.411,8.629L599.718,149.861L599.718,149.861z"/>
	<path fill="#88765E" stroke="#231F20" stroke-miterlimit="10" d="M570.818,182.372c0,0,4.617-3.411,8.43-0.802
		c2.809,2.609,6.019,4.014,7.423,4.014c1.405,0,2.611,0.602,4.016,1.807c1.404,1.204,3.011,3.209,3.011,3.209
		s-1.205,3.613-2.812,4.618c-1.203,1.604-3.209,3.811-2.81,4.815c-1.002,1.604-5.418,8.027-5.418,8.027l-2.81,3.612l-0.803,1.806
		c0,0-2.812,4.015-2.408,4.015c0.4,0-1.005,1.604-1.005,1.604s-5.218-3.211-5.218-4.213c-1.205-0.402-6.222-2.411-5.619-3.213
		c-1.204-0.2-3.011-1.606-2.608-3.011c-1.204-1.604-11.438-13.647-11.438-13.647s0.204-2.241,2.008-2.526
		c2.006-1.286,5.819-5.3,7.625-5.098c1.807,0.201,6.021-2.007,6.021-3.211c0.203-1.204,1.405-2.008,2.608-1.002
		C570.215,184.18,570.016,183.578,570.818,182.372z"/>
	<path fill="#D16536" stroke="#231F20" stroke-miterlimit="10" d="M571.422,226.122l12.241,9.568l-2.811,6.488
		c0,0,3.41,4.613,5.218,5.018c2.006,3.009,4.214,9.632,4.214,9.632s0.805,3.813,0.805,5.019c0,1.203,0,1.203,0,1.203l-21.877,14.852
		h-14.248c0,0,5.416-15.053-4.416-22.276C554.964,249.202,571.422,226.122,571.422,226.122z"/>
	<path fill="#C09335" stroke="#231F20" stroke-miterlimit="10" d="M460.64,190.801l47.362,0.603l17.058,49.168l-0.603,3.813
		c0,0-17.259-3.212-18.864-2.81c-1.653,0.198-5.016,0.401-5.016,0.401s-7.022-2.461-10.788-0.504
		c-1.354,0.903-5.669,2.559-11.487,1.506c0.049-3.162-0.102-4.365-1.154-5.719c-0.603-1.807-2.711-6.021-2.711-6.021
		s-1.555-2.609,0.051-6.121c0.101-2.007,0.4-3.814,1.906-5.469c0.302-1.656,0.754-3.012,0.754-3.012s0.149-6.773-3.162-9.03
		c-1.654-2.258-2.257-3.011-2.257-4.365c-0.452-1.504-2.91-5.519-5.67-6.22C464.2,195.267,461.142,192.056,460.64,190.801z"/>
	<path fill="#BDAA91" stroke="#231F20" stroke-miterlimit="10" d="M478.302,125.176l-0.604,65.628l-16.959,0.224
		c0,0-1.101-0.227-2.708-3.84c-0.523-1.178-2.912-3.21-4.617-3.812c-1.704-0.603-3.812-1.655-4.113-5.269
		c-1.506-3.16-6.321-7.072-10.536-7.826c-1.807-1.203-1.807-1.203-1.807-1.203s-1.656-0.904-2.859-1.356
		c-1.203-0.451-3.447-1.111-2.846-3.821c0.149-1.504,0.438-3.251-0.466-3.251c-1.493-0.61-0.903-2.711-0.15-3.312
		c0.754-0.602-0.302-2.459-0.902-3.261c-0.603-0.803-1.204-4.265,2.708-2.608c1.205,0.301,1.557,0.753,2.511-0.603
		c1.404-0.601,1.706-1.054,2.458-0.903c0.752,0.15,0.752-0.903,0.752-0.903s1.255-1.707,2.208-1.606
		c0.953,0.1,1.104-0.803,0.051-1.554c-1.055-0.753-0.352-1.505,0.952-2.258c0.554-2.106,0.152-3.612-1.002-5.419
		c-1.154-1.806-1.806-3.009-1.806-3.009s-1.303-2.559,2.608-3.915c4.064-1.807,5.117-2.708,5.721-3.311
		c0.603-0.603,0.754-1.356,2.859-1.356c2.107,0,8.43,0.301,8.43,0.301s0.602-1.202,2.407-1.052c1.808,0.15,5.671,0.5,5.671,0.5
		s-0.102-1.353,2.006-1.603C470.373,124.525,478.302,125.176,478.302,125.176z"/>
	<path fill="#D16536" stroke="#231F20" stroke-miterlimit="10" d="M431.088,94.12l47.263,0.451l-0.149,29.954l-8.882-0.301
		c0,0-3.46,0.752-3.312,1.656c-1.957,0-6.02-0.302-6.02-0.302s-2.107,0.603-2.408,0.753s-8.43,0-8.43,0s-3.16,0.601-3.312,1.957
		c-1.054,1.053-5.719,4.365-7.224,3.009c-0.602-1.505-3.312-6.17-5.119-7.525c-1.806-1.354-2.408-3.009-1.504-4.967
		c-0.452-1.957-0.452-1.957-0.452-1.957s-0.603-3.16,0.902-5.567c0.152-3.011,0.152-7.226,0.152-7.226s0.901-2.258-0.603-4.064
		C431.088,95.925,431.088,94.12,431.088,94.12z"/>
	<path fill="#C09335" stroke="#231F20" stroke-miterlimit="10" d="M406.655,143.439l0.603-21.877l23.48,0.203l4.716,4.865
		l3.11,8.581l1.806,3.009c0,0,2.31,5.118,0.353,5.719c-1.204,1.055-1.808,1.506-1.055,3.162c-0.903,1.053-2.105,1.806-2.257,2.86
		c-1.205,0.302-2.258-0.301-3.463,1.205c-2.258-0.452-7.376-1.958-3.763,5.268c-2.04,4.049,1.754,4.205,1.067,7.466
		c-1.053,0.15-3.477-4.005-5.282-6.864c-1.807-2.861-6.873-6.875-7.375-6.924c-0.602-0.903-2.71-3.01-2.71-3.01
		S407.657,142.486,406.655,143.439z"/>
	<path fill="#88765E" stroke="#231F20" stroke-miterlimit="10" d="M388.643,120.611l41.994,0.452c0,0,1.203-2.56,0.301-3.614
		c-0.15-1.654,0.453-4.967,1.504-6.169c-0.45-1.806-0.45-7.829,0-8.43c0-1.355-3.009-8.58-2.257-9.182
		c-2.257-0.15-3.162,0.753-4.365-0.602c-1.205-1.355-4.515-2.408-5.418-1.054c-1.506,0.451-2.108,0.451-3.613-0.451
		c-1.957-0.602-3.462-0.301-4.516,1.054c-1.053,1.354-1.807,1.807-1.807,1.807s-1.957,1.503-2.859-0.151
		c-1.354-1.655-2.256-1.655-3.611-1.655c-1.354,0-1.957-0.603-2.106-1.506c-0.151-0.902-2.56-0.601-3.312,1.205
		c-0.753,1.807-1.956,2.71-3.011,2.559c-1.052-0.15-5.418-0.15-6.622,1.956C388.792,100.591,388.643,120.611,388.643,120.611z"/>
	<path fill="#004F7A" stroke="#231F20" stroke-miterlimit="10" d="M394.061,55.136c0,0-1.957,6.623-5.117,8.58
		c-2.107,2.257-3.763,2.859-3.763,7.826c-1.957,1.506-0.903,1.205-3.463,1.957c-1.505,0.752-3.913,2.257-4.515,4.064
		c0.3,2.71-0.752,4.666,4.515,3.913c3.161,0,6.622,1.807,6.473,4.365c0.302,3.313,0.603,9.785,0.603,9.785l2.859-0.902
		c0,0,7.526,0.301,6.021-2.56c1.807-1.505,4.216-2.859,4.968-0.903c0.451,1.053,0.753,1.053,2.71,1.354
		c1.654,0.752,1.806,0.301,2.407,1.279c0.602,0.979,2.259,1.581,3.838-1.354c2.634-1.656,3.688-2.107,6.474-0.527
		c1.052,0.227,1.957-0.075,2.935-0.827c1.655-0.15,3.913,0.451,5.494,2.032c1.656,0.375,4.364,0.375,4.364,0.375l0.177-37.956
		L394.061,55.136z"/>
	<path fill="#004F7A" stroke="#231F20" stroke-miterlimit="10" d="M342.935,54.131c0,0,0.202,1.708-0.501,2.312
		c-0.703,0.601-1.808,2.005,0.199,4.312c0.805,3.413,3.413,17.461,3.413,17.461s1.403,0.602,3.812-1.604
		c2.912-2.108,7.024-5.117,7.024-5.117s3.812-3.614,9.833-0.103c3.612,0.602,6.121,0.903,8.129,4.015
		c1.504,1.506,1.708,2.407,4.616-1.406c3.713-1.103,5.618-1.404,5.317-4.714c1.203-2.711,0.703-2.811,4.215-6.022
		c2.407-2.709,2.911-2.306,5.067-8.127C388.593,55.236,342.935,54.131,342.935,54.131z"/>
	<path fill="#004F7A" stroke="#231F20" stroke-miterlimit="10" d="M303.3,79.821c0,0-7.426-6.623,1.807-16.857
		c0.4-6.423,0-10.838,0-10.838l36.725,1.205c0,0,3.412,1.606-0.401,3.412c-0.199,1.404-0.803,1.805,1.204,4.012
		c0.603,3.413,2.611,15.454,3.413,17.461c-2.006,0.001-9.833-1.002-9.03,6.222c0,3.21,2.006,4.615-3.613,5.017
		c-2.811,1.204-4.815,3.612-5.218,5.017c-3.012-2.408-5.818-4.013-5.818-4.013s-1.605-3.011-3.612-2.409
		C316.744,85.642,316.345,81.426,303.3,79.821z"/>
	<path fill="#BDAA91" stroke="#231F20" stroke-miterlimit="10" d="M322.966,111.73l-13.646,0.402c0,0-1.404-1.808-3.01-1.606
		c-1.606,0.201-14.049,0.602-14.049,0.602l-1.405-9.031l-2.608-0.602l-4.214-4.213l-3.814-3.211l3.612-4.616
		c0,0-1.605-7.425,14.249-9.433c3.412,1.003,4.016,1.204,5.219-0.201c3.611-0.801,6.823,0,9.03,2.208
		c2.208,2.206,5.619,5.218,5.619,5.218s2.811,0.4,4.417,3.211c3.21,1.404,4.012,0.802,5.818,4.013c0.803,3.212,0,7.427-1.204,8.629
		C326.578,105.51,322.966,111.73,322.966,111.73z"/>
	<path fill="#BDAA91" stroke="#231F20" stroke-miterlimit="10" d="M299.686,116.348l-5.619,14.248c0,0-8.028,1.405-6.624-4.816
		c-0.803-1.002-3.211-2.41-4.415,0.402c-2.408,2.208-3.412,3.01-3.412,4.415c-1.204,0.803-4.615,2.409-4.615,4.214
		c-2.609-2.809-2.208-0.2-4.015-4.816c-2.408-2.206-3.411-1.204-3.011-10.837c-1.203-4.215-1.403-4.816-2.608-7.826
		c3.21-2.008,6.822-1.797,14.851-17.259c3.814,3.211,8.028,7.424,8.028,7.424l2.608,0.602c0,0-1.003,7.828,3.211,10.236
		C297.077,114.139,299.686,116.348,299.686,116.348z"/>
	<path fill="#004F7A" stroke="#231F20" stroke-miterlimit="10" d="M338.821,153.074c0,0-12.042,0.4-15.253-1.205
		c-2.609-0.202-6.421-2.007-9.433-6.222c-2.811-1.806-4.816-3.211-10.035-3.813c-4.416-2.207-4.214,0.603-7.226-7.024
		c-1.605-2.407-2.809-4.214-2.809-4.214l5.619-14.248l-6.222-5.018c0,0,13.446-1.205,15.855,0.803
		c4.214,0.2,13.646-0.402,13.646-0.402s5.019,3.011,8.83,3.613c2.811,1.806,3.613,2.207,4.016,4.817
		c2.005,3.211,2.208,6.021,5.418,5.218c0.199,3.613-0.402,8.428-0.402,8.428s0.402,5.62,1.406,8.831
		c1.002,3.212,1.604,6.623,1.604,6.623S339.022,151.667,338.821,153.074z"/>
	<path fill="#004F7A" stroke="#231F20" stroke-miterlimit="10" d="M291.86,179.563c0,0-0.602-3.613-3.412-4.616
		c-2.408-4.012-14.65-22.476-14.65-22.476s-3.21-3.012,3.011-5.018c3.01-1.004,4.214,0,4.414-5.82
		c1.406-4.415,0.402-10.035-1.605-11.038c1.205-2.007,5.821-9.634,7.427-3.211c0.4,1.807,0.801,3.613,4.414,3.211
		c2.61,0,3.413,1.605,4.617,4.416c1.204,2.809,3.812,7.022,9.231,7.425c4.416,0.403,8.631,2.811,10.034,5.018
		c2.409,1.806,4.016,7.225,23.481,5.62c-0.602,5.216-2.007,11.639-6.222,14.85c-3.613,4.214-10.034,9.634-10.438,16.256
		c-2.207,1.003-3.21,1.403-5.419-0.202c-2.207-1.205-6.02-1.806-7.225-4.013C307.714,178.158,304.906,170.935,291.86,179.563z"/>
	<path fill="#BDAA91" stroke="#231F20" stroke-miterlimit="10" d="M229.847,113.336c0,0,1.403-9.633,9.432-6.824
		c3.813-0.201,6.021-1.807,7.226-3.009c1.203-1.205,5.133-4.569,8.428-0.202c3.01,3.211,4.416,8.029,10.436,8.029
		c1.806,5.619,2.609,9.23,2.408,12.442c0.401,3.212-0.201,3.212,3.21,6.221c1.004,3.012,2.009,3.813,4.015,4.816
		c0.2,2.207-0.804,3.814-3.413,4.216c-2.808-0.401-3.411-0.404-4.013,1.002c-0.603,1.406-2.008,1.406-3.212,1.004
		c-1.204-0.401-4.212,1.001-7.424,5.017c0-6.421,0-8.43,0-8.43s1.204-4.615-4.016-6.622c-2.408-0.802-2.607-1.605-2.607-5.017
		c-0.803-2.811-1.605-5.82-4.817-4.015c-2.008,0.603-1.405,1.205-3.412-1.403c-1.605-1.205-3.21-1.205-4.215-0.202
		c-1.605-0.2-3.21-0.4-3.011-3.009c-1.204-2.609-2.205-3.413-3.209-3.211C230.649,114.34,229.847,113.336,229.847,113.336z"/>
	<path fill="#BDAA91" stroke="#231F20" stroke-miterlimit="10" d="M228.24,144.644c0,0,0.803-6.023-5.218-7.628
		c-4.014-4.614-4.415-2.982-7.224-11.21c4.215-2.408,10.437-6.449,14.049-12.47c2.809,1.004,4.214,1.605,5.016,4.014
		c0.402,2.207,0.602,3.812,3.814,2.81c1.605-0.201,3.813,0.402,4.013,1.404c0.201,1.003,0.603,1.806,2.81,0.401
		c2.409-0.199,4.214,1.004,4.414,4.818c0,2.208,0.604,3.812,4.016,5.218c2.005,1.606,3.612,0.802,2.809,10.838
		c-0.401,5.217-2.408,10.838-4.415,12.643c-2.007,1.807-7.024,11.238-14.451,1.605c-2.005-2.81-2.808-4.615-3.21-6.823
		C234.262,148.055,231.25,145.045,228.24,144.644z"/>
	<path fill="#88765E" stroke="#231F20" stroke-miterlimit="10" d="M288.447,184.782l-14.65,2.609c0,0-2.608-8.229-7.827-1.807
		c-4.416-0.2-20.671,0.802-20.671,0.802s-0.402,6.624-5.018,5.418c-4.214-2.005-5.619-2.607-5.619-2.607s3.211-4.818,1.205-6.624
		c-0.403-2.811-0.804-3.011,3.411-7.025c1.605-2.81,2.208-6.825,0.603-9.634c-0.202-1.806-0.804-2.005,1.204-4.414
		c2.81,0.2,5.419,1.807,10.235-4.816c3.212-3.612,5.42-7.025,5.621-9.434c2.005-2.608,2.608-5.419,7.424-6.221
		c2.81,0.402,0.803,1.204,3.212-1.004c1.003-0.802,1.003-1.204,4.013-1.002c3.012-0.401,3.815-0.603,3.413-4.216
		c1.605-1.404,4.214-7.022,6.422,0.602c0.602,3.011,0.402,5.821-0.401,7.427c-0.201,2.207-2.408,5.819-4.214,4.615
		c-2.007,0.602-6.422,0.803-2.007,7.425c4.415,6.623,13.646,20.069,13.646,20.069s5.017,5.819,1.806,6.021
		C289.25,183.177,288.447,184.782,288.447,184.782z"/>
	<path fill="#C09339" stroke="#231F20" stroke-miterlimit="10" d="M188.304,123.973c0,0,0.2,10.034-6.824,5.017
		c-1.405-1.204-6.623-4.416-7.426,3.412c-1.605,4.816-5.418,10.636-8.228,13.044c0.4,4.817,0.001,10.837,3.211,10.837
		c2.006,0,2.608-1.204,2.608,4.616c3.01,1.807,2.009,2.207,4.617,0.802c1.806-0.602,2.207-0.602,4.616,0.402
		c3.01,0,3.411-0.402,5.418-1.405c2.609-1.003,3.613-0.602,5.62,0c3.01,0,9.433-2.207,12.041-4.817
		c2.609-2.609,4.617-4.013,6.624-5.217c2.006-1.205,4.013-3.612,8.026-1.205c3.211,0.201,4.616-0.401,6.222-2.208
		c2.206-1.204,1.806-2.608,3.411-2.608c-0.2-2.61-2.81-7.628-5.819-8.429c-3.01-2.208-4.415-3.413-4.615-5.821
		c-0.804-2.006-0.201-6.422-6.423-3.612c-3.21,0.802-6.823,0.802-4.616-4.616c0.201-3.011,0.804-8.429-7.023-4.616
		c-2.61,1.004-5.019,2.409-5.019,2.409s-2.809-1.405-4.014,1.405C189.909,122.768,188.506,122.567,188.304,123.973z"/>
	<path fill="#C09339" stroke="#231F20" stroke-miterlimit="10" d="M188.906,198.83c0,0-7.225-6.222-2.209-14.45
		c1.205-4.014,2.811-7.425-2.607-9.632c0-2.81-0.402-5.62-4.617-2.209c-1.204,0.804-2.81,1.606-3.01-1.404
		c0.402-2.208,0.602-3.813-1.605-4.416c0-3.211-0.602-4.415-0.602-4.415s4.817-2.208,6.623-0.201
		c2.809,0.402,5.619-3.011,11.84-1.003c4.817-0.603,5.018-1.003,7.426-2.208c2.409-1.205,4.615-2.006,4.615-3.211
		c1.606-1.204,7.025-5.418,7.025-5.418s1.607-2.61,6.021-0.603c3.812-0.201,3.611,1.004,7.827-2.207
		c1.806-2.008,3.211-4.416,9.031,2.81c1.002,4.816,1.404,5.818,3.412,7.826c2.007,2.007,2.809,3.612,1.002,6.422
		c0.402,2.81,3.012,9.031-2.607,13.445c-1.607,2.61-2.61,1.606-0.804,6.623c0.202,2.208-1.403,4.816-4.013,5.82
		c-2.007,1.606-4.015,3.813-4.015,3.813s-2.208,5.019-9.031,2.006c-5.217,0-9.634,2.007-19.668-4.415
		C198.539,191.002,188.304,196.019,188.906,198.83z"/>
	<path fill="#D16536" stroke="#231F20" stroke-miterlimit="10" d="M847.869,276.997l-10.838,6.625l-36.421,1.105
		c0,0-19.571,7.925-4.52,11.235c2.105,3.312,1.805,3.912,2.105,6.021c0.301,2.107,2.409,2.711,4.516,1.203
		c2.107-1.504,6.021-1.203,7.828-3.611c1.807-2.407,4.517-1.203,4.816-2.407c0.302-1.204,0.902-3.011,3.913,0.302
		c6.924,0.301,17.461-0.302,17.461-0.302s8.428,0.302,0.3-3.914c-1.505-0.903-3.01-3.61,3.012-3.61
		c2.707-0.604,4.516-0.604,5.719,3.311c0.603,2.408,4.214,5.419,4.214-1.506c1.205-3.913,4.816-6.924,5.42,0.301
		c0,4.216,7.226,6.323,7.226-0.602c0.245-3.406-0.603-7.827,3.009-4.516c2.71,1.807,3.012-0.602,3.312-3.312
		c2.408-2.71,6.623-3.31,6.623-6.925c0-2.105,0.604-2.405,2.709-1.805c2.107,0.604,3.312,0.301,3.611-3.312
		c2.409-3.31,2.409-3.31,5.419-3.61c1.204-1.507-0.603-2.71-3.01-4.518c-1.204-3.01-8.127-15.953-4.517-0.903
		c-1.505,0.903-3.009,1.206-3.61,3.614c-0.604,2.408-4.817-2.709-6.926,0.3c-3.01,2.108-4.215,0-1.806-2.708
		c0.902-3.012-0.603-10.537-0.603-10.537s-3.312-10.236-2.107,0.604c-0.903,3.61-3.01,2.106-3.312,6.322
		c-2.106,0.902,1.205,2.105-2.106,0.902c-3.311,0.301-3.913,0-5.118,1.805c-1.806-0.302-15.354-0.902-8.729,3.913
		c2.409,0.603,2.71,0.603,2.108,3.312C846.966,272.481,847.869,276.997,847.869,276.997z"/>
	<polygon fill="#C09335" stroke="#231F20" stroke-miterlimit="10" points="431.038,55.637 430.862,93.593 478.35,94.571 
		477.899,56.038 	"/>
	<path fill="#BDAA91" stroke="#231F20" stroke-miterlimit="10" d="M388.643,120.611L387.89,88.1c0,0,1.655-6.473-6.17-6.624
		c-2.709,0.301-5.118,0.602-4.816-2.105c-0.301-1.356,0-2.711-2.107-3.012c-1.806-2.407-2.709-4.064-7.225-4.515
		c-3.763-1.355-7.375-2.859-11.138,0.451c-4.064,2.711-8.882,6.473-8.882,6.473s-12.643-2.108-10.084,6.623
		c0.303,2.107,0.604,3.161-3.311,4.064c-2.708,0.903-6.623,3.763-5.117,8.73c-1.806,6.021-6.07,13.546-6.07,13.546l7.727,3.011
		c0,0,4.516,0.902,6.321,6.471c0.753,2.108,0.45,5.719,8.429,3.011c2.107-1.657,1.957-3.312,7.225-1.355
		c2.709,1.054,3.462,1.205,4.517-1.204c0.301-1.805,0.451-1.957,2.859-2.107c2.408-0.151,8.43-0.452,9.783,0.452
		C373.289,120.461,388.643,120.611,388.643,120.611z"/>
	<path fill="#D16535" stroke="#231F20" stroke-miterlimit="10" d="M406.554,120.912l-0.451,27.091l-5.871,21.726l5.269,19.667
		l-23.48-0.753c0,0-4.517-5.718-4.064-7.375c0.453-1.656,0.151-3.011-1.354-4.063c-1.505-1.055-1.204-3.464-0.903-4.667
		s-0.15-3.762-0.15-3.762s0.452-3.613-4.815-4.817c-3.913-4.214-6.773-4.515-1.806-13.696c2.407-5.118,2.858-6.473,2.858-6.473
		l-0.151-12.341l-3.461-6.774l1.655-4.666L406.554,120.912z"/>
	<path fill="#88765E" stroke="#231F20" stroke-miterlimit="10" d="M365.913,156.283l5.27-12.343l0.45-12.491l-3.461-6.774
		l1.055-4.515l-10.537-0.301c0,0-2.258,1.655-1.505,1.805s-1.204,4.215-4.517,1.806c-3.763-1.505-5.269-1.203-6.623,0.453
		c-2.407,1.205-3.611,1.807-4.515,1.957c0.3,2.408-0.051,5.318-0.704,7.926c0.252,2.759,3.111,13.296,3.111,13.296
		s0.902,4.816,7.075,2.107c2.106-1.656,2.407-3.612,5.869-1.505c2.259,0.602,4.816,1.204,5.87,4.666
		C363.807,155.831,364.86,156.132,365.913,156.283z"/>
	<path fill="#004F7A" stroke="#231F20" stroke-miterlimit="10" d="M322.565,185.032c0,0-2.107-4.516,6.472-12.793
		c5.719-6.171,9.935-11.289,9.784-16.407c0.752-3.311,0.903-7.074,7.074-5.719c2.258,0.301,4.364-0.15,5.869-1.807
		c2.107-1.053,2.859-1.805,5.118-0.602c2.709,0.903,4.666,2.107,5.269,4.517c0.602,2.408,2.258,3.611,3.312,4.816
		c0.451,1.353,2.408,5.719,4.064,5.719c1.806,1.807,1.956,1.958,3.461,2.259c1.806,1.354,2.708,3.009,2.257,5.87
		c0.15,3.01-0.752,4.817,1.354,6.323c1.354,1.805,1.807,2.407,1.354,4.063c0,1.807,0.904,4.064,1.506,4.516
		c0.603,0.451,0.451,1.053,0.451,1.053l-45.004-0.602c0,0-2.709-1.355-3.312-1.053C330.241,185.183,322.565,185.032,322.565,185.032
		z"/>
	<path fill="#C09335" stroke="#231F20" stroke-miterlimit="10" d="M321.813,185.484l9.182,21.373l42.445,0.452
		c0,0,2.559-5.72,3.161-5.72c0.603-2.258,0.901-3.311,2.56-4.365c1.053-1.807,4.063-8.43,0.752-10.386
		c-3.611,0.302-45.004-0.602-45.004-0.602s-3.312-1.204-4.365-1.204C329.489,185.032,321.813,185.484,321.813,185.484z"/>
	<path fill="#004F7A" stroke="#231F20" stroke-miterlimit="10" d="M331.146,207.61c0,0,3.161,5.118,1.354,10.085
		c-0.602,3.159-0.149,5.567,0.902,8.577c1.054,3.011,3.162,3.16-0.451,13.697c13.396,1.203,35.974,3.161,35.974,3.161
		s1.053-11.34,2.408-11.389c-0.15-2.459-0.753-6.373,0.903-7.125c0.15-3.914,0.451-6.923,0.451-6.923s-0.753-3.914,3.763-3.614
		c1.354-0.45,3.813-2.661-1.706-4.414c-1.306-2.358-1.155-0.854-1.306-2.358C371.031,207.007,331.146,207.61,331.146,207.61z"/>
	<path fill="#D16535" stroke="#231F20" stroke-miterlimit="10" d="M303.3,175.701l-0.753,41.542l-10.988,19.115l41.392,3.611
		c0,0,3.161-10.385,0.451-12.643c-0.902-3.611-0.902-3.611-0.902-3.611s-1.655-1.658,0.451-8.732
		c-1.656-6.171-12.041-30.104-12.041-30.104s-4.063,0.904-4.817-1.054c-1.655-0.601-6.171-1.655-6.472-3.311
		C308.417,178.861,306.46,177.055,303.3,175.701z"/>
	<path fill="#88765E" stroke="#231F20" stroke-miterlimit="10" d="M272.794,235.255l-2.006-15.051l-9.231-13.448
		c0,0-2.709-7.224-11.439-3.01c-3.914-0.603-9.032-1.605-9.032-1.605s-0.804-8.029,1.405-9.433c1.505-1.807,2.809-3.613,3.209-6.021
		c5.22-0.603,10.638-0.903,10.638-0.903s9.13,1.103,10.134-0.803c1.806-1.305,4.014-3.412,6.122,0.903
		c1.204,1.506,1.004,2.208,4.616,1.605c3.613-0.904,9.231-2.006,9.231-2.006s3.21-1.003,3.511-3.111
		c0.503-1.303,0.603-1.705,1.908-2.809c1.806-0.703,7.226-3.613,7.226-3.613s4.514-2.81,3.914,2.71
		c0,5.819-0.452,38.582-0.452,38.582l-11.69,19.315L272.794,235.255z"/>
	<path fill="#88765E" stroke="#231F20" stroke-miterlimit="10" d="M228.041,229.233c0,0,3.596-5.092,4.414-10.437
		c1.004-3.713-0.303-4.638,4.617-8.053c1.705-2.811,4.113-4.615,3.812-5.721c0-1.907-0.701-3.385,2.811-2.482
		c3.511,0.904,5.821,2.81,9.031,0.301c1.305-0.2,5.317-1.303,7.526,2.108c2.208,3.412,10.536,15.253,10.536,15.253l2.006,15.051
		l-32.611-4.315c0,0-2.624-0.103-5.118,1.606c-1.406,0.802-3.17,0.952-4.416-1.003C228.977,229.206,228.041,229.233,228.041,229.233
		z"/>
	<path fill="#88765E" stroke="#231F20" stroke-miterlimit="10" d="M203.958,237.435l-0.101-19.739l-14.45-19.467
		c0,0,3.311-4.116,3.914-4.116c0.602,0,4.516-3.813,8.127-0.701c3.915,2.107,4.718,3.41,12.545,3.209
		c2.808-0.199,3.612-0.5,6.722,0.403c3.312,0.301,4.716,1.102,6.924-2.811c3.112-2.709,5.117-5.316,8.832-4.013
		c2.408,0.904,3.812,1.605,3.812,1.605s3.01,0.201,0.602,3.513c-0.2,3.311,0.101,7.727,0.101,7.727l-0.5,3.311
		c0,0-3.212,4.314-3.112,4.716c0.102,0.403-5.015,1.002-5.417,9.935c0.026,2.279-2.51,8.609-2.51,8.609s-2.698-1.609-4.414,0.522
		c-0.301,2.207-0.858,3.701-3.613,2.508c-1.806-0.303-2.207-2.109-3.811,0.701c-1.506,1.406-1.624,1.908-3.714,2.232
		c-1.907,0.303-2.81-2.131-4.113,0.077c-0.323,1.146-0.823,1.271-1.454,1.805C207.497,238.162,203.958,237.435,203.958,237.435z"/>
	<path fill="#004F7A" stroke="#231F20" stroke-miterlimit="10" d="M188.906,198.83c0,0-6.522,6.922-6.021,7.726
		c-0.903,1.304-6.322,7.226-13.948,6.222c-0.802,3.713-2.506,10.134-2.506,10.134l-1.908,3.011c0,0-2.509,1.908-1.405,3.713
		c0,1.807-0.101,3.109-1.907,4.114c-0.301,3.011-0.903,7.524-0.903,7.524s-5.317,5.52-1.204,6.824
		c1.404,2.106,2.307,2.912,2.307,2.912l16.256-3.111c0,0,9.533-0.402,10.235-1.508c1.505-0.901,3.111-2.707,6.321-1.403
		c3.112-0.401,5.478-1.593,5.72-4.815c0.402-1.305,1.305-3.939,4.014-2.736c-0.101-4.816-0.101-19.739-0.101-19.739L188.906,198.83z
		"/>
	<path fill="#004F7A" stroke="#231F20" stroke-miterlimit="10" d="M126.893,189.095l15.252-6.02c0,0,2.508,1.707,2.81,2.107
		c0.301,0.4,2.408,1.906,2.608,3.511c0.202,1.606,1.706,3.013,2.708,3.112c1.306,0.903,4.516,3.312,5.72,6.121
		c1.205,2.809,1.406,4.614,5.922,6.322c3.109,3.611,7.022,8.529,7.022,8.529l-2.506,10.134c0,0-2.108,1.906-1.807,2.509
		c-0.603,1.204-3.111,2.31-1.505,4.216c-0.301,1.404-0.503,2.51-1.708,3.713c-0.602,2.107-1.505,8.127-1.505,8.127
		s-4.314,4.215-2.408,5.721c1.908,1.504,2.509,3.711,2.509,3.711l-8.027,1.807l-4.917-0.302l-2.006-5.017
		c0,0-5.921-4.012-1.606-4.112c1.005-1.005,1.505-3.21-1.505-5.118c-0.602-2.208-1.305-3.814-2.81-4.617
		c-1.304-1.906-4.415-5.217-3.109-9.531c0.301-2.209,1.906-4.314-4.817-3.914c-2.309-1.205-5.218-1.004-6.824-11.239
		c-0.401-10.034-0.3-11.839-0.3-11.839S127.295,189.697,126.893,189.095z"/>
	<path fill="#C09339" stroke="#231F20" stroke-miterlimit="10" d="M136.527,158.492c0,0,1.701-2.875,4.014-2.209
		c2.408-0.802,3.311-2.308,3.914-3.411c1.102-1.205,3.514-5.708,16.655-4.917c3.713-0.602,4.718-1.003,4.718-1.003l0.399,6.02
		c0,0,0.102,4.416,3.513,3.413c1.205,0.201,1.606,0.903,1.506,2.108c-0.101,1.203,0.125,3.209,1.705,3.812
		c1.355,1.28,1.958,0.903,1.657,3.386c0.149,1.431,0.225,1.731,0.978,1.957c0.752,0.226,1.505,0,0.978,1.882
		c-0.15,2.031,0.076,7.225,3.764,2.86c0.828-1.053,3.01-2.634,3.386,0.602c0.151,1.281-0.075,1.957,1.732,2.634
		c1.354,1.13,3.763,2.71,0.752,9.107c-1.806,5.194-3.085,7.978,2.032,13.998c-3.085,4.064-5.645,6.548-5.344,7.827
		c-1.129,1.054-7.275,7.176-13.948,6.222c-3.662-4.792-6.748-8.479-6.748-8.479s-4.29-0.753-6.246-7.074
		c-2.032-3.011-4.063-4.892-5.945-6.021c-1.881-1.129-1.656,0.225-2.484-3.538c-0.978-1.505-3.738-3.688-5.368-4.59
		c1.455-0.979,6.497-0.303,1.531-7c-1.28-2.708-2.484-5.419-0.753-10.459c0.075-2.032,1.354-4.14-5.269-5.871
		C136.752,159.444,136.527,158.492,136.527,158.492z"/>
	<path fill="#C3943C" stroke="#231F20" stroke-miterlimit="10" d="M56.904,186.99c0,0,19.536-17.34,49.595-11.59
		c3.763-0.527,7.074-2.333,6.848-6.999c1.354-3.913,3.236-5.946,10.536-5.193c4.591-0.377,10.762-1.605,12.644-4.715
		c4.666,2.307,7.827,4.188,5.87,7.726c-0.752,3.989-1.43,6.471,1.881,10.988c0.979,2.031,2.033,5.042-1.731,5.267
		c-2.935,1.279-16.03,6.472-16.03,6.472l-2.483,7.301l0.075,12.493c0,0-4.741-0.978-6.322,0.15
		c-1.655,0.225-2.935,0.451-3.763,0.075c-0.828-0.376-2.483-0.301-5.268,1.129c-3.386-0.227-6.999-0.678-12.041,0.903
		c-4.064,1.053-7.226,1.881-14.073,2.257c0.677-2.859,2.032-5.418,6.396-7.902c2.559-1.58,6.322-4.816,5.72-5.719
		c0.602-2.107,1.203-3.011,1.806-3.988c-0.302-1.431-0.376-5.719-3.838-4.216c-3.763,0.151-20.696,0.828-20.696,0.828
		s-2.634-3.312-11.966-3.312C57.731,188.268,56.904,186.99,56.904,186.99z"/>
	<path fill="#88765E" stroke="#231F20" stroke-miterlimit="10" d="M68.267,216.94l-6.924,3.16c0,0-3.914,2.936-7.149-0.978
		c-1.957-5.042-4.566-6.697-4.566-6.697c-1.062-1.906,0.01-1.807-1.529-4.666c-0.527-0.904-0.904-5.494,1.806-6.774
		c1.204-0.977,1.731-6.623,1.129-7.601c0-0.979,4.214-7.226,9.708-4.365c2.107,0.375,8.504,0.375,11.289,3.235
		c2.785-0.075,20.696-0.828,20.696-0.828s3.386-0.902,3.536,4.516c-0.225,0.752-2.408,2.861-1.805,4.667
		c-1.054,1.13-3.387,3.311-3.387,3.311s-8.805,3.989-8.654,9.935c-0.376,1.43-3.011,4.366-8.204,3.161
		C72.031,216.263,69.321,214.983,68.267,216.94z"/>
	<path fill="#004F7A" stroke="#231F20" stroke-miterlimit="10" d="M147.062,252.412l-52.079-1.604c0,0,1.882-2.635-4.966-9.783
		c0.902-2.937,2.031-5.568-2.409-8.127c-0.526-1.582-0.15-4.215-5.494-4.291c0.301-1.73,0.301-3.16-2.032-4.063
		c1.355-1.43,6.472-6.248,1.505-8.58c0.075-1.129,0.979-2.709,4.439-2.634c3.462,0.075,10.612-1.731,12.568-2.784
		c1.355-0.301,7.978-0.752,9.257-0.528c1.205-0.075,1.882-0.075,2.71-0.602c0.827-0.527,2.784-0.603,4.063-0.302
		c1.28,0.302,3.914,0,5.117-0.676c2.033,0.225,3.011,0.225,3.613,1.579c0.601,1.355,1.429,2.484,1.429,2.484
		s1.657,7.075,6.773,7.827c2.108-0.075,5.193-0.527,4.215,3.763c-0.226,2.183-1.655,4.742,3.538,9.86
		c1.204,1.354,1.58,1.881,1.58,1.881l0.226,1.882c0,0,5.118,3.763,1.806,5.191c-1.054,0.829-3.312,1.43,0.753,3.688
		C144.579,247.421,147.062,252.412,147.062,252.412z"/>
	<path fill="#D16536" stroke="#231F20" stroke-miterlimit="10" d="M50.431,249.052l-35.221-1.556l3.086-26.792
		c0,0,4.078-7.717,6.095-9.006c1.458-0.685,3.389-2.143,7,0.878c1.881,1.43,2.032,2.032,4.214,1.505
		c1.43,0.076,3.461,0.68,4.064,1.957c1.655,0.902,6.773,0.225,8.278-2.333c1.324-1.576,2.709-0.978,2.709-0.978
		s3.085,1.805,2.558,4.515c0.376,1.128,1.882,7.073,9.256,2.634c2.259-1.053,6.322-2.859,6.322-2.859s1.505-2.032,4.591,0.226
		c2.032,0.301,5.569,0.827,7.752-0.827c1.204,0.45,3.688,0.977,0.979,5.719c-1.204,1.204-4.366,1.731-0.828,3.762
		c0.526,0.752,1.28,2.033-0.828,3.388c-2.634,0.301-6.547,0-7.752,1.053c-1.58,0.151-2.634,0.377-3.536,0.078
		c-1.054,0.149-4.065,1.429-4.365,2.858c-0.828,1.277-2.86,3.912-3.387,3.613c-0.527,0.828,0.376,2.03-4.741,4.44
		C53.14,243.507,49.828,247.472,50.431,249.052z"/>
</g>
</svg>
