<?xml version="1.0" encoding="utf-8"?>
<!-- Generator: Adobe Illustrator 16.0.0, SVG Export Plug-In . SVG Version: 6.00 Build 0)  -->
<!DOCTYPE svg PUBLIC "-//W3C//DTD SVG 1.1//EN" "http://www.w3.org/Graphics/SVG/1.1/DTD/svg11.dtd">
<svg version="1.1" id="Layer_1" xmlns="http://www.w3.org/2000/svg" xmlns:xlink="http://www.w3.org/1999/xlink" x="0px" y="0px"
	 width="960px" height="560px" viewBox="0 0 960 560" enable-background="new 0 0 960 560" xml:space="preserve">
<path fill="none" stroke="#231F20" stroke-miterlimit="10" d="M311.697,45.875l-1.455,9.425c0,0-6.715,11.368,0.511,18.593
	c-7.226-0.602-19.653,1.312-19.653,9.139c-4.214,5.418-17.449,25.367-23.47,21.754c-6.02-3.614-10.366-14.698-18.193-4.463
	c-6.623,0.601-11.155-3.235-11.757,4.592c0.764,11.377-23.203,18.971-28.621,15.962c0.602-7.828,6.737-16.977-12.529-4.934
	c-3.01,6.622-2.059,3.777-5.671,7.39c-3.18-1.413-5.828-3.054-20.296,17.285c-16.255,1.807-18.062,3.011-23.481,8.43
	c-4.214,0.602-7.777,7.807-10.667,8.646c-7.11,2.066-12.572-0.386-21.241,10.191c-10.235-1.205-38.574-6.029-58.575,16.858
	c0.602,4.817-1.03,3.612-1.03,7.225c0,3.612-6.021,1.204-0.603,13.245c-2.78,4.058-10.409,5.848-23.052-1.379
	c-7.827,7.827-9.633,11.615-9.031,14.624c0.602,3.012-2.234,13.247-2.836,21.074c10.235,1.204,130.046,5.418,136.067,5.418
	c7.076-0.202,41.29-8.255,44.901-8.857c3.613-0.603,3.439-5.847,3.439-5.847s9.458,0.254,10.061-1.552
	c0.602-1.808,6.021-2.408,6.021-2.408l4.214-3.265l3.612,0.175l5.244-2.329l3.787,4.214c0,0,5.942-1.927,7.827-1.63
	c20.562,3.241,123.423,11.866,123.423,11.866s13.853-4.041,5.847,11.01c8.429-3.61,6.623-2.581,12.041-4.389
	c7.827,5.418,19.441,19.869,19.441,19.869s0.603,4.817,0.603,12.644c12.041,1.204,111.983,3.01,117.403,3.01
	c6.621,6.021,116.478,119.934,119.208,125.23c1.997,3.875,9.633-1.205,9.633-1.205s6.021-0.602,7.828-4.816
	c8.428,1.204,13.244,2.41,17.459-0.603c3.612,2.41,14.021,2.41,20.043,5.419c3.011-5.419,14.845-12.445,9.426-43.15
	c4.215,6.02,8.287,23.807,6.481,26.816c4.214-8.43,6.195-27.014,20.646-43.871c5.449-0.916,9.352-5.894,11.438-10.488
	c3.835-2.156,12.818-8.778,12.818-8.778s7.918,1.64,10.325-7.392c1.807-3.01,7.853-3.991,7.853-3.991s9.343-7.281,21.986-9.689
	c-2.408-1.807-4.816-4.214-4.816-4.214l3.787-3.012l-4.135-9.431c0,0,11.612,5.217,10.408,10.033c6.623,0,11.012-3.612,11.012-3.612
	l5.42-3.438l4.814,1.805l18.57-0.543l-7.637-4.876l8.158-1.376l3.613-2.06l4.542,7.184c0,0,2.065-1.302,4.488-9.593
	c3.612,1.205,3.186,6.273,3.186,6.273l1.029,2.156l4.564,0.855l1.804-9.887l4.644,1.205l0.604-3.961c0,0,9.03-1.807,6.621-7.225
	c6.021,0.602,6.625-0.148,7.225-3.613c0.459-2.652,4.465-4.259,4.465-4.259l-2.658-5.373l-3.011-4.817l-3.011,2.41l-4.815,4.214
	l-1.205,3.009l-8.13,1.844l3.916-4.853c0,0-1.085-23.854-2.931-3.611c-5.418,1.203-4.293,1.457-8.507,3.262
	c-4.818,0-15.047,0.953-9.032,4.564c0,4.816,0,4.816,0,4.816l-5.42,1.806c0,0,2.409-13.848-7.225-1.205
	c-4.816-1.807-9.03-7.225-11.439-1.204c-6.621-4.214-9.633-4.817-14.449-9.635c-2.408-7.827-15.052-32.51-22.878-31.306
	c1.807-3.613,8.582-19.922,19.867,15.653c4.215,4.214,10.672,9.093,16.089,9.694c1.203,4.816,1.975,9.492,13.413,2.269
	c3.01-4.817,8.429-5.942,8.429-5.942s9.633,0,7.225-4.817c5.421-1.807,9.699-6.628,1.871-7.229
	c-2.408,4.213-3.678,2.412-7.891-3.006c5.417-3.012,5.417-7.652,12.643-2.836c1.806-4.214,4.817-4.816,4.817-4.816
	s1.159-5.46-0.603-8.001c0.603-1.808,0-6.021-6.021-0.603c-0.603-4.816-3.01-7.827-7.225-0.602
	c-3.011-3.612-7.225-7.827-12.644-4.816c1.205-4.214-2.409-8.428-11.438-6.021c-0.603-3.611-3.276-5.247-7.227-5.418
	c-3.011-1.203-3.612-6.622-7.225,3.012c-0.602-6.623-4.215-10.235-8.429-13.246c6.021,0.602,9.635,2.408,9.635,2.408
	s10.233,4.818,13.846,4.818c3.011,3.009,9.633,4.214,9.633,4.214l6.022,0.602c0,0,6.562,1.118,8.972,0.517
	c1.204-4.818,1.93-14.204,1.93-14.204l5.965-2.411c0,0,1.459,9.62-0.611,17.302c1.806,0.602,5.459,0.77,5.459,0.77
	s5.236,8.365,8.389-1.373c0.602,6.021,3.611,8.429,10.234,2.409c4.816,0,6.779-2.581,6.779-2.581s4.159,2.923,5.965-0.086
	c3.012,6.02,5.319,3.267,6.522,0.86c4.817-0.603,10.692-4.937,13.246-10.235c4.214,1.204,7.224-5.419,5.418-9.03
	c1.806-2.409,3.011-4.818,3.011-4.818l2.408-6.622l0.6-5.418l1.206-5.42c0,0,4.214,4.818,6.623,5.42
	c3.612,2.407,13.847,1.806,9.031-9.634c3.01-1.204,6.021-11.438,0.602-14.45c-1.807-6.02-4.817-13.245-9.03-13.245
	c-1.808-5.418-0.603-12.042-9.031,2.408c-4.215,0-10.234,1.806-9.634,5.418c0.602,3.613,0.821,16.58,1.94,20.269
	c1.811,5.977-5.553,10.437-5.553,10.437l-7.826-4.215l7.224-1.806c0,0-3.611-16.684-5.417-21.5c4.815-4.816,8.429-7.4,1.806-8.603
	c3.611-4.215,4.816-8.429-12.645-6.624c-7.826,0.603-12.455,2.259-12.794,6.779c-5.418,1.204-10.513,0.446-10.513,0.446
	s7.051-11.438-12.817-1.805c-12.643,1.204-12.041,0.602-19.266,0.602c-4.215,6.02-7.577,8.196-7.577,8.196l-0.852-6.994
	c0,0,12.643-9.632,4.816-8.428c0-3.011,0-3.011,0-3.011s-9.03-18.665-4.215-16.858c3.612,6.021,4.215,12.215,10.837,13.419
	c8.41-7.579,8.857,5.245,8.857,5.245s15,1.337,16.605-7.224c8.521-3.742,20.295-1.807-4.389-15.052
	c10.234,3.009,16.214,6.106,18.061,6.02c4.816,4.816,18.063,9.634,4.215-4.816c6.385,1.597,0.451-4.346,5.869-0.132
	c5.418,1.205,5.664,1.814,5.664,1.814s12.573-1.814,4.722-4.091c0.603-4.214-1.203-5.418-4.214-3.612
	c0.603-4.215-7.458-4.397-9.774-13.279c3.611,1.204,9.774,3.646,9.774,3.646s13.612,17.723,22.879,15.052
	c-7.51-13.163-7.399-27.093,8.856,3.612c2.408,6.021,6.59,8.585-0.49-4.546c0.603-4.215-4.72-10.513-4.72-10.513l2.374-4.207
	l-5.419-7.225c0,0,1.205-18.664-4.816-6.623c-2.407-0.602-4.214-3.01-4.214-3.01l2.409-3.612c0,0-4.216,0-7.828-7.226
	c1.518-4.515,3.012-7.225,3.012-7.225l3.009,0.602l1.808,4.816l5.417,2.41l1.808-6.022l2.407-2.407
	C928.563,46.872,315.911,52.499,311.697,45.875z"/>
<path fill="#BDAA91" stroke="#231F20" stroke-miterlimit="10" d="M89.885,221.471l-7.225,0.602l-6.021,1.205
	c0,0-5.419-1.205-11.439,9.03c-4.817,2.409-11.439,4.991-9.031,8.603c7.827,0,43.951,2.234,43.951,2.234s-1.806-9.031-5.418-9.633
	c1.806-3.611,1.203-8.429-2.409-7.826C92.896,222.673,89.885,221.471,89.885,221.471z"/>
<path fill="none" stroke="#231F20" stroke-miterlimit="10" d="M626.326,182.335l45.757-36.124v-3.01c0,0,3.613-6.622-9.032-12.041
	c-11.438-6.623-24.684-14.45-24.684-14.45s-17.46-4.816-19.869-3.009c-2.406,1.805,3.012,4.816,3.012,4.816s6.622,1.203,1.806,3.611
	c-2.408,5.42,1.206,5.42,1.206,5.42s-10.237,0-12.045,13.847c-4.814,0-8.428,0.602-8.428,0.602l-7.824,30.705l26.488,11.44
	C622.713,184.142,622.713,186.55,626.326,182.335z"/>
<path fill="#88765E" stroke="#231F20" stroke-miterlimit="10" d="M698.575,176.917l-17.462,36.124l-5.417,0.855l-6.021,4.563
	l-12.041-1.204l-31.308-34.919l45.757-36.124c0,0,9.633,11.44,12.644,7.827c3.613,9.634,7.225,19.869,7.225,19.869L698.575,176.917z
	"/>
<polygon fill="#004F7A" stroke="#231F20" stroke-miterlimit="10" points="726.269,175.713 729.278,231.105 726.872,231.706 
	725.064,229.297 721.451,232.562 716.034,229.297 712.422,231.105 685.931,229.297 674.491,214.246 681.113,213.041 
	699.177,173.907 "/>
<path fill="#BDAA91" stroke="#231F20" stroke-miterlimit="10" d="M695.738,265.421l-0.175-35.521l16.858,1.206l3.612-1.808
	l5.417,3.612l3.613-3.612l4.214,1.808l2.409,3.008l5.418,2.408l1.204,16.256l10.236,9.031l-5.418,30.103l-40.941,0.428
	c0,0-8.431-5.243-8.431-0.428c-1.805,0.604-3.008,0-1.805-7.225C694.359,276.86,695.738,265.421,695.738,265.421z"/>
<path fill="#004F7A" stroke="#231F20" stroke-linejoin="bevel" stroke-miterlimit="10" d="M772.831,259.199
	c0,0-1.003-4.816-7.024-5.819c-5.018,2.61-14.071,6.896-16.283,8.229c-2.211,1.331-3.99,26.089-6.396,30.303
	c1.005,6.223,5.821,33.717,6.222,36.727c5.017-3.41,10.483-7.676,14.172-6.246c2.746-0.6,3.321-0.806,3.321-0.806
	s2.97-1.74,3.41-2.275c0.439-0.535-0.115-3.228,2.803-3.316c1.774-1.479,0.176-5.217,3.99-2.809
	c2.529-0.233,18.259-13.448,22.073-12.242c-2.635-2.176-5.636-4.377-0.847-6.695c-1.579-4.572-3.167-10.363-2.563-11.367
	c-1.807-2.408-3.211-5.018-3.211-5.018s-2.618,0.802-1.606-4.214c-2.206-2.608-2.006-2.809-3.813-3.21
	C786.477,268.231,786.879,259.801,772.831,259.199z"/>
<path fill="#004F7A" stroke="#231F20" stroke-miterlimit="10" d="M759.185,231.706c0,0,1.604-8.831,0-8.429
	c0.199,2.809-2.007-4.817,7.225,2.006c1.806-2.61,3.812-7.224,2.811-10.837c0-3.412-0.268-4.013,0.267-5.418s-5.199-8.43-5.199-8.43
	l-11.123,4.215c0,0-3.813-0.601-6.624,2.409c-3.21,0-18.291,1.605-18.291,1.605l1.029,22.278c0,0,3.812,4.614,7.827,5.417
	c0.374,5.05,1.204,16.256,1.204,16.256L759.185,231.706z"/>
<path fill="#D16536" stroke="#231F20" stroke-miterlimit="10" d="M740.922,164.473l-14.653,11.24l1.77,32.515
	c0,0,11.528-1.414,13.911-0.708c2.791-0.218,4.449,1.189,8.634-2.564c4.074-0.706,4.587-0.742,6.394-2.149
	c1.805-1.404,7.311-2.207,7.311-2.207l-1.492-6.22c0,0-1.804-8.465-4.214-9.552c-0.803-3.093-5.217-10.118-8.429-10.919
	C747.744,172.101,740.922,164.473,740.922,164.473z"/>
<path fill="#D16536" stroke="#231F20" stroke-miterlimit="10" d="M576.558,218.459l12.241,9.569c0,0,25.488-7.561,33.113-7.561
	c5.42-1.203,11.44-5.821,16.056-1.005c4.416,2.61,6.422,4.014,7.425,4.917c1.605-1.102,4.615-6.723,3.812-8.528
	c1.606-3.011,3.231-4.391,3.231-4.391l-25.542-28.491l-4.182,1.172l-19.054-8.228L576.558,218.459z"/>
<path fill="#004F7A" stroke="#231F20" stroke-miterlimit="10" d="M602.045,254.985h-4.816c0,0-2.607-12.444-4.215-13.847
	c-1.606-1.404-6.424-6.422-6.424-6.422s1.865-3.813,2.61-5.418c0.743-1.604,21.18-6.994,22.962-7.363
	c1.782-0.371,19.992-2.896,20.19-4.59c2.199,0.135,11.59,5.83,12.314,6.434c0.726,0.601-0.679,7.815,1.128,12.387
	c-2.008,3.97-6.624,9.79-7.827,10.392c-0.202,2.609,1.203,6.222,0,10.035c2.408,2.005,8.831,3.812,8.63,8.229
	c1.604,2.207,3.011,3.813,3.011,3.813s-19.066,5.619-28.499,4.013c-3.812,1.606-8.226,3.413-8.226,3.413
	S600.84,256.39,602.045,254.985z"/>
<path fill="#88765E" stroke="#231F20" stroke-miterlimit="10" d="M680.112,319.006c0,0,16.658-14.853,15.854-16.858
	c0.402-2.81-1.207-9.033,5.918-9.232c-4.73-3.251-4.517-6.221-8.129-1.004c-2.045-0.72-4.118-1.806,0.553-15.853
	c2.349-13.865,1.654-42.747,1.255-46.159c-6.595-0.396-6.825-0.603-9.633-0.603c-2.503-3.291-8.834-11.439-11.439-15.051
	c-3.265,2.506-4.816,4.213-4.816,4.213l-12.041-1.204l-5.197-5.794c0,0-3.681,2.986-3.455,6.999
	c-1.796,3.761-2.577,6.224-4.086,7.026c-0.062,2.617-1.037,5.75,0.333,8.694c-0.282,3.52-2.154,8.008-5.309,10.492
	c-1.924,3.453-2.37,1.789-1.504,7.301c-0.142,3.354-0.881,5.121,4.454,7.579c3.492,3.675,6.964,9.025,6.047,9.279
	c-0.92,0.25,0.917-0.254,0.917-0.254l5.794,3.868c0,0,3.212-0.401,4.216,3.614c2.006,3.009,3.211,4.416,3.41,7.024
	c1.205,2.409,2.207,5.418,2.207,5.418s3.212,2.809,2.609,8.027c0.804,2.811,3.762,8.028,4.49,11.039
	c1.531,2.407,3.336,5.219,3.738,8.028C677.905,318.202,680.112,319.006,680.112,319.006z"/>
<path fill="#004F7A" stroke="#231F20" stroke-miterlimit="10" d="M713.627,139.389l-28.9,14.649l6.739,18.503l6.458,4.079
	l1.253-2.713l26.068,1.737l1.023,0.068c0,0,11.241-8.027,14.653-11.24c-0.401-3.612-2.008-4.508-6.222-6.467
	c-1.204-4.369-2.61-14.805-6.623-14.805c-4.014-2.006-8.83-3.812-8.83-3.812S716.035,143.201,713.627,139.389z"/>
<polygon fill="#BDAA91" stroke="#231F20" stroke-miterlimit="10" points="483.64,134.975 483.64,87.612 537.622,87.612 
	536.819,134.975 "/>
<polygon fill="#004F7A" stroke="#231F20" stroke-miterlimit="10" points="482.834,183.141 537.622,183.743 536.819,134.975 
	483.64,134.975 "/>
<polygon fill="#BDAA91" stroke="#231F20" stroke-miterlimit="10" points="538.627,48.181 483.64,48.408 483.64,87.612 
	537.622,87.612 "/>
<polygon fill="#D16536" stroke="#231F20" stroke-miterlimit="10" points="574.35,87.612 575.541,48.181 538.627,48.181 
	537.622,87.612 "/>
<polygon fill="#88765E" stroke="#231F20" stroke-miterlimit="10" points="613.081,87.612 613.081,48.181 575.755,48.19 
	574.35,87.612 "/>
<polygon fill="#C09335" stroke="#231F20" stroke-miterlimit="10" points="537.622,87.612 537.622,140.996 572.943,140.996 
	570.536,136.179 569.934,87.612 "/>
<polygon fill="#004F7A" stroke="#231F20" stroke-miterlimit="10" points="591.809,140.996 597.629,87.612 569.934,87.612 
	570.536,136.179 572.943,140.996 "/>
<path fill="#D16536" stroke="#231F20" stroke-miterlimit="10" d="M613.081,87.612v26.691h4.908c0,0-0.09,4.216,6.935,3.813
	c0.143,2.266,2.806,1.602-1.608,4.012c-0.684,1.99-1.826,3.122,0.091,5.073c-3.545,1.686-10.127,4.959-10.93,14.194
	c-7.145,0.426-20.668-0.399-20.668-0.399l5.82-53.384H613.081z"/>
<path fill="#BDAA91" stroke="#231F20" stroke-miterlimit="10" d="M537.622,140.996l66.427,1.001l-7.824,30.705l6.984,3.918
	l-3.641,5.715c0,0-6.555-6.219-8.963-4.814c-3.413-1.406-4.215-1.409-5.62-3.614c-2.206-1.202-5.82-3.011-9.431,2.007
	c-1.607-0.4-3.214-2.801-4.719,0.706c-2.909,2.304-3.311,2.505-6.319,2.505c-3.214,2.209-6.624,5.701-6.624,5.701l-21.077-1.093
	L537.622,140.996z"/>
<path fill="#004F7A" stroke="#231F20" stroke-miterlimit="10" d="M645.594,97.849V58.515l2.208-2.208c0,0,1.206-3.01,1.807-2.607
	c0.602,0.399,0-5.518,0-5.518h-36.527v66.123l4.015,0.261c0,0,1-5.285,21.271,2.146c1.206-2.605,2.209-1.817,1.005-3.415
	c0-2.4-1.604,0.207,1.204-4.609C642.182,105.676,645.594,97.849,645.594,97.849z"/>
<path fill="#C09335" stroke="#231F20" stroke-miterlimit="10" d="M676.5,80.99v-32.81h-26.892l0.267,4.215l-2.073,3.91l-2.208,2.208
	v39.334h13.245c0,0,3.611,0.804,3.611-3.21c2.009-2.008,4.616-2.008,6.021-1.807c2.208-1.606,5.62-4.014,5.018-6.222
	C675.095,84.002,676.5,80.99,676.5,80.99z"/>
<path fill="#BDAA91" stroke="#231F20" stroke-miterlimit="10" d="M709.411,73.966V48.181H676.5v32.81l-3.011,5.619v2.408h5.019
	c0,0,2.407,1.005,5.217,0c3.814,0.603,9.632,3.012,12.042,2.812c3.411,0.402,4.614,0.012,4.614,0.012L709.411,73.966z"/>
<path fill="#004F7A" stroke="#231F20" stroke-miterlimit="10" d="M672.083,146.211l28.298-54.371c0,0-13.646-0.615-16.656-2.823
	c-2.609,0.445-4.214,0-7.225,0s-3.011,0-3.011,0l-5.018,3.814c0,0-5.018-1.555-7.427,4.742c-5.617,0.275-15.451,0.275-15.451,0.275
	l-6.486,13.444c0,0,1.666,3.207-0.74,5.417c4.684,2.761,24.083,14.102,24.083,14.102S675.895,135.572,672.083,146.211z"/>
<path fill="#004F7A" stroke="#231F20" stroke-miterlimit="10" d="M739.717,101.059c0,0-7.825,0.403-8.829-1.001
	c-2.409,1.001-1.208,0.601-4.619,2.206c-4.011,0.603-5.818,0-8.226,0c-2.408-1.604-4.417-1.073-5.219-4.348
	c-2.811-0.066-4.213,0-4.213,0s-1.017-3.171-5.219-3.48c-3.012-2.595-3.012-2.595-3.012-2.595l-28.298,54.371
	c0,0,7.9,10.232,12.644,7.827s28.9-14.649,28.9-14.649s3.01,4.211,5.62,0C720.852,134.575,727.274,117.917,739.717,101.059z"/>
<path fill="#88765E" stroke="#231F20" stroke-miterlimit="10" d="M753.965,154.406c0,0,5.621-3.502,6.424-5.346
	c2.207-3.246,5.019-5.655,7.826-5.856c1.005-2.207,1.404-2.573,4.415-1.687c0.602-4.132,0.407-11.759-3.108-14.77
	c0.499-3.812,0-6.422,0-6.422s-3.916-6.428-10.94-3.615c-2.007-2.605-6.02-6.82-3.812-8.827c-3.612-2.81-3.927-2.007-9.49-4.416
	c-3.154-2.809-4.356-3.41-4.356-3.41s-25.287,36.718-21.675,39.332c4.931,2.008,12.49,1.705,14.272,13.598
	c0.692,3.036,1.181,5.019,1.181,5.019s5.342,2.369,6.222,4.905C744.533,161.266,753.965,154.406,753.965,154.406z"/>
<path fill="none" stroke="#231F20" stroke-miterlimit="10" d="M815.979,47.508c0,0-1.808,9.6-2.409,11.809
	c0.803,2.608-0.803,6.792,14.448,13.731c4.817,2.324,12.645,6.74,10.235,13.361c-2.407,6.623-2.407,6.623-2.407,6.623l-51.777-1.192
	l9.031-28.509c0,0,1.405-2.008,4.015-1.606c0.8-3.21,2.004-3.812,2.004-3.812s5.019-4.817-4.815-5.621
	c-3.211-2.409-4.215-4.222-4.215-4.222L815.979,47.508z"/>
<path fill="#C09335" stroke="#231F20" stroke-miterlimit="10" d="M775.841,102.666c0,0-9.659-4.416-11.554-6.624
	c-0.688-3.009-5.707-22.878-10.322-12.643c-4.615,0-9.835,1.002-5.419-9.434c1.205-5.418,0.402-12.643-6.622-12.241
	c-4.014-0.201-6.021-2.408-9.633-3.612c-4.014,0.199-7.225-0.602-7.826-1.405c-0.603-0.804-5.12-1.405-5.57-1.004
	c-0.45,0.402-4.866-3.211-8.478-2.208l-1.006-0.176v19.728l-9.03,18.792l3.012,2.595c0,0,4.415,0.935,5.219,3.48
	c3.211-0.02,4.213,0,4.213,0s0.44,2.594,3.63,3.508c1.589,0.839,3.553-0.162,3.553-0.162s5.863,2.608,10.881-1.204
	c4.223,1.001,8.629,1.002,10.034,0c2.145,1.531,13.847,7.826,13.847,7.826s-2.608,1.8,3.812,8.827
	c5.449-0.454,10.029-0.254,11.035,4.289c5.824-3.481,10.842-7.704,10.842-7.704s3.812-3.405,0-3.808
	c-0.804-2.005,1.604-3.41-3.412-4.816C775.841,102.666,775.841,102.666,775.841,102.666z"/>
<path fill="#88765E" stroke="#231F20" stroke-miterlimit="10" d="M784.069,91.84l8.035-25.369c0,0-0.208-5.547,5.011-4.746
	c2.004-3.812-0.017-3.018,3.002-5.221c-0.001-2.129,3.115-2.751-7.27-5.388c-2.759-3.046-3.56-3.485-3.56-3.485l-79.877,0.549v5.14
	c0,0,6.923-0.024,9.483,2.384c3.94,0.296,5.768,0.161,7.374,1.886c4.012,0.538,6.661-0.38,12.463,3.483
	c5.918,0.948,14.148,0.056,8.17,19.52c0.788,1.843,3.048,3.007,7.063,2.807c1.399-2.217,5.19-8.027,10.322,12.643
	c8.713,5.266,8.544,6.022,11.554,6.624c2.407-2.608,8.229-7.827,8.229-7.827V91.84z"/>
<path fill="#004F7A" stroke="#231F20" stroke-miterlimit="10" d="M868.36,73.048V56.306c0,0-3.21-6.661-3.612-9.049
	c-3.61,0.019-48.769,0.251-48.769,0.251s-9.201,16.348,6.539,22.762c8.1,4.119,13.847,7.043,15.595,10.99
	c3.757-0.671,7.971-4.885,11.383-3.881c1.805-1.004,1.223-1.809,3.212-2.23C856.118,75.373,868.36,73.048,868.36,73.048z"/>
<path fill="#BD6628" stroke="#231F20" stroke-miterlimit="10" d="M884.616,47.144c0,0,5.218,11.018,12.241,17.115
	c4.216,3.889,14.852,14.726,14.852,14.726s0.201,4.916,5.419,3.46c2.408,2.96-0.201-0.664,2.408,2.96
	c2.609,3.625,5.415,12.641,5.415,12.641s-7.63,4.612-22.879-15.052c-4.435-0.062-6.622-0.602-6.622-0.602s2.21-9.229-7.021-10.633
	c-2.208-4.214-7.628-9.634-13.849-9.634c-1.805-3.412-4.414-6.422-6.22-5.82c-1.204-2.607-3.396-9.049-3.396-9.049L884.616,47.144z"
	/>
<path fill="#004F7A" stroke="#231F20" stroke-miterlimit="10" d="M912.112,46.977l2.003,0.497c0,0-3.622,6.083-3.012,7.225
	c0.609,1.141,4.211,7.623,7.828,7.226c-1.639,2.455-0.406,2.605-2.409,3.612c3.121,2.601,4.214,3.01,4.214,3.01
	s6.219-14.251,4.816,6.623c5.419,7.225,5.419,7.225,5.419,7.225s-3,2.965,3.72,11.418c0.42,1.608-0.665,3.973,2.123,7.716
	c0.902,2.569,4.834,16.521-5.722-3.01c-4.736-8.211-6.936-16.124-10.249-10.905c-3.716-5.167-3.562-4.916-6.95-5.167
	c-2.185-3.46,0.501-0.904-7.174-8.505c-7.672-7.601-24.709-25.926-22.104-26.795C887.822,47.125,912.112,46.977,912.112,46.977z"/>
<path fill="#D16536" stroke="#231F20" stroke-miterlimit="10" d="M868.36,73.048c0,0,5.62,8.644,10.235,9.396
	c4.215,3.363,8.63,6.737,8.429,9.564c1.604,1.825,6.358,4.307,5.641,6.508c-4.241,0.211-0.967,0.048-2.634,0.131
	c0,0,16.929,17.117-5.683,5.349c-6.888-2.847-15.185-6.549-15.988-7.754c1.709,2.459,10.505,7.809,10.505,7.809
	s13.571,4.628-5.69,8.445c-4.212-0.999-4.012-1.063-7.624-3.743c-4.816-0.268-10.236,1.137-10.638-7.292
	c0.803-5.618,0.401-7.402-1.404-9.622c0-4.026,2.07-16.819,2.07-16.819L868.36,73.048z"/>
<path fill="#004F7A" stroke="#231F20" stroke-miterlimit="10" d="M838.703,81.122c0,0,9.588-5.349,10.793-3.743
	c1.428-1.559,4.141-3.51,6.083-2.357c-0.319,2.055-3.916,16.546-0.584,19.486c0.245,4.112-1.688,17.326,10.556,14.246
	c5.882,3.313,11.034,5.85,1.303,9.414c-10.535,1.612-13.344,4.552-15.352-4.872c-4.82,2.21-7.735,3.756-12.799-4.542
	c-2.854-9.098-2.856-15.721-2.856-15.721s4.068-9.445,2.267-11.773C836.531,79.215,838.703,81.122,838.703,81.122z"/>
<path fill="#88765E" stroke="#231F20" stroke-miterlimit="10" d="M784.069,91.84l51.777,1.192l0.747,7.025
	c0,0-4.764,1.21-0.747,7.93c3.005,7.324,4.395,9.34,4.213,11.134c-0.328,3.223,6.623,0.176-2.167,8.073
	c-2.55,3.359-2.249,2.764-2.046,7.782c-1.804,2.206-5.417,1.605-6.019,0c-0.602-1.606-5.617,0.269-6.021,1.439
	c-1.405,1.169-5.017-0.234-5.017-2.042c-1.405-1.405-5.821-1.805-8.631-0.601s-5.618-2.61-7.625-6.622
	c-3.011-0.602-1.203,0-7.022-0.602c-5.821-0.602-9.439-1.407-11.442-1.607c-0.801-2.408,2.707-7.23-9.282-7.327
	c5.671-4.32,9.48-7.525,5.671-8.128c-0.125-2.616-0.806-4.816-3.412-4.816c-1.205-2.006-1.205-2.006-1.205-2.006l8.229-7.827V91.84z
	"/>
<path fill="#C09335" stroke="#231F20" stroke-miterlimit="10" d="M835.845,136.58c0,0-2.806,7.622-4.614,9.632
	c-1.002,3.415-3.008,13.729,0,16.7c-6.42,0.364-22.81,0.965-22.81,0.965l-16.322-7.627l-2.408-3.812c0,0-17.175-9.992-17.061-10.92
	c0.112-0.931,0.403-14.969-3.108-14.77c0.218-3.815,0-6.422,0-6.422l6.445-3.615c0,0,9.496,0.653,7.999,7.753
	c8.105,1.677,12.951,2.272,14.35,2.328c1.402,0.055,2.145-4.388,10.105,7.116c4.323-0.773,9.622-3.045,11.601,2.224
	c3.785,0.284,5.76-1.174,6.391-1.366c0.63-0.195,6.024,1.641,6.024,1.641L835.845,136.58z"/>
<path fill="#004F7A" stroke="#231F20" stroke-miterlimit="10" d="M870.768,160.864l-0.801-10.437l8.629-10.134l-1.92-11.341
	c0,0,3.525-10.356-8.315-3.772c-12.083,2.928-4.622,2.969-24.688,2.971c-3.846,4.798-7.827,8.429-7.827,8.429
	s-12.64,21.354-3.608,26.332C842.068,162.87,870.768,160.864,870.768,160.864z"/>
<path fill="#D16536" stroke="#231F20" stroke-miterlimit="10" d="M886.49,128.018c0,0-0.03-6.879,16.006-6.183
	c5.955-0.06,14.32,0.011,10.262,5.571c-0.05,1.569,1.344,2.085,2.157,2.707c0.722,2.229-2.001,4.185-4.409,6.732
	c0.212,4.026,4.812,22.01,4.812,22.01l-7.224,1.806l-3.208-1.001l-34.118,1.205l-0.801-10.437l8.629-10.134l-1.811-10.94
	c0,0,7.825,0.405,9.272-0.325C887.06,128.523,886.49,128.018,886.49,128.018z"/>
<path fill="#BDAA91" stroke="#231F20" stroke-miterlimit="10" d="M740.922,162.911l18.731-12.841c0,0,2.626-6.123,6.196-6.194
	c2.804-1.566,3.571-0.907,3.672-2.597c2.096-0.035,3.108,0.238,3.108,0.238l17.061,10.92l2.408,3.812l-1.005,8.224l3.011,3.213
	l1.407,6.221c0,0,11.293,7.023,5.043,8.428c-1.433,0.806-1.433,0.806-1.433,0.806s-1.004,12.24-2.006,13.645
	c-1.004,1.407-8.229,3.213-7.827,9.835c-3.213,1.002-4.441,1.538-7.138-4.65c-3.5,2.643-6.108,6.257-6.108,6.257h-6.521
	l-5.234-7.629c0,0-3.298-15.891-5.706-15.772c-0.919-2.328-5.418-10.318-8.429-10.919
	C748.14,172.105,740.922,162.911,740.922,162.911z"/>
<path fill="#88765E" stroke="#231F20" stroke-linejoin="round" stroke-miterlimit="10" d="M855.926,161.828
	c0,0,5.21,3.051,4.809,6.662c4.414,3.011,9.632,4.812,8.028,7.424c1.002,2.61,1.403,6.986-1.408,8.912
	c-2.606,0.925-5.019,1.122-5.019,1.122l-4.011-1.122l-2.01,0.521l0.429,5.841c0,0,1.767,3.19,0.034,6.816
	c-1.733,3.628-4.114,3.146-4.114,3.146s-10.062-4.253-9.627-2.803c-2.782-0.277-6.62-2.499-9.111-2.03
	c-2.476-1.276-4.941-2.609-4.941-2.609s-9.794-4.145-10.797-2.339c-2.209-2.411-4.873-5.604-6.801-3.958
	c-3.18-0.625-5.043-0.86-5.043-0.86s7.422,5.016,8.429,13.246c1.733-3.927,2.207-8.633,7.225-3.012
	c3.115-0.548,7.423,0.2,7.227,5.418c2.292-0.49,3.213-1.03,3.213-1.03s4.887-0.398,9.617,3.041c0.913,3.131,3.936,2.592,5.963,4.013
	c2.027,1.42,1.68-0.803,1.68-0.803l3.609,5.617l-3.609,9.235l-15.053-1.808l-10.233-7.426l-17.261-14.651l-12.017-0.245
	c0,0,3.782-3.169,3.986-15.812c2.472-0.364,8.031-0.002-3.607-8.428c-0.998-4.415-0.404-6.626-4.418-9.434
	c0.635-5.185,1.005-8.224,1.005-8.224l16.322,7.627L855.926,161.828z"/>
<path fill="#88765E" stroke="#231F20" stroke-linejoin="bevel" stroke-miterlimit="10" d="M917.518,159.107h13.266
	c0,0,0.006,3.759-1.104,5.366c-0.241,2.173,1.317,4.39-0.8,5.407c-0.773,2.128,1.086,4.224-2.121,5.833
	c-1.292,2.28-1.209,3.208-3.011,4.818c0.528,2.418-0.203,11.236-5.418,9.03c-0.801,3.517-4.821,10.031-13.246,10.235
	c-1.989,2.768-3.415,6.42-6.623,0c-2.397,1.503-4.614,3.212-5.818-0.2c-1.943,1.526-5.021,4.21-6.825,2.006
	c-1.729,1.444-9.233,9.027-10.234-2.409c-1.402,2.961-2.404,9.634-5.615,5.22c-4.019-1.609-4.416-2.443-4.416-2.443
	s-2.415-2.579-3.816-2.174c-0.628-2.803,1.219-7.397-0.694-9.518c1.296-4.331,1.296-4.331,1.296-4.331s11.242-0.804,6.427-10.034
	c0.012-1.885,1.604-2.205-8.028-7.424c-2.69-5.088-4.809-6.662-4.809-6.662l48.96-2.169
	C904.886,159.659,921.521,169.392,917.518,159.107z"/>
<path fill="#C09335" stroke="#231F20" stroke-linejoin="bevel" stroke-miterlimit="10" d="M929.166,128.752
	c0,0,7.221-18.265,9.031-2.408c3.179,1.444,3.179,1.444,3.179,1.444s4.244,2.968,5.852,11.801c2.413,2.791,4.527,8.532,1.363,12.396
	c-1.291,3.905,1.643,16.251-10.996,11.688c-4.659-3.364-5.817-5.667-5.817-5.667l-2.44,1.101h-11.648l2.657-5.912l-0.576-17.449
	C919.77,135.746,918.525,128.75,929.166,128.752z"/>
<path fill="#BDAA91" stroke="#231F20" stroke-miterlimit="10" d="M855.713,240.134c0,0,1.56,5.361-6.442,4.789
	c-3.035,1.962-3.035,1.962-3.035,1.962s-5.836,0.425-3.597,3.663c-1.147,3.011-3.936,2.229-3.936,2.229s-5.586,9.23-11.848,0
	c0.161-3.408-1.547-4.368-6.345-4.711c-2.728-1.922-1.721-21.378-1.721-21.378l5.62-13.645l10.233,7.426l15.053,1.808l3.609-9.235
	c0,0,5.415-9.635,7.225,0.602c2.009-1.603,7.021-5.623,6.021,0.603c1.447,2.935,2.357,8.184,0.603,9.031
	c-1.756,0.845-3.985,0.601-4.099,3.411c-0.113,2.812-2.989,0.892-5.364-0.854c-2.547,0.317-7.997,4.066-7.997,4.066
	s5.762,6.563,7.6,3.182c1.321-3.594,12.488-1.788,1.021,5.932"/>
<path fill="#004F7A" stroke="#231F20" stroke-miterlimit="10" d="M797.316,239.936l-24.423-9.834c0,0-6.688-1.81-6.484-4.818
	c1.743-3.151,4.413-7.427,2.811-10.837c-0.033-4.215,0.302-6.219,0.302-6.219h6.521c0,0,5.298-14.72,8.77-1.74
	c3.556,0.415,4.041,1.334,5.563-4.284c3.665-3.399,1.327-5.786,7.745-3.995c7.219,0.148,9.028,0.184,9.028,0.184l17.261,14.651
	l-5.62,13.645l1.034,20.863c0,0-15.199-11.36-12.131-13.602c-1.947-5.252-4.702-10.268-7.139-10.368
	c-2.892-2.842-5.183-5.449-7.922-3.377c-1.942,3.072,6.555,5.277,8.932,11.501c2.784,4.136,5.772,9.222,5.772,9.222
	s-0.99,4.426-3.801,0.212c-2.206,0.201-0.607-1.805-4.417,1.606C797.316,239.936,797.316,239.936,797.316,239.936z"/>
<path fill="#88765E" stroke="#231F20" stroke-miterlimit="10" d="M795.709,282.881c0,0,4.315-5.015,6.975-4.413
	c3.062-1.404,3.062-1.404,3.062-1.404V243.75c0,0-2.386-5.281-5.91-1.638c-1.316-0.3-1.516,0.633-2.52-2.175
	c-2.489-1.002-27.795-11.144-27.795-11.144s-4.061-1.801-3.112-3.509c-1.681-1.166-9.689-8.431-6.853,4.014
	c-0.372,2.409-0.372,2.409-0.372,2.409l-20.498,21.823l10.837,9.109l16.283-9.258c0,0,6.822,1.802,7.024,5.819
	c2.692,0.232,13.771,1.085,14.011,9.978c2.731,2.872,5.227,3.01,4.252,7.887c1.404,0.8,1.404,0.8,1.404,0.8L795.709,282.881z"/>
<path fill="#004F7A" stroke="#231F20" stroke-miterlimit="10" d="M731.241,345.695l-13.601-9.026c0,0-11.236,10.636-12.44,10.636
	c-0.201,2.007,1.405,5.018,3.612,6.824c0.803,3.612-0.2,6.42-0.2,6.42l3.211,7.827l1.611,13.833c0,0-0.186,11.336,3.215-4.058
	C721.994,362.778,731.241,345.695,731.241,345.695z"/>
<path fill="#004F7A" stroke="#231F20" stroke-miterlimit="10" d="M688.543,342.288l-7.223,15.251h-15.053
	c0,0-1.771,11.44-13.831,7.627c-4.432,0-9.448-0.4-8.446,3.611c-0.804,3.812-1.463,3.813-0.128,7.227
	c-0.474,3.812-2.08,4.613-3.686,5.617c-1.204,2.209-6.814,10.663-6.814,10.663l10.775,11.187c0,0,4.032-0.304,7.667-1.129
	c1.292-0.292,10.24-2.262,8.84-5.671c4.974,0.735,15.449,2.003,17.459-0.603c2.646,1.1,3.913,1.427,3.913,1.427
	s11.656,1.928,15.566,3.313c3.151-1.451,17.242-15.379,10.022-39.057c1.516-4.814,1.207-7.623,1.207-7.623s-5.404-5.69-3.612-6.824
	c-2.61-1.404-3.315-1.604-3.315-1.604S693.762,345.701,688.543,342.288z"/>
<path fill="#004F7A" stroke="#231F20" stroke-miterlimit="10" d="M702.187,291.31l40.941,0.602l6.222,36.727
	c0,0-5.661,1.408-3.531,8.031c-5.317,2.777-8.13,3.678-8.13,3.678s-3.806-0.881-6.732,5.159c-9.331-6.194-13.315-8.837-13.315-8.837
	s-11.326,11.222-12.44,10.636c-1.112-0.588-3.315-1.604-3.315-1.604s-10.331-0.803-13.342-3.412
	c-1.405-2.609-4.817-4.415-9.432-4.816c1.204-2.609,9.431-8.028,2.405-11.038c-0.399-4.014-1.404-7.428-1.404-7.428l15.854-16.858
	l0.955-6.848c0,0,3.656-2.99,4.963-2.385C703.192,293.521,702.187,291.31,702.187,291.31z"/>
<path fill="#004F7A" stroke="#231F20" stroke-miterlimit="10" d="M674.491,340.28l9.79-10.24c0,0-5.012-5.275-3.185-6.649
	c-0.402-2.039-0.984-4.385-0.984-4.385s-6.227-3.651-5.621-8.246c-1.931-3.193-4.091-5.915-4.551-9.672
	c-1.501-3.47-2.528-6.217-2.298-8.999c-1.176-2.39-2.535-4.922-3.461-6.965c-0.928-2.042-3.659-8.061-3.659-8.061
	s-2.561-5.006-5.632-5.111c-2.5-1.67-4.412-3.549-5.974-3.122c-1.562,0.427-24.8,5.417-27.808,3.814
	c-3.262,1.364-8.226,3.413-8.226,3.413s-0.988,8.63,1.612,13.649c0.192,5.62-0.407,12.845-4.222,15.854
	c0,5.219,1.404,11.841,1.404,11.841s4.617-0.201,17.261,5.819c0.801-1.404-3.413-6.021,13.445,3.613
	c1.203,2.811,2.006,3.412,2.006,3.412l5.218,3.612C649.608,333.859,671.077,341.284,674.491,340.28z"/>
<path opacity="0.4" fill="#808184" stroke="#231F20" stroke-miterlimit="10" d="M674.491,340.28l9.79-10.24
	c0,0-5.012-5.275-3.185-6.649c-0.402-2.039-0.984-4.385-0.984-4.385s-6.227-3.651-5.621-8.246c-1.931-3.193-4.091-5.915-4.551-9.672
	c-1.501-3.47-2.528-6.217-2.298-8.999c-1.176-2.39-2.535-4.922-3.461-6.965c-0.928-2.042-3.659-8.061-3.659-8.061
	s-2.561-5.006-5.632-5.111c-2.5-1.67-4.412-3.549-5.974-3.122c-1.562,0.427-24.8,5.417-27.808,3.814
	c-3.262,1.364-8.226,3.413-8.226,3.413s-0.988,8.63,1.612,13.649c0.192,5.62-0.407,12.845-4.222,15.854
	c0,5.219,1.404,11.841,1.404,11.841s4.617-0.201,17.261,5.819c0.801-1.404-3.413-6.021,13.445,3.613
	c1.203,2.811,2.006,3.412,2.006,3.412l5.218,3.612C649.608,333.859,671.077,341.284,674.491,340.28z"/>
<path fill="#004F7A" stroke="#231F20" stroke-miterlimit="10" d="M611.679,317.402c0,0,15.257,3.614,17.261,5.819
	c0.46-2.271-3.817-6.661,13.445,3.613c2.006,3.412,6.157,6.772,11.738,8.531c5.58,1.758,15.817,5.007,15.817,5.007
	s3.837,0.653,7.098-2.758c4.293,0.179,10.907,1.265,11.505,4.673c-1.695,3.58-7.223,15.251-7.223,15.251h-15.053
	c0,0-3.018,12.64-14.655,7.623c-6.288,0.592-8.221,1.412-7.622,3.615c-0.538,2.224-1.06,5.625-0.128,7.227
	c-0.395,1.894,0.733,2.611-3.686,5.617c-2.656,4.508-6.488,11.105-6.488,11.105l-42.981-44.624l1.476-4.012
	c0,0,2.033-6.623,3.036-6.021c0.804-1.606,1.007-5.219,3.213-5.02c1.805-1.604,2.007-4.415,3.41-5.418
	c1.406-1.002,2.21-2.609,4.417-3.611C608.467,322.016,611.679,317.402,611.679,317.402z"/>
<path fill="#D16536" stroke="#231F20" stroke-miterlimit="10" d="M551.859,306.382l8.24-29.318c0,0-2.409-6.624,0-6.826
	c2.407-0.2,14.248,0,14.248,0l22.881-15.252h4.816l0.862,3.182l9.977,17.891c0,0,0.919,9.794,1.277,12.917
	c0.361,3.124,0.533,13.18-3.887,16.587c0.392,5.593,1.404,11.841,1.404,11.841s-3.415,6.247-7.63,8.139
	c-2.207,2.092-3.905,4.139-4.762,7.543c-2.65,2.113-3.866,2.579-4.068,4.986c-1.373,2.766-2.406,6.539-2.932,7.218
	c-0.529,0.681-1.58,2.814-1.58,2.814L551.859,306.382z"/>
<path fill="none" stroke="#231F20" stroke-miterlimit="10" d="M465.775,183.138l47.363,0.603l17.057,49.168v4.616
	c0,0-12.24-4.615-24.481-3.21c-3.213-0.805-9.434-3.21-10.035,0.4c-3.414,0.804-6.624,1.806-12.241,0.603
	c-1.204-5.218-1.204-6.021-4.816-12.645c-0.202-2.809-0.603-3.209,1.002-5.216c-0.399-2.209,0.001-4.617,1.405-5.82
	c0.4-2.007,2.409-7.628-2.407-11.44c-1.606-3.611-1.808-2.608-2.41-5.018c-0.601-2.408-2.006-5.215-5.017-5.817
	C468.182,187.556,466.176,184.744,465.775,183.138z"/>
<path fill="#BDAA91" stroke="#231F20" stroke-miterlimit="10" d="M556.286,184.744l-43.148-1.003l17.057,49.168v4.616
	c0,0,6.624,5.017,11.842,4.616c2.81,1.606,6.023,2.809,7.427,2.607c2.006,0.805,3.812,2.409,6.221,3.212
	c1.404-2.007,25.086-36.525,25.086-36.525l-9.232-5.418l-1.604-2.008l-2.208-0.803L567.323,201l-11.438-13.647L556.286,184.744z"/>
<path fill="#D16536" stroke="#231F20" stroke-miterlimit="10" d="M523.976,277.462l2.207-4.614l4.215-1.206
	c0,0-1.606-4.215,3.812-6.622c0-5.017,0-9.634,0-9.634s5.016-1.204,8.027-5.018c5.42,1.406,11.237,2.61,15.251,0
	c2.611,2.007,4.217,6.222,4.016,7.427c-0.202,1.203,0,9.63-1.204,11.639c-1.205,2.007-1.807,5.218,0,7.024
	c-0.602,2.809-8.44,29.923-8.44,29.923L523.976,277.462z"/>
<path fill="#88765E" stroke="#231F20" stroke-miterlimit="10" d="M496.279,277.062l10.638-11.038l1.205-3.211l-1.004-4.216
	c0,0-1.607-9.832-3.413-10.034c-1.807-2.408-2.61-3.611-2.61-3.611s0.201-4.015-4.815-0.803c-2.608,1.204-4.016,2.006-6.021-0.4
	c-2.607-1.808-3.21-2.81-4.816-3.011c-1.403-1.405-4.615-3.412-2.006-5.418c3.812,0.603,9.23,1.002,12.043-1.407
	c2.606-1.202,3.409-1.803,9.028,0.404c4.817-0.202,3.011,1.002,7.024-0.202c5.619,0.4,15.452,1.806,18.662,3.412
	c3.413,2.409,9.837,5.418,11.842,4.616c3.813,1.806,5.621,2.407,7.427,2.607c2.208,1.205,5.818,2.609,6.221,3.212
	c0.402,0.601,1.805,2.407,1.805,2.407s-4.615,3.011-15.251,0c-2.808,2.61-4.215,4.617-8.027,5.018c0.199,4.415,0,9.634,0,9.634
	s-6.221,3.412-3.812,6.622c-3.413,0.802-6.224,2.409-6.422,5.82C516.55,277.462,496.279,277.062,496.279,277.062z"/>
<path fill="#004F7A" stroke="#231F20" stroke-miterlimit="10" d="M455.941,276.058l2.006-47.163c0,0,5.219-6.223,6.02,4.416
	c1.205,0.802,2.209,1.404,2.209,1.404s2.208,2.408,5.82-0.804c1.808-1.804,4.615-4.614,9.231,1.407
	c1.205,1.002,2.409,5.417,5.619,5.82c2.609,1.805,3.412,2.61,3.412,2.61s1.808,3.209,6.021,0.4c2.209-1.004,5.017-2.408,4.815,0.803
	c1.608,2.207,2.61,3.611,2.61,3.611s2.608,4.616,2.81,7.025c0.199,2.408,0,3.009,1.205,4.816c0.199,1.807-0.2,6.222-3.212,8.63
	c-3.01,2.409-8.229,8.028-8.229,8.028L455.941,276.058z"/>
<path fill="#BDAA91" stroke="#231F20" stroke-miterlimit="10" d="M396.739,253.581l38.731-26.291c0,0,7.025,8.228,12.241,7.825
	c4.817-2.207,9.031-5.016,10.236-6.22c0,3.211-2.006,47.163-2.006,47.163l-49.369-1.606l-0.603-12.644L396.739,253.581z"/>
<path fill="#BDAA91" stroke="#231F20" stroke-miterlimit="10" d="M387.306,181.535l16.056,0.603c0,0,1.604,7.022,2.207,7.224
	c1.004,1.805,2.81,5.215,2.81,5.215s0.602,5.22,2.608,5.822c3.212,2.407,7.024,5.619,8.229,17.86
	c9.03,5.018,16.255,9.032,16.255,9.032l-38.731,26.291l-10.235-12.443l-8.631,4.615c0,0-8.227,3.812-3.411-3.413
	c0.602-4.013,0-8.627,0-8.627l2.007-9.633l0.199-4.816l1.407-3.413l0.2-6.823c0,0,1.003-2.609,2.608-2.408
	c1.606,0.2,2.611-0.402,2.611-0.402l-0.203-4.014l-3.41-0.199v-3.012l7.022-14.048L387.306,181.535z"/>
<path fill="#004F7A" stroke="#231F20" stroke-miterlimit="10" d="M454.737,182.737l-51.376-0.6c0,0,2.809,10.434,4.415,11.438
	c1.004,2.408,1.004,2.004,1.204,3.612c0.2,1.606,1.004,2.809,3.011,3.812c2.007,1.606,7.424,7.626,7.225,17.259
	c6.021,3.212,14.047,7.827,14.047,7.827s4.215,1.805,4.817,3.01C440.088,224.279,454.737,182.737,454.737,182.737z"/>
<path fill="#D16536" stroke="#231F20" stroke-miterlimit="10" d="M454.737,182.737l11.038,0.401c0,0,2.81,5.621,6.622,6.825
	c2.01,1.001,4.015,4.212,4.215,6.821c1.406,2.208,1.004,2.208,3.411,5.019c1.808,2.809,2.41,6.822,1.005,9.833
	c-1.405,2.209-2.207,4.215-1.405,5.82c-1.403,2.407-1.604,2.81-1.002,5.216c1.205,2.409,5.419,11.238,4.816,12.645
	c-1.204-0.202-2.209,0-2.209,0s-4.415-6.825-9.231-1.407c-2.406,1.808-3.612,2.21-5.82,0.804c-1.206-1.205-2.007-0.601-2.811-4.616
	c-1.403-3.009-1.605-4.414-5.418-1.204c-2.408,2.006-12.844,12.442-19.868,0.2C442.896,215.851,454.737,182.737,454.737,182.737z"/>
<path fill="none" stroke="#231F20" stroke-miterlimit="10" d="M483.437,117.513l-10.035-0.399l-2.006,1.603l-6.622-0.199
	l-2.41,0.801l-9.233-0.399c0,0-6.22,7.224-9.833,5.418c1.004,3.612,1.406,5.016,2.208,6.22c0.803,1.205,2.608,4.015,1.002,5.419
	c-1.604,1.404-1.404,2.81-1.002,3.812c-0.803,0.805-2.208,1.004-2.208,1.606s-3.21,1.806-3.21,1.806s-1.005,1.806-3.212,0.603
	c-1.002-0.603-3.613-2.008-2.006,2.608c0.802,2.007,0.802,3.01,0,4.214c-0.199,2.009,1.204,8.029,1.204,8.029
	s3.413,2.41,4.817,2.608c2.208,1.606,5.418,2.409,6.822,3.21c2.009,0.402,6.022,1.408,6.624,7.627
	c1.004,2.608,1.004,3.211,4.214,3.612c2.008,0.602,4.213,1.204,4.617,3.812c0.401,2.612,1.607,3.613,1.607,3.613l18.061,0.003
	L483.437,117.513z"/>
<path fill="none" stroke="#231F20" stroke-miterlimit="10" d="M411.188,182.137l-5.821-20.071l6.423-21.272v-5.017
	c0,0,7.826,1.404,11.438,6.623c3.012,1.604,7.226,5.818,9.033,9.833c2.409,3.211,3.812,6.423,3.812,6.423s3.612,2.41,4.817,2.608
	c1.607,1.404,3.21,2.007,3.21,2.007s9.834,0.601,10.235,8.831c1.004,2.608,0.603,3.009,5.019,3.813
	c2.608,1.405,3.009,1.606,3.812,3.611c0.801,2.01,1.607,3.613,1.607,3.613L411.188,182.137z"/>
<path fill="none" stroke="#231F20" stroke-miterlimit="10" d="M412.393,113.899l23.48,0.203l5.418,4.614l2.006,5.621l0.401,3.211
	l2.408,4.014c0,0,1.806,3.01,0.4,4.414c-1.404,1.404-1.404,2.408-1.002,3.812c-1.203,0.602-2.208,1.606-2.208,1.606
	s-2.608,1.003-3.21,1.806c-0.602,0.802-0.804,1.806-3.212,0.603s-3.812-1.005-2.006,2.608c1.004,2.208,0.802,3.211,0,4.214
	c-0.802,1.004-2.006,2.811-2.006,2.811s-5.821-10.636-9.635-11.038c-3.611-3.413-8.628-7.426-11.438-6.623
	C411.588,130.359,412.393,113.899,412.393,113.899z"/>
<path fill="#004F7A" stroke="#231F20" stroke-miterlimit="10" d="M411.188,182.137l-5.821-20.071l6.423-21.272v-5.017
	c0,0,7.826,1.404,11.438,6.623c4.013,2.41,8.832,7.828,9.033,9.833c1.806,2.811,4.842,5.394,4.842,5.394s2.383,3.839,3.787,3.638
	c2.006,1.404,1.807,1.807,6.021,2.409c4.213,1.806,7.625,5.618,7.424,8.428c1.204,3.009,2.81,3.612,5.019,3.813
	c2.608,1.606,3.009,1.606,3.812,3.611c0.801,2.01,1.607,3.613,1.607,3.613L411.188,182.137z"/>
<path fill="#BDAA91" stroke="#231F20" stroke-miterlimit="10" d="M868.36,56.306v16.742c0,0,4.011,8.743,10.433,8.542
	c2.607,2.006,4.816,3.812,6.021,5.217c2.207,3.412,2.81,5.218,4.014,5.62c1.204,0.4,4.819,5.418,6.222,6.421
	c1.403,1.002,3.612,1.807,3.612,1.807s5.619,1.002,8.83-0.603c1.405-1.605,4.013-3.611,0-4.014c-0.201-2.81-0.603-4.817-3.611-4.615
	c0-2.409-0.403-4.014-3.412-3.812c-1.205-1.406-3.813-2.007-4.416-3.613c-0.602-1.606-0.708-2-0.602-4.816
	c0-1.806-1.198-6.015-7.021-7.423c-1.207-2.411-8.628-11.034-13.849-9.634C873.575,60.719,870.973,55.507,868.36,56.306z"/>
<path fill="#C09335" stroke="#231F20" stroke-miterlimit="10" d="M815.49,47.631h-25.316c0,0,2.725,4.056,7.14,4.658
	c3.211,1.205,4.188,2.215,0.776,5.624c-0.727,1.974-0.975,3.812-0.975,3.812s-4.443,1-4.846,3.008
	c-0.401,2.006-8.2,27.107-8.2,27.107l50.972,0.588c0,0,8.632-11.842-3.21-16.459c-8.83-4.816-13.646-7.624-13.646-7.624
	s-6.824-4.015-4.817-12.041C814.571,51.286,815.49,47.631,815.49,47.631z"/>
<path fill="#BDAA91" stroke="#231F20" stroke-miterlimit="10" d="M604.854,142.198l-8.629,30.504l27.894,10.838
	c0,0,1.807-1.003,2.81-2.006c1.004-1.004,45.155-35.323,45.155-35.323s1.808-12.042-8.83-14.248
	c-7.627-4.616-25.688-14.65-25.688-14.65s-11.039-4.214-13.246-3.812c-2.607-0.202-11.237,2.058-1.203,3.786
	c1.809-0.2,4.816,1.833,1.406,4.442c-1.004,1.605-3.641,1.204-1.634,4.215c0,2.006,1.23,1.605-0.175,2.609
	c-1.405,0.4-5.819,2.608-6.621,5.017c-3.011,3.101-3.411,8.629-3.411,8.629H604.854z"/>
<path fill="#88765E" stroke="#231F20" stroke-miterlimit="10" d="M575.954,174.709c0,0,4.617-3.411,8.43-0.802
	c2.808,2.609,6.018,4.014,7.423,4.014s2.611,0.602,4.015,1.807c1.405,1.204,3.011,3.209,3.011,3.209s-1.205,3.613-2.811,4.618
	c-1.204,1.604-3.209,3.811-2.81,4.815c-1.002,1.604-5.418,8.027-5.418,8.027l-2.81,3.612l-0.802,1.806c0,0-2.812,4.015-2.409,4.015
	c0.401,0-1.004,1.604-1.004,1.604s-5.218-3.211-5.218-4.214c-1.205-0.402-6.222-2.41-5.619-3.212
	c-1.204-0.2-3.011-1.606-2.609-3.011c-1.204-1.604-11.438-13.647-11.438-13.647s0.204-2.241,2.008-2.526
	c2.006-1.286,5.819-5.3,7.625-5.098c1.806,0.201,6.02-2.007,6.02-3.211c0.203-1.204,1.405-2.008,2.609-1.002
	C575.351,176.517,575.151,175.915,575.954,174.709z"/>
<path fill="#D16536" stroke="#231F20" stroke-miterlimit="10" d="M576.558,218.459l12.241,9.569l-2.811,6.487
	c0,0,3.41,4.614,5.218,5.018c2.006,3.009,4.214,9.632,4.214,9.632s0.805,3.813,0.805,5.018c0,1.204,0,1.204,0,1.204l-21.877,14.851
	H560.1c0,0,5.416-15.052-4.416-22.276C560.1,241.539,576.558,218.459,576.558,218.459z"/>
<path fill="#C09335" stroke="#231F20" stroke-miterlimit="10" d="M465.775,183.138l47.363,0.603l17.057,49.168l-0.602,3.814
	c0,0-17.259-3.212-18.864-2.81c-1.654,0.199-5.016,0.401-5.016,0.401s-7.023-2.46-10.788-0.503
	c-1.354,0.903-5.669,2.558-11.488,1.505c0.049-3.162-0.101-4.365-1.154-5.719c-0.602-1.806-2.711-6.021-2.711-6.021
	s-1.554-2.609,0.051-6.121c0.101-2.007,0.4-3.814,1.906-5.469c0.302-1.656,0.754-3.011,0.754-3.011s0.15-6.774-3.162-9.03
	c-1.654-2.258-2.257-3.011-2.257-4.365c-0.452-1.504-2.91-5.519-5.67-6.22C469.336,187.604,466.277,184.393,465.775,183.138z"/>
<path fill="#BDAA91" stroke="#231F20" stroke-miterlimit="10" d="M483.437,117.513l-0.603,65.628l-16.959,0.224
	c0,0-1.101-0.227-2.708-3.84c-0.523-1.178-2.912-3.21-4.617-3.812c-1.704-0.603-3.812-1.655-4.113-5.269
	c-1.506-3.16-6.322-7.072-10.537-7.826c-1.806-1.203-1.806-1.203-1.806-1.203s-1.656-0.904-2.86-1.356
	c-1.203-0.451-3.447-1.111-2.845-3.821c0.149-1.504,0.437-3.251-0.466-3.251c-1.493-0.61-0.903-2.711-0.151-3.312
	c0.754-0.602-0.301-2.459-0.902-3.261c-0.602-0.803-1.204-4.265,2.708-2.608c1.205,0.301,1.557,0.753,2.511-0.603
	c1.404-0.601,1.706-1.054,2.458-0.903c0.752,0.15,0.752-0.903,0.752-0.903s1.255-1.707,2.208-1.606
	c0.953,0.1,1.104-0.803,0.051-1.554c-1.055-0.753-0.352-1.505,0.952-2.258c0.553-2.106,0.152-3.612-1.002-5.419
	c-1.154-1.806-1.806-3.009-1.806-3.009s-1.303-2.559,2.609-3.915c4.064-1.807,5.117-2.708,5.72-3.311
	c0.603-0.603,0.754-1.356,2.86-1.356c2.107,0,8.429,0.301,8.429,0.301s0.602-1.202,2.408-1.052c1.807,0.15,5.67,0.5,5.67,0.5
	s-0.101-1.353,2.006-1.603C475.509,116.862,483.437,117.513,483.437,117.513z"/>
<path fill="#D16536" stroke="#231F20" stroke-miterlimit="10" d="M436.224,86.457l47.262,0.451l-0.149,29.954l-8.882-0.301
	c0,0-3.46,0.752-3.312,1.656c-1.957,0-6.02-0.302-6.02-0.302s-2.107,0.603-2.408,0.753s-8.43,0-8.43,0s-3.16,0.601-3.311,1.957
	c-1.054,1.053-5.719,4.365-7.224,3.009c-0.602-1.505-3.312-6.17-5.119-7.525c-1.806-1.354-2.408-3.009-1.504-4.967
	c-0.452-1.957-0.452-1.957-0.452-1.957s-0.603-3.16,0.902-5.567c0.152-3.011,0.152-7.226,0.152-7.226s0.902-2.258-0.602-4.064
	C436.224,88.262,436.224,86.457,436.224,86.457z"/>
<path fill="#C09335" stroke="#231F20" stroke-miterlimit="10" d="M411.791,135.776l0.603-21.877l23.48,0.203l4.716,4.865l3.11,8.581
	l1.806,3.009c0,0,2.309,5.118,0.352,5.719c-1.204,1.055-1.807,1.506-1.054,3.162c-0.904,1.053-2.106,1.806-2.257,2.86
	c-1.205,0.302-2.258-0.301-3.463,1.205c-2.258-0.452-7.376-1.958-3.763,5.268c-2.04,4.049,1.754,4.205,1.068,7.466
	c-1.053,0.15-3.477-4.005-5.283-6.864c-1.806-2.861-6.873-6.875-7.375-6.924c-0.601-0.903-2.709-3.01-2.709-3.01
	S412.793,134.823,411.791,135.776z"/>
<path fill="#88765E" stroke="#231F20" stroke-miterlimit="10" d="M393.778,112.948l41.994,0.452c0,0,1.204-2.56,0.301-3.614
	c-0.15-1.654,0.453-4.967,1.504-6.169c-0.45-1.806-0.45-7.829,0-8.43c0-1.355-3.009-8.58-2.257-9.182
	c-2.257-0.15-3.162,0.753-4.365-0.602c-1.205-1.355-4.515-2.408-5.418-1.054c-1.506,0.451-2.108,0.451-3.613-0.451
	c-1.957-0.602-3.462-0.301-4.516,1.054c-1.053,1.354-1.806,1.807-1.806,1.807s-1.957,1.503-2.86-0.151
	c-1.354-1.655-2.256-1.655-3.611-1.655s-1.957-0.603-2.107-1.506c-0.151-0.902-2.559-0.601-3.312,1.205
	c-0.753,1.807-1.956,2.71-3.011,2.559c-1.052-0.15-5.418-0.15-6.622,1.956C393.928,92.928,393.778,112.948,393.778,112.948z"/>
<path fill="#004F7A" stroke="#231F20" stroke-miterlimit="10" d="M399.196,47.473c0,0-1.957,6.623-5.117,8.58
	c-2.107,2.257-3.763,2.859-3.763,7.826c-1.957,1.506-0.903,1.205-3.462,1.957c-1.505,0.752-3.914,2.257-4.515,4.064
	c0.3,2.71-0.752,4.666,4.515,3.913c3.161,0,6.622,1.807,6.472,4.365c0.302,3.313,0.603,9.785,0.603,9.785l2.859-0.902
	c0,0,7.526,0.301,6.021-2.56c1.806-1.505,4.215-2.859,4.967-0.903c0.452,1.053,0.753,1.053,2.71,1.354
	c1.655,0.752,1.806,0.301,2.408,1.279c0.601,0.979,2.258,1.581,3.837-1.354c2.634-1.656,3.689-2.107,6.474-0.527
	c1.052,0.227,1.957-0.075,2.935-0.827c1.655-0.15,3.913,0.451,5.494,2.032c1.656,0.375,4.364,0.375,4.364,0.375l0.177-37.956
	L399.196,47.473z"/>
<path fill="#004F7A" stroke="#231F20" stroke-miterlimit="10" d="M348.07,46.468c0,0,0.202,1.708-0.501,2.312
	c-0.703,0.601-1.807,2.005,0.2,4.312c0.804,3.413,3.413,17.461,3.413,17.461s1.403,0.602,3.812-1.604
	c2.912-2.108,7.025-5.117,7.025-5.117s3.812-3.614,9.833-0.103c3.612,0.602,6.121,0.903,8.128,4.015
	c1.504,1.506,1.708,2.407,4.617-1.406c3.713-1.103,5.618-1.404,5.317-4.714c1.203-2.711,0.703-2.811,4.215-6.022
	c2.407-2.709,2.911-2.306,5.067-8.127C393.729,47.573,348.07,46.468,348.07,46.468z"/>
<path fill="#004F7A" stroke="#231F20" stroke-miterlimit="10" d="M308.436,72.158c0,0-7.426-6.623,1.806-16.857
	c0.401-6.423,0-10.838,0-10.838l36.725,1.205c0,0,3.412,1.606-0.402,3.412c-0.199,1.404-0.802,1.805,1.205,4.012
	c0.602,3.413,2.611,15.454,3.413,17.461c-2.006,0.001-9.833-1.002-9.031,6.222c0,3.21,2.006,4.615-3.613,5.017
	c-2.81,1.204-4.815,3.612-5.218,5.017c-3.011-2.408-5.818-4.013-5.818-4.013s-1.606-3.011-3.612-2.409
	C321.88,77.979,321.48,73.763,308.436,72.158z"/>
<path fill="#BDAA91" stroke="#231F20" stroke-miterlimit="10" d="M328.102,104.067l-13.646,0.402c0,0-1.404-1.808-3.01-1.606
	c-1.606,0.201-14.049,0.602-14.049,0.602l-1.405-9.031l-2.608-0.602l-4.214-4.213l-3.814-3.211l3.612-4.616
	c0,0-1.605-7.425,14.249-9.433c3.412,1.003,4.015,1.204,5.219-0.201c3.611-0.801,6.823,0,9.03,2.208
	c2.208,2.206,5.619,5.218,5.619,5.218s2.811,0.4,4.417,3.211c3.21,1.404,4.012,0.802,5.818,4.013c0.803,3.212,0,7.427-1.204,8.629
	C331.714,97.847,328.102,104.067,328.102,104.067z"/>
<path fill="#BDAA91" stroke="#231F20" stroke-miterlimit="10" d="M304.822,108.685l-5.619,14.248c0,0-8.028,1.405-6.624-4.816
	c-0.803-1.002-3.211-2.41-4.415,0.402c-2.408,2.208-3.412,3.01-3.412,4.415c-1.204,0.803-4.615,2.409-4.615,4.214
	c-2.609-2.809-2.208-0.2-4.015-4.816c-2.408-2.206-3.411-1.204-3.011-10.837c-1.203-4.215-1.403-4.816-2.608-7.826
	c3.21-2.008,6.822-1.797,14.851-17.259c3.814,3.211,8.028,7.424,8.028,7.424l2.608,0.602c0,0-1.003,7.828,3.211,10.236
	C302.213,106.476,304.822,108.685,304.822,108.685z"/>
<path fill="#004F7A" stroke="#231F20" stroke-miterlimit="10" d="M343.957,145.411c0,0-12.042,0.4-15.253-1.205
	c-2.609-0.202-6.421-2.007-9.433-6.222c-2.81-1.806-4.816-3.211-10.035-3.813c-4.415-2.207-4.214,0.603-7.225-7.024
	c-1.605-2.407-2.809-4.214-2.809-4.214l5.619-14.248l-6.222-5.018c0,0,13.446-1.205,15.855,0.803
	c4.214,0.2,13.646-0.402,13.646-0.402s5.018,3.011,8.83,3.613c2.81,1.806,3.613,2.207,4.015,4.817
	c2.005,3.211,2.208,6.021,5.418,5.218c0.199,3.613-0.402,8.428-0.402,8.428s0.402,5.62,1.406,8.831
	c1.002,3.212,1.605,6.623,1.605,6.623S344.158,144.004,343.957,145.411z"/>
<path fill="#004F7A" stroke="#231F20" stroke-miterlimit="10" d="M296.996,171.9c0,0-0.602-3.613-3.412-4.616
	c-2.408-4.012-14.65-22.476-14.65-22.476s-3.21-3.012,3.011-5.018c3.01-1.004,4.214,0,4.414-5.82
	c1.406-4.415,0.402-10.035-1.605-11.038c1.205-2.007,5.821-9.634,7.427-3.211c0.4,1.807,0.801,3.613,4.414,3.211
	c2.61,0,3.413,1.605,4.617,4.416c1.204,2.809,3.812,7.022,9.231,7.425c4.416,0.403,8.631,2.811,10.035,5.018
	c2.409,1.806,4.015,7.225,23.481,5.62c-0.602,5.216-2.007,11.639-6.222,14.85c-3.613,4.214-10.034,9.634-10.437,16.256
	c-2.207,1.003-3.21,1.403-5.419-0.202c-2.207-1.205-6.02-1.806-7.225-4.013C312.85,170.495,310.042,163.272,296.996,171.9z"/>
<path fill="#BDAA91" stroke="#231F20" stroke-miterlimit="10" d="M234.983,105.673c0,0,1.403-9.633,9.432-6.824
	c3.813-0.201,6.021-1.807,7.226-3.009c1.203-1.205,5.133-4.569,8.428-0.202c3.01,3.211,4.416,8.029,10.436,8.029
	c1.806,5.619,2.609,9.23,2.408,12.442c0.401,3.212-0.201,3.212,3.21,6.221c1.004,3.012,2.009,3.813,4.015,4.816
	c0.2,2.207-0.804,3.814-3.413,4.216c-2.808-0.401-3.411-0.404-4.013,1.002c-0.603,1.406-2.008,1.406-3.212,1.004
	c-1.204-0.401-4.212,1.001-7.424,5.017c0-6.421,0-8.43,0-8.43s1.204-4.615-4.016-6.622c-2.408-0.802-2.607-1.605-2.607-5.017
	c-0.803-2.811-1.605-5.82-4.817-4.015c-2.008,0.603-1.405,1.205-3.412-1.403c-1.605-1.205-3.21-1.205-4.215-0.202
	c-1.605-0.2-3.21-0.4-3.011-3.009c-1.204-2.609-2.205-3.413-3.209-3.211C235.785,106.677,234.983,105.673,234.983,105.673z"/>
<path fill="#BDAA91" stroke="#231F20" stroke-miterlimit="10" d="M233.376,136.981c0,0,0.803-6.023-5.218-7.628
	c-4.014-4.614-4.415-2.982-7.224-11.21c4.215-2.408,10.437-6.449,14.049-12.47c2.809,1.004,4.214,1.605,5.016,4.014
	c0.402,2.207,0.602,3.812,3.814,2.81c1.605-0.201,3.813,0.402,4.013,1.404c0.201,1.003,0.603,1.806,2.81,0.401
	c2.409-0.199,4.214,1.004,4.414,4.818c0,2.208,0.604,3.812,4.016,5.218c2.005,1.606,3.612,0.802,2.809,10.838
	c-0.401,5.217-2.408,10.838-4.415,12.643c-2.007,1.807-7.024,11.238-14.451,1.605c-2.005-2.81-2.808-4.615-3.21-6.823
	C239.398,140.392,236.386,137.382,233.376,136.981z"/>
<path fill="#88765E" stroke="#231F20" stroke-miterlimit="10" d="M293.583,177.119l-14.65,2.609c0,0-2.608-8.229-7.827-1.807
	c-4.416-0.2-20.671,0.802-20.671,0.802s-0.402,6.624-5.018,5.418c-4.214-2.005-5.619-2.607-5.619-2.607s3.211-4.818,1.205-6.624
	c-0.403-2.811-0.804-3.011,3.411-7.025c1.605-2.81,2.208-6.825,0.603-9.634c-0.202-1.806-0.804-2.005,1.204-4.414
	c2.81,0.2,5.419,1.807,10.235-4.816c3.212-3.612,5.42-7.025,5.621-9.434c2.005-2.608,2.608-5.419,7.424-6.221
	c2.81,0.402,0.803,1.204,3.212-1.004c1.003-0.802,1.003-1.204,4.013-1.002c3.012-0.401,3.815-0.603,3.413-4.216
	c1.605-1.404,4.214-7.022,6.422,0.602c0.602,3.011,0.402,5.821-0.401,7.427c-0.201,2.207-2.408,5.819-4.214,4.615
	c-2.007,0.602-6.422,0.803-2.007,7.425c4.415,6.623,13.646,20.069,13.646,20.069s5.017,5.819,1.806,6.021
	C294.386,175.514,293.583,177.119,293.583,177.119z"/>
<path fill="#C09339" stroke="#231F20" stroke-miterlimit="10" d="M193.44,116.31c0,0,0.2,10.034-6.824,5.017
	c-1.405-1.204-6.623-4.416-7.426,3.412c-1.605,4.816-5.418,10.636-8.228,13.044c0.4,4.817,0.001,10.837,3.211,10.837
	c2.006,0,2.608-1.204,2.608,4.616c3.01,1.807,2.009,2.207,4.617,0.802c1.806-0.602,2.207-0.602,4.616,0.402
	c3.01,0,3.411-0.402,5.418-1.405c2.609-1.003,3.613-0.602,5.62,0c3.01,0,9.433-2.207,12.041-4.817
	c2.609-2.609,4.617-4.013,6.624-5.217c2.006-1.205,4.013-3.612,8.026-1.205c3.211,0.201,4.616-0.401,6.222-2.208
	c2.206-1.204,1.806-2.608,3.411-2.608c-0.2-2.61-2.81-7.628-5.819-8.429c-3.01-2.208-4.415-3.413-4.615-5.821
	c-0.804-2.006-0.201-6.422-6.423-3.612c-3.21,0.802-6.823,0.802-4.616-4.616c0.201-3.011,0.804-8.429-7.023-4.616
	c-2.61,1.004-5.019,2.409-5.019,2.409s-2.809-1.405-4.014,1.405C195.045,115.105,193.642,114.904,193.44,116.31z"/>
<path fill="#C09339" stroke="#231F20" stroke-miterlimit="10" d="M194.042,191.167c0,0-7.225-6.222-2.209-14.45
	c1.205-4.014,2.811-7.425-2.607-9.632c0-2.81-0.402-5.62-4.617-2.209c-1.204,0.804-2.81,1.606-3.01-1.404
	c0.402-2.208,0.602-3.813-1.605-4.416c0-3.211-0.602-4.415-0.602-4.415s4.817-2.208,6.623-0.201
	c2.809,0.402,5.619-3.011,11.84-1.003c4.817-0.603,5.018-1.003,7.426-2.208c2.409-1.205,4.615-2.006,4.615-3.211
	c1.606-1.204,7.025-5.418,7.025-5.418s1.607-2.61,6.021-0.603c3.812-0.201,3.611,1.004,7.827-2.207
	c1.806-2.008,3.211-4.416,9.031,2.81c1.002,4.816,1.404,5.818,3.412,7.826c2.007,2.007,2.809,3.612,1.002,6.422
	c0.402,2.81,3.012,9.031-2.607,13.445c-1.607,2.61-2.61,1.606-0.804,6.623c0.202,2.208-1.403,4.816-4.013,5.82
	c-2.007,1.606-4.015,3.813-4.015,3.813s-2.208,5.019-9.031,2.006c-5.217,0-9.634,2.007-19.668-4.415
	C203.675,183.339,193.44,188.356,194.042,191.167z"/>
<path fill="#D16536" stroke="#231F20" stroke-miterlimit="10" d="M853.005,269.334l-10.838,6.625l-36.421,1.105
	c0,0-19.571,7.925-4.519,11.236c2.105,3.311,1.804,3.912,2.105,6.021c0.301,2.107,2.409,2.71,4.516,1.203
	c2.107-1.505,6.021-1.203,7.828-3.612c1.806-2.407,4.516-1.203,4.816-2.407c0.302-1.204,0.903-3.011,3.913,0.302
	c6.924,0.3,17.461-0.302,17.461-0.302s8.428,0.302,0.3-3.914c-1.505-0.903-3.01-3.611,3.012-3.611
	c2.707-0.603,4.515-0.603,5.718,3.311c0.603,2.408,4.214,5.419,4.214-1.506c1.205-3.913,4.817-6.923,5.42,0.301
	c0,4.216,7.226,6.323,7.226-0.602c0.245-3.406-0.603-7.827,3.009-4.515c2.71,1.807,3.011-0.602,3.312-3.312
	c2.408-2.709,6.623-3.31,6.623-6.924c0-2.106,0.604-2.406,2.709-1.805c2.108,0.603,3.312,0.301,3.612-3.312
	c2.409-3.31,2.409-3.31,5.419-3.61c1.204-1.507-0.603-2.71-3.01-4.517c-1.204-3.01-8.127-15.954-4.517-0.904
	c-1.505,0.904-3.009,1.206-3.61,3.614c-0.604,2.409-4.818-2.709-6.926,0.3c-3.01,2.109-4.215,0-1.806-2.708
	c0.903-3.011-0.602-10.537-0.602-10.537s-3.312-10.236-2.108,0.603c-0.903,3.611-3.009,2.107-3.311,6.323
	c-2.107,0.902,1.205,2.105-2.107,0.902c-3.31,0.301-3.913,0-5.118,1.805c-1.805-0.302-15.353-0.902-8.729,3.913
	c2.409,0.603,2.71,0.603,2.108,3.311C852.102,264.819,853.005,269.334,853.005,269.334z"/>
<polygon fill="#C09335" stroke="#231F20" stroke-miterlimit="10" points="436.174,47.974 435.998,85.93 483.485,86.908 
	483.035,48.375 "/>
<path fill="#BDAA91" stroke="#231F20" stroke-miterlimit="10" d="M393.778,112.948l-0.753-32.511c0,0,1.656-6.473-6.17-6.624
	c-2.709,0.301-5.118,0.602-4.816-2.105c-0.301-1.356,0-2.711-2.107-3.012c-1.806-2.407-2.709-4.064-7.225-4.515
	c-3.763-1.355-7.375-2.859-11.138,0.451c-4.064,2.711-8.881,6.473-8.881,6.473s-12.643-2.108-10.084,6.623
	c0.302,2.107,0.603,3.161-3.311,4.064c-2.708,0.903-6.623,3.763-5.117,8.73c-1.806,6.021-6.071,13.546-6.071,13.546l7.727,3.011
	c0,0,4.516,0.902,6.321,6.471c0.753,2.108,0.451,5.719,8.429,3.011c2.107-1.657,1.957-3.312,7.225-1.355
	c2.709,1.054,3.462,1.205,4.516-1.204c0.301-1.805,0.451-1.957,2.86-2.107c2.408-0.151,8.429-0.452,9.783,0.452
	C378.425,112.798,393.778,112.948,393.778,112.948z"/>
<path fill="#D16535" stroke="#231F20" stroke-miterlimit="10" d="M411.689,113.249l-0.451,27.091l-5.871,21.726l5.269,19.667
	l-23.481-0.753c0,0-4.516-5.718-4.064-7.375c0.453-1.656,0.151-3.011-1.354-4.063c-1.505-1.055-1.204-3.464-0.903-4.667
	c0.301-1.203-0.15-3.762-0.15-3.762s0.452-3.613-4.816-4.817c-3.913-4.214-6.773-4.515-1.806-13.696
	c2.408-5.118,2.859-6.473,2.859-6.473l-0.151-12.341l-3.461-6.774l1.655-4.666L411.689,113.249z"/>
<path fill="#88765E" stroke="#231F20" stroke-miterlimit="10" d="M371.049,148.62l5.269-12.343l0.451-12.491l-3.461-6.774
	l1.054-4.515l-10.537-0.301c0,0-2.258,1.655-1.505,1.805c0.753,0.15-1.204,4.215-4.516,1.806c-3.763-1.505-5.269-1.203-6.623,0.453
	c-2.408,1.205-3.612,1.807-4.515,1.957c0.3,2.408-0.051,5.318-0.704,7.926c0.252,2.759,3.111,13.296,3.111,13.296
	s0.903,4.816,7.075,2.107c2.107-1.656,2.408-3.612,5.87-1.505c2.258,0.602,4.816,1.204,5.87,4.666
	C368.942,148.168,369.996,148.469,371.049,148.62z"/>
<path fill="#004F7A" stroke="#231F20" stroke-miterlimit="10" d="M327.701,177.369c0,0-2.107-4.516,6.472-12.793
	c5.719-6.171,9.934-11.289,9.784-16.407c0.752-3.311,0.903-7.074,7.074-5.719c2.258,0.301,4.365-0.15,5.869-1.807
	c2.108-1.053,2.86-1.805,5.119-0.602c2.709,0.903,4.666,2.107,5.268,4.517c0.602,2.408,2.258,3.611,3.312,4.816
	c0.451,1.353,2.408,5.719,4.064,5.719c1.806,1.807,1.956,1.958,3.461,2.259c1.806,1.354,2.708,3.009,2.257,5.87
	c0.15,3.01-0.752,4.817,1.354,6.323c1.354,1.805,1.807,2.407,1.354,4.063c0,1.807,0.904,4.064,1.506,4.516
	c0.602,0.451,0.451,1.053,0.451,1.053l-45.004-0.602c0,0-2.709-1.355-3.312-1.053C335.377,177.52,327.701,177.369,327.701,177.369z"
	/>
<path fill="#C09335" stroke="#231F20" stroke-miterlimit="10" d="M326.949,177.821l9.182,21.373l42.445,0.452
	c0,0,2.559-5.72,3.161-5.72c0.603-2.258,0.902-3.311,2.56-4.365c1.053-1.807,4.063-8.43,0.752-10.386
	c-3.612,0.302-45.004-0.602-45.004-0.602s-3.312-1.204-4.365-1.204C334.625,177.369,326.949,177.821,326.949,177.821z"/>
<path fill="#004F7A" stroke="#231F20" stroke-miterlimit="10" d="M336.281,199.947c0,0,3.161,5.118,1.354,10.085
	c-0.602,3.159-0.15,5.567,0.902,8.578c1.054,3.01,3.162,3.16-0.451,13.696c13.396,1.204,35.974,3.162,35.974,3.162
	s1.052-11.34,2.408-11.389c-0.151-2.459-0.753-6.373,0.903-7.125c0.15-3.914,0.451-6.923,0.451-6.923s-0.753-3.914,3.763-3.614
	c1.354-0.45,3.813-2.661-1.706-4.414c-1.306-2.358-1.155-0.854-1.306-2.358C376.167,199.344,336.281,199.947,336.281,199.947z"/>
<path fill="#D16535" stroke="#231F20" stroke-miterlimit="10" d="M308.436,168.038l-0.753,41.542l-10.988,19.116l41.392,3.611
	c0,0,3.161-10.385,0.451-12.643c-0.902-3.611-0.902-3.611-0.902-3.611s-1.656-1.658,0.451-8.732
	c-1.656-6.172-12.041-30.104-12.041-30.104s-4.064,0.904-4.817-1.054c-1.656-0.601-6.171-1.655-6.472-3.311
	C313.553,171.198,311.596,169.392,308.436,168.038z"/>
<path fill="#88765E" stroke="#231F20" stroke-miterlimit="10" d="M277.93,227.592l-2.006-15.051l-9.231-13.448
	c0,0-2.709-7.224-11.439-3.01c-3.914-0.603-9.032-1.605-9.032-1.605s-0.804-8.029,1.405-9.433c1.505-1.807,2.809-3.613,3.209-6.021
	c5.22-0.603,10.638-0.903,10.638-0.903s9.13,1.103,10.134-0.803c1.806-1.305,4.014-3.412,6.122,0.903
	c1.204,1.506,1.004,2.208,4.616,1.605c3.613-0.904,9.231-2.006,9.231-2.006s3.21-1.003,3.511-3.111
	c0.503-1.303,0.603-1.705,1.908-2.809c1.806-0.703,7.226-3.613,7.226-3.613s4.514-2.81,3.914,2.71
	c0,5.819-0.452,38.582-0.452,38.582l-11.691,19.316L277.93,227.592z"/>
<path fill="#88765E" stroke="#231F20" stroke-miterlimit="10" d="M233.177,221.571c0,0,3.596-5.092,4.414-10.437
	c1.004-3.713-0.303-4.638,4.617-8.053c1.705-2.811,4.113-4.615,3.812-5.721c0-1.907-0.701-3.385,2.811-2.482
	c3.511,0.904,5.821,2.81,9.031,0.301c1.305-0.2,5.317-1.303,7.526,2.108c2.208,3.412,10.536,15.253,10.536,15.253l2.006,15.051
	l-32.611-4.315c0,0-2.624-0.103-5.118,1.606c-1.406,0.802-3.17,0.952-4.416-1.003C234.113,221.543,233.177,221.571,233.177,221.571z
	"/>
<path fill="#88765E" stroke="#231F20" stroke-miterlimit="10" d="M209.094,229.772l-0.101-19.74l-14.45-19.467
	c0,0,3.311-4.116,3.914-4.116c0.602,0,4.516-3.813,8.127-0.701c3.915,2.107,4.718,3.41,12.545,3.209
	c2.808-0.199,3.612-0.5,6.722,0.403c3.312,0.301,4.716,1.102,6.924-2.811c3.112-2.709,5.117-5.316,8.832-4.013
	c2.408,0.904,3.812,1.605,3.812,1.605s3.01,0.201,0.602,3.513c-0.2,3.311,0.101,7.727,0.101,7.727l-0.5,3.311
	c0,0-3.212,4.314-3.112,4.716c0.102,0.403-5.015,1.002-5.417,9.935c0.026,2.279-2.51,8.609-2.51,8.609s-2.698-1.609-4.414,0.522
	c-0.301,2.207-0.858,3.702-3.613,2.509c-1.806-0.303-2.207-2.11-3.811,0.701c-1.506,1.406-1.624,1.908-3.714,2.232
	c-1.907,0.303-2.81-2.131-4.113,0.077c-0.323,1.146-0.823,1.271-1.454,1.805C212.633,230.499,209.094,229.772,209.094,229.772z"/>
<path fill="#004F7A" stroke="#231F20" stroke-miterlimit="10" d="M194.042,191.167c0,0-6.522,6.922-6.021,7.726
	c-0.903,1.304-6.322,7.226-13.948,6.222c-0.802,3.713-2.506,10.134-2.506,10.134l-1.908,3.011c0,0-2.509,1.908-1.405,3.713
	c0,1.807-0.101,3.109-1.907,4.114c-0.301,3.01-0.903,7.525-0.903,7.525s-5.317,5.519-1.204,6.824
	c1.404,2.106,2.307,2.911,2.307,2.911l16.256-3.111c0,0,9.533-0.402,10.235-1.507c1.505-0.902,3.111-2.707,6.321-1.404
	c3.112-0.401,5.478-1.593,5.72-4.815c0.402-1.305,1.305-3.94,4.014-2.736c-0.101-4.817-0.101-19.74-0.101-19.74L194.042,191.167z"/>
<path fill="#004F7A" stroke="#231F20" stroke-miterlimit="10" d="M132.029,181.432l15.252-6.02c0,0,2.508,1.707,2.81,2.107
	c0.301,0.4,2.408,1.906,2.608,3.511c0.202,1.606,1.706,3.013,2.708,3.112c1.306,0.903,4.516,3.312,5.72,6.121
	c1.205,2.809,1.406,4.614,5.922,6.322c3.109,3.611,7.022,8.529,7.022,8.529l-2.506,10.134c0,0-2.108,1.906-1.807,2.509
	c-0.603,1.204-3.111,2.309-1.505,4.215c-0.301,1.405-0.503,2.51-1.708,3.713c-0.602,2.108-1.505,8.128-1.505,8.128
	s-4.314,4.215-2.408,5.72c1.908,1.504,2.509,3.711,2.509,3.711l-8.027,1.807l-4.917-0.302l-2.006-5.017c0,0-5.921-4.012-1.606-4.112
	c1.005-1.005,1.505-3.21-1.505-5.118c-0.602-2.208-1.305-3.815-2.81-4.617c-1.304-1.906-4.415-5.217-3.109-9.532
	c0.301-2.208,1.906-4.314-4.817-3.914c-2.309-1.204-5.218-1.003-6.824-11.239c-0.401-10.034-0.3-11.839-0.3-11.839
	S132.431,182.034,132.029,181.432z"/>
<path fill="#C09339" stroke="#231F20" stroke-miterlimit="10" d="M141.663,150.829c0,0,1.701-2.875,4.014-2.209
	c2.408-0.802,3.311-2.308,3.914-3.411c1.102-1.205,3.514-5.708,16.655-4.917c3.713-0.602,4.718-1.003,4.718-1.003l0.399,6.02
	c0,0,0.102,4.416,3.513,3.413c1.205,0.201,1.606,0.903,1.506,2.108c-0.101,1.203,0.125,3.209,1.705,3.812
	c1.355,1.28,1.958,0.903,1.657,3.386c0.149,1.431,0.225,1.731,0.978,1.957c0.752,0.226,1.505,0,0.978,1.882
	c-0.15,2.031,0.076,7.225,3.764,2.86c0.828-1.053,3.01-2.634,3.386,0.602c0.151,1.281-0.075,1.957,1.732,2.634
	c1.354,1.13,3.763,2.71,0.752,9.107c-1.806,5.194-3.085,7.978,2.032,13.998c-3.085,4.064-5.645,6.548-5.344,7.827
	c-1.129,1.054-7.275,7.176-13.948,6.222c-3.662-4.792-6.748-8.479-6.748-8.479s-4.29-0.753-6.246-7.074
	c-2.032-3.011-4.063-4.892-5.945-6.021c-1.881-1.129-1.656,0.225-2.484-3.538c-0.978-1.505-3.738-3.688-5.368-4.59
	c1.455-0.979,6.497-0.303,1.531-7c-1.28-2.708-2.484-5.419-0.753-10.459c0.075-2.032,1.354-4.14-5.269-5.871
	C141.888,151.781,141.663,150.829,141.663,150.829z"/>
<path fill="#C3943C" stroke="#231F20" stroke-miterlimit="10" d="M62.04,179.327c0,0,19.536-17.34,49.595-11.59
	c3.763-0.527,7.074-2.333,6.848-6.999c1.354-3.913,3.236-5.946,10.536-5.193c4.591-0.377,10.762-1.605,12.644-4.715
	c4.666,2.307,7.827,4.188,5.87,7.726c-0.752,3.989-1.43,6.471,1.881,10.988c0.979,2.031,2.033,5.042-1.731,5.267
	c-2.935,1.279-16.03,6.472-16.03,6.472l-2.483,7.301l0.075,12.493c0,0-4.741-0.978-6.322,0.15c-1.655,0.225-2.935,0.451-3.763,0.075
	c-0.828-0.376-2.483-0.301-5.268,1.129c-3.386-0.227-6.999-0.678-12.041,0.903c-4.064,1.053-7.226,1.881-14.073,2.257
	c0.677-2.859,2.032-5.418,6.396-7.902c2.559-1.58,6.322-4.816,5.72-5.719c0.602-2.107,1.203-3.011,1.806-3.988
	c-0.302-1.431-0.376-5.719-3.838-4.216c-3.763,0.151-20.696,0.828-20.696,0.828s-2.634-3.312-11.966-3.312
	C62.867,180.605,62.04,179.327,62.04,179.327z"/>
<path fill="#88765E" stroke="#231F20" stroke-miterlimit="10" d="M73.403,209.278l-6.924,3.16c0,0-3.914,2.935-7.149-0.978
	c-1.957-5.042-4.566-6.697-4.566-6.697c-1.062-1.906,0.01-1.807-1.529-4.666c-0.527-0.904-0.904-5.494,1.806-6.774
	c1.204-0.977,1.731-6.623,1.129-7.601c0-0.979,4.214-7.226,9.708-4.365c2.107,0.375,8.504,0.375,11.289,3.235
	c2.785-0.075,20.696-0.828,20.696-0.828s3.386-0.902,3.536,4.516c-0.225,0.752-2.408,2.861-1.805,4.667
	c-1.054,1.13-3.387,3.311-3.387,3.311s-8.805,3.989-8.654,9.935c-0.376,1.43-3.011,4.365-8.204,3.161
	C77.167,208.6,74.457,207.321,73.403,209.278z"/>
<path fill="#004F7A" stroke="#231F20" stroke-miterlimit="10" d="M152.198,244.749l-52.079-1.605c0,0,1.882-2.634-4.966-9.782
	c0.902-2.937,2.031-5.569-2.409-8.128c-0.526-1.581-0.15-4.214-5.494-4.29c0.301-1.731,0.301-3.161-2.032-4.064
	c1.355-1.43,6.472-6.248,1.505-8.58c0.075-1.129,0.979-2.709,4.439-2.634c3.462,0.075,10.612-1.731,12.568-2.784
	c1.355-0.301,7.978-0.752,9.257-0.528c1.205-0.075,1.882-0.075,2.71-0.602c0.827-0.527,2.784-0.603,4.063-0.302
	c1.28,0.302,3.914,0,5.117-0.676c2.033,0.225,3.011,0.225,3.613,1.579c0.601,1.355,1.429,2.484,1.429,2.484s1.657,7.075,6.773,7.827
	c2.108-0.075,5.193-0.527,4.215,3.763c-0.226,2.183-1.655,4.742,3.538,9.86c1.204,1.354,1.58,1.881,1.58,1.881l0.226,1.882
	c0,0,5.118,3.762,1.806,5.191c-1.054,0.829-3.312,1.43,0.753,3.689C149.715,239.758,152.198,244.749,152.198,244.749z"/>
<path fill="#D16536" stroke="#231F20" stroke-miterlimit="10" d="M55.567,241.389l-35.221-1.556l3.086-26.792
	c0,0,4.078-7.717,6.095-9.006c1.458-0.685,3.389-2.143,7,0.878c1.881,1.43,2.032,2.033,4.214,1.505
	c1.43,0.076,3.461,0.679,4.064,1.957c1.655,0.903,6.773,0.225,8.278-2.333c1.324-1.576,2.709-0.978,2.709-0.978
	s3.085,1.805,2.558,4.515c0.376,1.128,1.882,7.073,9.256,2.634c2.259-1.053,6.322-2.86,6.322-2.86s1.505-2.032,4.591,0.226
	c2.032,0.301,5.569,0.827,7.752-0.827c1.204,0.45,3.688,0.977,0.979,5.718c-1.204,1.205-4.366,1.732-0.828,3.763
	c0.526,0.752,1.28,2.033-0.828,3.387c-2.634,0.301-6.547,0-7.752,1.053c-1.58,0.151-2.634,0.377-3.536,0.078
	c-1.054,0.15-4.065,1.428-4.365,2.859c-0.828,1.277-2.86,3.912-3.387,3.612c-0.527,0.829,0.376,2.031-4.741,4.441
	C58.276,235.844,54.964,239.809,55.567,241.389z"/>
</svg>
